<?xml version="1.0" encoding="UTF-8" standalone="no"?>
<!-- This is a Stata 18.0 generated SVG file (http://www.stata.com) -->

<svg version="1.1" width="7.500in" height="4.500in" viewBox="0 0 5400 3240" xmlns="http://www.w3.org/2000/svg" xmlns:xlink="http://www.w3.org/1999/xlink">
	<desc>Stata Graph - Graph</desc>
	<rect x="0" y="0" width="5400" height="3240" style="fill:#FFFFFF;stroke:none"/>
	<rect x="0.00" y="0.00" width="5400.00" height="3240.00" style="fill:#FFFFFF"/>
	<rect x="3.24" y="3.24" width="5393.52" height="3233.52" style="fill:none;stroke:#FFFFFF;stroke-width:6.48"/>
	<rect x="531.56" y="113.40" width="1860.81" height="2653.26" style="fill:#FFFFFF"/>
	<rect x="534.80" y="116.64" width="1854.33" height="2646.78" style="fill:none;stroke:#FFFFFF;stroke-width:6.48"/>
	<line x1="531.56" y1="2573.44" x2="596.36" y2="2573.44" style="stroke:#F0F0F0;stroke-width:9.72"/>
	<line x1="628.76" y1="2573.44" x2="693.56" y2="2573.44" style="stroke:#F0F0F0;stroke-width:9.72"/>
	<line x1="725.96" y1="2573.44" x2="790.76" y2="2573.44" style="stroke:#F0F0F0;stroke-width:9.72"/>
	<line x1="823.16" y1="2573.44" x2="887.96" y2="2573.44" style="stroke:#F0F0F0;stroke-width:9.72"/>
	<line x1="920.36" y1="2573.44" x2="985.16" y2="2573.44" style="stroke:#F0F0F0;stroke-width:9.72"/>
	<line x1="1017.56" y1="2573.44" x2="1082.36" y2="2573.44" style="stroke:#F0F0F0;stroke-width:9.72"/>
	<line x1="1114.76" y1="2573.44" x2="1179.56" y2="2573.44" style="stroke:#F0F0F0;stroke-width:9.72"/>
	<line x1="1211.96" y1="2573.44" x2="1276.76" y2="2573.44" style="stroke:#F0F0F0;stroke-width:9.72"/>
	<line x1="1309.16" y1="2573.44" x2="1373.96" y2="2573.44" style="stroke:#F0F0F0;stroke-width:9.72"/>
	<line x1="1406.36" y1="2573.44" x2="1471.16" y2="2573.44" style="stroke:#F0F0F0;stroke-width:9.72"/>
	<line x1="1503.56" y1="2573.44" x2="1568.36" y2="2573.44" style="stroke:#F0F0F0;stroke-width:9.72"/>
	<line x1="1600.76" y1="2573.44" x2="1665.56" y2="2573.44" style="stroke:#F0F0F0;stroke-width:9.72"/>
	<line x1="1697.96" y1="2573.44" x2="1762.76" y2="2573.44" style="stroke:#F0F0F0;stroke-width:9.72"/>
	<line x1="1795.16" y1="2573.44" x2="1859.96" y2="2573.44" style="stroke:#F0F0F0;stroke-width:9.72"/>
	<line x1="1892.36" y1="2573.44" x2="1957.16" y2="2573.44" style="stroke:#F0F0F0;stroke-width:9.72"/>
	<line x1="1989.56" y1="2573.44" x2="2054.36" y2="2573.44" style="stroke:#F0F0F0;stroke-width:9.72"/>
	<line x1="2086.76" y1="2573.44" x2="2151.56" y2="2573.44" style="stroke:#F0F0F0;stroke-width:9.72"/>
	<line x1="2183.96" y1="2573.44" x2="2248.76" y2="2573.44" style="stroke:#F0F0F0;stroke-width:9.72"/>
	<line x1="2281.16" y1="2573.44" x2="2345.96" y2="2573.44" style="stroke:#F0F0F0;stroke-width:9.72"/>
	<line x1="2378.36" y1="2573.44" x2="2392.37" y2="2573.44" style="stroke:#F0F0F0;stroke-width:9.72"/>
	<line x1="531.56" y1="1827.90" x2="596.36" y2="1827.90" style="stroke:#F0F0F0;stroke-width:9.72"/>
	<line x1="628.76" y1="1827.90" x2="693.56" y2="1827.90" style="stroke:#F0F0F0;stroke-width:9.72"/>
	<line x1="725.96" y1="1827.90" x2="790.76" y2="1827.90" style="stroke:#F0F0F0;stroke-width:9.72"/>
	<line x1="823.16" y1="1827.90" x2="887.96" y2="1827.90" style="stroke:#F0F0F0;stroke-width:9.72"/>
	<line x1="920.36" y1="1827.90" x2="985.16" y2="1827.90" style="stroke:#F0F0F0;stroke-width:9.72"/>
	<line x1="1017.56" y1="1827.90" x2="1082.36" y2="1827.90" style="stroke:#F0F0F0;stroke-width:9.72"/>
	<line x1="1114.76" y1="1827.90" x2="1179.56" y2="1827.90" style="stroke:#F0F0F0;stroke-width:9.72"/>
	<line x1="1211.96" y1="1827.90" x2="1276.76" y2="1827.90" style="stroke:#F0F0F0;stroke-width:9.72"/>
	<line x1="1309.16" y1="1827.90" x2="1373.96" y2="1827.90" style="stroke:#F0F0F0;stroke-width:9.72"/>
	<line x1="1406.36" y1="1827.90" x2="1471.16" y2="1827.90" style="stroke:#F0F0F0;stroke-width:9.72"/>
	<line x1="1503.56" y1="1827.90" x2="1568.36" y2="1827.90" style="stroke:#F0F0F0;stroke-width:9.72"/>
	<line x1="1600.76" y1="1827.90" x2="1665.56" y2="1827.90" style="stroke:#F0F0F0;stroke-width:9.72"/>
	<line x1="1697.96" y1="1827.90" x2="1762.76" y2="1827.90" style="stroke:#F0F0F0;stroke-width:9.72"/>
	<line x1="1795.16" y1="1827.90" x2="1859.96" y2="1827.90" style="stroke:#F0F0F0;stroke-width:9.72"/>
	<line x1="1892.36" y1="1827.90" x2="1957.16" y2="1827.90" style="stroke:#F0F0F0;stroke-width:9.72"/>
	<line x1="1989.56" y1="1827.90" x2="2054.36" y2="1827.90" style="stroke:#F0F0F0;stroke-width:9.72"/>
	<line x1="2086.76" y1="1827.90" x2="2151.56" y2="1827.90" style="stroke:#F0F0F0;stroke-width:9.72"/>
	<line x1="2183.96" y1="1827.90" x2="2248.76" y2="1827.90" style="stroke:#F0F0F0;stroke-width:9.72"/>
	<line x1="2281.16" y1="1827.90" x2="2345.96" y2="1827.90" style="stroke:#F0F0F0;stroke-width:9.72"/>
	<line x1="2378.36" y1="1827.90" x2="2392.37" y2="1827.90" style="stroke:#F0F0F0;stroke-width:9.72"/>
	<line x1="531.56" y1="1082.53" x2="596.36" y2="1082.53" style="stroke:#F0F0F0;stroke-width:9.72"/>
	<line x1="628.76" y1="1082.53" x2="693.56" y2="1082.53" style="stroke:#F0F0F0;stroke-width:9.72"/>
	<line x1="725.96" y1="1082.53" x2="790.76" y2="1082.53" style="stroke:#F0F0F0;stroke-width:9.72"/>
	<line x1="823.16" y1="1082.53" x2="887.96" y2="1082.53" style="stroke:#F0F0F0;stroke-width:9.72"/>
	<line x1="920.36" y1="1082.53" x2="985.16" y2="1082.53" style="stroke:#F0F0F0;stroke-width:9.72"/>
	<line x1="1017.56" y1="1082.53" x2="1082.36" y2="1082.53" style="stroke:#F0F0F0;stroke-width:9.72"/>
	<line x1="1114.76" y1="1082.53" x2="1179.56" y2="1082.53" style="stroke:#F0F0F0;stroke-width:9.72"/>
	<line x1="1211.96" y1="1082.53" x2="1276.76" y2="1082.53" style="stroke:#F0F0F0;stroke-width:9.72"/>
	<line x1="1309.16" y1="1082.53" x2="1373.96" y2="1082.53" style="stroke:#F0F0F0;stroke-width:9.72"/>
	<line x1="1406.36" y1="1082.53" x2="1471.16" y2="1082.53" style="stroke:#F0F0F0;stroke-width:9.72"/>
	<line x1="1503.56" y1="1082.53" x2="1568.36" y2="1082.53" style="stroke:#F0F0F0;stroke-width:9.72"/>
	<line x1="1600.76" y1="1082.53" x2="1665.56" y2="1082.53" style="stroke:#F0F0F0;stroke-width:9.72"/>
	<line x1="1697.96" y1="1082.53" x2="1762.76" y2="1082.53" style="stroke:#F0F0F0;stroke-width:9.72"/>
	<line x1="1795.16" y1="1082.53" x2="1859.96" y2="1082.53" style="stroke:#F0F0F0;stroke-width:9.72"/>
	<line x1="1892.36" y1="1082.53" x2="1957.16" y2="1082.53" style="stroke:#F0F0F0;stroke-width:9.72"/>
	<line x1="1989.56" y1="1082.53" x2="2054.36" y2="1082.53" style="stroke:#F0F0F0;stroke-width:9.72"/>
	<line x1="2086.76" y1="1082.53" x2="2151.56" y2="1082.53" style="stroke:#F0F0F0;stroke-width:9.72"/>
	<line x1="2183.96" y1="1082.53" x2="2248.76" y2="1082.53" style="stroke:#F0F0F0;stroke-width:9.72"/>
	<line x1="2281.16" y1="1082.53" x2="2345.96" y2="1082.53" style="stroke:#F0F0F0;stroke-width:9.72"/>
	<line x1="2378.36" y1="1082.53" x2="2392.37" y2="1082.53" style="stroke:#F0F0F0;stroke-width:9.72"/>
	<line x1="531.56" y1="336.99" x2="596.36" y2="336.99" style="stroke:#F0F0F0;stroke-width:9.72"/>
	<line x1="628.76" y1="336.99" x2="693.56" y2="336.99" style="stroke:#F0F0F0;stroke-width:9.72"/>
	<line x1="725.96" y1="336.99" x2="790.76" y2="336.99" style="stroke:#F0F0F0;stroke-width:9.72"/>
	<line x1="823.16" y1="336.99" x2="887.96" y2="336.99" style="stroke:#F0F0F0;stroke-width:9.72"/>
	<line x1="920.36" y1="336.99" x2="985.16" y2="336.99" style="stroke:#F0F0F0;stroke-width:9.72"/>
	<line x1="1017.56" y1="336.99" x2="1082.36" y2="336.99" style="stroke:#F0F0F0;stroke-width:9.72"/>
	<line x1="1114.76" y1="336.99" x2="1179.56" y2="336.99" style="stroke:#F0F0F0;stroke-width:9.72"/>
	<line x1="1211.96" y1="336.99" x2="1276.76" y2="336.99" style="stroke:#F0F0F0;stroke-width:9.72"/>
	<line x1="1309.16" y1="336.99" x2="1373.96" y2="336.99" style="stroke:#F0F0F0;stroke-width:9.72"/>
	<line x1="1406.36" y1="336.99" x2="1471.16" y2="336.99" style="stroke:#F0F0F0;stroke-width:9.72"/>
	<line x1="1503.56" y1="336.99" x2="1568.36" y2="336.99" style="stroke:#F0F0F0;stroke-width:9.72"/>
	<line x1="1600.76" y1="336.99" x2="1665.56" y2="336.99" style="stroke:#F0F0F0;stroke-width:9.72"/>
	<line x1="1697.96" y1="336.99" x2="1762.76" y2="336.99" style="stroke:#F0F0F0;stroke-width:9.72"/>
	<line x1="1795.16" y1="336.99" x2="1859.96" y2="336.99" style="stroke:#F0F0F0;stroke-width:9.72"/>
	<line x1="1892.36" y1="336.99" x2="1957.16" y2="336.99" style="stroke:#F0F0F0;stroke-width:9.72"/>
	<line x1="1989.56" y1="336.99" x2="2054.36" y2="336.99" style="stroke:#F0F0F0;stroke-width:9.72"/>
	<line x1="2086.76" y1="336.99" x2="2151.56" y2="336.99" style="stroke:#F0F0F0;stroke-width:9.72"/>
	<line x1="2183.96" y1="336.99" x2="2248.76" y2="336.99" style="stroke:#F0F0F0;stroke-width:9.72"/>
	<line x1="2281.16" y1="336.99" x2="2345.96" y2="336.99" style="stroke:#F0F0F0;stroke-width:9.72"/>
	<line x1="2378.36" y1="336.99" x2="2392.37" y2="336.99" style="stroke:#F0F0F0;stroke-width:9.72"/>
	<line x1="602.78" y1="2766.66" x2="602.78" y2="2701.86" style="stroke:#F0F0F0;stroke-width:9.72"/>
	<line x1="602.78" y1="2669.46" x2="602.78" y2="2604.66" style="stroke:#F0F0F0;stroke-width:9.72"/>
	<line x1="602.78" y1="2572.26" x2="602.78" y2="2507.46" style="stroke:#F0F0F0;stroke-width:9.72"/>
	<line x1="602.78" y1="2475.06" x2="602.78" y2="2410.26" style="stroke:#F0F0F0;stroke-width:9.72"/>
	<line x1="602.78" y1="2377.86" x2="602.78" y2="2313.06" style="stroke:#F0F0F0;stroke-width:9.72"/>
	<line x1="602.78" y1="2280.66" x2="602.78" y2="2215.86" style="stroke:#F0F0F0;stroke-width:9.72"/>
	<line x1="602.78" y1="2183.46" x2="602.78" y2="2118.66" style="stroke:#F0F0F0;stroke-width:9.72"/>
	<line x1="602.78" y1="2086.26" x2="602.78" y2="2021.46" style="stroke:#F0F0F0;stroke-width:9.72"/>
	<line x1="602.78" y1="1989.06" x2="602.78" y2="1924.26" style="stroke:#F0F0F0;stroke-width:9.72"/>
	<line x1="602.78" y1="1891.86" x2="602.78" y2="1827.06" style="stroke:#F0F0F0;stroke-width:9.72"/>
	<line x1="602.78" y1="1794.66" x2="602.78" y2="1729.86" style="stroke:#F0F0F0;stroke-width:9.72"/>
	<line x1="602.78" y1="1697.46" x2="602.78" y2="1632.66" style="stroke:#F0F0F0;stroke-width:9.72"/>
	<line x1="602.78" y1="1600.26" x2="602.78" y2="1535.46" style="stroke:#F0F0F0;stroke-width:9.72"/>
	<line x1="602.78" y1="1503.06" x2="602.78" y2="1438.26" style="stroke:#F0F0F0;stroke-width:9.72"/>
	<line x1="602.78" y1="1405.86" x2="602.78" y2="1341.06" style="stroke:#F0F0F0;stroke-width:9.72"/>
	<line x1="602.78" y1="1308.66" x2="602.78" y2="1243.86" style="stroke:#F0F0F0;stroke-width:9.72"/>
	<line x1="602.78" y1="1211.46" x2="602.78" y2="1146.66" style="stroke:#F0F0F0;stroke-width:9.72"/>
	<line x1="602.78" y1="1114.26" x2="602.78" y2="1049.46" style="stroke:#F0F0F0;stroke-width:9.72"/>
	<line x1="602.78" y1="1017.06" x2="602.78" y2="952.26" style="stroke:#F0F0F0;stroke-width:9.72"/>
	<line x1="602.78" y1="919.86" x2="602.78" y2="855.06" style="stroke:#F0F0F0;stroke-width:9.72"/>
	<line x1="602.78" y1="822.66" x2="602.78" y2="757.86" style="stroke:#F0F0F0;stroke-width:9.72"/>
	<line x1="602.78" y1="725.46" x2="602.78" y2="660.66" style="stroke:#F0F0F0;stroke-width:9.72"/>
	<line x1="602.78" y1="628.26" x2="602.78" y2="563.46" style="stroke:#F0F0F0;stroke-width:9.72"/>
	<line x1="602.78" y1="531.06" x2="602.78" y2="466.26" style="stroke:#F0F0F0;stroke-width:9.72"/>
	<line x1="602.78" y1="433.86" x2="602.78" y2="369.06" style="stroke:#F0F0F0;stroke-width:9.72"/>
	<line x1="602.78" y1="336.66" x2="602.78" y2="271.86" style="stroke:#F0F0F0;stroke-width:9.72"/>
	<line x1="602.78" y1="239.46" x2="602.78" y2="174.66" style="stroke:#F0F0F0;stroke-width:9.72"/>
	<line x1="602.78" y1="142.26" x2="602.78" y2="113.40" style="stroke:#F0F0F0;stroke-width:9.72"/>
	<line x1="946.52" y1="2766.66" x2="946.52" y2="2701.86" style="stroke:#F0F0F0;stroke-width:9.72"/>
	<line x1="946.52" y1="2669.46" x2="946.52" y2="2604.66" style="stroke:#F0F0F0;stroke-width:9.72"/>
	<line x1="946.52" y1="2572.26" x2="946.52" y2="2507.46" style="stroke:#F0F0F0;stroke-width:9.72"/>
	<line x1="946.52" y1="2475.06" x2="946.52" y2="2410.26" style="stroke:#F0F0F0;stroke-width:9.72"/>
	<line x1="946.52" y1="2377.86" x2="946.52" y2="2313.06" style="stroke:#F0F0F0;stroke-width:9.72"/>
	<line x1="946.52" y1="2280.66" x2="946.52" y2="2215.86" style="stroke:#F0F0F0;stroke-width:9.72"/>
	<line x1="946.52" y1="2183.46" x2="946.52" y2="2118.66" style="stroke:#F0F0F0;stroke-width:9.72"/>
	<line x1="946.52" y1="2086.26" x2="946.52" y2="2021.46" style="stroke:#F0F0F0;stroke-width:9.72"/>
	<line x1="946.52" y1="1989.06" x2="946.52" y2="1924.26" style="stroke:#F0F0F0;stroke-width:9.72"/>
	<line x1="946.52" y1="1891.86" x2="946.52" y2="1827.06" style="stroke:#F0F0F0;stroke-width:9.72"/>
	<line x1="946.52" y1="1794.66" x2="946.52" y2="1729.86" style="stroke:#F0F0F0;stroke-width:9.72"/>
	<line x1="946.52" y1="1697.46" x2="946.52" y2="1632.66" style="stroke:#F0F0F0;stroke-width:9.72"/>
	<line x1="946.52" y1="1600.26" x2="946.52" y2="1535.46" style="stroke:#F0F0F0;stroke-width:9.72"/>
	<line x1="946.52" y1="1503.06" x2="946.52" y2="1438.26" style="stroke:#F0F0F0;stroke-width:9.72"/>
	<line x1="946.52" y1="1405.86" x2="946.52" y2="1341.06" style="stroke:#F0F0F0;stroke-width:9.72"/>
	<line x1="946.52" y1="1308.66" x2="946.52" y2="1243.86" style="stroke:#F0F0F0;stroke-width:9.72"/>
	<line x1="946.52" y1="1211.46" x2="946.52" y2="1146.66" style="stroke:#F0F0F0;stroke-width:9.72"/>
	<line x1="946.52" y1="1114.26" x2="946.52" y2="1049.46" style="stroke:#F0F0F0;stroke-width:9.72"/>
	<line x1="946.52" y1="1017.06" x2="946.52" y2="952.26" style="stroke:#F0F0F0;stroke-width:9.72"/>
	<line x1="946.52" y1="919.86" x2="946.52" y2="855.06" style="stroke:#F0F0F0;stroke-width:9.72"/>
	<line x1="946.52" y1="822.66" x2="946.52" y2="757.86" style="stroke:#F0F0F0;stroke-width:9.72"/>
	<line x1="946.52" y1="725.46" x2="946.52" y2="660.66" style="stroke:#F0F0F0;stroke-width:9.72"/>
	<line x1="946.52" y1="628.26" x2="946.52" y2="563.46" style="stroke:#F0F0F0;stroke-width:9.72"/>
	<line x1="946.52" y1="531.06" x2="946.52" y2="466.26" style="stroke:#F0F0F0;stroke-width:9.72"/>
	<line x1="946.52" y1="433.86" x2="946.52" y2="369.06" style="stroke:#F0F0F0;stroke-width:9.72"/>
	<line x1="946.52" y1="336.66" x2="946.52" y2="271.86" style="stroke:#F0F0F0;stroke-width:9.72"/>
	<line x1="946.52" y1="239.46" x2="946.52" y2="174.66" style="stroke:#F0F0F0;stroke-width:9.72"/>
	<line x1="946.52" y1="142.26" x2="946.52" y2="113.40" style="stroke:#F0F0F0;stroke-width:9.72"/>
	<line x1="1290.09" y1="2766.66" x2="1290.09" y2="2701.86" style="stroke:#F0F0F0;stroke-width:9.72"/>
	<line x1="1290.09" y1="2669.46" x2="1290.09" y2="2604.66" style="stroke:#F0F0F0;stroke-width:9.72"/>
	<line x1="1290.09" y1="2572.26" x2="1290.09" y2="2507.46" style="stroke:#F0F0F0;stroke-width:9.72"/>
	<line x1="1290.09" y1="2475.06" x2="1290.09" y2="2410.26" style="stroke:#F0F0F0;stroke-width:9.72"/>
	<line x1="1290.09" y1="2377.86" x2="1290.09" y2="2313.06" style="stroke:#F0F0F0;stroke-width:9.72"/>
	<line x1="1290.09" y1="2280.66" x2="1290.09" y2="2215.86" style="stroke:#F0F0F0;stroke-width:9.72"/>
	<line x1="1290.09" y1="2183.46" x2="1290.09" y2="2118.66" style="stroke:#F0F0F0;stroke-width:9.72"/>
	<line x1="1290.09" y1="2086.26" x2="1290.09" y2="2021.46" style="stroke:#F0F0F0;stroke-width:9.72"/>
	<line x1="1290.09" y1="1989.06" x2="1290.09" y2="1924.26" style="stroke:#F0F0F0;stroke-width:9.72"/>
	<line x1="1290.09" y1="1891.86" x2="1290.09" y2="1827.06" style="stroke:#F0F0F0;stroke-width:9.72"/>
	<line x1="1290.09" y1="1794.66" x2="1290.09" y2="1729.86" style="stroke:#F0F0F0;stroke-width:9.72"/>
	<line x1="1290.09" y1="1697.46" x2="1290.09" y2="1632.66" style="stroke:#F0F0F0;stroke-width:9.72"/>
	<line x1="1290.09" y1="1600.26" x2="1290.09" y2="1535.46" style="stroke:#F0F0F0;stroke-width:9.72"/>
	<line x1="1290.09" y1="1503.06" x2="1290.09" y2="1438.26" style="stroke:#F0F0F0;stroke-width:9.72"/>
	<line x1="1290.09" y1="1405.86" x2="1290.09" y2="1341.06" style="stroke:#F0F0F0;stroke-width:9.72"/>
	<line x1="1290.09" y1="1308.66" x2="1290.09" y2="1243.86" style="stroke:#F0F0F0;stroke-width:9.72"/>
	<line x1="1290.09" y1="1211.46" x2="1290.09" y2="1146.66" style="stroke:#F0F0F0;stroke-width:9.72"/>
	<line x1="1290.09" y1="1114.26" x2="1290.09" y2="1049.46" style="stroke:#F0F0F0;stroke-width:9.72"/>
	<line x1="1290.09" y1="1017.06" x2="1290.09" y2="952.26" style="stroke:#F0F0F0;stroke-width:9.72"/>
	<line x1="1290.09" y1="919.86" x2="1290.09" y2="855.06" style="stroke:#F0F0F0;stroke-width:9.72"/>
	<line x1="1290.09" y1="822.66" x2="1290.09" y2="757.86" style="stroke:#F0F0F0;stroke-width:9.72"/>
	<line x1="1290.09" y1="725.46" x2="1290.09" y2="660.66" style="stroke:#F0F0F0;stroke-width:9.72"/>
	<line x1="1290.09" y1="628.26" x2="1290.09" y2="563.46" style="stroke:#F0F0F0;stroke-width:9.72"/>
	<line x1="1290.09" y1="531.06" x2="1290.09" y2="466.26" style="stroke:#F0F0F0;stroke-width:9.72"/>
	<line x1="1290.09" y1="433.86" x2="1290.09" y2="369.06" style="stroke:#F0F0F0;stroke-width:9.72"/>
	<line x1="1290.09" y1="336.66" x2="1290.09" y2="271.86" style="stroke:#F0F0F0;stroke-width:9.72"/>
	<line x1="1290.09" y1="239.46" x2="1290.09" y2="174.66" style="stroke:#F0F0F0;stroke-width:9.72"/>
	<line x1="1290.09" y1="142.26" x2="1290.09" y2="113.40" style="stroke:#F0F0F0;stroke-width:9.72"/>
	<line x1="1633.84" y1="2766.66" x2="1633.84" y2="2701.86" style="stroke:#F0F0F0;stroke-width:9.72"/>
	<line x1="1633.84" y1="2669.46" x2="1633.84" y2="2604.66" style="stroke:#F0F0F0;stroke-width:9.72"/>
	<line x1="1633.84" y1="2572.26" x2="1633.84" y2="2507.46" style="stroke:#F0F0F0;stroke-width:9.72"/>
	<line x1="1633.84" y1="2475.06" x2="1633.84" y2="2410.26" style="stroke:#F0F0F0;stroke-width:9.72"/>
	<line x1="1633.84" y1="2377.86" x2="1633.84" y2="2313.06" style="stroke:#F0F0F0;stroke-width:9.72"/>
	<line x1="1633.84" y1="2280.66" x2="1633.84" y2="2215.86" style="stroke:#F0F0F0;stroke-width:9.72"/>
	<line x1="1633.84" y1="2183.46" x2="1633.84" y2="2118.66" style="stroke:#F0F0F0;stroke-width:9.72"/>
	<line x1="1633.84" y1="2086.26" x2="1633.84" y2="2021.46" style="stroke:#F0F0F0;stroke-width:9.72"/>
	<line x1="1633.84" y1="1989.06" x2="1633.84" y2="1924.26" style="stroke:#F0F0F0;stroke-width:9.72"/>
	<line x1="1633.84" y1="1891.86" x2="1633.84" y2="1827.06" style="stroke:#F0F0F0;stroke-width:9.72"/>
	<line x1="1633.84" y1="1794.66" x2="1633.84" y2="1729.86" style="stroke:#F0F0F0;stroke-width:9.72"/>
	<line x1="1633.84" y1="1697.46" x2="1633.84" y2="1632.66" style="stroke:#F0F0F0;stroke-width:9.72"/>
	<line x1="1633.84" y1="1600.26" x2="1633.84" y2="1535.46" style="stroke:#F0F0F0;stroke-width:9.72"/>
	<line x1="1633.84" y1="1503.06" x2="1633.84" y2="1438.26" style="stroke:#F0F0F0;stroke-width:9.72"/>
	<line x1="1633.84" y1="1405.86" x2="1633.84" y2="1341.06" style="stroke:#F0F0F0;stroke-width:9.72"/>
	<line x1="1633.84" y1="1308.66" x2="1633.84" y2="1243.86" style="stroke:#F0F0F0;stroke-width:9.72"/>
	<line x1="1633.84" y1="1211.46" x2="1633.84" y2="1146.66" style="stroke:#F0F0F0;stroke-width:9.72"/>
	<line x1="1633.84" y1="1114.26" x2="1633.84" y2="1049.46" style="stroke:#F0F0F0;stroke-width:9.72"/>
	<line x1="1633.84" y1="1017.06" x2="1633.84" y2="952.26" style="stroke:#F0F0F0;stroke-width:9.72"/>
	<line x1="1633.84" y1="919.86" x2="1633.84" y2="855.06" style="stroke:#F0F0F0;stroke-width:9.72"/>
	<line x1="1633.84" y1="822.66" x2="1633.84" y2="757.86" style="stroke:#F0F0F0;stroke-width:9.72"/>
	<line x1="1633.84" y1="725.46" x2="1633.84" y2="660.66" style="stroke:#F0F0F0;stroke-width:9.72"/>
	<line x1="1633.84" y1="628.26" x2="1633.84" y2="563.46" style="stroke:#F0F0F0;stroke-width:9.72"/>
	<line x1="1633.84" y1="531.06" x2="1633.84" y2="466.26" style="stroke:#F0F0F0;stroke-width:9.72"/>
	<line x1="1633.84" y1="433.86" x2="1633.84" y2="369.06" style="stroke:#F0F0F0;stroke-width:9.72"/>
	<line x1="1633.84" y1="336.66" x2="1633.84" y2="271.86" style="stroke:#F0F0F0;stroke-width:9.72"/>
	<line x1="1633.84" y1="239.46" x2="1633.84" y2="174.66" style="stroke:#F0F0F0;stroke-width:9.72"/>
	<line x1="1633.84" y1="142.26" x2="1633.84" y2="113.40" style="stroke:#F0F0F0;stroke-width:9.72"/>
	<line x1="1977.41" y1="2766.66" x2="1977.41" y2="2701.86" style="stroke:#F0F0F0;stroke-width:9.72"/>
	<line x1="1977.41" y1="2669.46" x2="1977.41" y2="2604.66" style="stroke:#F0F0F0;stroke-width:9.72"/>
	<line x1="1977.41" y1="2572.26" x2="1977.41" y2="2507.46" style="stroke:#F0F0F0;stroke-width:9.72"/>
	<line x1="1977.41" y1="2475.06" x2="1977.41" y2="2410.26" style="stroke:#F0F0F0;stroke-width:9.72"/>
	<line x1="1977.41" y1="2377.86" x2="1977.41" y2="2313.06" style="stroke:#F0F0F0;stroke-width:9.72"/>
	<line x1="1977.41" y1="2280.66" x2="1977.41" y2="2215.86" style="stroke:#F0F0F0;stroke-width:9.72"/>
	<line x1="1977.41" y1="2183.46" x2="1977.41" y2="2118.66" style="stroke:#F0F0F0;stroke-width:9.72"/>
	<line x1="1977.41" y1="2086.26" x2="1977.41" y2="2021.46" style="stroke:#F0F0F0;stroke-width:9.72"/>
	<line x1="1977.41" y1="1989.06" x2="1977.41" y2="1924.26" style="stroke:#F0F0F0;stroke-width:9.72"/>
	<line x1="1977.41" y1="1891.86" x2="1977.41" y2="1827.06" style="stroke:#F0F0F0;stroke-width:9.72"/>
	<line x1="1977.41" y1="1794.66" x2="1977.41" y2="1729.86" style="stroke:#F0F0F0;stroke-width:9.72"/>
	<line x1="1977.41" y1="1697.46" x2="1977.41" y2="1632.66" style="stroke:#F0F0F0;stroke-width:9.72"/>
	<line x1="1977.41" y1="1600.26" x2="1977.41" y2="1535.46" style="stroke:#F0F0F0;stroke-width:9.72"/>
	<line x1="1977.41" y1="1503.06" x2="1977.41" y2="1438.26" style="stroke:#F0F0F0;stroke-width:9.72"/>
	<line x1="1977.41" y1="1405.86" x2="1977.41" y2="1341.06" style="stroke:#F0F0F0;stroke-width:9.72"/>
	<line x1="1977.41" y1="1308.66" x2="1977.41" y2="1243.86" style="stroke:#F0F0F0;stroke-width:9.72"/>
	<line x1="1977.41" y1="1211.46" x2="1977.41" y2="1146.66" style="stroke:#F0F0F0;stroke-width:9.72"/>
	<line x1="1977.41" y1="1114.26" x2="1977.41" y2="1049.46" style="stroke:#F0F0F0;stroke-width:9.72"/>
	<line x1="1977.41" y1="1017.06" x2="1977.41" y2="952.26" style="stroke:#F0F0F0;stroke-width:9.72"/>
	<line x1="1977.41" y1="919.86" x2="1977.41" y2="855.06" style="stroke:#F0F0F0;stroke-width:9.72"/>
	<line x1="1977.41" y1="822.66" x2="1977.41" y2="757.86" style="stroke:#F0F0F0;stroke-width:9.72"/>
	<line x1="1977.41" y1="725.46" x2="1977.41" y2="660.66" style="stroke:#F0F0F0;stroke-width:9.72"/>
	<line x1="1977.41" y1="628.26" x2="1977.41" y2="563.46" style="stroke:#F0F0F0;stroke-width:9.72"/>
	<line x1="1977.41" y1="531.06" x2="1977.41" y2="466.26" style="stroke:#F0F0F0;stroke-width:9.72"/>
	<line x1="1977.41" y1="433.86" x2="1977.41" y2="369.06" style="stroke:#F0F0F0;stroke-width:9.72"/>
	<line x1="1977.41" y1="336.66" x2="1977.41" y2="271.86" style="stroke:#F0F0F0;stroke-width:9.72"/>
	<line x1="1977.41" y1="239.46" x2="1977.41" y2="174.66" style="stroke:#F0F0F0;stroke-width:9.72"/>
	<line x1="1977.41" y1="142.26" x2="1977.41" y2="113.40" style="stroke:#F0F0F0;stroke-width:9.72"/>
	<line x1="2321.16" y1="2766.66" x2="2321.16" y2="2701.86" style="stroke:#F0F0F0;stroke-width:9.72"/>
	<line x1="2321.16" y1="2669.46" x2="2321.16" y2="2604.66" style="stroke:#F0F0F0;stroke-width:9.72"/>
	<line x1="2321.16" y1="2572.26" x2="2321.16" y2="2507.46" style="stroke:#F0F0F0;stroke-width:9.72"/>
	<line x1="2321.16" y1="2475.06" x2="2321.16" y2="2410.26" style="stroke:#F0F0F0;stroke-width:9.72"/>
	<line x1="2321.16" y1="2377.86" x2="2321.16" y2="2313.06" style="stroke:#F0F0F0;stroke-width:9.72"/>
	<line x1="2321.16" y1="2280.66" x2="2321.16" y2="2215.86" style="stroke:#F0F0F0;stroke-width:9.72"/>
	<line x1="2321.16" y1="2183.46" x2="2321.16" y2="2118.66" style="stroke:#F0F0F0;stroke-width:9.72"/>
	<line x1="2321.16" y1="2086.26" x2="2321.16" y2="2021.46" style="stroke:#F0F0F0;stroke-width:9.72"/>
	<line x1="2321.16" y1="1989.06" x2="2321.16" y2="1924.26" style="stroke:#F0F0F0;stroke-width:9.72"/>
	<line x1="2321.16" y1="1891.86" x2="2321.16" y2="1827.06" style="stroke:#F0F0F0;stroke-width:9.72"/>
	<line x1="2321.16" y1="1794.66" x2="2321.16" y2="1729.86" style="stroke:#F0F0F0;stroke-width:9.72"/>
	<line x1="2321.16" y1="1697.46" x2="2321.16" y2="1632.66" style="stroke:#F0F0F0;stroke-width:9.72"/>
	<line x1="2321.16" y1="1600.26" x2="2321.16" y2="1535.46" style="stroke:#F0F0F0;stroke-width:9.72"/>
	<line x1="2321.16" y1="1503.06" x2="2321.16" y2="1438.26" style="stroke:#F0F0F0;stroke-width:9.72"/>
	<line x1="2321.16" y1="1405.86" x2="2321.16" y2="1341.06" style="stroke:#F0F0F0;stroke-width:9.72"/>
	<line x1="2321.16" y1="1308.66" x2="2321.16" y2="1243.86" style="stroke:#F0F0F0;stroke-width:9.72"/>
	<line x1="2321.16" y1="1211.46" x2="2321.16" y2="1146.66" style="stroke:#F0F0F0;stroke-width:9.72"/>
	<line x1="2321.16" y1="1114.26" x2="2321.16" y2="1049.46" style="stroke:#F0F0F0;stroke-width:9.72"/>
	<line x1="2321.16" y1="1017.06" x2="2321.16" y2="952.26" style="stroke:#F0F0F0;stroke-width:9.72"/>
	<line x1="2321.16" y1="919.86" x2="2321.16" y2="855.06" style="stroke:#F0F0F0;stroke-width:9.72"/>
	<line x1="2321.16" y1="822.66" x2="2321.16" y2="757.86" style="stroke:#F0F0F0;stroke-width:9.72"/>
	<line x1="2321.16" y1="725.46" x2="2321.16" y2="660.66" style="stroke:#F0F0F0;stroke-width:9.72"/>
	<line x1="2321.16" y1="628.26" x2="2321.16" y2="563.46" style="stroke:#F0F0F0;stroke-width:9.72"/>
	<line x1="2321.16" y1="531.06" x2="2321.16" y2="466.26" style="stroke:#F0F0F0;stroke-width:9.72"/>
	<line x1="2321.16" y1="433.86" x2="2321.16" y2="369.06" style="stroke:#F0F0F0;stroke-width:9.72"/>
	<line x1="2321.16" y1="336.66" x2="2321.16" y2="271.86" style="stroke:#F0F0F0;stroke-width:9.72"/>
	<line x1="2321.16" y1="239.46" x2="2321.16" y2="174.66" style="stroke:#F0F0F0;stroke-width:9.72"/>
	<line x1="2321.16" y1="142.26" x2="2321.16" y2="113.40" style="stroke:#F0F0F0;stroke-width:9.72"/>
	<path d=" M771.53 1837.35 L808.99 1867.05 L811.52 1846.29 L824.68 1876.33 L877.67 1854.06 L969.64 1885.61 L1030.39 1918.69 L1059.08 1887.81 L1078.48 1787.57 L1097.21 1821.66 L1132.82 1855.91 L1194.75 1830.94 L1246.56 1805.29 L1290.43 1835.49 L1365.19 1866.21 L1405.86 1832.29 L1407.88 1863.68 L1415.48 1836.00 L1423.07 1802.08 L1465.43 1840.05 L1524.83 1879.88 L1562.79 1850.34 L1583.89 1890.00 L1588.78 1931.85 L1600.93 1968.13 L1638.56 2005.43 L1678.89 1966.11 L1743.86 1926.79 L1807.65 1971.34 L1823.51 1830.60 L1831.95 1791.28 L1836.17 1651.73 L1871.78 1692.23 L1910.59 1735.59 L1922.57 1782.84 L1942.82 1742.85 L1973.87 1794.32 L1992.94 1605.49 L2014.54 1560.09 L2039.18 1623.38 L2058.58 1568.87 L2087.94 1638.73 L2116.29 1579.84 L2135.03 1525.33 L2153.42 1604.14 L2183.12 1538.33 L2224.80 1259.72 L2262.43 1353.71 L2275.76 1276.26 L2287.74 1388.64 L2310.02 1237.28" stroke-linejoin="round" style="fill:none;stroke:#000000;stroke-width:14.58"/>
	<path d=" M771.53 1304.61 L808.99 1326.88 L811.52 1305.62 L824.68 1328.06 L877.67 1305.11 L969.64 1328.40 L1030.39 1353.88 L1059.08 1320.98 L1078.48 1230.69 L1097.21 1257.02 L1132.82 1281.83 L1194.75 1255.84 L1246.56 1230.02 L1290.43 1248.92 L1365.19 1267.99 L1405.86 1231.54 L1407.88 1250.94 L1415.48 1222.09 L1423.07 1185.81 L1465.43 1212.97 L1524.83 1241.16 L1562.79 1211.79 L1583.89 1241.33 L1588.78 1270.52 L1600.93 1292.79 L1638.56 1315.58 L1678.89 1273.22 L1743.86 1231.03 L1807.65 1263.26 L1823.51 1134.84 L1831.95 1092.82 L1836.17 964.74 L1871.78 989.38 L1910.59 1015.71 L1922.57 1043.89 L1942.82 1000.69 L1973.87 1031.23 L1992.94 854.72 L2014.54 804.09 L2039.18 845.44 L2058.58 783.51 L2087.94 829.74 L2116.29 762.07 L2135.03 699.64 L2153.42 743.34 L2183.12 667.74 L2224.80 398.76 L2262.43 449.21 L2275.76 352.86 L2287.74 416.81 L2310.02 184.78" stroke-linejoin="round" style="fill:none;stroke:#A0A0A0;stroke-width:14.58"/>
	<path d=" M771.53 2369.93 L808.99 2407.05 L811.52 2386.97 L824.68 2424.43 L877.67 2403.17 L969.64 2442.99 L1030.39 2483.32 L1059.08 2454.47 L1078.48 2344.44 L1097.21 2386.29 L1132.82 2429.83 L1194.75 2406.04 L1246.56 2380.39 L1290.43 2421.90 L1365.19 2464.43 L1405.86 2433.04 L1407.88 2476.41 L1415.48 2450.08 L1423.07 2418.36 L1465.43 2467.13 L1524.83 2518.76 L1562.79 2488.89 L1583.89 2538.84 L1588.78 2593.01 L1600.93 2643.64 L1638.56 2695.44 L1678.89 2658.99 L1743.86 2622.54 L1807.65 2679.41 L1823.51 2526.36 L1831.95 2489.91 L1836.17 2338.71 L1871.78 2395.07 L1910.59 2455.65 L1922.57 2521.97 L1942.82 2484.84 L1973.87 2557.41 L1992.94 2356.26 L2014.54 2316.26 L2039.18 2401.31 L2058.58 2354.40 L2087.94 2447.72 L2116.29 2397.60 L2135.03 2350.86 L2153.42 2464.76 L2183.12 2409.07 L2224.80 2120.51 L2262.43 2258.21 L2275.76 2199.66 L2287.74 2360.48 L2310.02 2289.60" stroke-linejoin="round" style="fill:none;stroke:#A0A0A0;stroke-width:14.58"/>
	<line x1="531.56" y1="2766.66" x2="531.56" y2="113.40" style="stroke:#000000;stroke-width:6.48"/>
	<line x1="531.56" y1="2573.44" x2="486.51" y2="2573.44" style="stroke:#000000;stroke-width:6.48"/>
	<text x="464.06" y="2612.87" style="font-family:'Helvetica';font-size:112.56px;fill:#000000" text-anchor="end">-.3</text>
	<line x1="531.56" y1="1827.90" x2="486.51" y2="1827.90" style="stroke:#000000;stroke-width:6.48"/>
	<text x="464.06" y="1867.34" style="font-family:'Helvetica';font-size:112.56px;fill:#000000" text-anchor="end">-.2</text>
	<line x1="531.56" y1="1082.53" x2="486.51" y2="1082.53" style="stroke:#000000;stroke-width:6.48"/>
	<text x="464.06" y="1121.97" style="font-family:'Helvetica';font-size:112.56px;fill:#000000" text-anchor="end">-.1</text>
	<line x1="531.56" y1="336.99" x2="486.51" y2="336.99" style="stroke:#000000;stroke-width:6.48"/>
	<text x="464.06" y="376.43" style="font-family:'Helvetica';font-size:112.56px;fill:#000000" text-anchor="end">0</text>
	<text x="214.55" y="1439.94" style="font-family:'Helvetica';font-size:112.56px;fill:#000000" transform="rotate(-90 214.55,1439.94)" text-anchor="middle">Estimated causal effect</text>
	<line x1="531.56" y1="2766.66" x2="2392.37" y2="2766.66" style="stroke:#000000;stroke-width:6.48"/>
	<line x1="602.78" y1="2766.66" x2="602.78" y2="2811.54" style="stroke:#000000;stroke-width:6.48"/>
	<text x="602.78" y="2912.86" style="font-family:'Helvetica';font-size:112.56px;fill:#000000" text-anchor="middle">1.35</text>
	<line x1="946.52" y1="2766.66" x2="946.52" y2="2811.54" style="stroke:#000000;stroke-width:6.48"/>
	<text x="946.52" y="2912.86" style="font-family:'Helvetica';font-size:112.56px;fill:#000000" text-anchor="middle">1.355</text>
	<line x1="1290.09" y1="2766.66" x2="1290.09" y2="2811.54" style="stroke:#000000;stroke-width:6.48"/>
	<text x="1290.09" y="2912.86" style="font-family:'Helvetica';font-size:112.56px;fill:#000000" text-anchor="middle">1.36</text>
	<line x1="1633.84" y1="2766.66" x2="1633.84" y2="2811.54" style="stroke:#000000;stroke-width:6.48"/>
	<text x="1633.84" y="2912.86" style="font-family:'Helvetica';font-size:112.56px;fill:#000000" text-anchor="middle">1.365</text>
	<line x1="1977.41" y1="2766.66" x2="1977.41" y2="2811.54" style="stroke:#000000;stroke-width:6.48"/>
	<text x="1977.41" y="2912.86" style="font-family:'Helvetica';font-size:112.56px;fill:#000000" text-anchor="middle">1.37</text>
	<line x1="2321.16" y1="2766.66" x2="2321.16" y2="2811.54" style="stroke:#000000;stroke-width:6.48"/>
	<text x="2321.16" y="2912.86" style="font-family:'Helvetica';font-size:112.56px;fill:#000000" text-anchor="middle">1.375</text>
	<text x="1462.05" y="3070.31" style="font-family:'Helvetica';font-size:112.56px;fill:#000000" text-anchor="middle">Median of exposure in moving window</text>
	<rect x="2431.35" y="1335.15" width="2816.44" height="209.76" style="fill:#FFFFFF"/>
	<rect x="2434.59" y="1338.39" width="2809.96" height="203.28" style="fill:none;stroke:#FFFFFF;stroke-width:6.48"/>
	<line x1="2479.95" y1="1439.94" x2="2739.15" y2="1439.94" style="stroke:#000000;stroke-width:14.58"/>
	<line x1="4183.31" y1="1439.94" x2="4442.51" y2="1439.94" style="stroke:#A0A0A0;stroke-width:14.58"/>
	<text x="2806.65" y="1479.38" style="font-family:'Helvetica';font-size:112.56px;fill:#000000">Estimated causal effect</text>
	<text x="4510.01" y="1479.38" style="font-family:'Helvetica';font-size:112.56px;fill:#000000">95% CI limits</text>
</svg>
