<?xml version="1.0" encoding="UTF-8" standalone="no"?>
<!-- This is a Stata 17.0 generated SVG file (http://www.stata.com) -->

<svg version="1.1" width="5.500in" height="4.000in" viewBox="0 0 3960 2880" xmlns="http://www.w3.org/2000/svg" xmlns:xlink="http://www.w3.org/1999/xlink">
	<desc>Stata Graph - Graph</desc>
	<rect x="0" y="0" width="3960" height="2880" style="fill:#EAF2F3;stroke:none"/>
	<rect x="0.00" y="0.00" width="3959.88" height="2880.00" style="fill:#EAF2F3"/>
	<rect x="2.88" y="2.88" width="3954.12" height="2874.24" style="fill:none;stroke:#EAF2F3;stroke-width:5.76"/>
	<rect x="390.80" y="100.86" width="3468.22" height="2388.33" style="fill:#FFFFFF"/>
	<rect x="393.68" y="103.74" width="3462.46" height="2382.57" style="fill:none;stroke:#FFFFFF;stroke-width:5.76"/>
	<line x1="390.80" y1="2425.82" x2="3859.02" y2="2425.82" style="stroke:#EAF2F3;stroke-width:8.64"/>
	<line x1="390.80" y1="1891.08" x2="3859.02" y2="1891.08" style="stroke:#EAF2F3;stroke-width:8.64"/>
	<line x1="390.80" y1="1356.34" x2="3859.02" y2="1356.34" style="stroke:#EAF2F3;stroke-width:8.64"/>
	<line x1="390.80" y1="821.73" x2="3859.02" y2="821.73" style="stroke:#EAF2F3;stroke-width:8.64"/>
	<line x1="390.80" y1="286.99" x2="3859.02" y2="286.99" style="stroke:#EAF2F3;stroke-width:8.64"/>
	<path d=" M470.87 2425.95 L476.31 2425.95 L476.56 2425.95 L476.93 2425.95 L477.18 2425.95 L478.17 2425.95 L483.00 2425.95 L483.00 2425.95 L484.11 2425.95 L484.85 2425.95 L486.59 2425.95 L487.45 2425.95 L488.19 2425.95 L488.32 2425.95 L488.32 2425.95 L488.44 2425.95 L488.69 2425.95 L489.06 2425.95 L491.04 2425.95 L491.54 2425.95 L492.15 2425.95 L493.76 2425.95 L494.51 2425.95 L497.35 2425.95 L497.60 2425.95 L498.84 2425.95 L499.08 2425.95 L501.31 2425.95 L501.56 2425.95 L501.93 2425.95 L504.65 2425.95 L505.40 2425.95 L505.77 2425.95 L507.00 2425.95 L510.22 2425.95 L511.46 2425.95 L512.45 2425.95 L512.70 2425.95 L515.42 2425.95 L515.67 2425.95 L515.79 2425.95 L516.41 2425.95 L516.41 2425.95 L517.03 2425.95 L517.65 2425.95 L519.38 2425.95 L520.37 2425.95 L521.36 2425.95 L522.10 2425.95 L525.69 2425.95 L525.94 2425.95 L526.31 2425.95 L527.92 2425.95 L528.66 2425.95 L529.03 2425.95 L529.40 2425.95 L531.51 2425.95 L532.00 2425.95 L532.13 2425.95 L535.10 2425.95 L535.84 2425.95 L536.09 2425.95 L537.57 2425.95 L537.82 2425.95 L540.91 2425.95 L541.04 2425.95 L541.90 2425.95 L543.39 2425.95 L544.01 2425.95 L544.01 2425.95 L544.13 2425.95 L544.87 2425.95 L545.00 2425.95 L545.24 2425.95 L545.37 2425.95 L545.61 2425.95 L545.86 2425.95 L545.99 2425.95 L546.60 2425.95 L547.10 2425.95 L548.34 2425.95 L549.20 2425.95 L549.70 2425.95 L549.95 2425.95 L550.07 2425.95 L550.56 2425.95 L550.56 2425.95 L551.06 2425.95 L551.18 2425.95 L551.18 2425.95 L552.79 2425.95 L553.29 2425.95 L554.15 2425.95 L554.77 2425.95 L555.51 2425.95 L556.50 2425.95 L557.00 2425.95 L557.00 2425.95 L557.37 2425.95 L557.99 2425.95 L558.73 2425.95 L558.73 2425.95 L559.47 2425.95 L559.85 2425.95 L560.09 2425.95 L560.46 2425.95 L561.45 2425.95 L561.70 2425.95 L562.32 2425.95 L563.68 2425.95 L563.93 2425.95 L564.30 2425.95 L565.29 2425.95 L565.54 2425.95 L566.03 2425.95 L566.90 2425.95 L567.02 2425.95 L567.15 2425.95 L567.52 2425.95 L568.14 2425.95 L568.38 2425.95 L568.88 2425.95 L569.50 2425.95 L569.50 2425.95 L569.62 2425.95 L569.87 2425.95 L570.12 2425.95 L570.24 2425.95 L571.23 2425.95 L571.35 2425.95 L571.48 2425.95 L571.73 2425.95 L572.10 2425.95 L572.34 2425.95 L573.33 2425.95 L573.83 2425.95 L574.57 2425.95 L575.19 2425.95 L575.19 2425.95 L575.44 2425.95 L575.68 2425.95 L576.06 2425.95 L577.17 2425.95 L577.29 2425.95 L577.29 2425.95 L577.42 2425.95 L577.67 2425.95 L577.79 2425.95 L577.79 2425.95 L577.91 2425.95 L578.66 2425.95 L578.66 2425.95 L579.52 2425.95 L579.65 2425.95 L580.39 2425.95 L581.25 2425.95 L581.63 2425.95 L581.75 2425.95 L581.75 2425.95 L581.87 2425.95 L582.12 2425.95 L582.37 2425.95 L582.86 2425.95 L582.99 2425.95 L583.11 2425.95 L583.23 2425.95 L583.36 2425.95 L584.35 2425.95 L584.60 2425.95 L584.97 2425.95 L585.34 2425.95 L585.34 2425.95 L585.59 2425.95 L586.33 2425.95 L586.58 2425.95 L586.82 2425.95 L586.82 2425.95 L587.19 2425.95 L587.57 2425.95 L587.69 2425.95 L587.81 2425.95 L587.81 2425.95 L588.55 2425.95 L588.93 2425.95 L589.92 2425.95 L589.92 2425.95 L590.29 2425.95 L590.66 2425.95 L591.28 2425.95 L591.53 2425.95 L592.02 2425.95 L592.02 2425.95 L592.64 2425.95 L593.13 2425.95 L593.26 2425.95 L593.63 2425.95 L593.75 2425.95 L593.88 2425.95 L593.88 2425.95 L594.12 2425.95 L594.12 2425.95 L594.37 2425.95 L594.37 2425.95 L594.37 2425.95 L595.98 2425.95 L596.48 2425.95 L596.85 2425.95 L596.97 2425.95 L597.96 2425.95 L597.96 2425.95 L598.21 2425.95 L598.33 2425.95 L598.95 2425.95 L598.95 2425.95 L599.07 2425.95 L599.07 2425.95 L599.69 2425.95 L599.94 2425.95 L600.06 2425.95 L600.06 2425.95 L600.31 2425.95 L600.43 2425.95 L600.68 2425.95 L600.68 2425.95 L600.93 2425.95 L601.30 2425.95 L601.55 2425.95 L601.55 2425.95 L601.80 2425.95 L602.29 2425.95 L602.29 2425.95 L602.66 2425.95 L602.79 2425.95 L603.03 2425.95 L603.78 2425.95 L603.90 2425.95 L604.02 2425.95 L604.15 2425.95 L604.27 2425.95 L604.64 2425.95 L604.89 2425.95 L605.51 2425.95 L605.88 2425.95 L606.13 2425.95 L606.25 2425.95 L606.50 2425.95 L606.99 2425.95 L607.12 2425.95 L607.37 2425.95 L607.49 2425.95 L607.49 2425.95 L607.61 2425.95 L608.23 2425.95 L608.23 2425.95 L608.36 2425.95 L609.35 2425.95 L609.35 2425.95 L609.59 2425.95 L609.59 2425.95 L609.72 2425.95 L609.84 2425.95 L609.84 2425.95 L609.96 2425.95 L610.09 2425.95 L610.21 2425.95 L610.46 2425.95 L610.58 2425.95 L610.71 2425.95 L610.95 2425.95 L611.45 2425.95 L611.82 2425.95 L611.82 2425.95 L611.94 2425.95 L612.69 2425.95 L612.81 2425.95 L613.30 2425.95 L613.43 2425.95 L613.43 2425.95 L614.05 2425.95 L614.29 2425.95 L614.54 2425.95 L614.79 2425.95 L615.90 2425.95 L616.40 2425.95 L616.52 2425.95 L616.65 2425.95 L616.65 2425.95 L617.51 2425.95 L617.88 2425.95 L618.13 2425.95 L618.38 2425.95 L618.50 2425.95 L618.63 2425.95 L618.87 2425.95 L620.85 2425.95 L620.98 2425.95 L620.98 2425.95 L620.98 2425.95 L621.10 2425.95 L621.72 2425.95 L621.84 2425.95 L621.84 2425.95 L622.46 2425.95 L622.59 2425.95 L622.83 2425.95 L623.08 2425.95 L623.45 2425.95 L623.58 2425.95 L623.95 2425.95 L623.95 2425.95 L624.20 2425.95 L624.69 2425.95 L624.94 2425.95 L625.06 2425.95 L625.18 2425.95 L625.31 2425.95 L625.68 2425.95 L625.80 2425.95 L626.17 2425.95 L626.17 2425.95 L626.17 2425.95 L626.42 2425.95 L626.42 2425.95 L626.67 2425.95 L626.79 2425.95 L626.92 2425.95 L627.17 2425.95 L627.41 2425.95 L627.78 2425.95 L627.78 2425.95 L627.91 2425.95 L628.03 2425.95 L628.16 2425.95 L628.16 2425.95 L629.15 2425.95 L629.27 2425.95 L629.76 2425.95 L629.89 2425.95 L629.89 2425.95 L630.01 2425.95 L630.26 2425.95 L630.51 2425.95 L630.88 2425.95 L631.37 2425.95 L631.74 2425.95 L631.74 2425.95 L631.87 2425.95 L632.24 2425.95 L632.73 2425.95 L632.73 2425.95 L633.35 2425.95 L633.85 2425.95 L634.22 2425.95 L634.34 2425.95 L634.84 2425.95 L634.96 2425.95 L635.33 2425.95 L635.70 2425.95 L635.70 2425.95 L635.95 2425.95 L635.95 2425.95 L636.08 2425.95 L636.45 2425.95 L636.69 2425.95 L636.82 2425.95 L637.31 2425.95 L637.68 2425.95 L637.93 2425.95 L638.18 2425.95 L638.18 2425.95 L638.18 2425.95 L638.80 2425.95 L639.17 2425.95 L639.29 2425.95 L639.66 2425.95 L639.66 2425.95 L639.91 2425.95 L640.16 2425.95 L640.28 2425.95 L640.53 2425.95 L640.90 2425.95 L642.39 2425.95 L642.63 2425.95 L642.88 2425.95 L644.37 2425.95 L644.49 2425.95 L644.74 2425.95 L644.74 2425.95 L644.86 2425.95 L644.99 2425.95 L645.73 2425.95 L645.98 2425.95 L646.10 2425.95 L646.22 2425.95 L646.47 2425.95 L646.47 2425.95 L646.72 2425.95 L646.72 2425.95 L647.58 2425.95 L647.96 2425.95 L648.08 2425.95 L648.08 2425.95 L648.20 2425.95 L648.33 2425.95 L648.45 2425.95 L650.06 2425.95 L650.55 2425.95 L650.68 2425.95 L650.80 2425.95 L651.05 2425.95 L651.17 2425.95 L651.30 2425.95 L651.30 2425.95 L651.42 2425.95 L651.42 2425.95 L651.54 2425.95 L652.16 2425.95 L653.03 2425.95 L653.15 2425.95 L653.40 2425.95 L653.52 2425.95 L653.52 2425.95 L653.52 2425.95 L653.77 2425.95 L654.27 2425.95 L654.76 2425.95 L654.89 2425.95 L655.26 2425.95 L655.50 2425.95 L655.63 2425.95 L655.63 2425.95 L655.88 2425.95 L656.00 2425.95 L656.25 2425.95 L656.25 2425.95 L656.49 2425.95 L656.62 2425.95 L656.74 2425.95 L656.87 2425.95 L657.36 2425.95 L657.73 2425.95 L657.73 2425.95 L657.73 2425.95 L657.73 2425.95 L658.23 2425.95 L658.23 2425.95 L658.35 2425.95 L658.97 2425.95 L658.97 2425.95 L659.09 2425.95 L659.34 2425.95 L660.33 2425.95 L660.95 2425.95 L661.20 2425.95 L661.20 2425.95 L661.57 2425.95 L661.94 2425.95 L662.31 2425.95 L662.31 2425.95 L662.43 2425.95 L662.43 2425.95 L662.68 2425.95 L662.68 2425.95 L662.93 2425.95 L663.05 2425.95 L663.05 2425.95 L663.18 2425.95 L663.80 2425.95 L664.17 2425.95 L664.79 2425.95 L664.79 2425.95 L664.91 2425.95 L665.28 2425.95 L665.53 2425.95 L665.53 2425.95 L665.65 2425.95 L665.78 2425.95 L666.02 2425.95 L666.02 2425.95 L666.02 2425.95 L666.15 2425.95 L666.39 2425.95 L666.77 2425.95 L666.89 2425.95 L666.89 2425.95 L667.14 2425.95 L667.51 2425.95 L667.63 2425.95 L667.63 2425.95 L668.00 2425.95 L668.13 2425.95 L668.25 2425.95 L668.25 2425.95 L668.50 2425.95 L668.75 2425.95 L668.75 2425.95 L668.99 2425.95 L668.99 2425.95 L669.24 2425.95 L669.24 2425.95 L669.49 2425.95 L669.61 2425.95 L669.61 2425.95 L669.86 2425.95 L669.98 2425.95 L670.60 2425.95 L670.60 2425.95 L670.85 2425.95 L670.85 2425.95 L670.85 2425.95 L670.85 2425.95 L670.85 2425.95 L670.85 2425.95 L671.22 2425.95 L671.22 2425.95 L671.47 2425.95 L671.84 2425.95 L672.21 2425.95 L672.83 2425.95 L673.20 2425.95 L673.32 2425.95 L673.32 2425.95 L673.70 2425.95 L673.82 2425.95 L673.82 2425.95 L673.94 2425.95 L673.94 2425.95 L674.07 2425.95 L674.19 2425.95 L674.31 2425.95 L674.44 2425.95 L674.56 2425.95 L674.56 2425.95 L675.06 2425.95 L675.06 2425.95 L675.18 2425.95 L675.43 2425.95 L675.68 2425.95 L675.68 2425.95 L675.80 2425.95 L676.05 2425.95 L676.05 2425.95 L676.05 2425.95 L676.17 2425.95 L676.29 2425.95 L676.42 2425.95 L676.42 2425.95 L676.42 2425.95 L676.54 2425.95 L676.79 2425.95 L676.79 2425.95 L677.28 2425.95 L677.28 2425.95 L677.53 2425.95 L677.66 2425.95 L677.78 2425.95 L677.90 2425.95 L678.27 2425.95 L678.52 2425.95 L678.89 2425.95 L679.02 2425.95 L679.14 2425.95 L679.14 2425.95 L679.14 2425.95 L679.51 2425.95 L679.76 2425.95 L680.01 2425.95 L680.13 2425.95 L680.38 2425.95 L680.50 2425.95 L680.63 2425.95 L680.87 2425.95 L681.00 2425.95 L681.12 2425.95 L681.49 2425.95 L681.49 2425.95 L682.48 2425.95 L682.48 2425.95 L682.61 2425.95 L682.73 2425.95 L682.85 2425.95 L682.98 2425.95 L683.10 2425.95 L683.22 2425.95 L683.35 2425.95 L683.47 2425.95 L683.60 2425.95 L683.60 2425.95 L683.72 2425.95 L683.72 2425.95 L684.34 2425.95 L684.34 2425.95 L684.34 2425.95 L684.34 2425.95 L684.34 2425.95 L684.46 2425.95 L684.59 2425.95 L684.83 2425.95 L684.96 2425.95 L684.96 2425.95 L685.08 2425.95 L685.20 2425.95 L685.45 2425.95 L685.58 2425.95 L686.07 2425.95 L686.19 2425.95 L686.32 2425.95 L686.32 2425.95 L686.44 2425.95 L686.44 2425.95 L686.57 2425.95 L686.57 2425.95 L686.94 2425.95 L687.06 2425.95 L687.31 2425.95 L687.68 2425.95 L687.80 2425.95 L687.80 2425.95 L687.93 2425.95 L688.79 2425.95 L688.92 2425.95 L688.92 2425.95 L689.16 2425.95 L689.41 2425.95 L689.66 2425.95 L689.78 2425.95 L690.03 2425.95 L690.03 2425.95 L690.28 2425.95 L690.40 2425.95 L690.65 2425.95 L690.77 2425.95 L690.90 2425.95 L690.90 2425.95 L690.90 2425.95 L691.02 2425.95 L691.02 2425.95 L691.27 2425.95 L691.52 2425.95 L691.52 2425.95 L691.64 2425.95 L691.89 2425.95 L692.01 2425.95 L692.01 2425.95 L692.13 2425.95 L693.25 2425.95 L693.25 2425.95 L693.37 2425.95 L693.50 2425.95 L693.62 2425.95 L693.74 2425.95 L694.73 2425.95 L694.86 2425.95 L695.72 2425.95 L696.09 2425.95 L696.47 2425.95 L696.47 2425.95 L696.71 2425.95 L697.58 2425.95 L697.95 2425.95 L698.07 2425.95 L698.20 2425.95 L698.20 2425.95 L698.20 2425.95 L698.32 2425.95 L698.69 2425.95 L698.69 2425.95 L699.06 2425.95 L699.93 2425.95 L700.18 2425.95 L700.43 2425.95 L700.80 2425.95 L700.80 2425.95 L700.80 2425.95 L701.04 2425.95 L701.04 2425.95 L701.17 2425.95 L701.66 2425.95 L701.66 2425.95 L702.03 2425.95 L702.28 2425.95 L702.53 2425.95 L702.65 2425.95 L703.02 2425.95 L703.15 2425.95 L703.27 2425.95 L703.77 2425.95 L703.89 2425.95 L704.01 2425.95 L704.14 2425.95 L704.14 2425.95 L704.26 2425.95 L704.26 2425.95 L704.51 2425.95 L704.51 2425.95 L704.63 2425.95 L704.88 2425.95 L705.00 2425.95 L705.00 2425.95 L705.25 2425.95 L705.87 2425.95 L705.87 2425.95 L706.24 2425.95 L706.74 2425.95 L706.74 2425.95 L707.60 2425.95 L707.60 2425.95 L707.73 2425.95 L707.73 2425.95 L707.97 2425.95 L708.10 2425.95 L708.10 2425.95 L708.22 2425.95 L708.47 2425.95 L708.47 2425.95 L708.59 2425.95 L708.84 2425.95 L708.96 2425.95 L709.09 2425.95 L709.21 2425.95 L709.34 2425.95 L709.58 2425.95 L709.58 2425.95 L709.58 2425.95 L709.95 2425.95 L709.95 2425.95 L710.08 2425.95 L710.33 2425.95 L710.33 2425.95 L710.45 2425.95 L710.45 2425.95 L710.57 2425.95 L710.57 2425.95 L711.07 2425.95 L711.07 2425.95 L711.19 2425.95 L711.32 2425.95 L711.44 2425.95 L711.44 2425.95 L711.69 2425.95 L712.06 2425.95 L712.31 2425.95 L712.55 2425.95 L712.68 2425.95 L712.80 2425.95 L712.92 2425.95 L713.17 2425.95 L713.42 2425.95 L713.42 2425.95 L713.54 2425.95 L713.67 2425.95 L714.16 2425.95 L714.53 2425.95 L714.66 2425.95 L714.78 2425.95 L714.90 2425.95 L715.03 2425.95 L715.03 2425.95 L715.15 2425.95 L715.28 2425.95 L715.40 2425.95 L715.40 2425.95 L715.52 2425.95 L715.52 2425.95 L715.52 2425.95 L715.77 2425.95 L715.89 2425.95 L716.02 2425.95 L716.27 2425.95 L716.27 2425.95 L716.27 2425.95 L716.39 2425.95 L716.39 2425.95 L716.51 2425.95 L716.76 2425.95 L717.01 2425.95 L717.01 2425.95 L717.13 2425.95 L717.13 2425.95 L717.26 2425.95 L717.38 2425.95 L717.50 2425.95 L717.63 2425.95 L717.63 2425.95 L718.00 2425.95 L718.00 2425.95 L718.12 2425.95 L718.12 2425.95 L718.25 2425.95 L718.25 2425.95 L718.62 2425.95 L718.86 2425.95 L718.99 2425.95 L718.99 2425.95 L719.11 2425.95 L719.11 2425.95 L719.61 2425.95 L719.73 2425.95 L719.73 2425.95 L719.98 2425.95 L720.10 2425.95 L720.35 2425.95 L720.72 2425.95 L720.72 2425.95 L720.84 2425.95 L721.09 2425.95 L721.09 2425.95 L721.22 2425.95 L721.22 2425.95 L721.46 2425.95 L721.46 2425.95 L721.59 2425.95 L721.71 2425.95 L721.83 2425.95 L722.58 2425.95 L722.70 2425.95 L722.70 2425.95 L722.82 2425.95 L723.07 2425.95 L723.07 2425.95 L723.20 2425.95 L723.20 2425.95 L723.32 2425.95 L723.44 2425.95 L723.57 2425.95 L724.19 2425.95 L724.80 2425.95 L724.80 2425.95 L725.18 2425.95 L725.30 2425.95 L725.42 2425.95 L725.55 2425.95 L725.55 2425.95 L725.79 2425.95 L725.79 2425.95 L725.92 2425.95 L726.41 2425.95 L726.54 2425.95 L726.54 2425.95 L726.54 2425.95 L726.54 2425.95 L726.66 2425.95 L726.66 2425.95 L726.78 2425.95 L726.91 2425.95 L727.03 2425.95 L727.03 2425.95 L727.03 2425.95 L727.16 2425.95 L727.28 2425.95 L727.53 2425.95 L727.53 2425.95 L727.65 2425.95 L727.77 2425.95 L728.02 2425.95 L728.15 2425.95 L728.15 2425.95 L728.76 2425.95 L729.14 2425.95 L729.26 2425.95 L729.26 2425.95 L729.38 2425.95 L729.38 2425.95 L729.38 2425.95 L729.63 2425.95 L729.63 2425.95 L729.88 2425.95 L729.88 2425.95 L730.50 2425.95 L730.50 2425.95 L730.99 2425.95 L730.99 2425.95 L731.12 2425.95 L731.12 2425.95 L731.36 2425.95 L731.36 2425.95 L731.49 2425.95 L731.49 2425.95 L731.73 2425.95 L731.73 2425.95 L731.98 2425.95 L731.98 2425.95 L732.11 2425.95 L732.11 2425.95 L732.35 2425.95 L732.97 2425.95 L733.22 2425.95 L733.22 2425.95 L733.34 2425.95 L733.47 2425.95 L733.47 2425.95 L733.59 2425.95 L733.71 2425.95 L733.84 2425.95 L733.84 2425.95 L733.96 2425.95 L734.09 2425.95 L734.09 2425.95 L734.09 2425.95 L734.21 2425.95 L734.58 2425.95 L734.58 2425.95 L734.70 2425.95 L734.83 2425.95 L734.95 2425.95 L735.20 2425.95 L735.32 2425.95 L735.32 2425.95 L735.45 2425.95 L735.45 2425.95 L735.57 2425.95 L735.69 2425.95 L735.69 2425.95 L735.94 2425.95 L735.94 2425.95 L736.07 2425.95 L736.07 2425.95 L736.68 2425.95 L736.81 2425.95 L737.18 2425.95 L737.43 2425.95 L737.43 2425.95 L737.43 2425.95 L738.05 2425.95 L738.17 2425.95 L738.29 2425.95 L738.29 2425.95 L738.42 2425.95 L738.54 2425.95 L738.54 2425.95 L738.66 2425.95 L738.66 2425.95 L738.79 2425.95 L738.79 2425.95 L738.91 2425.95 L739.28 2425.95 L739.41 2425.95 L739.41 2425.95 L739.53 2425.95 L739.65 2425.95 L739.65 2425.95 L739.78 2425.95 L740.03 2425.95 L740.03 2425.95 L740.15 2425.95 L740.15 2425.95 L740.27 2425.95 L740.27 2425.95 L740.52 2425.95 L740.52 2425.95 L740.77 2425.95 L740.89 2425.95 L741.14 2425.95 L741.26 2425.95 L741.39 2425.95 L741.51 2425.95 L741.51 2425.95 L741.51 2425.95 L741.51 2425.95 L741.76 2425.95 L742.01 2425.95 L742.13 2425.95 L742.13 2425.95 L742.13 2425.95 L742.13 2425.95 L742.38 2425.95 L742.50 2425.95 L742.62 2425.95 L742.75 2425.95 L742.87 2425.95 L743.74 2425.95 L743.74 2425.95 L743.86 2425.95 L743.86 2425.95 L744.11 2425.95 L744.85 2425.95 L744.85 2425.95 L744.98 2425.95 L745.10 2425.95 L745.10 2425.95 L745.35 2425.95 L745.47 2425.95 L745.47 2425.95 L745.59 2425.95 L745.72 2425.95 L745.97 2425.95 L746.09 2425.95 L746.46 2425.95 L746.96 2425.95 L747.08 2425.95 L747.08 2425.95 L747.33 2425.95 L747.33 2425.95 L747.33 2425.95 L747.45 2425.95 L747.45 2425.95 L747.45 2425.95 L747.57 2425.95 L747.57 2425.95 L747.95 2425.95 L748.44 2425.95 L748.56 2425.95 L748.56 2425.95 L748.69 2425.95 L748.69 2425.95 L748.69 2425.95 L749.18 2425.95 L749.18 2425.95 L749.43 2425.95 L749.55 2425.95 L749.55 2425.95 L749.68 2425.95 L749.68 2425.95 L749.80 2425.95 L749.80 2425.95 L749.80 2425.95 L749.93 2425.95 L750.05 2425.95 L750.05 2425.95 L750.42 2425.95 L750.42 2425.95 L750.67 2425.95 L750.67 2425.95 L751.16 2425.95 L751.41 2425.95 L751.41 2425.95 L751.66 2425.95 L751.78 2425.95 L751.78 2425.95 L751.91 2425.95 L752.03 2425.95 L752.15 2425.95 L753.02 2425.95 L753.14 2425.95 L753.27 2425.95 L753.27 2425.95 L753.27 2425.95 L753.39 2425.95 L754.01 2425.95 L754.01 2425.95 L754.01 2425.95 L754.13 2425.95 L754.13 2425.95 L754.50 2425.95 L754.50 2425.95 L754.50 2425.95 L754.88 2425.95 L755.00 2425.95 L755.25 2425.95 L755.37 2425.95 L755.74 2425.95 L755.74 2425.95 L755.99 2425.95 L756.24 2425.95 L756.36 2425.95 L756.36 2425.95 L756.73 2425.95 L756.73 2425.95 L756.73 2425.95 L756.86 2425.95 L756.86 2425.95 L756.86 2425.95 L756.98 2425.95 L757.23 2425.95 L757.72 2425.95 L758.34 2425.95 L758.46 2425.95 L758.46 2425.95 L758.84 2425.95 L758.84 2425.95 L758.84 2425.95 L758.96 2425.95 L758.96 2425.95 L759.58 2425.95 L759.95 2425.95 L759.95 2425.95 L760.07 2425.95 L760.07 2425.95 L760.20 2425.95 L760.57 2425.95 L760.69 2425.95 L761.19 2425.95 L761.56 2425.95 L761.68 2425.95 L761.68 2425.95 L761.93 2425.95 L762.05 2425.95 L762.05 2425.95 L762.05 2425.95 L762.05 2425.95 L762.18 2425.95 L762.30 2425.95 L762.42 2425.95 L762.55 2425.95 L762.67 2425.95 L763.41 2425.95 L763.54 2425.95 L763.54 2425.95 L763.91 2425.95 L763.91 2425.95 L764.03 2425.95 L764.03 2425.95 L764.16 2425.95 L764.65 2425.95 L765.15 2425.95 L765.15 2425.95 L765.27 2425.95 L765.39 2425.95 L765.52 2425.95 L765.52 2425.95 L765.64 2425.95 L765.77 2425.95 L765.77 2425.95 L765.89 2425.95 L766.38 2425.95 L766.51 2425.95 L766.63 2425.95 L766.76 2425.95 L766.88 2425.95 L766.88 2425.95 L766.88 2425.95 L767.00 2425.95 L767.25 2425.95 L767.25 2425.95 L767.50 2425.95 L767.62 2425.95 L767.62 2425.95 L767.62 2425.95 L767.62 2425.95 L767.87 2425.95 L767.99 2425.95 L767.99 2425.95 L768.12 2425.95 L768.12 2425.95 L768.24 2425.95 L768.36 2425.95 L768.36 2425.95 L768.49 2425.95 L768.61 2425.95 L768.86 2425.95 L769.85 2425.95 L769.85 2425.95 L770.10 2425.95 L770.22 2425.95 L770.22 2425.95 L770.22 2425.95 L770.22 2425.95 L770.96 2425.95 L771.09 2425.95 L771.33 2425.95 L771.46 2425.95 L771.46 2425.95 L771.58 2425.95 L771.58 2425.95 L771.71 2425.95 L771.83 2425.95 L772.08 2425.95 L772.32 2425.95 L772.45 2425.95 L772.45 2425.95 L772.70 2425.95 L772.82 2425.95 L772.82 2425.95 L772.94 2425.95 L773.31 2425.95 L773.31 2425.95 L773.56 2425.95 L773.56 2425.95 L773.56 2425.95 L773.81 2425.95 L773.81 2425.95 L773.93 2425.95 L774.30 2425.95 L774.43 2425.95 L774.55 2425.95 L774.68 2425.95 L774.68 2425.95 L775.05 2425.95 L775.67 2425.95 L776.16 2425.95 L776.16 2425.95 L776.28 2425.95 L776.66 2425.95 L777.03 2425.95 L777.03 2425.95 L777.27 2425.95 L777.65 2425.95 L777.65 2425.95 L778.26 2425.95 L778.26 2425.95 L778.26 2425.95 L778.26 2425.95 L778.39 2425.95 L778.51 2425.95 L778.51 2425.95 L778.51 2425.95 L778.51 2425.95 L778.64 2425.95 L778.88 2425.95 L778.88 2425.95 L778.88 2425.95 L779.01 2425.95 L779.13 2425.95 L779.25 2425.95 L779.25 2425.95 L779.38 2425.95 L779.50 2425.95 L779.50 2425.95 L779.50 2425.95 L779.87 2425.95 L780.00 2425.95 L780.12 2425.95 L780.24 2425.95 L780.37 2425.95 L780.49 2425.95 L780.49 2425.95 L780.62 2425.95 L780.74 2425.95 L780.99 2425.95 L781.23 2425.95 L781.23 2425.95 L781.36 2425.95 L781.36 2425.95 L781.48 2425.95 L781.48 2425.95 L781.61 2425.95 L781.85 2425.95 L781.98 2425.95 L782.72 2425.95 L782.72 2425.95 L782.97 2425.95 L783.09 2425.95 L783.09 2425.95 L783.21 2425.95 L783.21 2425.95 L783.46 2425.95 L783.59 2425.95 L783.71 2425.95 L783.83 2425.95 L783.96 2425.95 L783.96 2425.95 L784.33 2425.95 L784.45 2425.95 L784.45 2425.95 L784.82 2425.95 L784.82 2425.95 L784.95 2425.95 L784.95 2425.95 L785.07 2425.95 L785.07 2425.95 L785.19 2425.95 L785.19 2425.95 L785.19 2425.95 L785.32 2425.95 L785.44 2425.95 L785.57 2425.95 L785.57 2425.95 L785.69 2425.95 L785.69 2425.95 L785.81 2425.95 L785.94 2425.95 L786.31 2425.95 L786.43 2425.95 L786.56 2425.95 L786.56 2425.95 L786.56 2425.95 L786.68 2425.95 L786.80 2425.95 L786.93 2425.95 L786.93 2425.95 L787.17 2425.95 L787.55 2425.95 L787.67 2425.95 L787.92 2425.95 L787.92 2425.95 L788.04 2425.95 L788.04 2425.95 L788.29 2425.95 L788.41 2425.95 L788.41 2425.95 L788.41 2425.95 L788.78 2425.95 L788.78 2425.95 L788.91 2425.95 L789.15 2425.95 L789.28 2425.95 L789.28 2425.95 L789.40 2425.95 L789.65 2425.95 L789.65 2425.95 L789.77 2425.95 L789.77 2425.95 L789.90 2425.95 L790.02 2425.95 L790.14 2425.95 L790.14 2425.95 L790.64 2425.95 L790.76 2425.95 L790.89 2425.95 L791.01 2425.95 L791.13 2425.95 L791.51 2425.95 L791.51 2425.95 L791.63 2425.95 L791.88 2425.95 L791.88 2425.95 L791.88 2425.95 L792.00 2425.95 L792.12 2425.95 L792.37 2425.95 L792.50 2425.95 L792.50 2425.95 L792.62 2425.95 L792.62 2425.95 L792.74 2425.95 L792.74 2425.95 L792.99 2425.95 L792.99 2425.95 L793.36 2425.95 L793.49 2425.95 L793.49 2425.95 L793.61 2425.95 L793.98 2425.95 L794.10 2425.95 L794.10 2425.95 L794.23 2425.95 L794.60 2425.95 L794.72 2425.95 L794.72 2425.95 L794.85 2425.95 L794.85 2425.95 L795.09 2425.95 L795.09 2425.95 L795.22 2425.95 L795.22 2425.95 L795.34 2425.95 L795.47 2425.95 L795.59 2425.95 L795.71 2425.95 L795.84 2425.95 L796.21 2425.95 L796.33 2425.95 L796.33 2425.95 L796.46 2425.95 L796.58 2425.95 L796.58 2425.95 L796.83 2425.95 L796.95 2425.95 L797.20 2425.95 L797.45 2425.95 L797.45 2425.95 L797.57 2425.95 L797.57 2425.95 L797.69 2425.95 L797.94 2425.95 L797.94 2425.95 L798.06 2425.95 L798.19 2425.95 L798.19 2425.95 L798.31 2425.95 L798.44 2425.95 L798.44 2425.95 L798.44 2425.95 L798.56 2425.95 L798.81 2425.95 L798.81 2425.95 L798.93 2425.95 L798.93 2425.95 L799.05 2425.95 L799.18 2425.95 L799.30 2425.95 L799.43 2425.95 L799.43 2425.95 L799.67 2425.95 L799.67 2425.95 L799.67 2425.95 L799.92 2425.95 L800.04 2425.95 L800.17 2425.95 L800.29 2425.95 L800.54 2425.95 L800.54 2425.95 L800.54 2425.95 L800.54 2425.95 L800.54 2425.95 L800.54 2425.95 L800.66 2425.95 L800.66 2425.95 L800.79 2425.95 L800.79 2425.95 L800.79 2425.95 L800.91 2425.95 L800.91 2425.95 L801.03 2425.95 L801.78 2425.95 L801.90 2425.95 L802.02 2425.95 L802.15 2425.95 L802.27 2425.95 L802.77 2425.95 L802.77 2425.95 L802.89 2425.95 L802.89 2425.95 L802.89 2425.95 L802.89 2425.95 L803.01 2425.95 L803.01 2425.95 L803.14 2425.95 L803.26 2425.95 L803.26 2425.95 L803.26 2425.95 L803.63 2425.95 L803.76 2425.95 L803.76 2425.95 L804.00 2425.95 L804.00 2425.95 L804.13 2425.95 L804.25 2425.95 L804.38 2425.95 L804.75 2425.95 L804.75 2425.95 L804.87 2425.95 L804.99 2425.95 L804.99 2425.95 L805.12 2425.95 L805.37 2425.95 L805.37 2425.95 L805.61 2425.95 L805.74 2425.95 L806.11 2425.95 L806.36 2425.95 L806.48 2425.95 L806.48 2425.95 L806.85 2425.95 L806.85 2425.95 L806.97 2425.95 L806.97 2425.95 L807.22 2425.95 L807.35 2425.95 L807.47 2425.95 L807.47 2425.95 L807.47 2425.95 L807.72 2425.95 L807.84 2425.95 L807.96 2425.95 L807.96 2425.95 L807.96 2425.95 L807.96 2425.95 L808.09 2425.95 L808.09 2425.95 L808.34 2425.95 L808.58 2425.95 L808.71 2425.95 L809.08 2425.95 L809.08 2425.95 L809.20 2425.95 L809.20 2425.95 L809.33 2425.95 L809.33 2425.95 L809.45 2425.95 L809.45 2425.95 L809.70 2425.95 L809.70 2425.95 L809.70 2425.95 L810.07 2425.95 L810.32 2425.95 L810.44 2425.95 L810.44 2425.95 L810.44 2425.95 L810.56 2425.95 L810.69 2425.95 L810.81 2425.95 L811.06 2425.95 L811.18 2425.95 L811.43 2425.95 L811.68 2425.95 L811.92 2425.95 L811.92 2425.95 L811.92 2425.95 L812.05 2425.95 L812.17 2425.95 L812.17 2425.95 L812.17 2425.95 L812.30 2425.95 L812.54 2425.95 L813.29 2425.95 L813.41 2425.95 L813.53 2425.95 L813.53 2425.95 L813.66 2425.95 L813.66 2425.95 L813.78 2425.95 L813.90 2425.95 L814.03 2425.95 L814.03 2425.95 L814.15 2425.95 L814.15 2425.95 L814.15 2425.95 L814.15 2425.95 L814.40 2425.95 L814.52 2425.95 L814.77 2425.95 L815.02 2425.95 L815.14 2425.95 L815.27 2425.95 L815.27 2425.95 L815.39 2425.95 L815.51 2425.95 L815.76 2425.95 L815.88 2425.95 L816.26 2425.95 L816.26 2425.95 L816.26 2425.95 L816.38 2425.95 L816.87 2425.95 L817.00 2425.95 L817.00 2425.95 L817.00 2425.95 L817.12 2425.95 L817.37 2425.95 L817.37 2425.95 L817.86 2425.95 L817.99 2425.95 L818.11 2425.95 L818.61 2425.95 L818.61 2425.95 L818.73 2425.95 L818.73 2425.95 L818.98 2425.95 L819.10 2425.95 L819.10 2425.95 L819.10 2425.95 L819.23 2425.95 L819.72 2425.95 L819.84 2425.95 L819.97 2425.95 L820.34 2425.95 L820.59 2425.95 L820.83 2425.95 L820.83 2425.95 L820.83 2425.95 L820.96 2425.95 L821.21 2425.95 L821.21 2425.95 L821.45 2425.95 L821.58 2425.95 L821.58 2425.95 L821.70 2425.95 L821.95 2425.95 L822.07 2425.95 L822.07 2425.95 L822.20 2425.95 L822.32 2425.95 L822.32 2425.95 L822.44 2425.95 L822.44 2425.95 L822.57 2425.95 L822.69 2425.95 L823.31 2425.95 L823.31 2425.95 L823.56 2425.95 L823.68 2425.95 L823.68 2425.95 L823.93 2425.95 L824.18 2425.95 L824.18 2425.95 L824.30 2425.95 L824.30 2425.95 L824.30 2425.95 L824.55 2425.95 L825.17 2425.95 L825.17 2425.95 L825.29 2425.95 L825.41 2425.95 L825.66 2425.95 L825.66 2425.95 L825.78 2425.95 L826.03 2425.95 L826.28 2425.95 L826.40 2425.95 L826.65 2425.95 L826.77 2425.95 L826.77 2425.95 L826.90 2425.95 L826.90 2425.95 L827.15 2425.95 L827.27 2425.95 L827.52 2425.95 L827.52 2425.95 L827.64 2425.95 L827.64 2425.95 L827.76 2425.95 L828.01 2425.95 L828.01 2425.95 L828.14 2425.95 L828.26 2425.95 L828.38 2425.95 L828.51 2425.95 L828.51 2425.95 L828.75 2425.95 L828.88 2425.95 L828.88 2425.95 L829.00 2425.95 L829.25 2425.95 L829.25 2425.95 L829.37 2425.95 L829.50 2425.95 L829.62 2425.95 L829.74 2425.95 L829.87 2425.95 L830.12 2425.95 L830.12 2425.95 L830.24 2425.95 L830.36 2425.95 L830.49 2425.95 L830.49 2425.95 L830.49 2425.95 L830.61 2425.95 L830.61 2425.95 L830.73 2425.95 L830.73 2425.95 L830.98 2425.95 L830.98 2425.95 L831.11 2425.95 L831.23 2425.95 L831.23 2425.95 L831.23 2425.95 L831.48 2425.95 L831.60 2425.95 L831.60 2425.95 L831.85 2425.95 L831.97 2425.95 L831.97 2425.95 L831.97 2425.95 L832.10 2425.95 L832.47 2425.95 L832.59 2425.95 L832.71 2425.95 L832.84 2425.95 L832.96 2425.95 L832.96 2425.95 L833.21 2425.95 L833.21 2425.95 L833.70 2425.95 L833.70 2425.95 L833.70 2425.95 L833.70 2425.95 L833.83 2425.95 L834.32 2425.95 L834.57 2425.95 L834.69 2425.95 L834.69 2425.95 L834.69 2425.95 L834.69 2425.95 L834.69 2425.95 L834.82 2425.95 L834.82 2425.95 L834.94 2425.95 L834.94 2425.95 L835.19 2425.95 L835.31 2425.95 L835.31 2425.95 L835.44 2425.95 L835.68 2425.95 L836.18 2425.95 L836.30 2425.95 L836.80 2425.95 L836.92 2425.95 L837.05 2425.95 L837.54 2425.95 L837.66 2425.95 L837.66 2425.95 L837.91 2425.95 L837.91 2425.95 L837.91 2425.95 L838.04 2425.95 L838.28 2425.95 L838.28 2425.95 L838.41 2425.95 L838.41 2425.95 L838.53 2425.95 L839.03 2425.95 L839.15 2425.95 L839.89 2425.95 L840.02 2425.95 L840.26 2425.95 L840.51 2425.95 L840.76 2425.95 L841.01 2425.95 L841.38 2425.95 L841.38 2425.95 L841.38 2425.95 L841.50 2425.95 L841.62 2425.95 L841.75 2425.95 L842.00 2425.95 L842.12 2425.95 L842.12 2425.95 L842.24 2425.95 L842.37 2425.95 L842.49 2425.95 L842.49 2425.95 L842.61 2425.95 L842.74 2425.95 L842.86 2425.95 L842.99 2425.95 L842.99 2425.95 L843.11 2425.95 L843.36 2425.95 L843.60 2425.95 L843.85 2425.95 L844.10 2425.95 L844.22 2425.95 L844.35 2425.95 L844.47 2425.95 L844.84 2425.95 L844.84 2425.95 L844.97 2425.95 L845.09 2425.95 L845.34 2425.95 L845.34 2425.95 L845.46 2425.95 L845.46 2425.95 L846.20 2425.95 L846.33 2425.95 L846.57 2425.95 L846.57 2425.95 L846.82 2425.95 L846.95 2425.95 L847.07 2425.95 L847.32 2425.95 L847.32 2425.95 L847.56 2425.95 L847.69 2425.95 L847.94 2425.95 L848.06 2425.95 L848.18 2425.95 L848.31 2425.95 L848.31 2425.95 L848.55 2425.95 L848.55 2425.95 L848.93 2425.95 L849.17 2425.95 L849.30 2425.95 L849.79 2425.95 L850.29 2425.95 L850.29 2425.95 L850.41 2425.95 L850.41 2425.95 L850.66 2425.95 L850.91 2425.95 L850.91 2425.95 L851.03 2425.95 L851.15 2425.95 L851.28 2425.95 L851.28 2425.95 L851.65 2425.95 L851.65 2425.95 L851.77 2425.95 L851.90 2425.95 L852.02 2425.95 L852.02 2425.95 L852.51 2425.95 L852.51 2425.95 L852.51 2425.95 L852.64 2425.95 L852.64 2425.95 L852.64 2425.95 L852.76 2425.95 L852.76 2425.95 L852.76 2425.95 L852.89 2425.95 L852.89 2425.95 L853.13 2425.95 L853.50 2425.95 L853.63 2425.95 L853.75 2425.95 L853.75 2425.95 L853.75 2425.95 L854.00 2425.95 L854.12 2425.95 L854.12 2425.95 L854.37 2425.95 L854.74 2425.95 L854.99 2425.95 L854.99 2425.95 L855.11 2425.95 L855.61 2425.95 L855.98 2425.95 L855.98 2425.95 L856.10 2425.95 L856.10 2425.95 L856.35 2425.95 L856.60 2425.95 L856.85 2425.95 L856.97 2425.95 L857.09 2425.95 L857.34 2425.95 L857.34 2425.95 L857.71 2425.95 L857.71 2425.95 L857.96 2425.95 L858.08 2425.95 L858.21 2425.95 L858.33 2425.95 L858.58 2425.95 L858.83 2425.95 L859.32 2425.95 L859.57 2425.95 L859.69 2425.95 L859.82 2425.95 L860.06 2425.95 L860.06 2425.95 L860.31 2425.95 L860.31 2425.95 L860.56 2425.95 L860.56 2425.95 L860.68 2425.95 L861.05 2425.95 L861.18 2425.95 L861.18 2425.95 L861.42 2425.95 L861.67 2425.95 L861.80 2425.95 L861.92 2425.95 L862.04 2425.95 L862.04 2425.95 L862.17 2425.95 L862.17 2425.95 L862.29 2425.95 L862.41 2425.95 L862.66 2425.95 L862.79 2425.95 L862.91 2425.95 L863.03 2425.95 L863.16 2425.95 L863.53 2425.95 L863.65 2425.95 L863.78 2425.95 L863.78 2425.95 L863.78 2425.95 L863.90 2425.95 L863.90 2425.95 L864.02 2425.95 L864.15 2425.95 L864.27 2425.95 L864.39 2425.95 L864.64 2425.95 L864.64 2425.95 L864.77 2425.95 L864.89 2425.95 L865.14 2425.95 L865.26 2425.95 L865.38 2425.95 L865.76 2425.95 L866.13 2425.95 L866.37 2425.95 L866.87 2425.95 L867.36 2425.95 L867.61 2425.95 L867.74 2425.95 L867.86 2425.95 L868.23 2425.95 L868.23 2425.95 L868.48 2425.95 L868.73 2425.95 L868.85 2425.95 L868.97 2425.95 L869.10 2425.95 L869.22 2425.95 L869.22 2425.95 L869.22 2425.95 L869.47 2425.95 L869.59 2425.95 L869.72 2425.95 L869.84 2425.95 L869.96 2425.95 L870.33 2425.95 L870.95 2425.95 L870.95 2425.95 L871.08 2425.95 L871.70 2425.95 L871.70 2425.95 L871.70 2425.95 L871.82 2425.95 L871.94 2425.95 L871.94 2425.95 L872.07 2425.95 L872.19 2425.95 L872.19 2425.95 L872.44 2425.95 L872.69 2425.95 L872.69 2425.95 L872.81 2425.95 L873.06 2425.95 L873.18 2425.95 L873.30 2425.95 L873.43 2425.95 L873.43 2425.95 L873.43 2425.95 L873.43 2425.95 L873.43 2425.95 L873.80 2425.95 L873.80 2425.95 L874.42 2425.95 L874.42 2425.95 L874.79 2425.95 L875.04 2425.95 L875.28 2425.95 L875.41 2425.95 L875.53 2425.95 L875.66 2425.95 L875.78 2425.95 L875.78 2425.95 L875.90 2425.95 L875.90 2425.95 L876.03 2425.95 L876.15 2425.95 L876.40 2425.95 L876.65 2425.95 L876.77 2425.95 L876.77 2425.95 L876.89 2425.95 L876.89 2425.95 L877.64 2425.95 L878.01 2425.95 L878.01 2425.95 L878.13 2425.95 L878.75 2425.95 L878.75 2425.95 L879.00 2425.95 L879.24 2425.95 L879.62 2425.95 L879.74 2425.95 L879.74 2425.95 L879.86 2425.95 L879.86 2425.95 L879.99 2425.95 L880.11 2425.95 L880.23 2425.95 L880.23 2425.95 L880.85 2425.95 L881.10 2425.95 L881.22 2425.95 L881.22 2425.95 L881.60 2425.95 L882.34 2425.95 L882.83 2425.95 L882.83 2425.95 L882.96 2425.95 L882.96 2425.95 L883.08 2425.95 L883.33 2425.95 L883.33 2425.95 L883.45 2425.95 L883.45 2425.95 L883.45 2425.95 L883.58 2425.95 L883.95 2425.95 L884.19 2425.95 L884.32 2425.95 L884.32 2425.95 L884.57 2425.95 L884.57 2425.95 L884.69 2425.95 L884.81 2425.95 L884.94 2425.95 L884.94 2425.95 L884.94 2425.95 L885.06 2425.95 L885.18 2425.95 L885.18 2425.95 L885.56 2425.95 L885.80 2425.95 L886.05 2425.95 L886.30 2425.95 L886.30 2425.95 L886.42 2425.95 L886.42 2425.95 L886.92 2425.95 L887.29 2425.95 L887.41 2425.95 L887.54 2425.95 L887.66 2425.95 L887.78 2425.95 L887.91 2425.95 L888.28 2425.95 L888.40 2425.95 L888.77 2425.95 L889.14 2425.95 L889.14 2425.95 L889.14 2425.95 L889.14 2425.95 L889.14 2425.95 L889.64 2425.95 L889.76 2425.95 L889.89 2425.95 L889.89 2425.95 L890.01 2425.95 L890.01 2425.95 L890.38 2425.95 L890.38 2425.95 L891.00 2425.95 L891.00 2425.95 L891.12 2425.95 L891.12 2425.95 L891.12 2425.95 L891.50 2425.95 L891.50 2425.95 L891.50 2425.95 L891.62 2425.95 L891.87 2425.95 L891.87 2425.95 L891.99 2425.95 L892.11 2425.95 L892.24 2425.95 L892.36 2425.95 L892.49 2425.95 L892.49 2425.95 L892.61 2425.95 L892.86 2425.95 L893.10 2425.95 L893.10 2425.95 L893.23 2425.95 L893.23 2425.95 L893.35 2425.95 L893.72 2425.95 L893.72 2425.95 L893.72 2425.95 L893.85 2425.95 L893.85 2425.95 L893.97 2425.95 L894.09 2425.95 L894.47 2425.95 L894.59 2425.95 L894.84 2425.95 L895.08 2425.95 L895.33 2425.95 L895.46 2425.95 L895.46 2425.95 L895.46 2425.95 L895.58 2425.95 L895.70 2425.95 L895.70 2425.95 L895.95 2425.95 L896.20 2425.95 L896.20 2425.95 L896.45 2425.95 L896.57 2425.95 L896.82 2425.95 L896.94 2425.95 L897.06 2425.95 L897.19 2425.95 L897.19 2425.95 L897.19 2425.95 L897.31 2425.95 L897.31 2425.95 L897.31 2425.95 L897.56 2425.95 L897.68 2425.95 L897.68 2425.95 L897.93 2425.95 L898.18 2425.95 L898.55 2425.95 L898.67 2425.95 L898.92 2425.95 L899.04 2425.95 L899.04 2425.95 L899.17 2425.95 L899.17 2425.95 L899.42 2425.95 L899.66 2425.95 L899.79 2425.95 L900.28 2425.95 L900.41 2425.95 L900.41 2425.95 L900.78 2425.95 L901.02 2425.95 L901.15 2425.95 L901.40 2425.95 L901.64 2425.95 L901.77 2425.95 L901.77 2425.95 L901.89 2425.95 L901.89 2425.95 L902.26 2425.95 L902.39 2425.95 L902.39 2425.95 L902.39 2425.95 L902.39 2425.95 L902.51 2425.95 L902.51 2425.95 L902.63 2425.95 L902.88 2425.95 L903.00 2425.95 L903.13 2425.95 L903.25 2425.95 L903.50 2425.95 L903.50 2425.95 L903.50 2425.95 L904.61 2425.95 L904.61 2425.95 L904.74 2425.95 L904.86 2425.95 L904.98 2425.95 L905.11 2425.95 L905.48 2425.95 L905.60 2425.95 L905.73 2425.95 L905.85 2425.95 L906.10 2425.95 L906.59 2425.95 L906.84 2425.95 L907.09 2425.95 L907.09 2425.95 L907.21 2425.95 L907.83 2425.95 L907.83 2425.95 L908.45 2425.95 L908.70 2425.95 L908.82 2425.95 L908.94 2425.95 L908.94 2425.95 L909.07 2425.95 L909.19 2425.95 L909.56 2425.95 L909.69 2425.95 L909.69 2425.95 L909.81 2425.95 L909.81 2425.95 L909.81 2425.95 L909.81 2425.95 L909.81 2425.95 L909.93 2425.95 L910.06 2425.95 L910.06 2425.95 L910.68 2425.95 L910.80 2425.95 L910.80 2425.95 L910.80 2425.95 L910.92 2425.95 L911.17 2425.95 L911.30 2425.95 L911.67 2425.95 L911.79 2425.95 L911.79 2425.95 L912.04 2425.95 L912.41 2425.95 L912.66 2425.95 L913.03 2425.95 L913.15 2425.95 L913.89 2425.95 L913.89 2425.95 L914.27 2425.95 L914.27 2425.95 L914.39 2425.95 L914.39 2425.95 L914.39 2425.95 L914.76 2425.95 L914.76 2425.95 L915.13 2425.95 L915.38 2425.95 L915.50 2425.95 L915.75 2425.95 L916.00 2425.95 L916.12 2425.95 L916.25 2425.95 L916.74 2425.95 L916.86 2425.95 L916.86 2425.95 L917.11 2425.95 L917.24 2425.95 L917.24 2425.95 L917.36 2425.95 L917.36 2425.95 L917.36 2425.95 L917.73 2425.95 L917.98 2425.95 L917.98 2425.95 L917.98 2425.95 L917.98 2425.95 L918.10 2425.95 L918.35 2425.95 L918.35 2425.95 L918.47 2425.95 L918.72 2425.95 L918.84 2425.95 L918.84 2425.95 L918.97 2425.95 L919.22 2425.95 L919.96 2425.95 L920.08 2425.95 L920.33 2425.95 L920.45 2425.95 L920.95 2425.95 L920.95 2425.95 L921.20 2425.95 L921.20 2425.95 L921.44 2425.95 L921.69 2425.95 L921.69 2425.95 L921.81 2425.95 L922.19 2425.95 L922.19 2425.95 L922.56 2425.95 L922.68 2425.95 L922.93 2425.95 L922.93 2425.95 L923.42 2425.95 L923.67 2425.95 L923.67 2425.95 L924.17 2425.95 L924.17 2425.95 L924.17 2425.95 L924.17 2425.95 L924.29 2425.95 L924.29 2425.95 L924.41 2425.95 L924.41 2425.95 L924.54 2425.95 L924.78 2425.95 L924.91 2425.95 L925.03 2425.95 L925.16 2425.95 L925.28 2425.95 L925.53 2425.95 L925.65 2425.95 L925.77 2425.95 L926.15 2425.95 L926.39 2425.95 L926.52 2425.95 L926.89 2425.95 L926.89 2425.95 L926.89 2425.95 L927.01 2425.95 L927.26 2425.95 L927.26 2425.95 L927.38 2425.95 L927.38 2425.95 L927.75 2425.95 L927.88 2425.95 L928.00 2425.95 L928.37 2425.95 L928.37 2425.95 L928.37 2425.95 L928.62 2425.95 L928.74 2425.95 L928.99 2425.95 L928.99 2425.95 L929.12 2425.95 L929.24 2425.95 L929.49 2425.95 L929.49 2425.95 L929.61 2425.95 L929.98 2425.95 L930.48 2425.95 L930.48 2425.95 L930.60 2425.95 L930.85 2425.95 L931.84 2425.95 L931.96 2425.95 L932.09 2425.95 L932.21 2425.95 L932.33 2425.95 L932.70 2425.95 L932.70 2425.95 L932.95 2425.95 L933.32 2425.95 L933.57 2425.95 L933.57 2425.95 L933.69 2425.95 L933.82 2425.95 L935.30 2425.95 L935.55 2425.95 L935.55 2425.95 L935.67 2425.95 L935.67 2425.95 L935.80 2425.95 L936.05 2425.95 L936.05 2425.95 L936.17 2425.95 L936.17 2425.95 L936.29 2425.95 L936.42 2425.95 L936.79 2425.95 L936.79 2425.95 L936.91 2425.95 L936.91 2425.95 L937.04 2425.95 L937.04 2425.95 L937.16 2425.95 L937.28 2425.95 L937.53 2425.95 L937.53 2425.95 L937.53 2425.95 L938.03 2425.95 L938.15 2425.95 L938.27 2425.95 L938.64 2425.95 L938.64 2425.95 L938.64 2425.95 L938.77 2425.95 L938.89 2425.95 L938.89 2425.95 L939.88 2425.95 L940.13 2425.95 L940.50 2425.95 L940.62 2425.95 L940.87 2425.95 L941.00 2425.95 L941.24 2425.95 L941.37 2425.95 L941.61 2425.95 L941.86 2425.95 L941.86 2425.95 L941.99 2425.95 L941.99 2425.95 L942.36 2425.95 L942.36 2425.95 L942.73 2425.95 L942.98 2425.95 L943.10 2425.95 L943.10 2425.95 L943.35 2425.95 L944.09 2425.95 L944.46 2425.95 L944.46 2425.95 L944.46 2425.95 L944.58 2425.95 L944.71 2425.95 L944.83 2425.95 L944.83 2425.95 L945.57 2425.95 L945.70 2425.95 L945.82 2425.95 L946.07 2425.95 L946.19 2425.95 L946.19 2425.95 L946.32 2425.95 L946.32 2425.95 L946.81 2425.95 L946.94 2425.95 L947.06 2425.95 L947.31 2425.95 L947.31 2425.95 L947.55 2425.95 L947.93 2425.95 L948.05 2425.95 L948.05 2425.95 L948.17 2425.95 L948.17 2425.95 L948.17 2425.95 L948.17 2425.95 L948.42 2425.95 L948.54 2425.95 L948.79 2425.95 L948.79 2425.95 L949.04 2425.95 L949.04 2425.95 L949.66 2425.95 L949.66 2425.95 L949.78 2425.95 L950.03 2425.95 L950.28 2425.95 L950.77 2425.95 L950.90 2425.95 L950.90 2425.95 L951.27 2425.95 L951.51 2425.95 L951.76 2425.95 L951.89 2425.95 L952.01 2425.95 L952.13 2425.95 L952.88 2425.95 L952.88 2425.95 L953.25 2425.95 L953.37 2425.95 L953.49 2425.95 L953.62 2425.95 L953.87 2425.95 L953.87 2425.95 L954.24 2425.95 L954.24 2425.95 L954.48 2425.95 L954.86 2425.95 L954.98 2425.95 L955.10 2425.95 L955.47 2425.95 L955.47 2425.95 L955.97 2425.95 L955.97 2425.95 L955.97 2425.95 L956.09 2425.95 L956.09 2425.95 L956.34 2425.95 L956.71 2425.95 L956.96 2425.95 L957.45 2425.95 L957.45 2425.95 L957.83 2425.95 L957.95 2425.95 L958.32 2425.95 L958.44 2425.95 L958.69 2425.95 L958.82 2425.95 L958.94 2425.95 L959.06 2425.95 L959.06 2425.95 L959.31 2425.95 L959.43 2425.95 L959.56 2425.95 L959.93 2425.95 L959.93 2425.95 L959.93 2425.95 L960.05 2425.95 L960.05 2425.95 L960.30 2425.95 L960.55 2425.95 L960.67 2425.95 L961.29 2425.95 L961.41 2425.95 L961.54 2425.95 L961.66 2425.95 L961.66 2425.95 L962.03 2425.95 L962.16 2425.95 L962.28 2425.95 L962.40 2425.95 L962.40 2425.95 L962.78 2425.95 L962.90 2425.95 L963.27 2425.95 L963.52 2425.95 L963.64 2425.95 L964.01 2425.95 L964.01 2425.95 L964.38 2425.95 L964.76 2425.95 L965.13 2425.95 L965.50 2425.95 L965.62 2425.95 L965.62 2425.95 L965.62 2425.95 L965.99 2425.95 L966.49 2425.95 L966.61 2425.95 L966.74 2425.95 L966.86 2425.95 L966.86 2425.95 L967.23 2425.95 L967.35 2425.95 L967.48 2425.95 L967.60 2425.95 L967.85 2425.95 L968.10 2425.95 L968.22 2425.95 L968.34 2425.95 L968.34 2425.95 L968.59 2425.95 L968.72 2425.95 L968.84 2425.95 L968.96 2425.95 L968.96 2425.95 L969.09 2425.95 L969.09 2425.95 L969.33 2425.95 L969.71 2425.95 L969.71 2425.95 L969.71 2425.95 L970.32 2425.95 L970.57 2425.95 L970.70 2425.95 L971.19 2425.95 L971.19 2425.95 L971.19 2425.95 L971.19 2425.95 L971.19 2425.95 L971.19 2425.95 L971.31 2425.95 L971.56 2425.95 L971.56 2425.95 L971.93 2425.95 L971.93 2425.95 L971.93 2425.95 L972.18 2425.95 L972.18 2425.95 L972.80 2425.95 L973.05 2425.95 L973.17 2425.95 L973.17 2425.95 L973.17 2425.95 L973.42 2425.95 L973.67 2425.95 L973.67 2425.95 L973.67 2425.95 L973.79 2425.95 L973.91 2425.95 L974.16 2425.95 L974.28 2425.95 L974.28 2425.95 L974.78 2425.95 L975.03 2425.95 L975.03 2425.95 L975.15 2425.95 L975.15 2425.95 L975.15 2425.95 L975.40 2425.95 L975.40 2425.95 L975.52 2425.95 L975.77 2425.95 L976.02 2425.95 L976.02 2425.95 L976.39 2425.95 L977.01 2425.95 L977.63 2425.95 L977.75 2425.95 L978.12 2425.95 L978.12 2425.95 L978.24 2425.95 L978.24 2425.95 L978.37 2425.95 L978.49 2425.95 L978.62 2425.95 L978.74 2425.95 L978.86 2425.95 L979.36 2425.95 L979.36 2425.95 L979.48 2425.95 L979.48 2425.95 L979.73 2425.95 L979.73 2425.95 L979.73 2425.95 L980.22 2425.95 L980.35 2425.95 L980.35 2425.95 L980.60 2425.95 L980.72 2425.95 L980.72 2425.95 L980.72 2425.95 L980.97 2425.95 L981.34 2425.95 L981.46 2425.95 L981.59 2425.95 L981.83 2425.95 L981.83 2425.95 L982.33 2425.95 L982.33 2425.95 L983.57 2425.95 L983.69 2425.95 L983.69 2425.95 L984.18 2425.95 L984.56 2425.95 L984.68 2425.95 L984.93 2425.95 L985.17 2425.95 L985.79 2425.95 L986.78 2425.95 L986.78 2425.95 L987.03 2425.95 L987.15 2425.95 L987.28 2425.95 L987.53 2425.95 L987.65 2425.95 L987.77 2425.95 L988.27 2425.95 L988.52 2425.95 L988.64 2425.95 L988.64 2425.95 L988.76 2425.95 L988.76 2425.95 L988.76 2425.95 L989.01 2425.95 L989.01 2425.95 L989.13 2425.95 L989.26 2425.95 L989.26 2425.95 L989.88 2425.95 L990.00 2425.95 L990.12 2425.95 L990.12 2425.95 L990.37 2425.95 L990.50 2425.95 L990.62 2425.95 L990.74 2425.95 L990.87 2425.95 L991.11 2425.95 L991.11 2425.95 L991.24 2425.95 L991.61 2425.95 L991.73 2425.95 L991.86 2425.95 L992.10 2425.95 L993.22 2425.95 L993.34 2425.95 L994.83 2425.95 L994.95 2425.95 L995.07 2425.95 L995.20 2425.95 L995.32 2425.95 L996.31 2425.95 L996.56 2425.95 L996.68 2425.95 L996.93 2425.95 L997.18 2425.95 L997.43 2425.95 L997.92 2425.95 L998.17 2425.95 L998.17 2425.95 L998.29 2425.95 L998.29 2425.95 L998.42 2425.95 L998.42 2425.95 L998.66 2425.95 L999.78 2425.95 L1000.02 2425.95 L1000.02 2425.95 L1000.40 2425.95 L1000.40 2425.95 L1000.52 2425.95 L1000.89 2425.95 L1000.89 2425.95 L1001.14 2425.95 L1001.39 2425.95 L1001.51 2425.95 L1001.88 2425.95 L1001.88 2425.95 L1002.25 2425.95 L1002.75 2425.95 L1003.12 2425.95 L1003.24 2425.95 L1003.37 2425.95 L1003.74 2425.95 L1003.86 2425.95 L1003.98 2425.95 L1004.11 2425.95 L1004.11 2425.95 L1004.60 2425.95 L1004.60 2425.95 L1004.85 2425.95 L1005.10 2425.95 L1005.47 2425.95 L1005.72 2425.95 L1005.84 2425.95 L1005.84 2425.95 L1005.96 2425.95 L1006.21 2425.95 L1006.21 2425.95 L1006.46 2425.95 L1006.95 2425.95 L1007.08 2425.95 L1007.20 2425.95 L1007.20 2425.95 L1007.20 2425.95 L1007.45 2425.95 L1007.94 2425.95 L1008.07 2425.95 L1008.32 2425.95 L1008.44 2425.95 L1009.06 2425.95 L1009.68 2425.95 L1009.92 2425.95 L1010.17 2425.95 L1010.54 2425.95 L1010.67 2425.95 L1010.79 2425.95 L1010.91 2425.95 L1011.04 2425.95 L1011.16 2425.95 L1011.29 2425.95 L1011.41 2425.95 L1012.40 2425.95 L1012.40 2425.95 L1012.40 2425.95 L1012.52 2425.95 L1012.77 2425.95 L1013.02 2425.95 L1013.14 2425.95 L1013.27 2425.95 L1013.39 2425.95 L1013.64 2425.95 L1013.64 2425.95 L1013.64 2425.95 L1013.76 2425.95 L1013.88 2425.95 L1014.01 2425.95 L1014.01 2425.95 L1014.01 2425.95 L1014.13 2425.95 L1014.26 2425.95 L1014.63 2425.95 L1015.00 2425.95 L1015.12 2425.95 L1015.25 2425.95 L1015.49 2425.95 L1015.62 2425.95 L1016.48 2425.95 L1016.98 2425.95 L1018.09 2425.95 L1018.34 2425.95 L1018.59 2425.95 L1018.96 2425.95 L1018.96 2425.95 L1019.45 2425.95 L1019.45 2425.95 L1019.70 2425.95 L1019.95 2425.95 L1020.07 2425.95 L1020.20 2425.95 L1020.32 2425.95 L1020.44 2425.95 L1020.69 2425.95 L1021.06 2425.95 L1021.06 2425.95 L1021.19 2425.95 L1021.31 2425.95 L1021.43 2425.95 L1021.68 2425.95 L1021.80 2425.95 L1021.93 2425.95 L1022.18 2425.95 L1022.42 2425.95 L1022.55 2425.95 L1022.92 2425.95 L1023.17 2425.95 L1023.41 2425.95 L1023.91 2425.95 L1023.91 2425.95 L1024.28 2425.95 L1024.28 2425.95 L1025.02 2425.95 L1025.02 2425.95 L1025.15 2425.95 L1025.27 2425.95 L1025.52 2425.95 L1025.64 2425.95 L1025.89 2425.95 L1026.26 2425.95 L1026.51 2425.95 L1026.51 2425.95 L1026.63 2425.95 L1026.63 2425.95 L1027.62 2425.95 L1027.74 2425.95 L1028.36 2425.95 L1028.49 2425.95 L1029.11 2425.95 L1029.23 2425.95 L1029.48 2425.95 L1029.72 2425.95 L1030.22 2425.95 L1030.22 2425.95 L1030.22 2425.95 L1030.59 2425.95 L1030.84 2425.95 L1031.09 2425.95 L1031.21 2425.95 L1031.33 2425.95 L1031.46 2425.95 L1031.46 2425.95 L1031.83 2425.95 L1032.08 2425.95 L1032.20 2425.95 L1032.20 2425.95 L1032.94 2425.95 L1033.31 2425.95 L1033.31 2425.95 L1033.44 2425.95 L1034.18 2425.95 L1034.55 2425.95 L1034.55 2425.95 L1034.67 2425.95 L1034.92 2425.95 L1035.05 2425.95 L1035.05 2425.95 L1035.29 2425.95 L1035.79 2425.95 L1036.04 2425.95 L1036.28 2425.95 L1036.28 2425.95 L1036.28 2425.95 L1037.03 2425.95 L1037.27 2425.95 L1037.40 2425.95 L1037.52 2425.95 L1037.52 2425.95 L1038.02 2425.95 L1038.02 2425.95 L1038.26 2425.95 L1038.39 2425.95 L1038.51 2425.95 L1038.63 2425.95 L1039.50 2425.95 L1039.62 2425.95 L1039.62 2425.95 L1040.12 2425.95 L1040.12 2425.95 L1040.86 2425.95 L1040.86 2425.95 L1041.36 2425.95 L1041.85 2425.95 L1041.97 2425.95 L1042.10 2425.95 L1042.22 2425.95 L1042.22 2425.95 L1042.47 2425.95 L1042.72 2425.95 L1042.96 2425.95 L1043.34 2425.95 L1043.34 2425.95 L1043.46 2425.95 L1043.71 2425.95 L1044.20 2425.95 L1044.33 2425.95 L1044.33 2425.95 L1044.45 2425.95 L1044.57 2425.95 L1044.70 2425.95 L1044.95 2425.95 L1044.95 2425.95 L1044.95 2425.95 L1045.07 2425.95 L1045.32 2425.95 L1045.44 2425.95 L1045.44 2425.95 L1045.69 2425.95 L1046.43 2425.95 L1046.55 2425.95 L1046.68 2425.95 L1047.05 2425.95 L1048.29 2425.95 L1048.53 2425.95 L1048.53 2425.95 L1049.15 2425.95 L1049.15 2425.95 L1049.28 2425.95 L1049.52 2425.95 L1049.77 2425.95 L1050.27 2425.95 L1050.39 2425.95 L1050.39 2425.95 L1050.76 2425.95 L1051.63 2425.95 L1051.75 2425.95 L1051.88 2425.95 L1052.25 2425.95 L1052.37 2425.95 L1052.74 2425.95 L1052.87 2425.95 L1053.24 2425.95 L1053.36 2425.95 L1053.48 2425.95 L1054.47 2425.95 L1054.47 2425.95 L1054.60 2425.95 L1055.34 2425.95 L1055.46 2425.95 L1055.46 2425.95 L1055.59 2425.95 L1057.07 2425.95 L1057.20 2425.95 L1057.32 2425.95 L1058.06 2425.95 L1058.68 2425.95 L1059.05 2425.95 L1059.05 2425.95 L1059.30 2425.95 L1059.42 2425.95 L1059.55 2425.95 L1059.92 2425.95 L1060.79 2425.95 L1061.90 2425.95 L1062.02 2425.95 L1062.02 2425.95 L1062.02 2425.95 L1062.27 2425.95 L1062.27 2425.95 L1062.39 2425.95 L1062.39 2425.95 L1062.64 2425.95 L1062.64 2425.95 L1063.26 2425.95 L1064.25 2425.95 L1065.24 2425.95 L1065.49 2425.95 L1065.98 2425.95 L1066.23 2425.95 L1066.60 2425.95 L1066.72 2425.95 L1066.85 2425.95 L1066.97 2425.95 L1067.34 2425.95 L1067.47 2425.95 L1067.47 2425.95 L1068.33 2425.95 L1068.95 2425.95 L1068.95 2425.95 L1068.95 2425.95 L1069.08 2425.95 L1069.57 2425.95 L1069.70 2425.95 L1069.70 2425.95 L1069.82 2425.95 L1070.19 2425.95 L1070.69 2425.95 L1070.93 2425.95 L1071.30 2425.95 L1072.05 2425.95 L1072.17 2425.95 L1072.54 2425.95 L1072.67 2425.95 L1073.04 2425.95 L1073.41 2425.95 L1073.90 2425.95 L1074.03 2425.95 L1074.89 2425.95 L1075.26 2425.95 L1075.26 2425.95 L1076.13 2425.95 L1076.25 2425.95 L1076.25 2425.95 L1076.38 2425.95 L1076.75 2425.95 L1077.12 2425.95 L1077.24 2425.95 L1077.37 2425.95 L1077.49 2425.95 L1077.49 2425.95 L1078.23 2425.95 L1078.73 2425.95 L1078.73 2425.95 L1079.10 2425.95 L1079.72 2425.95 L1079.97 2425.95 L1080.46 2425.95 L1081.20 2425.95 L1081.20 2425.95 L1081.33 2425.95 L1081.33 2425.95 L1081.45 2425.95 L1081.45 2425.95 L1081.82 2425.95 L1082.07 2425.95 L1082.44 2425.95 L1082.44 2425.95 L1082.81 2425.95 L1082.81 2425.95 L1083.56 2425.95 L1083.93 2425.95 L1083.93 2425.95 L1084.79 2425.95 L1084.79 2425.95 L1085.29 2425.95 L1085.29 2425.95 L1085.78 2425.95 L1085.91 2425.95 L1086.40 2425.95 L1086.65 2425.95 L1086.77 2425.95 L1086.90 2425.95 L1087.02 2425.95 L1087.02 2425.95 L1087.14 2425.95 L1087.27 2425.95 L1087.27 2425.95 L1087.52 2425.95 L1087.89 2425.95 L1088.01 2425.95 L1088.63 2425.95 L1088.75 2425.95 L1088.75 2425.95 L1089.12 2425.95 L1089.37 2425.95 L1089.62 2425.95 L1090.48 2425.95 L1091.10 2425.95 L1091.10 2425.95 L1091.10 2425.95 L1091.47 2425.95 L1091.85 2425.95 L1092.22 2425.95 L1092.22 2425.95 L1092.22 2425.95 L1092.34 2425.95 L1092.46 2425.95 L1092.71 2425.95 L1092.96 2425.95 L1093.33 2425.70 L1093.46 2425.58 L1093.46 2425.58 L1093.46 2425.58 L1093.83 2425.20 L1095.19 2424.09 L1095.31 2424.09 L1096.30 2423.22 L1096.43 2423.10 L1096.92 2422.73 L1097.29 2422.36 L1097.42 2422.23 L1097.42 2422.23 L1097.79 2421.99 L1097.79 2421.99 L1097.91 2421.86 L1098.03 2421.74 L1098.28 2421.49 L1098.53 2421.37 L1098.53 2421.24 L1099.02 2420.87 L1100.14 2420.01 L1100.26 2419.88 L1100.76 2419.39 L1101.00 2419.26 L1101.25 2419.02 L1101.25 2419.02 L1101.50 2418.77 L1101.62 2418.77 L1102.24 2418.15 L1102.74 2417.78 L1103.11 2417.41 L1103.36 2417.28 L1103.48 2417.16 L1104.10 2416.67 L1104.47 2416.42 L1104.59 2416.29 L1104.96 2415.92 L1105.21 2415.68 L1105.46 2415.55 L1105.58 2415.43 L1105.58 2415.43 L1106.33 2414.81 L1107.07 2414.19 L1107.56 2413.82 L1108.68 2412.83 L1109.05 2412.46 L1109.17 2412.46 L1109.17 2412.46 L1109.54 2412.09 L1110.16 2411.59 L1110.29 2411.47 L1111.40 2410.60 L1111.65 2410.35 L1111.89 2410.11 L1112.02 2410.11 L1112.51 2409.61 L1113.01 2409.24 L1114.24 2408.13 L1114.37 2408.00 L1115.98 2406.64 L1116.22 2406.52 L1116.22 2406.52 L1116.22 2406.52 L1116.84 2406.02 L1116.97 2405.90 L1117.21 2405.65 L1117.21 2405.65 L1117.34 2405.53 L1117.46 2405.40 L1117.96 2405.03 L1118.21 2404.91 L1118.58 2404.54 L1119.07 2404.17 L1119.32 2403.92 L1119.81 2403.42 L1120.06 2403.30 L1120.43 2403.05 L1120.93 2402.56 L1121.05 2402.56 L1121.05 2402.43 L1121.55 2402.06 L1122.17 2401.57 L1122.78 2401.07 L1122.78 2400.95 L1122.91 2400.95 L1123.65 2400.33 L1123.90 2400.08 L1124.02 2399.96 L1124.64 2399.46 L1125.26 2398.97 L1125.38 2398.84 L1125.38 2398.84 L1125.51 2398.72 L1125.63 2398.72 L1125.88 2398.35 L1126.37 2398.10 L1126.62 2397.73 L1126.87 2397.61 L1127.12 2397.36 L1127.61 2396.99 L1128.11 2396.62 L1128.23 2396.49 L1129.10 2395.75 L1129.47 2395.50 L1129.47 2395.50 L1129.59 2395.26 L1129.84 2395.13 L1130.21 2394.88 L1130.33 2394.76 L1130.33 2394.64 L1130.46 2394.64 L1130.70 2394.39 L1131.08 2394.02 L1131.82 2393.52 L1132.31 2393.03 L1132.56 2392.78 L1133.92 2391.79 L1134.17 2391.42 L1134.54 2391.17 L1134.79 2391.05 L1135.04 2390.80 L1135.04 2390.80 L1135.28 2390.55 L1135.41 2390.43 L1135.90 2390.06 L1135.90 2390.06 L1136.15 2389.81 L1136.15 2389.81 L1136.27 2389.81 L1136.40 2389.69 L1137.02 2389.19 L1137.26 2388.82 L1137.39 2388.82 L1137.51 2388.70 L1137.76 2388.45 L1138.13 2388.20 L1138.38 2387.95 L1139.37 2387.09 L1139.61 2386.96 L1140.11 2386.47 L1140.97 2385.73 L1141.22 2385.60 L1141.47 2385.48 L1141.47 2385.36 L1141.72 2385.11 L1141.84 2385.11 L1142.09 2384.86 L1142.09 2384.86 L1142.34 2384.74 L1142.71 2384.37 L1142.83 2384.24 L1143.20 2383.99 L1143.57 2383.62 L1144.07 2383.25 L1144.32 2383.00 L1144.32 2383.00 L1144.44 2382.88 L1145.06 2382.39 L1145.18 2382.26 L1145.18 2382.26 L1146.05 2381.64 L1146.05 2381.52 L1147.16 2380.53 L1147.29 2380.53 L1147.66 2380.16 L1148.03 2379.91 L1148.15 2379.79 L1148.15 2379.79 L1149.39 2378.67 L1150.63 2377.68 L1151.37 2377.06 L1151.37 2377.06 L1151.49 2376.94 L1151.62 2376.94 L1151.87 2376.69 L1152.24 2376.32 L1152.48 2376.20 L1152.98 2375.70 L1153.23 2375.58 L1153.35 2375.46 L1153.47 2375.33 L1153.47 2375.33 L1154.34 2374.71 L1154.34 2374.59 L1154.84 2374.22 L1154.96 2374.09 L1155.45 2373.60 L1155.83 2373.35 L1156.32 2372.98 L1156.57 2372.73 L1156.82 2372.61 L1156.94 2372.49 L1157.06 2372.36 L1157.19 2372.24 L1157.43 2371.99 L1157.56 2371.99 L1157.56 2371.87 L1157.93 2371.62 L1158.05 2371.50 L1159.04 2370.63 L1159.66 2370.13 L1160.16 2369.76 L1160.16 2369.76 L1160.78 2369.27 L1161.27 2368.90 L1161.27 2368.90 L1161.39 2368.65 L1162.14 2368.15 L1162.63 2367.66 L1163.62 2366.92 L1163.62 2366.92 L1163.62 2366.79 L1163.74 2366.79 L1164.24 2366.30 L1164.73 2365.93 L1165.60 2365.18 L1165.97 2364.94 L1166.47 2364.44 L1166.59 2364.32 L1166.71 2364.19 L1166.96 2364.07 L1167.09 2363.95 L1167.21 2363.82 L1167.95 2363.33 L1168.70 2362.59 L1169.93 2361.47 L1170.06 2361.47 L1170.18 2361.35 L1170.30 2361.22 L1170.55 2361.10 L1170.92 2360.73 L1171.79 2359.99 L1171.91 2359.86 L1174.26 2357.88 L1174.51 2357.76 L1174.64 2357.63 L1174.64 2357.63 L1174.64 2357.63 L1175.63 2356.89 L1175.87 2356.64 L1176.86 2355.78 L1176.86 2355.78 L1177.23 2355.41 L1177.36 2355.41 L1177.48 2355.16 L1177.98 2354.91 L1178.35 2354.54 L1179.59 2353.43 L1179.83 2353.18 L1180.20 2352.93 L1180.33 2352.93 L1180.70 2352.56 L1181.57 2351.82 L1182.43 2351.08 L1182.68 2350.95 L1182.68 2350.95 L1182.80 2350.83 L1182.93 2350.70 L1183.30 2350.33 L1184.66 2349.22 L1184.78 2349.10 L1185.15 2348.85 L1185.40 2348.60 L1186.27 2347.86 L1186.64 2347.49 L1186.76 2347.49 L1186.76 2347.49 L1187.01 2347.36 L1187.88 2346.50 L1187.88 2346.50 L1188.00 2346.50 L1188.00 2346.50 L1188.12 2346.37 L1189.48 2345.14 L1189.73 2345.01 L1190.35 2344.39 L1190.72 2344.15 L1191.09 2343.77 L1192.46 2342.66 L1192.95 2342.29 L1193.20 2342.17 L1193.32 2342.04 L1193.57 2341.79 L1195.80 2339.94 L1196.66 2339.20 L1197.28 2338.70 L1198.15 2337.96 L1198.27 2337.83 L1198.64 2337.59 L1199.14 2337.09 L1199.51 2336.84 L1199.76 2336.60 L1200.13 2336.23 L1200.75 2335.85 L1200.87 2335.73 L1200.99 2335.61 L1201.61 2334.99 L1201.86 2334.86 L1202.73 2334.12 L1202.85 2334.00 L1203.22 2333.75 L1203.22 2333.75 L1203.22 2333.63 L1204.09 2333.01 L1204.34 2332.76 L1204.58 2332.64 L1205.20 2332.14 L1205.20 2332.02 L1205.20 2332.02 L1205.45 2331.89 L1205.82 2331.52 L1205.82 2331.52 L1206.44 2331.03 L1206.93 2330.66 L1207.55 2330.04 L1207.92 2329.79 L1208.42 2329.42 L1208.79 2329.05 L1209.29 2328.68 L1209.41 2328.55 L1209.41 2328.55 L1210.15 2327.93 L1210.40 2327.69 L1210.52 2327.56 L1211.14 2327.07 L1211.51 2326.82 L1211.51 2326.70 L1211.64 2326.70 L1211.76 2326.57 L1211.88 2326.45 L1212.13 2326.33 L1212.13 2326.20 L1214.61 2324.22 L1215.47 2323.48 L1215.60 2323.36 L1217.08 2322.12 L1217.21 2321.99 L1217.82 2321.50 L1218.07 2321.38 L1218.81 2320.63 L1219.19 2320.39 L1219.19 2320.39 L1219.19 2320.26 L1220.05 2319.64 L1220.30 2319.52 L1220.92 2318.90 L1221.04 2318.78 L1221.66 2318.28 L1221.66 2318.28 L1221.66 2318.28 L1221.78 2318.16 L1222.03 2318.03 L1222.28 2317.79 L1222.77 2317.29 L1222.90 2317.29 L1223.76 2316.55 L1224.14 2316.18 L1224.51 2315.93 L1225.00 2315.43 L1225.50 2315.06 L1226.86 2313.95 L1227.11 2313.70 L1227.60 2313.33 L1227.60 2313.33 L1227.60 2313.33 L1227.72 2313.21 L1228.22 2312.71 L1228.34 2312.71 L1228.71 2312.46 L1228.71 2312.34 L1228.96 2312.22 L1229.09 2312.09 L1229.33 2311.85 L1230.45 2310.98 L1230.45 2310.86 L1230.57 2310.86 L1231.07 2310.36 L1231.07 2310.36 L1231.44 2309.99 L1231.81 2309.74 L1232.55 2309.25 L1232.55 2309.12 L1232.80 2309.00 L1233.17 2308.63 L1233.66 2308.26 L1233.91 2308.01 L1234.90 2307.14 L1235.27 2306.90 L1235.77 2306.52 L1235.89 2306.40 L1236.51 2305.91 L1237.87 2304.67 L1238.86 2303.93 L1238.98 2303.80 L1239.11 2303.68 L1240.59 2302.44 L1240.72 2302.32 L1240.84 2302.19 L1240.96 2302.19 L1241.58 2301.57 L1241.71 2301.57 L1242.45 2300.96 L1242.70 2300.58 L1243.07 2300.34 L1243.44 2300.09 L1243.56 2299.97 L1245.54 2298.36 L1245.92 2297.99 L1246.91 2297.12 L1247.15 2296.87 L1247.40 2296.75 L1248.02 2296.25 L1248.02 2296.13 L1249.13 2295.39 L1249.50 2295.02 L1249.75 2294.77 L1250.37 2294.27 L1250.37 2294.27 L1250.49 2294.15 L1250.62 2294.15 L1250.99 2293.65 L1251.11 2293.65 L1251.24 2293.53 L1251.24 2293.53 L1251.48 2293.28 L1251.98 2292.91 L1252.47 2292.54 L1252.47 2292.54 L1252.47 2292.42 L1252.72 2292.29 L1253.09 2291.92 L1253.22 2291.92 L1253.96 2291.18 L1254.21 2291.06 L1254.33 2290.93 L1254.83 2290.44 L1256.43 2289.20 L1256.56 2289.08 L1257.18 2288.58 L1257.30 2288.46 L1258.17 2287.71 L1259.16 2286.97 L1259.53 2286.60 L1260.39 2285.86 L1260.52 2285.73 L1260.64 2285.61 L1261.14 2285.24 L1261.88 2284.62 L1262.25 2284.25 L1265.22 2281.77 L1267.08 2280.29 L1267.20 2280.17 L1268.56 2279.05 L1268.93 2278.80 L1269.18 2278.43 L1269.43 2278.31 L1269.55 2278.31 L1269.68 2278.06 L1270.54 2277.44 L1271.41 2276.70 L1272.03 2276.20 L1272.40 2275.83 L1272.77 2275.46 L1273.14 2275.21 L1275.37 2273.36 L1276.36 2272.49 L1276.61 2272.24 L1276.73 2272.12 L1278.09 2271.01 L1279.70 2269.65 L1280.19 2269.27 L1280.44 2269.15 L1280.57 2268.90 L1280.81 2268.78 L1281.06 2268.66 L1281.18 2268.53 L1282.30 2267.54 L1282.42 2267.42 L1282.79 2267.17 L1283.29 2266.68 L1284.53 2265.69 L1284.53 2265.69 L1284.77 2265.44 L1285.52 2264.82 L1289.72 2261.35 L1291.58 2259.75 L1291.70 2259.62 L1292.69 2258.88 L1293.06 2258.51 L1293.81 2258.01 L1293.93 2257.77 L1294.05 2257.77 L1294.18 2257.52 L1295.54 2256.53 L1296.16 2255.91 L1296.78 2255.41 L1298.14 2254.30 L1300.24 2252.44 L1300.61 2252.20 L1300.86 2252.07 L1302.47 2250.71 L1302.84 2250.34 L1303.09 2250.09 L1303.21 2250.09 L1303.95 2249.47 L1304.33 2249.10 L1304.82 2248.73 L1305.07 2248.48 L1305.19 2248.48 L1305.81 2247.87 L1306.80 2247.12 L1306.80 2247.00 L1307.54 2246.38 L1307.67 2246.26 L1307.91 2246.13 L1309.28 2244.90 L1310.39 2244.03 L1310.64 2243.78 L1312.86 2241.93 L1313.98 2241.06 L1314.97 2240.19 L1315.09 2240.19 L1315.09 2240.07 L1315.22 2240.07 L1315.59 2239.70 L1316.21 2239.08 L1316.33 2239.08 L1316.58 2238.83 L1316.70 2238.71 L1317.07 2238.46 L1317.20 2238.34 L1318.68 2237.10 L1318.68 2237.10 L1319.79 2236.11 L1320.04 2235.98 L1320.29 2235.74 L1321.16 2234.99 L1321.28 2234.87 L1324.50 2232.27 L1325.24 2231.65 L1325.36 2231.53 L1326.11 2230.91 L1326.85 2230.29 L1327.96 2229.43 L1329.32 2228.19 L1330.07 2227.57 L1330.07 2227.57 L1330.56 2227.20 L1330.68 2227.07 L1331.30 2226.46 L1331.80 2226.08 L1335.76 2222.74 L1336.25 2222.37 L1336.38 2222.25 L1336.62 2222.12 L1337.37 2221.38 L1337.86 2221.01 L1338.11 2220.89 L1338.48 2220.52 L1339.10 2220.02 L1339.47 2219.65 L1340.46 2218.78 L1341.45 2218.04 L1341.70 2217.79 L1343.68 2216.18 L1344.17 2215.69 L1344.54 2215.44 L1344.67 2215.32 L1344.67 2215.32 L1344.67 2215.32 L1345.53 2214.58 L1345.66 2214.45 L1346.52 2213.83 L1346.65 2213.59 L1347.02 2213.46 L1347.27 2213.21 L1347.27 2213.21 L1347.64 2212.84 L1348.13 2212.47 L1348.13 2212.47 L1348.50 2212.22 L1349.37 2211.36 L1350.61 2210.37 L1352.96 2208.51 L1353.21 2208.14 L1354.57 2207.03 L1354.82 2206.78 L1355.81 2206.04 L1358.03 2204.06 L1358.28 2203.93 L1359.39 2203.07 L1359.39 2203.07 L1360.38 2202.20 L1364.22 2198.98 L1365.21 2198.12 L1365.58 2197.87 L1368.92 2195.02 L1369.29 2194.77 L1369.79 2194.28 L1370.90 2193.29 L1371.15 2193.17 L1372.88 2191.68 L1373.38 2191.31 L1374.12 2190.69 L1374.86 2190.07 L1376.35 2188.83 L1376.60 2188.59 L1377.46 2187.84 L1377.96 2187.47 L1378.20 2187.23 L1378.70 2186.85 L1379.32 2186.36 L1379.69 2186.11 L1379.81 2185.86 L1380.43 2185.49 L1380.68 2185.25 L1381.67 2184.38 L1382.16 2184.01 L1383.90 2182.52 L1385.01 2181.53 L1385.01 2181.53 L1386.87 2180.05 L1387.49 2179.55 L1387.61 2179.43 L1387.98 2179.06 L1388.10 2178.93 L1388.60 2178.56 L1390.46 2176.95 L1390.58 2176.95 L1391.07 2176.46 L1391.82 2175.84 L1392.06 2175.72 L1392.06 2175.59 L1393.67 2174.36 L1393.80 2174.23 L1394.29 2173.86 L1394.42 2173.74 L1394.42 2173.74 L1397.51 2171.14 L1398.13 2170.52 L1400.23 2168.79 L1400.23 2168.79 L1401.35 2167.92 L1402.34 2167.05 L1402.83 2166.68 L1403.45 2166.19 L1404.19 2165.57 L1404.56 2165.20 L1404.69 2165.20 L1405.43 2164.58 L1407.04 2163.09 L1407.16 2163.09 L1407.16 2163.09 L1407.29 2162.97 L1408.15 2162.23 L1408.89 2161.61 L1408.89 2161.61 L1411.12 2159.75 L1411.37 2159.50 L1412.11 2158.89 L1412.48 2158.51 L1412.85 2158.27 L1413.47 2157.77 L1413.84 2157.52 L1414.59 2156.78 L1416.32 2155.42 L1419.04 2153.07 L1419.91 2152.45 L1420.16 2152.20 L1421.89 2150.72 L1422.51 2150.22 L1422.75 2149.98 L1423.62 2149.23 L1426.96 2146.39 L1429.19 2144.65 L1429.68 2144.16 L1430.18 2143.79 L1430.43 2143.54 L1431.54 2142.55 L1434.63 2140.08 L1434.76 2139.95 L1435.25 2139.46 L1436.86 2138.22 L1436.86 2138.22 L1437.73 2137.48 L1439.09 2136.24 L1439.83 2135.74 L1440.08 2135.50 L1441.32 2134.51 L1441.94 2134.01 L1442.18 2133.64 L1442.31 2133.64 L1445.40 2131.04 L1445.90 2130.67 L1446.14 2130.42 L1446.14 2130.42 L1446.64 2130.05 L1446.76 2129.93 L1447.01 2129.68 L1448.62 2128.44 L1449.11 2127.95 L1451.59 2125.84 L1452.83 2124.85 L1453.07 2124.73 L1453.57 2124.24 L1453.57 2124.11 L1454.43 2123.49 L1454.81 2123.12 L1454.93 2123.12 L1455.80 2122.38 L1456.91 2121.39 L1457.28 2121.14 L1457.40 2120.89 L1460.13 2118.67 L1461.86 2117.30 L1463.22 2116.07 L1464.58 2114.95 L1466.93 2113.10 L1467.43 2112.60 L1467.80 2112.23 L1468.29 2111.86 L1468.79 2111.49 L1469.04 2111.24 L1469.53 2110.87 L1472.38 2108.39 L1475.60 2105.80 L1475.84 2105.55 L1477.33 2104.31 L1477.58 2104.06 L1478.19 2103.57 L1480.42 2101.71 L1481.91 2100.47 L1483.52 2099.11 L1483.76 2098.87 L1484.38 2098.37 L1484.63 2098.12 L1486.49 2096.64 L1486.73 2096.51 L1486.98 2096.27 L1488.09 2095.40 L1490.20 2093.54 L1491.44 2092.55 L1495.02 2089.46 L1495.52 2089.09 L1497.99 2086.99 L1498.24 2086.86 L1499.60 2085.62 L1502.08 2083.52 L1504.92 2081.29 L1505.05 2081.05 L1506.04 2080.30 L1508.14 2078.45 L1510.25 2076.84 L1510.99 2076.22 L1510.99 2076.09 L1513.22 2074.24 L1514.58 2073.25 L1514.95 2072.88 L1515.94 2072.01 L1517.18 2071.02 L1518.04 2070.28 L1518.04 2070.28 L1519.16 2069.29 L1520.89 2067.80 L1521.75 2067.06 L1522.74 2066.32 L1524.35 2064.96 L1525.96 2063.60 L1526.70 2062.98 L1528.93 2061.12 L1530.05 2060.25 L1531.41 2059.14 L1531.65 2058.89 L1532.64 2058.03 L1535.00 2056.05 L1535.86 2055.30 L1536.60 2054.69 L1537.22 2054.19 L1537.72 2053.70 L1539.33 2052.46 L1540.07 2051.72 L1544.65 2048.00 L1544.90 2047.88 L1545.76 2047.01 L1548.24 2045.03 L1548.24 2044.91 L1552.57 2041.32 L1553.81 2040.33 L1554.18 2040.08 L1554.55 2039.71 L1558.88 2036.00 L1562.84 2032.66 L1567.17 2029.19 L1567.29 2029.07 L1568.90 2027.71 L1569.40 2027.34 L1572.12 2024.98 L1574.72 2022.88 L1575.34 2022.26 L1575.96 2021.77 L1578.06 2020.03 L1578.68 2019.54 L1579.05 2019.17 L1583.75 2015.33 L1585.11 2014.09 L1585.36 2013.85 L1588.21 2011.50 L1590.68 2009.52 L1590.68 2009.39 L1591.43 2008.90 L1592.42 2008.03 L1594.52 2006.17 L1596.38 2004.69 L1597.74 2003.58 L1600.58 2001.22 L1601.20 2000.61 L1601.70 2000.23 L1604.17 1998.13 L1607.51 1995.41 L1609.00 1994.17 L1610.85 1992.56 L1611.47 1992.07 L1612.83 1990.95 L1613.95 1989.96 L1617.66 1986.87 L1620.01 1984.89 L1620.14 1984.76 L1622.86 1982.54 L1623.97 1981.55 L1624.71 1981.05 L1626.82 1979.20 L1628.92 1977.46 L1634.24 1973.01 L1636.22 1971.28 L1639.81 1968.31 L1639.94 1968.18 L1641.30 1967.19 L1646.62 1962.74 L1647.98 1961.50 L1649.59 1960.14 L1650.45 1959.52 L1652.31 1957.91 L1653.55 1956.92 L1654.17 1956.30 L1654.41 1956.05 L1656.02 1954.82 L1656.39 1954.44 L1660.48 1951.10 L1661.34 1950.36 L1661.84 1949.87 L1663.94 1948.13 L1664.69 1947.51 L1667.66 1945.04 L1671.37 1941.95 L1673.22 1940.34 L1675.45 1938.60 L1678.42 1936.01 L1680.53 1934.27 L1683.25 1931.92 L1684.36 1931.06 L1687.21 1928.70 L1689.19 1926.97 L1691.91 1924.74 L1692.16 1924.62 L1696.98 1920.54 L1702.06 1916.20 L1702.18 1916.20 L1702.55 1915.83 L1704.78 1913.98 L1705.89 1912.99 L1714.06 1906.18 L1714.56 1905.81 L1719.51 1901.60 L1720.37 1900.98 L1720.87 1900.49 L1723.96 1897.89 L1729.16 1893.56 L1730.03 1892.82 L1733.00 1890.34 L1734.60 1889.10 L1734.98 1888.73 L1736.58 1887.37 L1738.19 1886.01 L1745.12 1880.19 L1747.72 1878.09 L1749.45 1876.60 L1753.29 1873.39 L1753.79 1873.01 L1754.03 1872.77 L1764.55 1863.86 L1767.89 1861.26 L1768.14 1861.01 L1768.88 1860.39 L1769.13 1860.14 L1769.87 1859.53 L1775.19 1855.07 L1778.66 1852.10 L1779.28 1851.61 L1784.35 1847.40 L1786.08 1845.91 L1788.31 1844.06 L1789.80 1842.82 L1791.03 1841.83 L1793.51 1839.72 L1794.99 1838.49 L1803.90 1831.06 L1803.90 1831.06 L1807.74 1827.84 L1807.99 1827.60 L1809.23 1826.61 L1809.72 1826.11 L1810.22 1825.74 L1815.41 1821.41 L1819.00 1818.44 L1825.31 1813.12 L1829.89 1809.28 L1833.85 1805.94 L1840.53 1800.37 L1840.66 1800.25 L1841.52 1799.50 L1844.37 1797.15 L1848.45 1793.69 L1853.78 1789.36 L1857.98 1785.77 L1861.70 1782.67 L1864.42 1780.32 L1872.59 1773.64 L1880.13 1767.21 L1885.21 1763.00 L1886.07 1762.26 L1890.78 1758.29 L1925.18 1729.58 L1925.30 1729.46 L1928.40 1726.86 L1931.74 1724.02 L1932.36 1723.52 L1937.43 1719.31 L1940.28 1716.96 L1942.88 1714.73 L1943.49 1714.11 L1954.51 1705.08 L1955.99 1703.84 L1959.83 1700.63 L1964.66 1696.42 L1969.23 1692.71 L1972.58 1689.86 L1975.17 1687.63 L1975.67 1687.26 L1985.20 1679.22 L1987.05 1677.73 L1989.28 1675.87 L1990.40 1675.01 L1992.62 1673.15 L1996.46 1669.81 L2000.79 1666.22 L2001.29 1665.85 L2005.25 1662.51 L2009.58 1658.92 L2023.68 1647.16 L2038.66 1634.54 L2045.09 1629.22 L2048.56 1626.25 L2053.38 1622.29 L2056.48 1619.69 L2080.49 1599.64 L2081.97 1598.28 L2085.19 1595.68 L2087.79 1593.45 L2091.25 1590.48 L2094.84 1587.51 L2125.65 1561.77 L2139.14 1550.51 L2141.99 1548.16 L2148.18 1542.96 L2151.02 1540.49 L2156.59 1535.91 L2176.39 1519.33 L2183.45 1513.39 L2188.15 1509.43 L2202.50 1497.42 L2206.22 1494.33 L2208.07 1492.72 L2211.54 1490.00 L2231.71 1473.04 L2237.28 1468.34 L2238.27 1467.47 L2243.84 1462.89 L2246.19 1460.91 L2269.20 1441.61 L2295.56 1419.58 L2326.13 1393.96 L2326.38 1393.84 L2327.86 1392.48 L2343.08 1379.86 L2366.10 1360.55 L2416.09 1318.72 L2419.93 1315.50 L2436.89 1301.27 L2467.20 1275.90 L2504.45 1244.72 L2579.57 1181.85 L2585.39 1177.02 L2622.39 1146.08 L2662.48 1112.42 L2689.34 1090.02 L2725.10 1060.08 L2744.65 1043.74 L2869.64 939.17 L2932.88 886.20 L3037.07 799.08 L3073.33 768.64 L3089.17 755.39 L3795.66 164.22" stroke-linejoin="round" style="fill:none;stroke:#1A476F;stroke-width:8.64"/>
	<line x1="390.80" y1="2489.19" x2="390.80" y2="100.86" style="stroke:#000000;stroke-width:5.76"/>
	<line x1="390.80" y1="2425.82" x2="350.83" y2="2425.82" style="stroke:#000000;stroke-width:5.76"/>
	<text x="300.72" y="2425.82" style="font-family:'Helvetica';font-size:99.99px;fill:#000000" transform="rotate(-90 300.72,2425.82)" text-anchor="middle">0</text>
	<line x1="390.80" y1="1891.08" x2="350.83" y2="1891.08" style="stroke:#000000;stroke-width:5.76"/>
	<text x="300.72" y="1891.08" style="font-family:'Helvetica';font-size:99.99px;fill:#000000" transform="rotate(-90 300.72,1891.08)" text-anchor="middle">2</text>
	<line x1="390.80" y1="1356.34" x2="350.83" y2="1356.34" style="stroke:#000000;stroke-width:5.76"/>
	<text x="300.72" y="1356.34" style="font-family:'Helvetica';font-size:99.99px;fill:#000000" transform="rotate(-90 300.72,1356.34)" text-anchor="middle">4</text>
	<line x1="390.80" y1="821.73" x2="350.83" y2="821.73" style="stroke:#000000;stroke-width:5.76"/>
	<text x="300.72" y="821.73" style="font-family:'Helvetica';font-size:99.99px;fill:#000000" transform="rotate(-90 300.72,821.73)" text-anchor="middle">6</text>
	<line x1="390.80" y1="286.99" x2="350.83" y2="286.99" style="stroke:#000000;stroke-width:5.76"/>
	<text x="300.72" y="286.99" style="font-family:'Helvetica';font-size:99.99px;fill:#000000" transform="rotate(-90 300.72,286.99)" text-anchor="middle">8</text>
	<text x="190.71" y="1294.96" style="font-family:'Helvetica';font-size:99.99px;fill:#000000" transform="rotate(-90 190.71,1294.96)" text-anchor="middle">y5</text>
	<line x1="390.80" y1="2489.19" x2="3859.02" y2="2489.19" style="stroke:#000000;stroke-width:5.76"/>
	<line x1="454.16" y1="2489.19" x2="454.16" y2="2529.16" style="stroke:#000000;stroke-width:5.76"/>
	<text x="454.16" y="2619.14" style="font-family:'Helvetica';font-size:99.99px;fill:#000000" text-anchor="middle">0</text>
	<line x1="1093.08" y1="2489.19" x2="1093.08" y2="2529.16" style="stroke:#000000;stroke-width:5.76"/>
	<text x="1093.08" y="2619.14" style="font-family:'Helvetica';font-size:99.99px;fill:#000000" text-anchor="middle">2</text>
	<line x1="1732.13" y1="2489.19" x2="1732.13" y2="2529.16" style="stroke:#000000;stroke-width:5.76"/>
	<text x="1732.13" y="2619.14" style="font-family:'Helvetica';font-size:99.99px;fill:#000000" text-anchor="middle">4</text>
	<line x1="2371.05" y1="2489.19" x2="2371.05" y2="2529.16" style="stroke:#000000;stroke-width:5.76"/>
	<text x="2371.05" y="2619.14" style="font-family:'Helvetica';font-size:99.99px;fill:#000000" text-anchor="middle">6</text>
	<line x1="3010.10" y1="2489.19" x2="3010.10" y2="2529.16" style="stroke:#000000;stroke-width:5.76"/>
	<text x="3010.10" y="2619.14" style="font-family:'Helvetica';font-size:99.99px;fill:#000000" text-anchor="middle">8</text>
	<line x1="3649.02" y1="2489.19" x2="3649.02" y2="2529.16" style="stroke:#000000;stroke-width:5.76"/>
	<text x="3649.02" y="2619.14" style="font-family:'Helvetica';font-size:99.99px;fill:#000000" text-anchor="middle">10</text>
	<text x="2124.91" y="2729.16" style="font-family:'Helvetica';font-size:99.99px;fill:#000000" text-anchor="middle">x</text>
</svg>
