<?xml version="1.0" encoding="UTF-8" standalone="no"?>
<!-- This is a Stata 18.0 generated SVG file (http://www.stata.com) -->

<svg version="1.1" width="7.500in" height="4.500in" viewBox="0 0 5400 3240" xmlns="http://www.w3.org/2000/svg" xmlns:xlink="http://www.w3.org/1999/xlink">
	<desc>Stata Graph - Graph</desc>
	<rect x="0" y="0" width="5400" height="3240" style="fill:#FFFFFF;stroke:none"/>
	<rect x="0.00" y="0.00" width="5400.00" height="3240.00" style="fill:#FFFFFF"/>
	<rect x="3.24" y="3.24" width="5393.52" height="3233.52" style="fill:none;stroke:#FFFFFF;stroke-width:6.48"/>
	<rect x="492.24" y="113.40" width="1900.13" height="2653.26" style="fill:#FFFFFF"/>
	<rect x="495.48" y="116.64" width="1893.65" height="2646.78" style="fill:none;stroke:#FFFFFF;stroke-width:6.48"/>
	<line x1="492.24" y1="2695.28" x2="557.04" y2="2695.28" style="stroke:#F0F0F0;stroke-width:9.72"/>
	<line x1="589.44" y1="2695.28" x2="654.24" y2="2695.28" style="stroke:#F0F0F0;stroke-width:9.72"/>
	<line x1="686.64" y1="2695.28" x2="751.44" y2="2695.28" style="stroke:#F0F0F0;stroke-width:9.72"/>
	<line x1="783.84" y1="2695.28" x2="848.64" y2="2695.28" style="stroke:#F0F0F0;stroke-width:9.72"/>
	<line x1="881.04" y1="2695.28" x2="945.84" y2="2695.28" style="stroke:#F0F0F0;stroke-width:9.72"/>
	<line x1="978.24" y1="2695.28" x2="1043.04" y2="2695.28" style="stroke:#F0F0F0;stroke-width:9.72"/>
	<line x1="1075.44" y1="2695.28" x2="1140.24" y2="2695.28" style="stroke:#F0F0F0;stroke-width:9.72"/>
	<line x1="1172.64" y1="2695.28" x2="1237.44" y2="2695.28" style="stroke:#F0F0F0;stroke-width:9.72"/>
	<line x1="1269.84" y1="2695.28" x2="1334.64" y2="2695.28" style="stroke:#F0F0F0;stroke-width:9.72"/>
	<line x1="1367.04" y1="2695.28" x2="1431.84" y2="2695.28" style="stroke:#F0F0F0;stroke-width:9.72"/>
	<line x1="1464.24" y1="2695.28" x2="1529.04" y2="2695.28" style="stroke:#F0F0F0;stroke-width:9.72"/>
	<line x1="1561.44" y1="2695.28" x2="1626.24" y2="2695.28" style="stroke:#F0F0F0;stroke-width:9.72"/>
	<line x1="1658.64" y1="2695.28" x2="1723.44" y2="2695.28" style="stroke:#F0F0F0;stroke-width:9.72"/>
	<line x1="1755.84" y1="2695.28" x2="1820.64" y2="2695.28" style="stroke:#F0F0F0;stroke-width:9.72"/>
	<line x1="1853.04" y1="2695.28" x2="1917.84" y2="2695.28" style="stroke:#F0F0F0;stroke-width:9.72"/>
	<line x1="1950.24" y1="2695.28" x2="2015.04" y2="2695.28" style="stroke:#F0F0F0;stroke-width:9.72"/>
	<line x1="2047.44" y1="2695.28" x2="2112.24" y2="2695.28" style="stroke:#F0F0F0;stroke-width:9.72"/>
	<line x1="2144.64" y1="2695.28" x2="2209.44" y2="2695.28" style="stroke:#F0F0F0;stroke-width:9.72"/>
	<line x1="2241.84" y1="2695.28" x2="2306.64" y2="2695.28" style="stroke:#F0F0F0;stroke-width:9.72"/>
	<line x1="2339.04" y1="2695.28" x2="2392.37" y2="2695.28" style="stroke:#F0F0F0;stroke-width:9.72"/>
	<line x1="492.24" y1="2067.69" x2="557.04" y2="2067.69" style="stroke:#F0F0F0;stroke-width:9.72"/>
	<line x1="589.44" y1="2067.69" x2="654.24" y2="2067.69" style="stroke:#F0F0F0;stroke-width:9.72"/>
	<line x1="686.64" y1="2067.69" x2="751.44" y2="2067.69" style="stroke:#F0F0F0;stroke-width:9.72"/>
	<line x1="783.84" y1="2067.69" x2="848.64" y2="2067.69" style="stroke:#F0F0F0;stroke-width:9.72"/>
	<line x1="881.04" y1="2067.69" x2="945.84" y2="2067.69" style="stroke:#F0F0F0;stroke-width:9.72"/>
	<line x1="978.24" y1="2067.69" x2="1043.04" y2="2067.69" style="stroke:#F0F0F0;stroke-width:9.72"/>
	<line x1="1075.44" y1="2067.69" x2="1140.24" y2="2067.69" style="stroke:#F0F0F0;stroke-width:9.72"/>
	<line x1="1172.64" y1="2067.69" x2="1237.44" y2="2067.69" style="stroke:#F0F0F0;stroke-width:9.72"/>
	<line x1="1269.84" y1="2067.69" x2="1334.64" y2="2067.69" style="stroke:#F0F0F0;stroke-width:9.72"/>
	<line x1="1367.04" y1="2067.69" x2="1431.84" y2="2067.69" style="stroke:#F0F0F0;stroke-width:9.72"/>
	<line x1="1464.24" y1="2067.69" x2="1529.04" y2="2067.69" style="stroke:#F0F0F0;stroke-width:9.72"/>
	<line x1="1561.44" y1="2067.69" x2="1626.24" y2="2067.69" style="stroke:#F0F0F0;stroke-width:9.72"/>
	<line x1="1658.64" y1="2067.69" x2="1723.44" y2="2067.69" style="stroke:#F0F0F0;stroke-width:9.72"/>
	<line x1="1755.84" y1="2067.69" x2="1820.64" y2="2067.69" style="stroke:#F0F0F0;stroke-width:9.72"/>
	<line x1="1853.04" y1="2067.69" x2="1917.84" y2="2067.69" style="stroke:#F0F0F0;stroke-width:9.72"/>
	<line x1="1950.24" y1="2067.69" x2="2015.04" y2="2067.69" style="stroke:#F0F0F0;stroke-width:9.72"/>
	<line x1="2047.44" y1="2067.69" x2="2112.24" y2="2067.69" style="stroke:#F0F0F0;stroke-width:9.72"/>
	<line x1="2144.64" y1="2067.69" x2="2209.44" y2="2067.69" style="stroke:#F0F0F0;stroke-width:9.72"/>
	<line x1="2241.84" y1="2067.69" x2="2306.64" y2="2067.69" style="stroke:#F0F0F0;stroke-width:9.72"/>
	<line x1="2339.04" y1="2067.69" x2="2392.37" y2="2067.69" style="stroke:#F0F0F0;stroke-width:9.72"/>
	<line x1="492.24" y1="1439.94" x2="557.04" y2="1439.94" style="stroke:#F0F0F0;stroke-width:9.72"/>
	<line x1="589.44" y1="1439.94" x2="654.24" y2="1439.94" style="stroke:#F0F0F0;stroke-width:9.72"/>
	<line x1="686.64" y1="1439.94" x2="751.44" y2="1439.94" style="stroke:#F0F0F0;stroke-width:9.72"/>
	<line x1="783.84" y1="1439.94" x2="848.64" y2="1439.94" style="stroke:#F0F0F0;stroke-width:9.72"/>
	<line x1="881.04" y1="1439.94" x2="945.84" y2="1439.94" style="stroke:#F0F0F0;stroke-width:9.72"/>
	<line x1="978.24" y1="1439.94" x2="1043.04" y2="1439.94" style="stroke:#F0F0F0;stroke-width:9.72"/>
	<line x1="1075.44" y1="1439.94" x2="1140.24" y2="1439.94" style="stroke:#F0F0F0;stroke-width:9.72"/>
	<line x1="1172.64" y1="1439.94" x2="1237.44" y2="1439.94" style="stroke:#F0F0F0;stroke-width:9.72"/>
	<line x1="1269.84" y1="1439.94" x2="1334.64" y2="1439.94" style="stroke:#F0F0F0;stroke-width:9.72"/>
	<line x1="1367.04" y1="1439.94" x2="1431.84" y2="1439.94" style="stroke:#F0F0F0;stroke-width:9.72"/>
	<line x1="1464.24" y1="1439.94" x2="1529.04" y2="1439.94" style="stroke:#F0F0F0;stroke-width:9.72"/>
	<line x1="1561.44" y1="1439.94" x2="1626.24" y2="1439.94" style="stroke:#F0F0F0;stroke-width:9.72"/>
	<line x1="1658.64" y1="1439.94" x2="1723.44" y2="1439.94" style="stroke:#F0F0F0;stroke-width:9.72"/>
	<line x1="1755.84" y1="1439.94" x2="1820.64" y2="1439.94" style="stroke:#F0F0F0;stroke-width:9.72"/>
	<line x1="1853.04" y1="1439.94" x2="1917.84" y2="1439.94" style="stroke:#F0F0F0;stroke-width:9.72"/>
	<line x1="1950.24" y1="1439.94" x2="2015.04" y2="1439.94" style="stroke:#F0F0F0;stroke-width:9.72"/>
	<line x1="2047.44" y1="1439.94" x2="2112.24" y2="1439.94" style="stroke:#F0F0F0;stroke-width:9.72"/>
	<line x1="2144.64" y1="1439.94" x2="2209.44" y2="1439.94" style="stroke:#F0F0F0;stroke-width:9.72"/>
	<line x1="2241.84" y1="1439.94" x2="2306.64" y2="1439.94" style="stroke:#F0F0F0;stroke-width:9.72"/>
	<line x1="2339.04" y1="1439.94" x2="2392.37" y2="1439.94" style="stroke:#F0F0F0;stroke-width:9.72"/>
	<line x1="492.24" y1="812.36" x2="557.04" y2="812.36" style="stroke:#F0F0F0;stroke-width:9.72"/>
	<line x1="589.44" y1="812.36" x2="654.24" y2="812.36" style="stroke:#F0F0F0;stroke-width:9.72"/>
	<line x1="686.64" y1="812.36" x2="751.44" y2="812.36" style="stroke:#F0F0F0;stroke-width:9.72"/>
	<line x1="783.84" y1="812.36" x2="848.64" y2="812.36" style="stroke:#F0F0F0;stroke-width:9.72"/>
	<line x1="881.04" y1="812.36" x2="945.84" y2="812.36" style="stroke:#F0F0F0;stroke-width:9.72"/>
	<line x1="978.24" y1="812.36" x2="1043.04" y2="812.36" style="stroke:#F0F0F0;stroke-width:9.72"/>
	<line x1="1075.44" y1="812.36" x2="1140.24" y2="812.36" style="stroke:#F0F0F0;stroke-width:9.72"/>
	<line x1="1172.64" y1="812.36" x2="1237.44" y2="812.36" style="stroke:#F0F0F0;stroke-width:9.72"/>
	<line x1="1269.84" y1="812.36" x2="1334.64" y2="812.36" style="stroke:#F0F0F0;stroke-width:9.72"/>
	<line x1="1367.04" y1="812.36" x2="1431.84" y2="812.36" style="stroke:#F0F0F0;stroke-width:9.72"/>
	<line x1="1464.24" y1="812.36" x2="1529.04" y2="812.36" style="stroke:#F0F0F0;stroke-width:9.72"/>
	<line x1="1561.44" y1="812.36" x2="1626.24" y2="812.36" style="stroke:#F0F0F0;stroke-width:9.72"/>
	<line x1="1658.64" y1="812.36" x2="1723.44" y2="812.36" style="stroke:#F0F0F0;stroke-width:9.72"/>
	<line x1="1755.84" y1="812.36" x2="1820.64" y2="812.36" style="stroke:#F0F0F0;stroke-width:9.72"/>
	<line x1="1853.04" y1="812.36" x2="1917.84" y2="812.36" style="stroke:#F0F0F0;stroke-width:9.72"/>
	<line x1="1950.24" y1="812.36" x2="2015.04" y2="812.36" style="stroke:#F0F0F0;stroke-width:9.72"/>
	<line x1="2047.44" y1="812.36" x2="2112.24" y2="812.36" style="stroke:#F0F0F0;stroke-width:9.72"/>
	<line x1="2144.64" y1="812.36" x2="2209.44" y2="812.36" style="stroke:#F0F0F0;stroke-width:9.72"/>
	<line x1="2241.84" y1="812.36" x2="2306.64" y2="812.36" style="stroke:#F0F0F0;stroke-width:9.72"/>
	<line x1="2339.04" y1="812.36" x2="2392.37" y2="812.36" style="stroke:#F0F0F0;stroke-width:9.72"/>
	<line x1="492.24" y1="184.61" x2="557.04" y2="184.61" style="stroke:#F0F0F0;stroke-width:9.72"/>
	<line x1="589.44" y1="184.61" x2="654.24" y2="184.61" style="stroke:#F0F0F0;stroke-width:9.72"/>
	<line x1="686.64" y1="184.61" x2="751.44" y2="184.61" style="stroke:#F0F0F0;stroke-width:9.72"/>
	<line x1="783.84" y1="184.61" x2="848.64" y2="184.61" style="stroke:#F0F0F0;stroke-width:9.72"/>
	<line x1="881.04" y1="184.61" x2="945.84" y2="184.61" style="stroke:#F0F0F0;stroke-width:9.72"/>
	<line x1="978.24" y1="184.61" x2="1043.04" y2="184.61" style="stroke:#F0F0F0;stroke-width:9.72"/>
	<line x1="1075.44" y1="184.61" x2="1140.24" y2="184.61" style="stroke:#F0F0F0;stroke-width:9.72"/>
	<line x1="1172.64" y1="184.61" x2="1237.44" y2="184.61" style="stroke:#F0F0F0;stroke-width:9.72"/>
	<line x1="1269.84" y1="184.61" x2="1334.64" y2="184.61" style="stroke:#F0F0F0;stroke-width:9.72"/>
	<line x1="1367.04" y1="184.61" x2="1431.84" y2="184.61" style="stroke:#F0F0F0;stroke-width:9.72"/>
	<line x1="1464.24" y1="184.61" x2="1529.04" y2="184.61" style="stroke:#F0F0F0;stroke-width:9.72"/>
	<line x1="1561.44" y1="184.61" x2="1626.24" y2="184.61" style="stroke:#F0F0F0;stroke-width:9.72"/>
	<line x1="1658.64" y1="184.61" x2="1723.44" y2="184.61" style="stroke:#F0F0F0;stroke-width:9.72"/>
	<line x1="1755.84" y1="184.61" x2="1820.64" y2="184.61" style="stroke:#F0F0F0;stroke-width:9.72"/>
	<line x1="1853.04" y1="184.61" x2="1917.84" y2="184.61" style="stroke:#F0F0F0;stroke-width:9.72"/>
	<line x1="1950.24" y1="184.61" x2="2015.04" y2="184.61" style="stroke:#F0F0F0;stroke-width:9.72"/>
	<line x1="2047.44" y1="184.61" x2="2112.24" y2="184.61" style="stroke:#F0F0F0;stroke-width:9.72"/>
	<line x1="2144.64" y1="184.61" x2="2209.44" y2="184.61" style="stroke:#F0F0F0;stroke-width:9.72"/>
	<line x1="2241.84" y1="184.61" x2="2306.64" y2="184.61" style="stroke:#F0F0F0;stroke-width:9.72"/>
	<line x1="2339.04" y1="184.61" x2="2392.37" y2="184.61" style="stroke:#F0F0F0;stroke-width:9.72"/>
	<line x1="563.46" y1="2766.66" x2="563.46" y2="2701.86" style="stroke:#F0F0F0;stroke-width:9.72"/>
	<line x1="563.46" y1="2669.46" x2="563.46" y2="2604.66" style="stroke:#F0F0F0;stroke-width:9.72"/>
	<line x1="563.46" y1="2572.26" x2="563.46" y2="2507.46" style="stroke:#F0F0F0;stroke-width:9.72"/>
	<line x1="563.46" y1="2475.06" x2="563.46" y2="2410.26" style="stroke:#F0F0F0;stroke-width:9.72"/>
	<line x1="563.46" y1="2377.86" x2="563.46" y2="2313.06" style="stroke:#F0F0F0;stroke-width:9.72"/>
	<line x1="563.46" y1="2280.66" x2="563.46" y2="2215.86" style="stroke:#F0F0F0;stroke-width:9.72"/>
	<line x1="563.46" y1="2183.46" x2="563.46" y2="2118.66" style="stroke:#F0F0F0;stroke-width:9.72"/>
	<line x1="563.46" y1="2086.26" x2="563.46" y2="2021.46" style="stroke:#F0F0F0;stroke-width:9.72"/>
	<line x1="563.46" y1="1989.06" x2="563.46" y2="1924.26" style="stroke:#F0F0F0;stroke-width:9.72"/>
	<line x1="563.46" y1="1891.86" x2="563.46" y2="1827.06" style="stroke:#F0F0F0;stroke-width:9.72"/>
	<line x1="563.46" y1="1794.66" x2="563.46" y2="1729.86" style="stroke:#F0F0F0;stroke-width:9.72"/>
	<line x1="563.46" y1="1697.46" x2="563.46" y2="1632.66" style="stroke:#F0F0F0;stroke-width:9.72"/>
	<line x1="563.46" y1="1600.26" x2="563.46" y2="1535.46" style="stroke:#F0F0F0;stroke-width:9.72"/>
	<line x1="563.46" y1="1503.06" x2="563.46" y2="1438.26" style="stroke:#F0F0F0;stroke-width:9.72"/>
	<line x1="563.46" y1="1405.86" x2="563.46" y2="1341.06" style="stroke:#F0F0F0;stroke-width:9.72"/>
	<line x1="563.46" y1="1308.66" x2="563.46" y2="1243.86" style="stroke:#F0F0F0;stroke-width:9.72"/>
	<line x1="563.46" y1="1211.46" x2="563.46" y2="1146.66" style="stroke:#F0F0F0;stroke-width:9.72"/>
	<line x1="563.46" y1="1114.26" x2="563.46" y2="1049.46" style="stroke:#F0F0F0;stroke-width:9.72"/>
	<line x1="563.46" y1="1017.06" x2="563.46" y2="952.26" style="stroke:#F0F0F0;stroke-width:9.72"/>
	<line x1="563.46" y1="919.86" x2="563.46" y2="855.06" style="stroke:#F0F0F0;stroke-width:9.72"/>
	<line x1="563.46" y1="822.66" x2="563.46" y2="757.86" style="stroke:#F0F0F0;stroke-width:9.72"/>
	<line x1="563.46" y1="725.46" x2="563.46" y2="660.66" style="stroke:#F0F0F0;stroke-width:9.72"/>
	<line x1="563.46" y1="628.26" x2="563.46" y2="563.46" style="stroke:#F0F0F0;stroke-width:9.72"/>
	<line x1="563.46" y1="531.06" x2="563.46" y2="466.26" style="stroke:#F0F0F0;stroke-width:9.72"/>
	<line x1="563.46" y1="433.86" x2="563.46" y2="369.06" style="stroke:#F0F0F0;stroke-width:9.72"/>
	<line x1="563.46" y1="336.66" x2="563.46" y2="271.86" style="stroke:#F0F0F0;stroke-width:9.72"/>
	<line x1="563.46" y1="239.46" x2="563.46" y2="174.66" style="stroke:#F0F0F0;stroke-width:9.72"/>
	<line x1="563.46" y1="142.26" x2="563.46" y2="113.40" style="stroke:#F0F0F0;stroke-width:9.72"/>
	<line x1="914.96" y1="2766.66" x2="914.96" y2="2701.86" style="stroke:#F0F0F0;stroke-width:9.72"/>
	<line x1="914.96" y1="2669.46" x2="914.96" y2="2604.66" style="stroke:#F0F0F0;stroke-width:9.72"/>
	<line x1="914.96" y1="2572.26" x2="914.96" y2="2507.46" style="stroke:#F0F0F0;stroke-width:9.72"/>
	<line x1="914.96" y1="2475.06" x2="914.96" y2="2410.26" style="stroke:#F0F0F0;stroke-width:9.72"/>
	<line x1="914.96" y1="2377.86" x2="914.96" y2="2313.06" style="stroke:#F0F0F0;stroke-width:9.72"/>
	<line x1="914.96" y1="2280.66" x2="914.96" y2="2215.86" style="stroke:#F0F0F0;stroke-width:9.72"/>
	<line x1="914.96" y1="2183.46" x2="914.96" y2="2118.66" style="stroke:#F0F0F0;stroke-width:9.72"/>
	<line x1="914.96" y1="2086.26" x2="914.96" y2="2021.46" style="stroke:#F0F0F0;stroke-width:9.72"/>
	<line x1="914.96" y1="1989.06" x2="914.96" y2="1924.26" style="stroke:#F0F0F0;stroke-width:9.72"/>
	<line x1="914.96" y1="1891.86" x2="914.96" y2="1827.06" style="stroke:#F0F0F0;stroke-width:9.72"/>
	<line x1="914.96" y1="1794.66" x2="914.96" y2="1729.86" style="stroke:#F0F0F0;stroke-width:9.72"/>
	<line x1="914.96" y1="1697.46" x2="914.96" y2="1632.66" style="stroke:#F0F0F0;stroke-width:9.72"/>
	<line x1="914.96" y1="1600.26" x2="914.96" y2="1535.46" style="stroke:#F0F0F0;stroke-width:9.72"/>
	<line x1="914.96" y1="1503.06" x2="914.96" y2="1438.26" style="stroke:#F0F0F0;stroke-width:9.72"/>
	<line x1="914.96" y1="1405.86" x2="914.96" y2="1341.06" style="stroke:#F0F0F0;stroke-width:9.72"/>
	<line x1="914.96" y1="1308.66" x2="914.96" y2="1243.86" style="stroke:#F0F0F0;stroke-width:9.72"/>
	<line x1="914.96" y1="1211.46" x2="914.96" y2="1146.66" style="stroke:#F0F0F0;stroke-width:9.72"/>
	<line x1="914.96" y1="1114.26" x2="914.96" y2="1049.46" style="stroke:#F0F0F0;stroke-width:9.72"/>
	<line x1="914.96" y1="1017.06" x2="914.96" y2="952.26" style="stroke:#F0F0F0;stroke-width:9.72"/>
	<line x1="914.96" y1="919.86" x2="914.96" y2="855.06" style="stroke:#F0F0F0;stroke-width:9.72"/>
	<line x1="914.96" y1="822.66" x2="914.96" y2="757.86" style="stroke:#F0F0F0;stroke-width:9.72"/>
	<line x1="914.96" y1="725.46" x2="914.96" y2="660.66" style="stroke:#F0F0F0;stroke-width:9.72"/>
	<line x1="914.96" y1="628.26" x2="914.96" y2="563.46" style="stroke:#F0F0F0;stroke-width:9.72"/>
	<line x1="914.96" y1="531.06" x2="914.96" y2="466.26" style="stroke:#F0F0F0;stroke-width:9.72"/>
	<line x1="914.96" y1="433.86" x2="914.96" y2="369.06" style="stroke:#F0F0F0;stroke-width:9.72"/>
	<line x1="914.96" y1="336.66" x2="914.96" y2="271.86" style="stroke:#F0F0F0;stroke-width:9.72"/>
	<line x1="914.96" y1="239.46" x2="914.96" y2="174.66" style="stroke:#F0F0F0;stroke-width:9.72"/>
	<line x1="914.96" y1="142.26" x2="914.96" y2="113.40" style="stroke:#F0F0F0;stroke-width:9.72"/>
	<line x1="1266.64" y1="2766.66" x2="1266.64" y2="2701.86" style="stroke:#F0F0F0;stroke-width:9.72"/>
	<line x1="1266.64" y1="2669.46" x2="1266.64" y2="2604.66" style="stroke:#F0F0F0;stroke-width:9.72"/>
	<line x1="1266.64" y1="2572.26" x2="1266.64" y2="2507.46" style="stroke:#F0F0F0;stroke-width:9.72"/>
	<line x1="1266.64" y1="2475.06" x2="1266.64" y2="2410.26" style="stroke:#F0F0F0;stroke-width:9.72"/>
	<line x1="1266.64" y1="2377.86" x2="1266.64" y2="2313.06" style="stroke:#F0F0F0;stroke-width:9.72"/>
	<line x1="1266.64" y1="2280.66" x2="1266.64" y2="2215.86" style="stroke:#F0F0F0;stroke-width:9.72"/>
	<line x1="1266.64" y1="2183.46" x2="1266.64" y2="2118.66" style="stroke:#F0F0F0;stroke-width:9.72"/>
	<line x1="1266.64" y1="2086.26" x2="1266.64" y2="2021.46" style="stroke:#F0F0F0;stroke-width:9.72"/>
	<line x1="1266.64" y1="1989.06" x2="1266.64" y2="1924.26" style="stroke:#F0F0F0;stroke-width:9.72"/>
	<line x1="1266.64" y1="1891.86" x2="1266.64" y2="1827.06" style="stroke:#F0F0F0;stroke-width:9.72"/>
	<line x1="1266.64" y1="1794.66" x2="1266.64" y2="1729.86" style="stroke:#F0F0F0;stroke-width:9.72"/>
	<line x1="1266.64" y1="1697.46" x2="1266.64" y2="1632.66" style="stroke:#F0F0F0;stroke-width:9.72"/>
	<line x1="1266.64" y1="1600.26" x2="1266.64" y2="1535.46" style="stroke:#F0F0F0;stroke-width:9.72"/>
	<line x1="1266.64" y1="1503.06" x2="1266.64" y2="1438.26" style="stroke:#F0F0F0;stroke-width:9.72"/>
	<line x1="1266.64" y1="1405.86" x2="1266.64" y2="1341.06" style="stroke:#F0F0F0;stroke-width:9.72"/>
	<line x1="1266.64" y1="1308.66" x2="1266.64" y2="1243.86" style="stroke:#F0F0F0;stroke-width:9.72"/>
	<line x1="1266.64" y1="1211.46" x2="1266.64" y2="1146.66" style="stroke:#F0F0F0;stroke-width:9.72"/>
	<line x1="1266.64" y1="1114.26" x2="1266.64" y2="1049.46" style="stroke:#F0F0F0;stroke-width:9.72"/>
	<line x1="1266.64" y1="1017.06" x2="1266.64" y2="952.26" style="stroke:#F0F0F0;stroke-width:9.72"/>
	<line x1="1266.64" y1="919.86" x2="1266.64" y2="855.06" style="stroke:#F0F0F0;stroke-width:9.72"/>
	<line x1="1266.64" y1="822.66" x2="1266.64" y2="757.86" style="stroke:#F0F0F0;stroke-width:9.72"/>
	<line x1="1266.64" y1="725.46" x2="1266.64" y2="660.66" style="stroke:#F0F0F0;stroke-width:9.72"/>
	<line x1="1266.64" y1="628.26" x2="1266.64" y2="563.46" style="stroke:#F0F0F0;stroke-width:9.72"/>
	<line x1="1266.64" y1="531.06" x2="1266.64" y2="466.26" style="stroke:#F0F0F0;stroke-width:9.72"/>
	<line x1="1266.64" y1="433.86" x2="1266.64" y2="369.06" style="stroke:#F0F0F0;stroke-width:9.72"/>
	<line x1="1266.64" y1="336.66" x2="1266.64" y2="271.86" style="stroke:#F0F0F0;stroke-width:9.72"/>
	<line x1="1266.64" y1="239.46" x2="1266.64" y2="174.66" style="stroke:#F0F0F0;stroke-width:9.72"/>
	<line x1="1266.64" y1="142.26" x2="1266.64" y2="113.40" style="stroke:#F0F0F0;stroke-width:9.72"/>
	<line x1="1618.14" y1="2766.66" x2="1618.14" y2="2701.86" style="stroke:#F0F0F0;stroke-width:9.72"/>
	<line x1="1618.14" y1="2669.46" x2="1618.14" y2="2604.66" style="stroke:#F0F0F0;stroke-width:9.72"/>
	<line x1="1618.14" y1="2572.26" x2="1618.14" y2="2507.46" style="stroke:#F0F0F0;stroke-width:9.72"/>
	<line x1="1618.14" y1="2475.06" x2="1618.14" y2="2410.26" style="stroke:#F0F0F0;stroke-width:9.72"/>
	<line x1="1618.14" y1="2377.86" x2="1618.14" y2="2313.06" style="stroke:#F0F0F0;stroke-width:9.72"/>
	<line x1="1618.14" y1="2280.66" x2="1618.14" y2="2215.86" style="stroke:#F0F0F0;stroke-width:9.72"/>
	<line x1="1618.14" y1="2183.46" x2="1618.14" y2="2118.66" style="stroke:#F0F0F0;stroke-width:9.72"/>
	<line x1="1618.14" y1="2086.26" x2="1618.14" y2="2021.46" style="stroke:#F0F0F0;stroke-width:9.72"/>
	<line x1="1618.14" y1="1989.06" x2="1618.14" y2="1924.26" style="stroke:#F0F0F0;stroke-width:9.72"/>
	<line x1="1618.14" y1="1891.86" x2="1618.14" y2="1827.06" style="stroke:#F0F0F0;stroke-width:9.72"/>
	<line x1="1618.14" y1="1794.66" x2="1618.14" y2="1729.86" style="stroke:#F0F0F0;stroke-width:9.72"/>
	<line x1="1618.14" y1="1697.46" x2="1618.14" y2="1632.66" style="stroke:#F0F0F0;stroke-width:9.72"/>
	<line x1="1618.14" y1="1600.26" x2="1618.14" y2="1535.46" style="stroke:#F0F0F0;stroke-width:9.72"/>
	<line x1="1618.14" y1="1503.06" x2="1618.14" y2="1438.26" style="stroke:#F0F0F0;stroke-width:9.72"/>
	<line x1="1618.14" y1="1405.86" x2="1618.14" y2="1341.06" style="stroke:#F0F0F0;stroke-width:9.72"/>
	<line x1="1618.14" y1="1308.66" x2="1618.14" y2="1243.86" style="stroke:#F0F0F0;stroke-width:9.72"/>
	<line x1="1618.14" y1="1211.46" x2="1618.14" y2="1146.66" style="stroke:#F0F0F0;stroke-width:9.72"/>
	<line x1="1618.14" y1="1114.26" x2="1618.14" y2="1049.46" style="stroke:#F0F0F0;stroke-width:9.72"/>
	<line x1="1618.14" y1="1017.06" x2="1618.14" y2="952.26" style="stroke:#F0F0F0;stroke-width:9.72"/>
	<line x1="1618.14" y1="919.86" x2="1618.14" y2="855.06" style="stroke:#F0F0F0;stroke-width:9.72"/>
	<line x1="1618.14" y1="822.66" x2="1618.14" y2="757.86" style="stroke:#F0F0F0;stroke-width:9.72"/>
	<line x1="1618.14" y1="725.46" x2="1618.14" y2="660.66" style="stroke:#F0F0F0;stroke-width:9.72"/>
	<line x1="1618.14" y1="628.26" x2="1618.14" y2="563.46" style="stroke:#F0F0F0;stroke-width:9.72"/>
	<line x1="1618.14" y1="531.06" x2="1618.14" y2="466.26" style="stroke:#F0F0F0;stroke-width:9.72"/>
	<line x1="1618.14" y1="433.86" x2="1618.14" y2="369.06" style="stroke:#F0F0F0;stroke-width:9.72"/>
	<line x1="1618.14" y1="336.66" x2="1618.14" y2="271.86" style="stroke:#F0F0F0;stroke-width:9.72"/>
	<line x1="1618.14" y1="239.46" x2="1618.14" y2="174.66" style="stroke:#F0F0F0;stroke-width:9.72"/>
	<line x1="1618.14" y1="142.26" x2="1618.14" y2="113.40" style="stroke:#F0F0F0;stroke-width:9.72"/>
	<line x1="1969.65" y1="2766.66" x2="1969.65" y2="2701.86" style="stroke:#F0F0F0;stroke-width:9.72"/>
	<line x1="1969.65" y1="2669.46" x2="1969.65" y2="2604.66" style="stroke:#F0F0F0;stroke-width:9.72"/>
	<line x1="1969.65" y1="2572.26" x2="1969.65" y2="2507.46" style="stroke:#F0F0F0;stroke-width:9.72"/>
	<line x1="1969.65" y1="2475.06" x2="1969.65" y2="2410.26" style="stroke:#F0F0F0;stroke-width:9.72"/>
	<line x1="1969.65" y1="2377.86" x2="1969.65" y2="2313.06" style="stroke:#F0F0F0;stroke-width:9.72"/>
	<line x1="1969.65" y1="2280.66" x2="1969.65" y2="2215.86" style="stroke:#F0F0F0;stroke-width:9.72"/>
	<line x1="1969.65" y1="2183.46" x2="1969.65" y2="2118.66" style="stroke:#F0F0F0;stroke-width:9.72"/>
	<line x1="1969.65" y1="2086.26" x2="1969.65" y2="2021.46" style="stroke:#F0F0F0;stroke-width:9.72"/>
	<line x1="1969.65" y1="1989.06" x2="1969.65" y2="1924.26" style="stroke:#F0F0F0;stroke-width:9.72"/>
	<line x1="1969.65" y1="1891.86" x2="1969.65" y2="1827.06" style="stroke:#F0F0F0;stroke-width:9.72"/>
	<line x1="1969.65" y1="1794.66" x2="1969.65" y2="1729.86" style="stroke:#F0F0F0;stroke-width:9.72"/>
	<line x1="1969.65" y1="1697.46" x2="1969.65" y2="1632.66" style="stroke:#F0F0F0;stroke-width:9.72"/>
	<line x1="1969.65" y1="1600.26" x2="1969.65" y2="1535.46" style="stroke:#F0F0F0;stroke-width:9.72"/>
	<line x1="1969.65" y1="1503.06" x2="1969.65" y2="1438.26" style="stroke:#F0F0F0;stroke-width:9.72"/>
	<line x1="1969.65" y1="1405.86" x2="1969.65" y2="1341.06" style="stroke:#F0F0F0;stroke-width:9.72"/>
	<line x1="1969.65" y1="1308.66" x2="1969.65" y2="1243.86" style="stroke:#F0F0F0;stroke-width:9.72"/>
	<line x1="1969.65" y1="1211.46" x2="1969.65" y2="1146.66" style="stroke:#F0F0F0;stroke-width:9.72"/>
	<line x1="1969.65" y1="1114.26" x2="1969.65" y2="1049.46" style="stroke:#F0F0F0;stroke-width:9.72"/>
	<line x1="1969.65" y1="1017.06" x2="1969.65" y2="952.26" style="stroke:#F0F0F0;stroke-width:9.72"/>
	<line x1="1969.65" y1="919.86" x2="1969.65" y2="855.06" style="stroke:#F0F0F0;stroke-width:9.72"/>
	<line x1="1969.65" y1="822.66" x2="1969.65" y2="757.86" style="stroke:#F0F0F0;stroke-width:9.72"/>
	<line x1="1969.65" y1="725.46" x2="1969.65" y2="660.66" style="stroke:#F0F0F0;stroke-width:9.72"/>
	<line x1="1969.65" y1="628.26" x2="1969.65" y2="563.46" style="stroke:#F0F0F0;stroke-width:9.72"/>
	<line x1="1969.65" y1="531.06" x2="1969.65" y2="466.26" style="stroke:#F0F0F0;stroke-width:9.72"/>
	<line x1="1969.65" y1="433.86" x2="1969.65" y2="369.06" style="stroke:#F0F0F0;stroke-width:9.72"/>
	<line x1="1969.65" y1="336.66" x2="1969.65" y2="271.86" style="stroke:#F0F0F0;stroke-width:9.72"/>
	<line x1="1969.65" y1="239.46" x2="1969.65" y2="174.66" style="stroke:#F0F0F0;stroke-width:9.72"/>
	<line x1="1969.65" y1="142.26" x2="1969.65" y2="113.40" style="stroke:#F0F0F0;stroke-width:9.72"/>
	<line x1="2321.16" y1="2766.66" x2="2321.16" y2="2701.86" style="stroke:#F0F0F0;stroke-width:9.72"/>
	<line x1="2321.16" y1="2669.46" x2="2321.16" y2="2604.66" style="stroke:#F0F0F0;stroke-width:9.72"/>
	<line x1="2321.16" y1="2572.26" x2="2321.16" y2="2507.46" style="stroke:#F0F0F0;stroke-width:9.72"/>
	<line x1="2321.16" y1="2475.06" x2="2321.16" y2="2410.26" style="stroke:#F0F0F0;stroke-width:9.72"/>
	<line x1="2321.16" y1="2377.86" x2="2321.16" y2="2313.06" style="stroke:#F0F0F0;stroke-width:9.72"/>
	<line x1="2321.16" y1="2280.66" x2="2321.16" y2="2215.86" style="stroke:#F0F0F0;stroke-width:9.72"/>
	<line x1="2321.16" y1="2183.46" x2="2321.16" y2="2118.66" style="stroke:#F0F0F0;stroke-width:9.72"/>
	<line x1="2321.16" y1="2086.26" x2="2321.16" y2="2021.46" style="stroke:#F0F0F0;stroke-width:9.72"/>
	<line x1="2321.16" y1="1989.06" x2="2321.16" y2="1924.26" style="stroke:#F0F0F0;stroke-width:9.72"/>
	<line x1="2321.16" y1="1891.86" x2="2321.16" y2="1827.06" style="stroke:#F0F0F0;stroke-width:9.72"/>
	<line x1="2321.16" y1="1794.66" x2="2321.16" y2="1729.86" style="stroke:#F0F0F0;stroke-width:9.72"/>
	<line x1="2321.16" y1="1697.46" x2="2321.16" y2="1632.66" style="stroke:#F0F0F0;stroke-width:9.72"/>
	<line x1="2321.16" y1="1600.26" x2="2321.16" y2="1535.46" style="stroke:#F0F0F0;stroke-width:9.72"/>
	<line x1="2321.16" y1="1503.06" x2="2321.16" y2="1438.26" style="stroke:#F0F0F0;stroke-width:9.72"/>
	<line x1="2321.16" y1="1405.86" x2="2321.16" y2="1341.06" style="stroke:#F0F0F0;stroke-width:9.72"/>
	<line x1="2321.16" y1="1308.66" x2="2321.16" y2="1243.86" style="stroke:#F0F0F0;stroke-width:9.72"/>
	<line x1="2321.16" y1="1211.46" x2="2321.16" y2="1146.66" style="stroke:#F0F0F0;stroke-width:9.72"/>
	<line x1="2321.16" y1="1114.26" x2="2321.16" y2="1049.46" style="stroke:#F0F0F0;stroke-width:9.72"/>
	<line x1="2321.16" y1="1017.06" x2="2321.16" y2="952.26" style="stroke:#F0F0F0;stroke-width:9.72"/>
	<line x1="2321.16" y1="919.86" x2="2321.16" y2="855.06" style="stroke:#F0F0F0;stroke-width:9.72"/>
	<line x1="2321.16" y1="822.66" x2="2321.16" y2="757.86" style="stroke:#F0F0F0;stroke-width:9.72"/>
	<line x1="2321.16" y1="725.46" x2="2321.16" y2="660.66" style="stroke:#F0F0F0;stroke-width:9.72"/>
	<line x1="2321.16" y1="628.26" x2="2321.16" y2="563.46" style="stroke:#F0F0F0;stroke-width:9.72"/>
	<line x1="2321.16" y1="531.06" x2="2321.16" y2="466.26" style="stroke:#F0F0F0;stroke-width:9.72"/>
	<line x1="2321.16" y1="433.86" x2="2321.16" y2="369.06" style="stroke:#F0F0F0;stroke-width:9.72"/>
	<line x1="2321.16" y1="336.66" x2="2321.16" y2="271.86" style="stroke:#F0F0F0;stroke-width:9.72"/>
	<line x1="2321.16" y1="239.46" x2="2321.16" y2="174.66" style="stroke:#F0F0F0;stroke-width:9.72"/>
	<line x1="2321.16" y1="142.26" x2="2321.16" y2="113.40" style="stroke:#F0F0F0;stroke-width:9.72"/>
	<path d=" M735.92 1529.55 L774.39 1532.25 L776.93 1524.99 L790.43 1514.70 L844.59 1522.63 L938.76 1520.27 L1000.86 1494.11 L1030.22 1513.69 L1049.96 1496.81 L1069.20 1493.27 L1105.65 1508.29 L1168.93 1499.68 L1221.92 1487.53 L1266.81 1498.33 L1343.42 1505.59 L1384.93 1503.90 L1386.96 1522.80 L1394.72 1520.61 L1402.48 1516.05 L1445.85 1517.23 L1506.60 1512.84 L1545.41 1523.31 L1567.01 1508.63 L1571.91 1501.88 L1584.56 1499.68 L1623.04 1500.36 L1664.21 1509.98 L1730.70 1507.28 L1796.01 1486.86 L1812.04 1505.76 L1820.81 1501.20 L1825.03 1497.15 L1861.48 1513.18 L1901.14 1528.71 L1913.46 1535.63 L1934.21 1537.48 L1965.94 1520.61 L1985.34 1520.27 L2007.62 1510.99 L2032.76 1523.64 L2052.51 1519.09 L2082.54 1503.90 L2111.74 1491.92 L2130.81 1487.03 L2149.54 1490.06 L2180.08 1501.71 L2222.61 1480.44 L2261.08 1512.17 L2274.75 1512.51 L2286.90 1511.83 L2309.85 1527.53" stroke-linejoin="round" style="fill:none;stroke:#000000;stroke-width:14.58"/>
	<path d=" M735.92 385.59 L774.39 384.75 L776.93 382.39 L790.43 368.72 L844.59 381.38 L938.76 375.30 L1000.86 348.30 L1030.22 369.73 L1049.96 370.74 L1069.20 365.51 L1105.65 375.81 L1168.93 372.77 L1221.92 368.55 L1266.81 371.59 L1343.42 370.91 L1384.93 371.08 L1386.96 382.89 L1394.72 385.93 L1402.48 383.23 L1445.85 380.03 L1506.60 371.25 L1545.41 389.64 L1567.01 373.44 L1571.91 362.31 L1584.56 352.01 L1623.04 344.42 L1664.21 356.06 L1730.70 355.89 L1796.01 333.79 L1812.04 366.69 L1820.81 364.50 L1825.03 373.78 L1861.48 381.04 L1901.14 387.79 L1913.46 385.59 L1934.21 393.69 L1965.94 367.71 L1985.34 383.57 L2007.62 381.54 L2032.76 387.62 L2052.51 386.10 L2082.54 367.37 L2111.74 358.76 L2130.81 360.96 L2149.54 353.70 L2180.08 375.13 L2222.61 377.16 L2261.08 397.41 L2274.75 405.34 L2286.90 396.56 L2309.85 419.34" stroke-linejoin="round" style="fill:none;stroke:#A0A0A0;stroke-width:14.58"/>
	<path d=" M735.92 2673.51 L774.39 2679.75 L776.93 2667.43 L790.43 2660.68 L844.59 2663.89 L938.76 2665.41 L1000.86 2639.93 L1030.22 2657.81 L1049.96 2622.88 L1069.20 2621.03 L1105.65 2640.77 L1168.93 2626.59 L1221.92 2606.51 L1266.81 2625.08 L1343.42 2640.26 L1384.93 2636.55 L1386.96 2662.88 L1394.72 2655.28 L1402.48 2649.04 L1445.85 2654.44 L1506.60 2654.61 L1545.41 2656.97 L1567.01 2643.98 L1571.91 2641.61 L1584.56 2647.52 L1623.04 2656.46 L1664.21 2663.72 L1730.70 2658.66 L1796.01 2640.09 L1812.04 2644.82 L1820.81 2638.07 L1825.03 2620.35 L1861.48 2645.16 L1901.14 2669.63 L1913.46 2685.49 L1934.21 2681.27 L1965.94 2673.51 L1985.34 2656.80 L2007.62 2640.60 L2032.76 2659.84 L2052.51 2652.08 L2082.54 2640.26 L2111.74 2625.08 L2130.81 2612.93 L2149.54 2626.43 L2180.08 2628.28 L2222.61 2583.56 L2261.08 2626.93 L2274.75 2619.68 L2286.90 2626.93 L2309.85 2635.54" stroke-linejoin="round" style="fill:none;stroke:#A0A0A0;stroke-width:14.58"/>
	<line x1="492.24" y1="2766.66" x2="492.24" y2="113.40" style="stroke:#000000;stroke-width:6.48"/>
	<line x1="492.24" y1="2695.28" x2="447.19" y2="2695.28" style="stroke:#000000;stroke-width:6.48"/>
	<text x="424.74" y="2734.71" style="font-family:'Helvetica';font-size:112.56px;fill:#000000" text-anchor="end">.2</text>
	<line x1="492.24" y1="2067.69" x2="447.19" y2="2067.69" style="stroke:#000000;stroke-width:6.48"/>
	<text x="424.74" y="2107.13" style="font-family:'Helvetica';font-size:112.56px;fill:#000000" text-anchor="end">.3</text>
	<line x1="492.24" y1="1439.94" x2="447.19" y2="1439.94" style="stroke:#000000;stroke-width:6.48"/>
	<text x="424.74" y="1479.38" style="font-family:'Helvetica';font-size:112.56px;fill:#000000" text-anchor="end">.4</text>
	<line x1="492.24" y1="812.36" x2="447.19" y2="812.36" style="stroke:#000000;stroke-width:6.48"/>
	<text x="424.74" y="851.80" style="font-family:'Helvetica';font-size:112.56px;fill:#000000" text-anchor="end">.5</text>
	<line x1="492.24" y1="184.61" x2="447.19" y2="184.61" style="stroke:#000000;stroke-width:6.48"/>
	<text x="424.74" y="224.05" style="font-family:'Helvetica';font-size:112.56px;fill:#000000" text-anchor="end">.6</text>
	<text x="214.55" y="1439.94" style="font-family:'Helvetica';font-size:112.56px;fill:#000000" transform="rotate(-90 214.55,1439.94)" text-anchor="middle">Estimated causal effect</text>
	<line x1="492.24" y1="2766.66" x2="2392.37" y2="2766.66" style="stroke:#000000;stroke-width:6.48"/>
	<line x1="563.46" y1="2766.66" x2="563.46" y2="2811.54" style="stroke:#000000;stroke-width:6.48"/>
	<text x="563.46" y="2912.86" style="font-family:'Helvetica';font-size:112.56px;fill:#000000" text-anchor="middle">1.35</text>
	<line x1="914.96" y1="2766.66" x2="914.96" y2="2811.54" style="stroke:#000000;stroke-width:6.48"/>
	<text x="914.96" y="2912.86" style="font-family:'Helvetica';font-size:112.56px;fill:#000000" text-anchor="middle">1.355</text>
	<line x1="1266.64" y1="2766.66" x2="1266.64" y2="2811.54" style="stroke:#000000;stroke-width:6.48"/>
	<text x="1266.64" y="2912.86" style="font-family:'Helvetica';font-size:112.56px;fill:#000000" text-anchor="middle">1.36</text>
	<line x1="1618.14" y1="2766.66" x2="1618.14" y2="2811.54" style="stroke:#000000;stroke-width:6.48"/>
	<text x="1618.14" y="2912.86" style="font-family:'Helvetica';font-size:112.56px;fill:#000000" text-anchor="middle">1.365</text>
	<line x1="1969.65" y1="2766.66" x2="1969.65" y2="2811.54" style="stroke:#000000;stroke-width:6.48"/>
	<text x="1969.65" y="2912.86" style="font-family:'Helvetica';font-size:112.56px;fill:#000000" text-anchor="middle">1.37</text>
	<line x1="2321.16" y1="2766.66" x2="2321.16" y2="2811.54" style="stroke:#000000;stroke-width:6.48"/>
	<text x="2321.16" y="2912.86" style="font-family:'Helvetica';font-size:112.56px;fill:#000000" text-anchor="middle">1.375</text>
	<text x="1442.31" y="3070.31" style="font-family:'Helvetica';font-size:112.56px;fill:#000000" text-anchor="middle">Median of exposure in moving window</text>
	<rect x="2431.35" y="1335.15" width="2816.44" height="209.76" style="fill:#FFFFFF"/>
	<rect x="2434.59" y="1338.39" width="2809.96" height="203.28" style="fill:none;stroke:#FFFFFF;stroke-width:6.48"/>
	<line x1="2479.95" y1="1439.94" x2="2739.15" y2="1439.94" style="stroke:#000000;stroke-width:14.58"/>
	<line x1="4183.31" y1="1439.94" x2="4442.51" y2="1439.94" style="stroke:#A0A0A0;stroke-width:14.58"/>
	<text x="2806.65" y="1479.38" style="font-family:'Helvetica';font-size:112.56px;fill:#000000">Estimated causal effect</text>
	<text x="4510.01" y="1479.38" style="font-family:'Helvetica';font-size:112.56px;fill:#000000">95% CI limits</text>
</svg>
