<?xml version="1.0" encoding="UTF-8" standalone="no"?>
<!-- This is a Stata 17.0 generated SVG file (http://www.stata.com) -->

<svg version="1.1" width="5.500in" height="4.000in" viewBox="0 0 3960 2880" xmlns="http://www.w3.org/2000/svg" xmlns:xlink="http://www.w3.org/1999/xlink">
	<desc>Stata Graph - Graph</desc>
	<rect x="0" y="0" width="3960" height="2880" style="fill:#EAF2F3;stroke:none"/>
	<rect x="0.00" y="0.00" width="3959.88" height="2880.00" style="fill:#EAF2F3"/>
	<rect x="2.88" y="2.88" width="3954.12" height="2874.24" style="fill:none;stroke:#EAF2F3;stroke-width:5.76"/>
	<rect x="390.80" y="100.86" width="3468.22" height="2132.77" style="fill:#FFFFFF"/>
	<rect x="393.68" y="103.74" width="3462.46" height="2127.01" style="fill:none;stroke:#FFFFFF;stroke-width:5.76"/>
	<line x1="390.80" y1="2073.00" x2="3859.02" y2="2073.00" style="stroke:#EAF2F3;stroke-width:8.64"/>
	<line x1="390.80" y1="1477.25" x2="3859.02" y2="1477.25" style="stroke:#EAF2F3;stroke-width:8.64"/>
	<line x1="390.80" y1="881.62" x2="3859.02" y2="881.62" style="stroke:#EAF2F3;stroke-width:8.64"/>
	<line x1="390.80" y1="285.87" x2="3859.02" y2="285.87" style="stroke:#EAF2F3;stroke-width:8.64"/>
	<path d=" M782.10 1484.68 L854.99 1508.44 L860.06 1491.85 L885.56 1515.86 L988.52 1498.16 L1167.71 1523.41 L1285.89 1549.65 L1341.45 1525.02 L1379.19 1444.95 L1415.70 1472.18 L1484.88 1499.53 L1605.29 1479.60 L1706.14 1459.06 L1791.41 1483.19 L1936.94 1507.69 L2015.89 1480.72 L2019.72 1505.71 L2034.70 1483.69 L2049.42 1456.58 L2131.84 1486.90 L2247.42 1518.83 L2321.05 1495.07 L2362.14 1526.88 L2371.55 1560.29 L2395.30 1589.25 L2468.57 1619.07 L2547.02 1587.64 L2673.12 1556.20 L2797.37 1591.85 L2827.94 1479.35 L2844.64 1448.04 L2852.69 1336.42 L2921.99 1368.72 L2997.35 1403.49 L3020.74 1441.24 L3060.09 1409.19 L3120.36 1450.40 L3157.48 1299.42 L3199.68 1263.28 L3247.45 1313.77 L3285.07 1270.21 L3342.24 1326.02 L3397.56 1279.00 L3433.94 1235.43 L3469.58 1298.30 L3527.62 1245.83 L3608.43 1023.07 L3681.69 1098.32 L3707.55 1036.31 L3730.82 1126.16 L3774.25 1005.13" stroke-linejoin="round" style="fill:none;stroke:#000000;stroke-width:12.96"/>
	<path d=" M782.10 1059.09 L854.99 1076.91 L860.06 1059.95 L885.56 1077.77 L988.52 1059.46 L1167.71 1078.02 L1285.89 1098.44 L1341.45 1072.20 L1379.19 999.93 L1415.70 1020.97 L1484.88 1040.89 L1605.29 1020.10 L1706.14 999.56 L1791.41 1014.53 L1936.94 1029.76 L2015.89 1000.67 L2019.72 1016.14 L2034.70 993.12 L2049.42 964.04 L2131.84 985.82 L2247.42 1008.35 L2321.05 984.83 L2362.14 1008.47 L2371.55 1031.86 L2395.30 1049.56 L2468.57 1067.75 L2547.02 1033.96 L2673.12 1000.30 L2797.37 1026.04 L2827.94 923.33 L2844.64 889.79 L2852.69 787.45 L2921.99 807.12 L2997.35 828.16 L3020.74 850.68 L3060.09 816.28 L3120.36 840.66 L3157.48 699.58 L3199.68 659.11 L3247.45 692.16 L3285.07 642.65 L3342.24 679.53 L3397.56 625.45 L3433.94 575.70 L3469.58 610.60 L3527.62 550.09 L3608.43 335.25 L3681.69 375.47 L3707.55 298.49 L3730.82 349.60 L3774.25 164.22" stroke-linejoin="round" style="fill:none;stroke:#A0A0A0;stroke-width:12.96"/>
	<path d=" M782.10 1910.26 L854.99 1939.97 L860.06 1923.88 L885.56 1953.95 L988.52 1936.87 L1167.71 1968.68 L1285.89 2000.98 L1341.45 1977.96 L1379.19 1889.97 L1415.70 1923.38 L1484.88 1958.16 L1605.29 1939.10 L1706.14 1918.68 L1791.41 1951.85 L1936.94 1985.75 L2015.89 1960.76 L2019.72 1995.28 L2034.70 1974.37 L2049.42 1949.00 L2131.84 1987.98 L2247.42 2029.19 L2321.05 2005.31 L2362.14 2045.28 L2371.55 2088.59 L2395.30 2128.94 L2468.57 2170.40 L2547.02 2141.19 L2673.12 2112.11 L2797.37 2157.52 L2827.94 2035.26 L2844.64 2006.17 L2852.69 1885.39 L2921.99 1930.44 L2997.35 1978.82 L3020.74 2031.79 L3060.09 2002.21 L3120.36 2060.13 L3157.48 1899.37 L3199.68 1867.45 L3247.45 1935.39 L3285.07 1897.89 L3342.24 1972.39 L3397.56 1932.42 L3433.94 1895.17 L3469.58 1986.13 L3527.62 1941.57 L3608.43 1711.02 L3681.69 1821.04 L3707.55 1774.26 L3730.82 1902.72 L3774.25 1846.16" stroke-linejoin="round" style="fill:none;stroke:#A0A0A0;stroke-width:12.96"/>
	<line x1="390.80" y1="2233.63" x2="390.80" y2="100.86" style="stroke:#000000;stroke-width:5.76"/>
	<line x1="390.80" y1="2073.00" x2="350.83" y2="2073.00" style="stroke:#000000;stroke-width:5.76"/>
	<text x="300.72" y="2073.00" style="font-family:'Helvetica';font-size:99.99px;fill:#000000" transform="rotate(-90 300.72,2073.00)" text-anchor="middle">-.3</text>
	<line x1="390.80" y1="1477.25" x2="350.83" y2="1477.25" style="stroke:#000000;stroke-width:5.76"/>
	<text x="300.72" y="1477.25" style="font-family:'Helvetica';font-size:99.99px;fill:#000000" transform="rotate(-90 300.72,1477.25)" text-anchor="middle">-.2</text>
	<line x1="390.80" y1="881.62" x2="350.83" y2="881.62" style="stroke:#000000;stroke-width:5.76"/>
	<text x="300.72" y="881.62" style="font-family:'Helvetica';font-size:99.99px;fill:#000000" transform="rotate(-90 300.72,881.62)" text-anchor="middle">-.1</text>
	<line x1="390.80" y1="285.87" x2="350.83" y2="285.87" style="stroke:#000000;stroke-width:5.76"/>
	<text x="300.72" y="285.87" style="font-family:'Helvetica';font-size:99.99px;fill:#000000" transform="rotate(-90 300.72,285.87)" text-anchor="middle">0</text>
	<text x="190.71" y="1167.25" style="font-family:'Helvetica';font-size:99.99px;fill:#000000" transform="rotate(-90 190.71,1167.25)" text-anchor="middle">Estimated causal effect</text>
	<line x1="390.80" y1="2233.63" x2="3859.02" y2="2233.63" style="stroke:#000000;stroke-width:5.76"/>
	<line x1="454.16" y1="2233.63" x2="454.16" y2="2273.73" style="stroke:#000000;stroke-width:5.76"/>
	<text x="454.16" y="2363.59" style="font-family:'Helvetica';font-size:99.99px;fill:#000000" text-anchor="middle">1.35</text>
	<line x1="1122.41" y1="2233.63" x2="1122.41" y2="2273.73" style="stroke:#000000;stroke-width:5.76"/>
	<text x="1122.41" y="2363.59" style="font-family:'Helvetica';font-size:99.99px;fill:#000000" text-anchor="middle">1.355</text>
	<line x1="1790.79" y1="2233.63" x2="1790.79" y2="2273.73" style="stroke:#000000;stroke-width:5.76"/>
	<text x="1790.79" y="2363.59" style="font-family:'Helvetica';font-size:99.99px;fill:#000000" text-anchor="middle">1.36</text>
	<line x1="2459.04" y1="2233.63" x2="2459.04" y2="2273.73" style="stroke:#000000;stroke-width:5.76"/>
	<text x="2459.04" y="2363.59" style="font-family:'Helvetica';font-size:99.99px;fill:#000000" text-anchor="middle">1.365</text>
	<line x1="3127.41" y1="2233.63" x2="3127.41" y2="2273.73" style="stroke:#000000;stroke-width:5.76"/>
	<text x="3127.41" y="2363.59" style="font-family:'Helvetica';font-size:99.99px;fill:#000000" text-anchor="middle">1.37</text>
	<line x1="3795.66" y1="2233.63" x2="3795.66" y2="2273.73" style="stroke:#000000;stroke-width:5.76"/>
	<text x="3795.66" y="2363.59" style="font-family:'Helvetica';font-size:99.99px;fill:#000000" text-anchor="middle">1.375</text>
	<text x="2124.91" y="2473.60" style="font-family:'Helvetica';font-size:99.99px;fill:#000000" text-anchor="middle">Median of exposure in moving window</text>
	<rect x="742.62" y="2558.24" width="2764.58" height="186.37" style="fill:#FFFFFF"/>
	<rect x="745.50" y="2561.12" width="2758.82" height="180.61" style="fill:none;stroke:#000000;stroke-width:5.76"/>
	<line x1="785.81" y1="2651.43" x2="1160.16" y2="2651.43" style="stroke:#000000;stroke-width:12.96"/>
	<line x1="2425.87" y1="2651.43" x2="2800.34" y2="2651.43" style="stroke:#A0A0A0;stroke-width:12.96"/>
	<text x="1220.18" y="2686.46" style="font-family:'Helvetica';font-size:99.99px;fill:#000000">Estimated causal effect</text>
	<text x="2860.36" y="2686.46" style="font-family:'Helvetica';font-size:99.99px;fill:#000000">95% CI limits</text>
</svg>
