<?xml version="1.0" encoding="UTF-8" standalone="no"?>
<!-- This is a Stata 18.0 generated SVG file (http://www.stata.com) -->

<svg version="1.1" width="7.500in" height="4.500in" viewBox="0 0 5400 3240" xmlns="http://www.w3.org/2000/svg" xmlns:xlink="http://www.w3.org/1999/xlink">
	<desc>Stata Graph - Graph</desc>
	<rect x="0" y="0" width="5400" height="3240" style="fill:#FFFFFF;stroke:none"/>
	<rect x="0.00" y="0.00" width="5400.00" height="3240.00" style="fill:#FFFFFF"/>
	<rect x="3.24" y="3.24" width="5393.52" height="3233.52" style="fill:none;stroke:#FFFFFF;stroke-width:6.48"/>
	<rect x="492.24" y="113.40" width="1900.13" height="2653.26" style="fill:#FFFFFF"/>
	<rect x="495.48" y="116.64" width="1893.65" height="2646.78" style="fill:none;stroke:#FFFFFF;stroke-width:6.48"/>
	<line x1="492.24" y1="2695.28" x2="557.04" y2="2695.28" style="stroke:#F0F0F0;stroke-width:9.72"/>
	<line x1="589.44" y1="2695.28" x2="654.24" y2="2695.28" style="stroke:#F0F0F0;stroke-width:9.72"/>
	<line x1="686.64" y1="2695.28" x2="751.44" y2="2695.28" style="stroke:#F0F0F0;stroke-width:9.72"/>
	<line x1="783.84" y1="2695.28" x2="848.64" y2="2695.28" style="stroke:#F0F0F0;stroke-width:9.72"/>
	<line x1="881.04" y1="2695.28" x2="945.84" y2="2695.28" style="stroke:#F0F0F0;stroke-width:9.72"/>
	<line x1="978.24" y1="2695.28" x2="1043.04" y2="2695.28" style="stroke:#F0F0F0;stroke-width:9.72"/>
	<line x1="1075.44" y1="2695.28" x2="1140.24" y2="2695.28" style="stroke:#F0F0F0;stroke-width:9.72"/>
	<line x1="1172.64" y1="2695.28" x2="1237.44" y2="2695.28" style="stroke:#F0F0F0;stroke-width:9.72"/>
	<line x1="1269.84" y1="2695.28" x2="1334.64" y2="2695.28" style="stroke:#F0F0F0;stroke-width:9.72"/>
	<line x1="1367.04" y1="2695.28" x2="1431.84" y2="2695.28" style="stroke:#F0F0F0;stroke-width:9.72"/>
	<line x1="1464.24" y1="2695.28" x2="1529.04" y2="2695.28" style="stroke:#F0F0F0;stroke-width:9.72"/>
	<line x1="1561.44" y1="2695.28" x2="1626.24" y2="2695.28" style="stroke:#F0F0F0;stroke-width:9.72"/>
	<line x1="1658.64" y1="2695.28" x2="1723.44" y2="2695.28" style="stroke:#F0F0F0;stroke-width:9.72"/>
	<line x1="1755.84" y1="2695.28" x2="1820.64" y2="2695.28" style="stroke:#F0F0F0;stroke-width:9.72"/>
	<line x1="1853.04" y1="2695.28" x2="1917.84" y2="2695.28" style="stroke:#F0F0F0;stroke-width:9.72"/>
	<line x1="1950.24" y1="2695.28" x2="2015.04" y2="2695.28" style="stroke:#F0F0F0;stroke-width:9.72"/>
	<line x1="2047.44" y1="2695.28" x2="2112.24" y2="2695.28" style="stroke:#F0F0F0;stroke-width:9.72"/>
	<line x1="2144.64" y1="2695.28" x2="2209.44" y2="2695.28" style="stroke:#F0F0F0;stroke-width:9.72"/>
	<line x1="2241.84" y1="2695.28" x2="2306.64" y2="2695.28" style="stroke:#F0F0F0;stroke-width:9.72"/>
	<line x1="2339.04" y1="2695.28" x2="2392.37" y2="2695.28" style="stroke:#F0F0F0;stroke-width:9.72"/>
	<line x1="492.24" y1="2228.01" x2="557.04" y2="2228.01" style="stroke:#F0F0F0;stroke-width:9.72"/>
	<line x1="589.44" y1="2228.01" x2="654.24" y2="2228.01" style="stroke:#F0F0F0;stroke-width:9.72"/>
	<line x1="686.64" y1="2228.01" x2="751.44" y2="2228.01" style="stroke:#F0F0F0;stroke-width:9.72"/>
	<line x1="783.84" y1="2228.01" x2="848.64" y2="2228.01" style="stroke:#F0F0F0;stroke-width:9.72"/>
	<line x1="881.04" y1="2228.01" x2="945.84" y2="2228.01" style="stroke:#F0F0F0;stroke-width:9.72"/>
	<line x1="978.24" y1="2228.01" x2="1043.04" y2="2228.01" style="stroke:#F0F0F0;stroke-width:9.72"/>
	<line x1="1075.44" y1="2228.01" x2="1140.24" y2="2228.01" style="stroke:#F0F0F0;stroke-width:9.72"/>
	<line x1="1172.64" y1="2228.01" x2="1237.44" y2="2228.01" style="stroke:#F0F0F0;stroke-width:9.72"/>
	<line x1="1269.84" y1="2228.01" x2="1334.64" y2="2228.01" style="stroke:#F0F0F0;stroke-width:9.72"/>
	<line x1="1367.04" y1="2228.01" x2="1431.84" y2="2228.01" style="stroke:#F0F0F0;stroke-width:9.72"/>
	<line x1="1464.24" y1="2228.01" x2="1529.04" y2="2228.01" style="stroke:#F0F0F0;stroke-width:9.72"/>
	<line x1="1561.44" y1="2228.01" x2="1626.24" y2="2228.01" style="stroke:#F0F0F0;stroke-width:9.72"/>
	<line x1="1658.64" y1="2228.01" x2="1723.44" y2="2228.01" style="stroke:#F0F0F0;stroke-width:9.72"/>
	<line x1="1755.84" y1="2228.01" x2="1820.64" y2="2228.01" style="stroke:#F0F0F0;stroke-width:9.72"/>
	<line x1="1853.04" y1="2228.01" x2="1917.84" y2="2228.01" style="stroke:#F0F0F0;stroke-width:9.72"/>
	<line x1="1950.24" y1="2228.01" x2="2015.04" y2="2228.01" style="stroke:#F0F0F0;stroke-width:9.72"/>
	<line x1="2047.44" y1="2228.01" x2="2112.24" y2="2228.01" style="stroke:#F0F0F0;stroke-width:9.72"/>
	<line x1="2144.64" y1="2228.01" x2="2209.44" y2="2228.01" style="stroke:#F0F0F0;stroke-width:9.72"/>
	<line x1="2241.84" y1="2228.01" x2="2306.64" y2="2228.01" style="stroke:#F0F0F0;stroke-width:9.72"/>
	<line x1="2339.04" y1="2228.01" x2="2392.37" y2="2228.01" style="stroke:#F0F0F0;stroke-width:9.72"/>
	<line x1="492.24" y1="1760.57" x2="557.04" y2="1760.57" style="stroke:#F0F0F0;stroke-width:9.72"/>
	<line x1="589.44" y1="1760.57" x2="654.24" y2="1760.57" style="stroke:#F0F0F0;stroke-width:9.72"/>
	<line x1="686.64" y1="1760.57" x2="751.44" y2="1760.57" style="stroke:#F0F0F0;stroke-width:9.72"/>
	<line x1="783.84" y1="1760.57" x2="848.64" y2="1760.57" style="stroke:#F0F0F0;stroke-width:9.72"/>
	<line x1="881.04" y1="1760.57" x2="945.84" y2="1760.57" style="stroke:#F0F0F0;stroke-width:9.72"/>
	<line x1="978.24" y1="1760.57" x2="1043.04" y2="1760.57" style="stroke:#F0F0F0;stroke-width:9.72"/>
	<line x1="1075.44" y1="1760.57" x2="1140.24" y2="1760.57" style="stroke:#F0F0F0;stroke-width:9.72"/>
	<line x1="1172.64" y1="1760.57" x2="1237.44" y2="1760.57" style="stroke:#F0F0F0;stroke-width:9.72"/>
	<line x1="1269.84" y1="1760.57" x2="1334.64" y2="1760.57" style="stroke:#F0F0F0;stroke-width:9.72"/>
	<line x1="1367.04" y1="1760.57" x2="1431.84" y2="1760.57" style="stroke:#F0F0F0;stroke-width:9.72"/>
	<line x1="1464.24" y1="1760.57" x2="1529.04" y2="1760.57" style="stroke:#F0F0F0;stroke-width:9.72"/>
	<line x1="1561.44" y1="1760.57" x2="1626.24" y2="1760.57" style="stroke:#F0F0F0;stroke-width:9.72"/>
	<line x1="1658.64" y1="1760.57" x2="1723.44" y2="1760.57" style="stroke:#F0F0F0;stroke-width:9.72"/>
	<line x1="1755.84" y1="1760.57" x2="1820.64" y2="1760.57" style="stroke:#F0F0F0;stroke-width:9.72"/>
	<line x1="1853.04" y1="1760.57" x2="1917.84" y2="1760.57" style="stroke:#F0F0F0;stroke-width:9.72"/>
	<line x1="1950.24" y1="1760.57" x2="2015.04" y2="1760.57" style="stroke:#F0F0F0;stroke-width:9.72"/>
	<line x1="2047.44" y1="1760.57" x2="2112.24" y2="1760.57" style="stroke:#F0F0F0;stroke-width:9.72"/>
	<line x1="2144.64" y1="1760.57" x2="2209.44" y2="1760.57" style="stroke:#F0F0F0;stroke-width:9.72"/>
	<line x1="2241.84" y1="1760.57" x2="2306.64" y2="1760.57" style="stroke:#F0F0F0;stroke-width:9.72"/>
	<line x1="2339.04" y1="1760.57" x2="2392.37" y2="1760.57" style="stroke:#F0F0F0;stroke-width:9.72"/>
	<line x1="492.24" y1="1293.30" x2="557.04" y2="1293.30" style="stroke:#F0F0F0;stroke-width:9.72"/>
	<line x1="589.44" y1="1293.30" x2="654.24" y2="1293.30" style="stroke:#F0F0F0;stroke-width:9.72"/>
	<line x1="686.64" y1="1293.30" x2="751.44" y2="1293.30" style="stroke:#F0F0F0;stroke-width:9.72"/>
	<line x1="783.84" y1="1293.30" x2="848.64" y2="1293.30" style="stroke:#F0F0F0;stroke-width:9.72"/>
	<line x1="881.04" y1="1293.30" x2="945.84" y2="1293.30" style="stroke:#F0F0F0;stroke-width:9.72"/>
	<line x1="978.24" y1="1293.30" x2="1043.04" y2="1293.30" style="stroke:#F0F0F0;stroke-width:9.72"/>
	<line x1="1075.44" y1="1293.30" x2="1140.24" y2="1293.30" style="stroke:#F0F0F0;stroke-width:9.72"/>
	<line x1="1172.64" y1="1293.30" x2="1237.44" y2="1293.30" style="stroke:#F0F0F0;stroke-width:9.72"/>
	<line x1="1269.84" y1="1293.30" x2="1334.64" y2="1293.30" style="stroke:#F0F0F0;stroke-width:9.72"/>
	<line x1="1367.04" y1="1293.30" x2="1431.84" y2="1293.30" style="stroke:#F0F0F0;stroke-width:9.72"/>
	<line x1="1464.24" y1="1293.30" x2="1529.04" y2="1293.30" style="stroke:#F0F0F0;stroke-width:9.72"/>
	<line x1="1561.44" y1="1293.30" x2="1626.24" y2="1293.30" style="stroke:#F0F0F0;stroke-width:9.72"/>
	<line x1="1658.64" y1="1293.30" x2="1723.44" y2="1293.30" style="stroke:#F0F0F0;stroke-width:9.72"/>
	<line x1="1755.84" y1="1293.30" x2="1820.64" y2="1293.30" style="stroke:#F0F0F0;stroke-width:9.72"/>
	<line x1="1853.04" y1="1293.30" x2="1917.84" y2="1293.30" style="stroke:#F0F0F0;stroke-width:9.72"/>
	<line x1="1950.24" y1="1293.30" x2="2015.04" y2="1293.30" style="stroke:#F0F0F0;stroke-width:9.72"/>
	<line x1="2047.44" y1="1293.30" x2="2112.24" y2="1293.30" style="stroke:#F0F0F0;stroke-width:9.72"/>
	<line x1="2144.64" y1="1293.30" x2="2209.44" y2="1293.30" style="stroke:#F0F0F0;stroke-width:9.72"/>
	<line x1="2241.84" y1="1293.30" x2="2306.64" y2="1293.30" style="stroke:#F0F0F0;stroke-width:9.72"/>
	<line x1="2339.04" y1="1293.30" x2="2392.37" y2="1293.30" style="stroke:#F0F0F0;stroke-width:9.72"/>
	<line x1="492.24" y1="825.86" x2="557.04" y2="825.86" style="stroke:#F0F0F0;stroke-width:9.72"/>
	<line x1="589.44" y1="825.86" x2="654.24" y2="825.86" style="stroke:#F0F0F0;stroke-width:9.72"/>
	<line x1="686.64" y1="825.86" x2="751.44" y2="825.86" style="stroke:#F0F0F0;stroke-width:9.72"/>
	<line x1="783.84" y1="825.86" x2="848.64" y2="825.86" style="stroke:#F0F0F0;stroke-width:9.72"/>
	<line x1="881.04" y1="825.86" x2="945.84" y2="825.86" style="stroke:#F0F0F0;stroke-width:9.72"/>
	<line x1="978.24" y1="825.86" x2="1043.04" y2="825.86" style="stroke:#F0F0F0;stroke-width:9.72"/>
	<line x1="1075.44" y1="825.86" x2="1140.24" y2="825.86" style="stroke:#F0F0F0;stroke-width:9.72"/>
	<line x1="1172.64" y1="825.86" x2="1237.44" y2="825.86" style="stroke:#F0F0F0;stroke-width:9.72"/>
	<line x1="1269.84" y1="825.86" x2="1334.64" y2="825.86" style="stroke:#F0F0F0;stroke-width:9.72"/>
	<line x1="1367.04" y1="825.86" x2="1431.84" y2="825.86" style="stroke:#F0F0F0;stroke-width:9.72"/>
	<line x1="1464.24" y1="825.86" x2="1529.04" y2="825.86" style="stroke:#F0F0F0;stroke-width:9.72"/>
	<line x1="1561.44" y1="825.86" x2="1626.24" y2="825.86" style="stroke:#F0F0F0;stroke-width:9.72"/>
	<line x1="1658.64" y1="825.86" x2="1723.44" y2="825.86" style="stroke:#F0F0F0;stroke-width:9.72"/>
	<line x1="1755.84" y1="825.86" x2="1820.64" y2="825.86" style="stroke:#F0F0F0;stroke-width:9.72"/>
	<line x1="1853.04" y1="825.86" x2="1917.84" y2="825.86" style="stroke:#F0F0F0;stroke-width:9.72"/>
	<line x1="1950.24" y1="825.86" x2="2015.04" y2="825.86" style="stroke:#F0F0F0;stroke-width:9.72"/>
	<line x1="2047.44" y1="825.86" x2="2112.24" y2="825.86" style="stroke:#F0F0F0;stroke-width:9.72"/>
	<line x1="2144.64" y1="825.86" x2="2209.44" y2="825.86" style="stroke:#F0F0F0;stroke-width:9.72"/>
	<line x1="2241.84" y1="825.86" x2="2306.64" y2="825.86" style="stroke:#F0F0F0;stroke-width:9.72"/>
	<line x1="2339.04" y1="825.86" x2="2392.37" y2="825.86" style="stroke:#F0F0F0;stroke-width:9.72"/>
	<line x1="492.24" y1="358.59" x2="557.04" y2="358.59" style="stroke:#F0F0F0;stroke-width:9.72"/>
	<line x1="589.44" y1="358.59" x2="654.24" y2="358.59" style="stroke:#F0F0F0;stroke-width:9.72"/>
	<line x1="686.64" y1="358.59" x2="751.44" y2="358.59" style="stroke:#F0F0F0;stroke-width:9.72"/>
	<line x1="783.84" y1="358.59" x2="848.64" y2="358.59" style="stroke:#F0F0F0;stroke-width:9.72"/>
	<line x1="881.04" y1="358.59" x2="945.84" y2="358.59" style="stroke:#F0F0F0;stroke-width:9.72"/>
	<line x1="978.24" y1="358.59" x2="1043.04" y2="358.59" style="stroke:#F0F0F0;stroke-width:9.72"/>
	<line x1="1075.44" y1="358.59" x2="1140.24" y2="358.59" style="stroke:#F0F0F0;stroke-width:9.72"/>
	<line x1="1172.64" y1="358.59" x2="1237.44" y2="358.59" style="stroke:#F0F0F0;stroke-width:9.72"/>
	<line x1="1269.84" y1="358.59" x2="1334.64" y2="358.59" style="stroke:#F0F0F0;stroke-width:9.72"/>
	<line x1="1367.04" y1="358.59" x2="1431.84" y2="358.59" style="stroke:#F0F0F0;stroke-width:9.72"/>
	<line x1="1464.24" y1="358.59" x2="1529.04" y2="358.59" style="stroke:#F0F0F0;stroke-width:9.72"/>
	<line x1="1561.44" y1="358.59" x2="1626.24" y2="358.59" style="stroke:#F0F0F0;stroke-width:9.72"/>
	<line x1="1658.64" y1="358.59" x2="1723.44" y2="358.59" style="stroke:#F0F0F0;stroke-width:9.72"/>
	<line x1="1755.84" y1="358.59" x2="1820.64" y2="358.59" style="stroke:#F0F0F0;stroke-width:9.72"/>
	<line x1="1853.04" y1="358.59" x2="1917.84" y2="358.59" style="stroke:#F0F0F0;stroke-width:9.72"/>
	<line x1="1950.24" y1="358.59" x2="2015.04" y2="358.59" style="stroke:#F0F0F0;stroke-width:9.72"/>
	<line x1="2047.44" y1="358.59" x2="2112.24" y2="358.59" style="stroke:#F0F0F0;stroke-width:9.72"/>
	<line x1="2144.64" y1="358.59" x2="2209.44" y2="358.59" style="stroke:#F0F0F0;stroke-width:9.72"/>
	<line x1="2241.84" y1="358.59" x2="2306.64" y2="358.59" style="stroke:#F0F0F0;stroke-width:9.72"/>
	<line x1="2339.04" y1="358.59" x2="2392.37" y2="358.59" style="stroke:#F0F0F0;stroke-width:9.72"/>
	<line x1="563.46" y1="2766.66" x2="563.46" y2="2701.86" style="stroke:#F0F0F0;stroke-width:9.72"/>
	<line x1="563.46" y1="2669.46" x2="563.46" y2="2604.66" style="stroke:#F0F0F0;stroke-width:9.72"/>
	<line x1="563.46" y1="2572.26" x2="563.46" y2="2507.46" style="stroke:#F0F0F0;stroke-width:9.72"/>
	<line x1="563.46" y1="2475.06" x2="563.46" y2="2410.26" style="stroke:#F0F0F0;stroke-width:9.72"/>
	<line x1="563.46" y1="2377.86" x2="563.46" y2="2313.06" style="stroke:#F0F0F0;stroke-width:9.72"/>
	<line x1="563.46" y1="2280.66" x2="563.46" y2="2215.86" style="stroke:#F0F0F0;stroke-width:9.72"/>
	<line x1="563.46" y1="2183.46" x2="563.46" y2="2118.66" style="stroke:#F0F0F0;stroke-width:9.72"/>
	<line x1="563.46" y1="2086.26" x2="563.46" y2="2021.46" style="stroke:#F0F0F0;stroke-width:9.72"/>
	<line x1="563.46" y1="1989.06" x2="563.46" y2="1924.26" style="stroke:#F0F0F0;stroke-width:9.72"/>
	<line x1="563.46" y1="1891.86" x2="563.46" y2="1827.06" style="stroke:#F0F0F0;stroke-width:9.72"/>
	<line x1="563.46" y1="1794.66" x2="563.46" y2="1729.86" style="stroke:#F0F0F0;stroke-width:9.72"/>
	<line x1="563.46" y1="1697.46" x2="563.46" y2="1632.66" style="stroke:#F0F0F0;stroke-width:9.72"/>
	<line x1="563.46" y1="1600.26" x2="563.46" y2="1535.46" style="stroke:#F0F0F0;stroke-width:9.72"/>
	<line x1="563.46" y1="1503.06" x2="563.46" y2="1438.26" style="stroke:#F0F0F0;stroke-width:9.72"/>
	<line x1="563.46" y1="1405.86" x2="563.46" y2="1341.06" style="stroke:#F0F0F0;stroke-width:9.72"/>
	<line x1="563.46" y1="1308.66" x2="563.46" y2="1243.86" style="stroke:#F0F0F0;stroke-width:9.72"/>
	<line x1="563.46" y1="1211.46" x2="563.46" y2="1146.66" style="stroke:#F0F0F0;stroke-width:9.72"/>
	<line x1="563.46" y1="1114.26" x2="563.46" y2="1049.46" style="stroke:#F0F0F0;stroke-width:9.72"/>
	<line x1="563.46" y1="1017.06" x2="563.46" y2="952.26" style="stroke:#F0F0F0;stroke-width:9.72"/>
	<line x1="563.46" y1="919.86" x2="563.46" y2="855.06" style="stroke:#F0F0F0;stroke-width:9.72"/>
	<line x1="563.46" y1="822.66" x2="563.46" y2="757.86" style="stroke:#F0F0F0;stroke-width:9.72"/>
	<line x1="563.46" y1="725.46" x2="563.46" y2="660.66" style="stroke:#F0F0F0;stroke-width:9.72"/>
	<line x1="563.46" y1="628.26" x2="563.46" y2="563.46" style="stroke:#F0F0F0;stroke-width:9.72"/>
	<line x1="563.46" y1="531.06" x2="563.46" y2="466.26" style="stroke:#F0F0F0;stroke-width:9.72"/>
	<line x1="563.46" y1="433.86" x2="563.46" y2="369.06" style="stroke:#F0F0F0;stroke-width:9.72"/>
	<line x1="563.46" y1="336.66" x2="563.46" y2="271.86" style="stroke:#F0F0F0;stroke-width:9.72"/>
	<line x1="563.46" y1="239.46" x2="563.46" y2="174.66" style="stroke:#F0F0F0;stroke-width:9.72"/>
	<line x1="563.46" y1="142.26" x2="563.46" y2="113.40" style="stroke:#F0F0F0;stroke-width:9.72"/>
	<line x1="907.20" y1="2766.66" x2="907.20" y2="2701.86" style="stroke:#F0F0F0;stroke-width:9.72"/>
	<line x1="907.20" y1="2669.46" x2="907.20" y2="2604.66" style="stroke:#F0F0F0;stroke-width:9.72"/>
	<line x1="907.20" y1="2572.26" x2="907.20" y2="2507.46" style="stroke:#F0F0F0;stroke-width:9.72"/>
	<line x1="907.20" y1="2475.06" x2="907.20" y2="2410.26" style="stroke:#F0F0F0;stroke-width:9.72"/>
	<line x1="907.20" y1="2377.86" x2="907.20" y2="2313.06" style="stroke:#F0F0F0;stroke-width:9.72"/>
	<line x1="907.20" y1="2280.66" x2="907.20" y2="2215.86" style="stroke:#F0F0F0;stroke-width:9.72"/>
	<line x1="907.20" y1="2183.46" x2="907.20" y2="2118.66" style="stroke:#F0F0F0;stroke-width:9.72"/>
	<line x1="907.20" y1="2086.26" x2="907.20" y2="2021.46" style="stroke:#F0F0F0;stroke-width:9.72"/>
	<line x1="907.20" y1="1989.06" x2="907.20" y2="1924.26" style="stroke:#F0F0F0;stroke-width:9.72"/>
	<line x1="907.20" y1="1891.86" x2="907.20" y2="1827.06" style="stroke:#F0F0F0;stroke-width:9.72"/>
	<line x1="907.20" y1="1794.66" x2="907.20" y2="1729.86" style="stroke:#F0F0F0;stroke-width:9.72"/>
	<line x1="907.20" y1="1697.46" x2="907.20" y2="1632.66" style="stroke:#F0F0F0;stroke-width:9.72"/>
	<line x1="907.20" y1="1600.26" x2="907.20" y2="1535.46" style="stroke:#F0F0F0;stroke-width:9.72"/>
	<line x1="907.20" y1="1503.06" x2="907.20" y2="1438.26" style="stroke:#F0F0F0;stroke-width:9.72"/>
	<line x1="907.20" y1="1405.86" x2="907.20" y2="1341.06" style="stroke:#F0F0F0;stroke-width:9.72"/>
	<line x1="907.20" y1="1308.66" x2="907.20" y2="1243.86" style="stroke:#F0F0F0;stroke-width:9.72"/>
	<line x1="907.20" y1="1211.46" x2="907.20" y2="1146.66" style="stroke:#F0F0F0;stroke-width:9.72"/>
	<line x1="907.20" y1="1114.26" x2="907.20" y2="1049.46" style="stroke:#F0F0F0;stroke-width:9.72"/>
	<line x1="907.20" y1="1017.06" x2="907.20" y2="952.26" style="stroke:#F0F0F0;stroke-width:9.72"/>
	<line x1="907.20" y1="919.86" x2="907.20" y2="855.06" style="stroke:#F0F0F0;stroke-width:9.72"/>
	<line x1="907.20" y1="822.66" x2="907.20" y2="757.86" style="stroke:#F0F0F0;stroke-width:9.72"/>
	<line x1="907.20" y1="725.46" x2="907.20" y2="660.66" style="stroke:#F0F0F0;stroke-width:9.72"/>
	<line x1="907.20" y1="628.26" x2="907.20" y2="563.46" style="stroke:#F0F0F0;stroke-width:9.72"/>
	<line x1="907.20" y1="531.06" x2="907.20" y2="466.26" style="stroke:#F0F0F0;stroke-width:9.72"/>
	<line x1="907.20" y1="433.86" x2="907.20" y2="369.06" style="stroke:#F0F0F0;stroke-width:9.72"/>
	<line x1="907.20" y1="336.66" x2="907.20" y2="271.86" style="stroke:#F0F0F0;stroke-width:9.72"/>
	<line x1="907.20" y1="239.46" x2="907.20" y2="174.66" style="stroke:#F0F0F0;stroke-width:9.72"/>
	<line x1="907.20" y1="142.26" x2="907.20" y2="113.40" style="stroke:#F0F0F0;stroke-width:9.72"/>
	<line x1="1250.94" y1="2766.66" x2="1250.94" y2="2701.86" style="stroke:#F0F0F0;stroke-width:9.72"/>
	<line x1="1250.94" y1="2669.46" x2="1250.94" y2="2604.66" style="stroke:#F0F0F0;stroke-width:9.72"/>
	<line x1="1250.94" y1="2572.26" x2="1250.94" y2="2507.46" style="stroke:#F0F0F0;stroke-width:9.72"/>
	<line x1="1250.94" y1="2475.06" x2="1250.94" y2="2410.26" style="stroke:#F0F0F0;stroke-width:9.72"/>
	<line x1="1250.94" y1="2377.86" x2="1250.94" y2="2313.06" style="stroke:#F0F0F0;stroke-width:9.72"/>
	<line x1="1250.94" y1="2280.66" x2="1250.94" y2="2215.86" style="stroke:#F0F0F0;stroke-width:9.72"/>
	<line x1="1250.94" y1="2183.46" x2="1250.94" y2="2118.66" style="stroke:#F0F0F0;stroke-width:9.72"/>
	<line x1="1250.94" y1="2086.26" x2="1250.94" y2="2021.46" style="stroke:#F0F0F0;stroke-width:9.72"/>
	<line x1="1250.94" y1="1989.06" x2="1250.94" y2="1924.26" style="stroke:#F0F0F0;stroke-width:9.72"/>
	<line x1="1250.94" y1="1891.86" x2="1250.94" y2="1827.06" style="stroke:#F0F0F0;stroke-width:9.72"/>
	<line x1="1250.94" y1="1794.66" x2="1250.94" y2="1729.86" style="stroke:#F0F0F0;stroke-width:9.72"/>
	<line x1="1250.94" y1="1697.46" x2="1250.94" y2="1632.66" style="stroke:#F0F0F0;stroke-width:9.72"/>
	<line x1="1250.94" y1="1600.26" x2="1250.94" y2="1535.46" style="stroke:#F0F0F0;stroke-width:9.72"/>
	<line x1="1250.94" y1="1503.06" x2="1250.94" y2="1438.26" style="stroke:#F0F0F0;stroke-width:9.72"/>
	<line x1="1250.94" y1="1405.86" x2="1250.94" y2="1341.06" style="stroke:#F0F0F0;stroke-width:9.72"/>
	<line x1="1250.94" y1="1308.66" x2="1250.94" y2="1243.86" style="stroke:#F0F0F0;stroke-width:9.72"/>
	<line x1="1250.94" y1="1211.46" x2="1250.94" y2="1146.66" style="stroke:#F0F0F0;stroke-width:9.72"/>
	<line x1="1250.94" y1="1114.26" x2="1250.94" y2="1049.46" style="stroke:#F0F0F0;stroke-width:9.72"/>
	<line x1="1250.94" y1="1017.06" x2="1250.94" y2="952.26" style="stroke:#F0F0F0;stroke-width:9.72"/>
	<line x1="1250.94" y1="919.86" x2="1250.94" y2="855.06" style="stroke:#F0F0F0;stroke-width:9.72"/>
	<line x1="1250.94" y1="822.66" x2="1250.94" y2="757.86" style="stroke:#F0F0F0;stroke-width:9.72"/>
	<line x1="1250.94" y1="725.46" x2="1250.94" y2="660.66" style="stroke:#F0F0F0;stroke-width:9.72"/>
	<line x1="1250.94" y1="628.26" x2="1250.94" y2="563.46" style="stroke:#F0F0F0;stroke-width:9.72"/>
	<line x1="1250.94" y1="531.06" x2="1250.94" y2="466.26" style="stroke:#F0F0F0;stroke-width:9.72"/>
	<line x1="1250.94" y1="433.86" x2="1250.94" y2="369.06" style="stroke:#F0F0F0;stroke-width:9.72"/>
	<line x1="1250.94" y1="336.66" x2="1250.94" y2="271.86" style="stroke:#F0F0F0;stroke-width:9.72"/>
	<line x1="1250.94" y1="239.46" x2="1250.94" y2="174.66" style="stroke:#F0F0F0;stroke-width:9.72"/>
	<line x1="1250.94" y1="142.26" x2="1250.94" y2="113.40" style="stroke:#F0F0F0;stroke-width:9.72"/>
	<line x1="1594.69" y1="2766.66" x2="1594.69" y2="2701.86" style="stroke:#F0F0F0;stroke-width:9.72"/>
	<line x1="1594.69" y1="2669.46" x2="1594.69" y2="2604.66" style="stroke:#F0F0F0;stroke-width:9.72"/>
	<line x1="1594.69" y1="2572.26" x2="1594.69" y2="2507.46" style="stroke:#F0F0F0;stroke-width:9.72"/>
	<line x1="1594.69" y1="2475.06" x2="1594.69" y2="2410.26" style="stroke:#F0F0F0;stroke-width:9.72"/>
	<line x1="1594.69" y1="2377.86" x2="1594.69" y2="2313.06" style="stroke:#F0F0F0;stroke-width:9.72"/>
	<line x1="1594.69" y1="2280.66" x2="1594.69" y2="2215.86" style="stroke:#F0F0F0;stroke-width:9.72"/>
	<line x1="1594.69" y1="2183.46" x2="1594.69" y2="2118.66" style="stroke:#F0F0F0;stroke-width:9.72"/>
	<line x1="1594.69" y1="2086.26" x2="1594.69" y2="2021.46" style="stroke:#F0F0F0;stroke-width:9.72"/>
	<line x1="1594.69" y1="1989.06" x2="1594.69" y2="1924.26" style="stroke:#F0F0F0;stroke-width:9.72"/>
	<line x1="1594.69" y1="1891.86" x2="1594.69" y2="1827.06" style="stroke:#F0F0F0;stroke-width:9.72"/>
	<line x1="1594.69" y1="1794.66" x2="1594.69" y2="1729.86" style="stroke:#F0F0F0;stroke-width:9.72"/>
	<line x1="1594.69" y1="1697.46" x2="1594.69" y2="1632.66" style="stroke:#F0F0F0;stroke-width:9.72"/>
	<line x1="1594.69" y1="1600.26" x2="1594.69" y2="1535.46" style="stroke:#F0F0F0;stroke-width:9.72"/>
	<line x1="1594.69" y1="1503.06" x2="1594.69" y2="1438.26" style="stroke:#F0F0F0;stroke-width:9.72"/>
	<line x1="1594.69" y1="1405.86" x2="1594.69" y2="1341.06" style="stroke:#F0F0F0;stroke-width:9.72"/>
	<line x1="1594.69" y1="1308.66" x2="1594.69" y2="1243.86" style="stroke:#F0F0F0;stroke-width:9.72"/>
	<line x1="1594.69" y1="1211.46" x2="1594.69" y2="1146.66" style="stroke:#F0F0F0;stroke-width:9.72"/>
	<line x1="1594.69" y1="1114.26" x2="1594.69" y2="1049.46" style="stroke:#F0F0F0;stroke-width:9.72"/>
	<line x1="1594.69" y1="1017.06" x2="1594.69" y2="952.26" style="stroke:#F0F0F0;stroke-width:9.72"/>
	<line x1="1594.69" y1="919.86" x2="1594.69" y2="855.06" style="stroke:#F0F0F0;stroke-width:9.72"/>
	<line x1="1594.69" y1="822.66" x2="1594.69" y2="757.86" style="stroke:#F0F0F0;stroke-width:9.72"/>
	<line x1="1594.69" y1="725.46" x2="1594.69" y2="660.66" style="stroke:#F0F0F0;stroke-width:9.72"/>
	<line x1="1594.69" y1="628.26" x2="1594.69" y2="563.46" style="stroke:#F0F0F0;stroke-width:9.72"/>
	<line x1="1594.69" y1="531.06" x2="1594.69" y2="466.26" style="stroke:#F0F0F0;stroke-width:9.72"/>
	<line x1="1594.69" y1="433.86" x2="1594.69" y2="369.06" style="stroke:#F0F0F0;stroke-width:9.72"/>
	<line x1="1594.69" y1="336.66" x2="1594.69" y2="271.86" style="stroke:#F0F0F0;stroke-width:9.72"/>
	<line x1="1594.69" y1="239.46" x2="1594.69" y2="174.66" style="stroke:#F0F0F0;stroke-width:9.72"/>
	<line x1="1594.69" y1="142.26" x2="1594.69" y2="113.40" style="stroke:#F0F0F0;stroke-width:9.72"/>
	<line x1="1938.26" y1="2766.66" x2="1938.26" y2="2701.86" style="stroke:#F0F0F0;stroke-width:9.72"/>
	<line x1="1938.26" y1="2669.46" x2="1938.26" y2="2604.66" style="stroke:#F0F0F0;stroke-width:9.72"/>
	<line x1="1938.26" y1="2572.26" x2="1938.26" y2="2507.46" style="stroke:#F0F0F0;stroke-width:9.72"/>
	<line x1="1938.26" y1="2475.06" x2="1938.26" y2="2410.26" style="stroke:#F0F0F0;stroke-width:9.72"/>
	<line x1="1938.26" y1="2377.86" x2="1938.26" y2="2313.06" style="stroke:#F0F0F0;stroke-width:9.72"/>
	<line x1="1938.26" y1="2280.66" x2="1938.26" y2="2215.86" style="stroke:#F0F0F0;stroke-width:9.72"/>
	<line x1="1938.26" y1="2183.46" x2="1938.26" y2="2118.66" style="stroke:#F0F0F0;stroke-width:9.72"/>
	<line x1="1938.26" y1="2086.26" x2="1938.26" y2="2021.46" style="stroke:#F0F0F0;stroke-width:9.72"/>
	<line x1="1938.26" y1="1989.06" x2="1938.26" y2="1924.26" style="stroke:#F0F0F0;stroke-width:9.72"/>
	<line x1="1938.26" y1="1891.86" x2="1938.26" y2="1827.06" style="stroke:#F0F0F0;stroke-width:9.72"/>
	<line x1="1938.26" y1="1794.66" x2="1938.26" y2="1729.86" style="stroke:#F0F0F0;stroke-width:9.72"/>
	<line x1="1938.26" y1="1697.46" x2="1938.26" y2="1632.66" style="stroke:#F0F0F0;stroke-width:9.72"/>
	<line x1="1938.26" y1="1600.26" x2="1938.26" y2="1535.46" style="stroke:#F0F0F0;stroke-width:9.72"/>
	<line x1="1938.26" y1="1503.06" x2="1938.26" y2="1438.26" style="stroke:#F0F0F0;stroke-width:9.72"/>
	<line x1="1938.26" y1="1405.86" x2="1938.26" y2="1341.06" style="stroke:#F0F0F0;stroke-width:9.72"/>
	<line x1="1938.26" y1="1308.66" x2="1938.26" y2="1243.86" style="stroke:#F0F0F0;stroke-width:9.72"/>
	<line x1="1938.26" y1="1211.46" x2="1938.26" y2="1146.66" style="stroke:#F0F0F0;stroke-width:9.72"/>
	<line x1="1938.26" y1="1114.26" x2="1938.26" y2="1049.46" style="stroke:#F0F0F0;stroke-width:9.72"/>
	<line x1="1938.26" y1="1017.06" x2="1938.26" y2="952.26" style="stroke:#F0F0F0;stroke-width:9.72"/>
	<line x1="1938.26" y1="919.86" x2="1938.26" y2="855.06" style="stroke:#F0F0F0;stroke-width:9.72"/>
	<line x1="1938.26" y1="822.66" x2="1938.26" y2="757.86" style="stroke:#F0F0F0;stroke-width:9.72"/>
	<line x1="1938.26" y1="725.46" x2="1938.26" y2="660.66" style="stroke:#F0F0F0;stroke-width:9.72"/>
	<line x1="1938.26" y1="628.26" x2="1938.26" y2="563.46" style="stroke:#F0F0F0;stroke-width:9.72"/>
	<line x1="1938.26" y1="531.06" x2="1938.26" y2="466.26" style="stroke:#F0F0F0;stroke-width:9.72"/>
	<line x1="1938.26" y1="433.86" x2="1938.26" y2="369.06" style="stroke:#F0F0F0;stroke-width:9.72"/>
	<line x1="1938.26" y1="336.66" x2="1938.26" y2="271.86" style="stroke:#F0F0F0;stroke-width:9.72"/>
	<line x1="1938.26" y1="239.46" x2="1938.26" y2="174.66" style="stroke:#F0F0F0;stroke-width:9.72"/>
	<line x1="1938.26" y1="142.26" x2="1938.26" y2="113.40" style="stroke:#F0F0F0;stroke-width:9.72"/>
	<line x1="2282.01" y1="2766.66" x2="2282.01" y2="2701.86" style="stroke:#F0F0F0;stroke-width:9.72"/>
	<line x1="2282.01" y1="2669.46" x2="2282.01" y2="2604.66" style="stroke:#F0F0F0;stroke-width:9.72"/>
	<line x1="2282.01" y1="2572.26" x2="2282.01" y2="2507.46" style="stroke:#F0F0F0;stroke-width:9.72"/>
	<line x1="2282.01" y1="2475.06" x2="2282.01" y2="2410.26" style="stroke:#F0F0F0;stroke-width:9.72"/>
	<line x1="2282.01" y1="2377.86" x2="2282.01" y2="2313.06" style="stroke:#F0F0F0;stroke-width:9.72"/>
	<line x1="2282.01" y1="2280.66" x2="2282.01" y2="2215.86" style="stroke:#F0F0F0;stroke-width:9.72"/>
	<line x1="2282.01" y1="2183.46" x2="2282.01" y2="2118.66" style="stroke:#F0F0F0;stroke-width:9.72"/>
	<line x1="2282.01" y1="2086.26" x2="2282.01" y2="2021.46" style="stroke:#F0F0F0;stroke-width:9.72"/>
	<line x1="2282.01" y1="1989.06" x2="2282.01" y2="1924.26" style="stroke:#F0F0F0;stroke-width:9.72"/>
	<line x1="2282.01" y1="1891.86" x2="2282.01" y2="1827.06" style="stroke:#F0F0F0;stroke-width:9.72"/>
	<line x1="2282.01" y1="1794.66" x2="2282.01" y2="1729.86" style="stroke:#F0F0F0;stroke-width:9.72"/>
	<line x1="2282.01" y1="1697.46" x2="2282.01" y2="1632.66" style="stroke:#F0F0F0;stroke-width:9.72"/>
	<line x1="2282.01" y1="1600.26" x2="2282.01" y2="1535.46" style="stroke:#F0F0F0;stroke-width:9.72"/>
	<line x1="2282.01" y1="1503.06" x2="2282.01" y2="1438.26" style="stroke:#F0F0F0;stroke-width:9.72"/>
	<line x1="2282.01" y1="1405.86" x2="2282.01" y2="1341.06" style="stroke:#F0F0F0;stroke-width:9.72"/>
	<line x1="2282.01" y1="1308.66" x2="2282.01" y2="1243.86" style="stroke:#F0F0F0;stroke-width:9.72"/>
	<line x1="2282.01" y1="1211.46" x2="2282.01" y2="1146.66" style="stroke:#F0F0F0;stroke-width:9.72"/>
	<line x1="2282.01" y1="1114.26" x2="2282.01" y2="1049.46" style="stroke:#F0F0F0;stroke-width:9.72"/>
	<line x1="2282.01" y1="1017.06" x2="2282.01" y2="952.26" style="stroke:#F0F0F0;stroke-width:9.72"/>
	<line x1="2282.01" y1="919.86" x2="2282.01" y2="855.06" style="stroke:#F0F0F0;stroke-width:9.72"/>
	<line x1="2282.01" y1="822.66" x2="2282.01" y2="757.86" style="stroke:#F0F0F0;stroke-width:9.72"/>
	<line x1="2282.01" y1="725.46" x2="2282.01" y2="660.66" style="stroke:#F0F0F0;stroke-width:9.72"/>
	<line x1="2282.01" y1="628.26" x2="2282.01" y2="563.46" style="stroke:#F0F0F0;stroke-width:9.72"/>
	<line x1="2282.01" y1="531.06" x2="2282.01" y2="466.26" style="stroke:#F0F0F0;stroke-width:9.72"/>
	<line x1="2282.01" y1="433.86" x2="2282.01" y2="369.06" style="stroke:#F0F0F0;stroke-width:9.72"/>
	<line x1="2282.01" y1="336.66" x2="2282.01" y2="271.86" style="stroke:#F0F0F0;stroke-width:9.72"/>
	<line x1="2282.01" y1="239.46" x2="2282.01" y2="174.66" style="stroke:#F0F0F0;stroke-width:9.72"/>
	<line x1="2282.01" y1="142.26" x2="2282.01" y2="113.40" style="stroke:#F0F0F0;stroke-width:9.72"/>
	<path d=" M726.98 601.09 L1183.78 1390.16 L1543.39 1869.92 L1810.01 2343.77 L2320.99 2595.38" stroke-linejoin="round" style="fill:none;stroke:#000000;stroke-width:14.58"/>
	<path d=" M726.98 1017.22 L1183.78 1592.33 L1543.39 2005.93 L1810.01 2446.54 L2320.99 2640.77" stroke-linejoin="round" style="fill:none;stroke:#A0A0A0;stroke-width:14.58"/>
	<path d=" M726.98 184.78 L1183.78 1187.83 L1543.39 1733.74 L1810.01 2241.17 L2320.99 2550.15" stroke-linejoin="round" style="fill:none;stroke:#A0A0A0;stroke-width:14.58"/>
	<line x1="492.24" y1="2766.66" x2="492.24" y2="113.40" style="stroke:#000000;stroke-width:6.48"/>
	<line x1="492.24" y1="2695.28" x2="447.19" y2="2695.28" style="stroke:#000000;stroke-width:6.48"/>
	<text x="424.74" y="2734.71" style="font-family:'Helvetica';font-size:112.56px;fill:#000000" text-anchor="end">0</text>
	<line x1="492.24" y1="2228.01" x2="447.19" y2="2228.01" style="stroke:#000000;stroke-width:6.48"/>
	<text x="424.74" y="2267.44" style="font-family:'Helvetica';font-size:112.56px;fill:#000000" text-anchor="end">.2</text>
	<line x1="492.24" y1="1760.57" x2="447.19" y2="1760.57" style="stroke:#000000;stroke-width:6.48"/>
	<text x="424.74" y="1800.01" style="font-family:'Helvetica';font-size:112.56px;fill:#000000" text-anchor="end">.4</text>
	<line x1="492.24" y1="1293.30" x2="447.19" y2="1293.30" style="stroke:#000000;stroke-width:6.48"/>
	<text x="424.74" y="1332.74" style="font-family:'Helvetica';font-size:112.56px;fill:#000000" text-anchor="end">.6</text>
	<line x1="492.24" y1="825.86" x2="447.19" y2="825.86" style="stroke:#000000;stroke-width:6.48"/>
	<text x="424.74" y="865.30" style="font-family:'Helvetica';font-size:112.56px;fill:#000000" text-anchor="end">.8</text>
	<line x1="492.24" y1="358.59" x2="447.19" y2="358.59" style="stroke:#000000;stroke-width:6.48"/>
	<text x="424.74" y="398.03" style="font-family:'Helvetica';font-size:112.56px;fill:#000000" text-anchor="end">1</text>
	<text x="214.55" y="1439.94" style="font-family:'Helvetica';font-size:112.56px;fill:#000000" transform="rotate(-90 214.55,1439.94)" text-anchor="middle">Estimated causal effect</text>
	<line x1="492.24" y1="2766.66" x2="2392.37" y2="2766.66" style="stroke:#000000;stroke-width:6.48"/>
	<line x1="563.46" y1="2766.66" x2="563.46" y2="2811.54" style="stroke:#000000;stroke-width:6.48"/>
	<text x="563.46" y="2912.86" style="font-family:'Helvetica';font-size:112.56px;fill:#000000" text-anchor="middle">-1</text>
	<line x1="907.20" y1="2766.66" x2="907.20" y2="2811.54" style="stroke:#000000;stroke-width:6.48"/>
	<text x="907.20" y="2912.86" style="font-family:'Helvetica';font-size:112.56px;fill:#000000" text-anchor="middle">0</text>
	<line x1="1250.94" y1="2766.66" x2="1250.94" y2="2811.54" style="stroke:#000000;stroke-width:6.48"/>
	<text x="1250.94" y="2912.86" style="font-family:'Helvetica';font-size:112.56px;fill:#000000" text-anchor="middle">1</text>
	<line x1="1594.69" y1="2766.66" x2="1594.69" y2="2811.54" style="stroke:#000000;stroke-width:6.48"/>
	<text x="1594.69" y="2912.86" style="font-family:'Helvetica';font-size:112.56px;fill:#000000" text-anchor="middle">2</text>
	<line x1="1938.26" y1="2766.66" x2="1938.26" y2="2811.54" style="stroke:#000000;stroke-width:6.48"/>
	<text x="1938.26" y="2912.86" style="font-family:'Helvetica';font-size:112.56px;fill:#000000" text-anchor="middle">3</text>
	<line x1="2282.01" y1="2766.66" x2="2282.01" y2="2811.54" style="stroke:#000000;stroke-width:6.48"/>
	<text x="2282.01" y="2912.86" style="font-family:'Helvetica';font-size:112.56px;fill:#000000" text-anchor="middle">4</text>
	<text x="1442.31" y="3070.31" style="font-family:'Helvetica';font-size:112.56px;fill:#000000" text-anchor="middle">Median of exposure in quantile</text>
	<rect x="2431.35" y="1335.15" width="2816.44" height="209.76" style="fill:#FFFFFF"/>
	<rect x="2434.59" y="1338.39" width="2809.96" height="203.28" style="fill:none;stroke:#FFFFFF;stroke-width:6.48"/>
	<line x1="2479.95" y1="1439.94" x2="2739.15" y2="1439.94" style="stroke:#000000;stroke-width:14.58"/>
	<line x1="4183.31" y1="1439.94" x2="4442.51" y2="1439.94" style="stroke:#A0A0A0;stroke-width:14.58"/>
	<text x="2806.65" y="1479.38" style="font-family:'Helvetica';font-size:112.56px;fill:#000000">Estimated causal effect</text>
	<text x="4510.01" y="1479.38" style="font-family:'Helvetica';font-size:112.56px;fill:#000000">95% CI limits</text>
</svg>
