<?xml version="1.0" encoding="UTF-8" standalone="no"?>
<!-- This is a Stata 18.0 generated SVG file (http://www.stata.com) -->

<svg version="1.1" width="7.500in" height="4.500in" viewBox="0 0 5400 3240" xmlns="http://www.w3.org/2000/svg" xmlns:xlink="http://www.w3.org/1999/xlink">
	<desc>Stata Graph - Graph</desc>
	<rect x="0" y="0" width="5400" height="3240" style="fill:#FFFFFF;stroke:none"/>
	<rect x="0.00" y="0.00" width="5400.00" height="3240.00" style="fill:#FFFFFF"/>
	<rect x="3.24" y="3.24" width="5393.52" height="3233.52" style="fill:none;stroke:#FFFFFF;stroke-width:6.48"/>
	<rect x="557.89" y="113.40" width="1834.48" height="2653.26" style="fill:#FFFFFF"/>
	<rect x="561.13" y="116.64" width="1828.00" height="2646.78" style="fill:none;stroke:#FFFFFF;stroke-width:6.48"/>
	<line x1="557.89" y1="2573.44" x2="622.69" y2="2573.44" style="stroke:#F0F0F0;stroke-width:9.72"/>
	<line x1="655.09" y1="2573.44" x2="719.89" y2="2573.44" style="stroke:#F0F0F0;stroke-width:9.72"/>
	<line x1="752.29" y1="2573.44" x2="817.09" y2="2573.44" style="stroke:#F0F0F0;stroke-width:9.72"/>
	<line x1="849.49" y1="2573.44" x2="914.29" y2="2573.44" style="stroke:#F0F0F0;stroke-width:9.72"/>
	<line x1="946.69" y1="2573.44" x2="1011.49" y2="2573.44" style="stroke:#F0F0F0;stroke-width:9.72"/>
	<line x1="1043.89" y1="2573.44" x2="1108.69" y2="2573.44" style="stroke:#F0F0F0;stroke-width:9.72"/>
	<line x1="1141.09" y1="2573.44" x2="1205.89" y2="2573.44" style="stroke:#F0F0F0;stroke-width:9.72"/>
	<line x1="1238.29" y1="2573.44" x2="1303.09" y2="2573.44" style="stroke:#F0F0F0;stroke-width:9.72"/>
	<line x1="1335.49" y1="2573.44" x2="1400.29" y2="2573.44" style="stroke:#F0F0F0;stroke-width:9.72"/>
	<line x1="1432.69" y1="2573.44" x2="1497.49" y2="2573.44" style="stroke:#F0F0F0;stroke-width:9.72"/>
	<line x1="1529.89" y1="2573.44" x2="1594.69" y2="2573.44" style="stroke:#F0F0F0;stroke-width:9.72"/>
	<line x1="1627.09" y1="2573.44" x2="1691.89" y2="2573.44" style="stroke:#F0F0F0;stroke-width:9.72"/>
	<line x1="1724.29" y1="2573.44" x2="1789.09" y2="2573.44" style="stroke:#F0F0F0;stroke-width:9.72"/>
	<line x1="1821.49" y1="2573.44" x2="1886.29" y2="2573.44" style="stroke:#F0F0F0;stroke-width:9.72"/>
	<line x1="1918.69" y1="2573.44" x2="1983.49" y2="2573.44" style="stroke:#F0F0F0;stroke-width:9.72"/>
	<line x1="2015.89" y1="2573.44" x2="2080.69" y2="2573.44" style="stroke:#F0F0F0;stroke-width:9.72"/>
	<line x1="2113.09" y1="2573.44" x2="2177.89" y2="2573.44" style="stroke:#F0F0F0;stroke-width:9.72"/>
	<line x1="2210.29" y1="2573.44" x2="2275.09" y2="2573.44" style="stroke:#F0F0F0;stroke-width:9.72"/>
	<line x1="2307.49" y1="2573.44" x2="2372.29" y2="2573.44" style="stroke:#F0F0F0;stroke-width:9.72"/>
	<line x1="557.89" y1="2014.37" x2="622.69" y2="2014.37" style="stroke:#F0F0F0;stroke-width:9.72"/>
	<line x1="655.09" y1="2014.37" x2="719.89" y2="2014.37" style="stroke:#F0F0F0;stroke-width:9.72"/>
	<line x1="752.29" y1="2014.37" x2="817.09" y2="2014.37" style="stroke:#F0F0F0;stroke-width:9.72"/>
	<line x1="849.49" y1="2014.37" x2="914.29" y2="2014.37" style="stroke:#F0F0F0;stroke-width:9.72"/>
	<line x1="946.69" y1="2014.37" x2="1011.49" y2="2014.37" style="stroke:#F0F0F0;stroke-width:9.72"/>
	<line x1="1043.89" y1="2014.37" x2="1108.69" y2="2014.37" style="stroke:#F0F0F0;stroke-width:9.72"/>
	<line x1="1141.09" y1="2014.37" x2="1205.89" y2="2014.37" style="stroke:#F0F0F0;stroke-width:9.72"/>
	<line x1="1238.29" y1="2014.37" x2="1303.09" y2="2014.37" style="stroke:#F0F0F0;stroke-width:9.72"/>
	<line x1="1335.49" y1="2014.37" x2="1400.29" y2="2014.37" style="stroke:#F0F0F0;stroke-width:9.72"/>
	<line x1="1432.69" y1="2014.37" x2="1497.49" y2="2014.37" style="stroke:#F0F0F0;stroke-width:9.72"/>
	<line x1="1529.89" y1="2014.37" x2="1594.69" y2="2014.37" style="stroke:#F0F0F0;stroke-width:9.72"/>
	<line x1="1627.09" y1="2014.37" x2="1691.89" y2="2014.37" style="stroke:#F0F0F0;stroke-width:9.72"/>
	<line x1="1724.29" y1="2014.37" x2="1789.09" y2="2014.37" style="stroke:#F0F0F0;stroke-width:9.72"/>
	<line x1="1821.49" y1="2014.37" x2="1886.29" y2="2014.37" style="stroke:#F0F0F0;stroke-width:9.72"/>
	<line x1="1918.69" y1="2014.37" x2="1983.49" y2="2014.37" style="stroke:#F0F0F0;stroke-width:9.72"/>
	<line x1="2015.89" y1="2014.37" x2="2080.69" y2="2014.37" style="stroke:#F0F0F0;stroke-width:9.72"/>
	<line x1="2113.09" y1="2014.37" x2="2177.89" y2="2014.37" style="stroke:#F0F0F0;stroke-width:9.72"/>
	<line x1="2210.29" y1="2014.37" x2="2275.09" y2="2014.37" style="stroke:#F0F0F0;stroke-width:9.72"/>
	<line x1="2307.49" y1="2014.37" x2="2372.29" y2="2014.37" style="stroke:#F0F0F0;stroke-width:9.72"/>
	<line x1="557.89" y1="1455.30" x2="622.69" y2="1455.30" style="stroke:#F0F0F0;stroke-width:9.72"/>
	<line x1="655.09" y1="1455.30" x2="719.89" y2="1455.30" style="stroke:#F0F0F0;stroke-width:9.72"/>
	<line x1="752.29" y1="1455.30" x2="817.09" y2="1455.30" style="stroke:#F0F0F0;stroke-width:9.72"/>
	<line x1="849.49" y1="1455.30" x2="914.29" y2="1455.30" style="stroke:#F0F0F0;stroke-width:9.72"/>
	<line x1="946.69" y1="1455.30" x2="1011.49" y2="1455.30" style="stroke:#F0F0F0;stroke-width:9.72"/>
	<line x1="1043.89" y1="1455.30" x2="1108.69" y2="1455.30" style="stroke:#F0F0F0;stroke-width:9.72"/>
	<line x1="1141.09" y1="1455.30" x2="1205.89" y2="1455.30" style="stroke:#F0F0F0;stroke-width:9.72"/>
	<line x1="1238.29" y1="1455.30" x2="1303.09" y2="1455.30" style="stroke:#F0F0F0;stroke-width:9.72"/>
	<line x1="1335.49" y1="1455.30" x2="1400.29" y2="1455.30" style="stroke:#F0F0F0;stroke-width:9.72"/>
	<line x1="1432.69" y1="1455.30" x2="1497.49" y2="1455.30" style="stroke:#F0F0F0;stroke-width:9.72"/>
	<line x1="1529.89" y1="1455.30" x2="1594.69" y2="1455.30" style="stroke:#F0F0F0;stroke-width:9.72"/>
	<line x1="1627.09" y1="1455.30" x2="1691.89" y2="1455.30" style="stroke:#F0F0F0;stroke-width:9.72"/>
	<line x1="1724.29" y1="1455.30" x2="1789.09" y2="1455.30" style="stroke:#F0F0F0;stroke-width:9.72"/>
	<line x1="1821.49" y1="1455.30" x2="1886.29" y2="1455.30" style="stroke:#F0F0F0;stroke-width:9.72"/>
	<line x1="1918.69" y1="1455.30" x2="1983.49" y2="1455.30" style="stroke:#F0F0F0;stroke-width:9.72"/>
	<line x1="2015.89" y1="1455.30" x2="2080.69" y2="1455.30" style="stroke:#F0F0F0;stroke-width:9.72"/>
	<line x1="2113.09" y1="1455.30" x2="2177.89" y2="1455.30" style="stroke:#F0F0F0;stroke-width:9.72"/>
	<line x1="2210.29" y1="1455.30" x2="2275.09" y2="1455.30" style="stroke:#F0F0F0;stroke-width:9.72"/>
	<line x1="2307.49" y1="1455.30" x2="2372.29" y2="1455.30" style="stroke:#F0F0F0;stroke-width:9.72"/>
	<line x1="557.89" y1="896.06" x2="622.69" y2="896.06" style="stroke:#F0F0F0;stroke-width:9.72"/>
	<line x1="655.09" y1="896.06" x2="719.89" y2="896.06" style="stroke:#F0F0F0;stroke-width:9.72"/>
	<line x1="752.29" y1="896.06" x2="817.09" y2="896.06" style="stroke:#F0F0F0;stroke-width:9.72"/>
	<line x1="849.49" y1="896.06" x2="914.29" y2="896.06" style="stroke:#F0F0F0;stroke-width:9.72"/>
	<line x1="946.69" y1="896.06" x2="1011.49" y2="896.06" style="stroke:#F0F0F0;stroke-width:9.72"/>
	<line x1="1043.89" y1="896.06" x2="1108.69" y2="896.06" style="stroke:#F0F0F0;stroke-width:9.72"/>
	<line x1="1141.09" y1="896.06" x2="1205.89" y2="896.06" style="stroke:#F0F0F0;stroke-width:9.72"/>
	<line x1="1238.29" y1="896.06" x2="1303.09" y2="896.06" style="stroke:#F0F0F0;stroke-width:9.72"/>
	<line x1="1335.49" y1="896.06" x2="1400.29" y2="896.06" style="stroke:#F0F0F0;stroke-width:9.72"/>
	<line x1="1432.69" y1="896.06" x2="1497.49" y2="896.06" style="stroke:#F0F0F0;stroke-width:9.72"/>
	<line x1="1529.89" y1="896.06" x2="1594.69" y2="896.06" style="stroke:#F0F0F0;stroke-width:9.72"/>
	<line x1="1627.09" y1="896.06" x2="1691.89" y2="896.06" style="stroke:#F0F0F0;stroke-width:9.72"/>
	<line x1="1724.29" y1="896.06" x2="1789.09" y2="896.06" style="stroke:#F0F0F0;stroke-width:9.72"/>
	<line x1="1821.49" y1="896.06" x2="1886.29" y2="896.06" style="stroke:#F0F0F0;stroke-width:9.72"/>
	<line x1="1918.69" y1="896.06" x2="1983.49" y2="896.06" style="stroke:#F0F0F0;stroke-width:9.72"/>
	<line x1="2015.89" y1="896.06" x2="2080.69" y2="896.06" style="stroke:#F0F0F0;stroke-width:9.72"/>
	<line x1="2113.09" y1="896.06" x2="2177.89" y2="896.06" style="stroke:#F0F0F0;stroke-width:9.72"/>
	<line x1="2210.29" y1="896.06" x2="2275.09" y2="896.06" style="stroke:#F0F0F0;stroke-width:9.72"/>
	<line x1="2307.49" y1="896.06" x2="2372.29" y2="896.06" style="stroke:#F0F0F0;stroke-width:9.72"/>
	<line x1="557.89" y1="336.99" x2="622.69" y2="336.99" style="stroke:#F0F0F0;stroke-width:9.72"/>
	<line x1="655.09" y1="336.99" x2="719.89" y2="336.99" style="stroke:#F0F0F0;stroke-width:9.72"/>
	<line x1="752.29" y1="336.99" x2="817.09" y2="336.99" style="stroke:#F0F0F0;stroke-width:9.72"/>
	<line x1="849.49" y1="336.99" x2="914.29" y2="336.99" style="stroke:#F0F0F0;stroke-width:9.72"/>
	<line x1="946.69" y1="336.99" x2="1011.49" y2="336.99" style="stroke:#F0F0F0;stroke-width:9.72"/>
	<line x1="1043.89" y1="336.99" x2="1108.69" y2="336.99" style="stroke:#F0F0F0;stroke-width:9.72"/>
	<line x1="1141.09" y1="336.99" x2="1205.89" y2="336.99" style="stroke:#F0F0F0;stroke-width:9.72"/>
	<line x1="1238.29" y1="336.99" x2="1303.09" y2="336.99" style="stroke:#F0F0F0;stroke-width:9.72"/>
	<line x1="1335.49" y1="336.99" x2="1400.29" y2="336.99" style="stroke:#F0F0F0;stroke-width:9.72"/>
	<line x1="1432.69" y1="336.99" x2="1497.49" y2="336.99" style="stroke:#F0F0F0;stroke-width:9.72"/>
	<line x1="1529.89" y1="336.99" x2="1594.69" y2="336.99" style="stroke:#F0F0F0;stroke-width:9.72"/>
	<line x1="1627.09" y1="336.99" x2="1691.89" y2="336.99" style="stroke:#F0F0F0;stroke-width:9.72"/>
	<line x1="1724.29" y1="336.99" x2="1789.09" y2="336.99" style="stroke:#F0F0F0;stroke-width:9.72"/>
	<line x1="1821.49" y1="336.99" x2="1886.29" y2="336.99" style="stroke:#F0F0F0;stroke-width:9.72"/>
	<line x1="1918.69" y1="336.99" x2="1983.49" y2="336.99" style="stroke:#F0F0F0;stroke-width:9.72"/>
	<line x1="2015.89" y1="336.99" x2="2080.69" y2="336.99" style="stroke:#F0F0F0;stroke-width:9.72"/>
	<line x1="2113.09" y1="336.99" x2="2177.89" y2="336.99" style="stroke:#F0F0F0;stroke-width:9.72"/>
	<line x1="2210.29" y1="336.99" x2="2275.09" y2="336.99" style="stroke:#F0F0F0;stroke-width:9.72"/>
	<line x1="2307.49" y1="336.99" x2="2372.29" y2="336.99" style="stroke:#F0F0F0;stroke-width:9.72"/>
	<line x1="629.27" y1="2766.66" x2="629.27" y2="2701.86" style="stroke:#F0F0F0;stroke-width:9.72"/>
	<line x1="629.27" y1="2669.46" x2="629.27" y2="2604.66" style="stroke:#F0F0F0;stroke-width:9.72"/>
	<line x1="629.27" y1="2572.26" x2="629.27" y2="2507.46" style="stroke:#F0F0F0;stroke-width:9.72"/>
	<line x1="629.27" y1="2475.06" x2="629.27" y2="2410.26" style="stroke:#F0F0F0;stroke-width:9.72"/>
	<line x1="629.27" y1="2377.86" x2="629.27" y2="2313.06" style="stroke:#F0F0F0;stroke-width:9.72"/>
	<line x1="629.27" y1="2280.66" x2="629.27" y2="2215.86" style="stroke:#F0F0F0;stroke-width:9.72"/>
	<line x1="629.27" y1="2183.46" x2="629.27" y2="2118.66" style="stroke:#F0F0F0;stroke-width:9.72"/>
	<line x1="629.27" y1="2086.26" x2="629.27" y2="2021.46" style="stroke:#F0F0F0;stroke-width:9.72"/>
	<line x1="629.27" y1="1989.06" x2="629.27" y2="1924.26" style="stroke:#F0F0F0;stroke-width:9.72"/>
	<line x1="629.27" y1="1891.86" x2="629.27" y2="1827.06" style="stroke:#F0F0F0;stroke-width:9.72"/>
	<line x1="629.27" y1="1794.66" x2="629.27" y2="1729.86" style="stroke:#F0F0F0;stroke-width:9.72"/>
	<line x1="629.27" y1="1697.46" x2="629.27" y2="1632.66" style="stroke:#F0F0F0;stroke-width:9.72"/>
	<line x1="629.27" y1="1600.26" x2="629.27" y2="1535.46" style="stroke:#F0F0F0;stroke-width:9.72"/>
	<line x1="629.27" y1="1503.06" x2="629.27" y2="1438.26" style="stroke:#F0F0F0;stroke-width:9.72"/>
	<line x1="629.27" y1="1405.86" x2="629.27" y2="1341.06" style="stroke:#F0F0F0;stroke-width:9.72"/>
	<line x1="629.27" y1="1308.66" x2="629.27" y2="1243.86" style="stroke:#F0F0F0;stroke-width:9.72"/>
	<line x1="629.27" y1="1211.46" x2="629.27" y2="1146.66" style="stroke:#F0F0F0;stroke-width:9.72"/>
	<line x1="629.27" y1="1114.26" x2="629.27" y2="1049.46" style="stroke:#F0F0F0;stroke-width:9.72"/>
	<line x1="629.27" y1="1017.06" x2="629.27" y2="952.26" style="stroke:#F0F0F0;stroke-width:9.72"/>
	<line x1="629.27" y1="919.86" x2="629.27" y2="855.06" style="stroke:#F0F0F0;stroke-width:9.72"/>
	<line x1="629.27" y1="822.66" x2="629.27" y2="757.86" style="stroke:#F0F0F0;stroke-width:9.72"/>
	<line x1="629.27" y1="725.46" x2="629.27" y2="660.66" style="stroke:#F0F0F0;stroke-width:9.72"/>
	<line x1="629.27" y1="628.26" x2="629.27" y2="563.46" style="stroke:#F0F0F0;stroke-width:9.72"/>
	<line x1="629.27" y1="531.06" x2="629.27" y2="466.26" style="stroke:#F0F0F0;stroke-width:9.72"/>
	<line x1="629.27" y1="433.86" x2="629.27" y2="369.06" style="stroke:#F0F0F0;stroke-width:9.72"/>
	<line x1="629.27" y1="336.66" x2="629.27" y2="271.86" style="stroke:#F0F0F0;stroke-width:9.72"/>
	<line x1="629.27" y1="239.46" x2="629.27" y2="174.66" style="stroke:#F0F0F0;stroke-width:9.72"/>
	<line x1="629.27" y1="142.26" x2="629.27" y2="113.40" style="stroke:#F0F0F0;stroke-width:9.72"/>
	<line x1="967.61" y1="2766.66" x2="967.61" y2="2701.86" style="stroke:#F0F0F0;stroke-width:9.72"/>
	<line x1="967.61" y1="2669.46" x2="967.61" y2="2604.66" style="stroke:#F0F0F0;stroke-width:9.72"/>
	<line x1="967.61" y1="2572.26" x2="967.61" y2="2507.46" style="stroke:#F0F0F0;stroke-width:9.72"/>
	<line x1="967.61" y1="2475.06" x2="967.61" y2="2410.26" style="stroke:#F0F0F0;stroke-width:9.72"/>
	<line x1="967.61" y1="2377.86" x2="967.61" y2="2313.06" style="stroke:#F0F0F0;stroke-width:9.72"/>
	<line x1="967.61" y1="2280.66" x2="967.61" y2="2215.86" style="stroke:#F0F0F0;stroke-width:9.72"/>
	<line x1="967.61" y1="2183.46" x2="967.61" y2="2118.66" style="stroke:#F0F0F0;stroke-width:9.72"/>
	<line x1="967.61" y1="2086.26" x2="967.61" y2="2021.46" style="stroke:#F0F0F0;stroke-width:9.72"/>
	<line x1="967.61" y1="1989.06" x2="967.61" y2="1924.26" style="stroke:#F0F0F0;stroke-width:9.72"/>
	<line x1="967.61" y1="1891.86" x2="967.61" y2="1827.06" style="stroke:#F0F0F0;stroke-width:9.72"/>
	<line x1="967.61" y1="1794.66" x2="967.61" y2="1729.86" style="stroke:#F0F0F0;stroke-width:9.72"/>
	<line x1="967.61" y1="1697.46" x2="967.61" y2="1632.66" style="stroke:#F0F0F0;stroke-width:9.72"/>
	<line x1="967.61" y1="1600.26" x2="967.61" y2="1535.46" style="stroke:#F0F0F0;stroke-width:9.72"/>
	<line x1="967.61" y1="1503.06" x2="967.61" y2="1438.26" style="stroke:#F0F0F0;stroke-width:9.72"/>
	<line x1="967.61" y1="1405.86" x2="967.61" y2="1341.06" style="stroke:#F0F0F0;stroke-width:9.72"/>
	<line x1="967.61" y1="1308.66" x2="967.61" y2="1243.86" style="stroke:#F0F0F0;stroke-width:9.72"/>
	<line x1="967.61" y1="1211.46" x2="967.61" y2="1146.66" style="stroke:#F0F0F0;stroke-width:9.72"/>
	<line x1="967.61" y1="1114.26" x2="967.61" y2="1049.46" style="stroke:#F0F0F0;stroke-width:9.72"/>
	<line x1="967.61" y1="1017.06" x2="967.61" y2="952.26" style="stroke:#F0F0F0;stroke-width:9.72"/>
	<line x1="967.61" y1="919.86" x2="967.61" y2="855.06" style="stroke:#F0F0F0;stroke-width:9.72"/>
	<line x1="967.61" y1="822.66" x2="967.61" y2="757.86" style="stroke:#F0F0F0;stroke-width:9.72"/>
	<line x1="967.61" y1="725.46" x2="967.61" y2="660.66" style="stroke:#F0F0F0;stroke-width:9.72"/>
	<line x1="967.61" y1="628.26" x2="967.61" y2="563.46" style="stroke:#F0F0F0;stroke-width:9.72"/>
	<line x1="967.61" y1="531.06" x2="967.61" y2="466.26" style="stroke:#F0F0F0;stroke-width:9.72"/>
	<line x1="967.61" y1="433.86" x2="967.61" y2="369.06" style="stroke:#F0F0F0;stroke-width:9.72"/>
	<line x1="967.61" y1="336.66" x2="967.61" y2="271.86" style="stroke:#F0F0F0;stroke-width:9.72"/>
	<line x1="967.61" y1="239.46" x2="967.61" y2="174.66" style="stroke:#F0F0F0;stroke-width:9.72"/>
	<line x1="967.61" y1="142.26" x2="967.61" y2="113.40" style="stroke:#F0F0F0;stroke-width:9.72"/>
	<line x1="1305.96" y1="2766.66" x2="1305.96" y2="2701.86" style="stroke:#F0F0F0;stroke-width:9.72"/>
	<line x1="1305.96" y1="2669.46" x2="1305.96" y2="2604.66" style="stroke:#F0F0F0;stroke-width:9.72"/>
	<line x1="1305.96" y1="2572.26" x2="1305.96" y2="2507.46" style="stroke:#F0F0F0;stroke-width:9.72"/>
	<line x1="1305.96" y1="2475.06" x2="1305.96" y2="2410.26" style="stroke:#F0F0F0;stroke-width:9.72"/>
	<line x1="1305.96" y1="2377.86" x2="1305.96" y2="2313.06" style="stroke:#F0F0F0;stroke-width:9.72"/>
	<line x1="1305.96" y1="2280.66" x2="1305.96" y2="2215.86" style="stroke:#F0F0F0;stroke-width:9.72"/>
	<line x1="1305.96" y1="2183.46" x2="1305.96" y2="2118.66" style="stroke:#F0F0F0;stroke-width:9.72"/>
	<line x1="1305.96" y1="2086.26" x2="1305.96" y2="2021.46" style="stroke:#F0F0F0;stroke-width:9.72"/>
	<line x1="1305.96" y1="1989.06" x2="1305.96" y2="1924.26" style="stroke:#F0F0F0;stroke-width:9.72"/>
	<line x1="1305.96" y1="1891.86" x2="1305.96" y2="1827.06" style="stroke:#F0F0F0;stroke-width:9.72"/>
	<line x1="1305.96" y1="1794.66" x2="1305.96" y2="1729.86" style="stroke:#F0F0F0;stroke-width:9.72"/>
	<line x1="1305.96" y1="1697.46" x2="1305.96" y2="1632.66" style="stroke:#F0F0F0;stroke-width:9.72"/>
	<line x1="1305.96" y1="1600.26" x2="1305.96" y2="1535.46" style="stroke:#F0F0F0;stroke-width:9.72"/>
	<line x1="1305.96" y1="1503.06" x2="1305.96" y2="1438.26" style="stroke:#F0F0F0;stroke-width:9.72"/>
	<line x1="1305.96" y1="1405.86" x2="1305.96" y2="1341.06" style="stroke:#F0F0F0;stroke-width:9.72"/>
	<line x1="1305.96" y1="1308.66" x2="1305.96" y2="1243.86" style="stroke:#F0F0F0;stroke-width:9.72"/>
	<line x1="1305.96" y1="1211.46" x2="1305.96" y2="1146.66" style="stroke:#F0F0F0;stroke-width:9.72"/>
	<line x1="1305.96" y1="1114.26" x2="1305.96" y2="1049.46" style="stroke:#F0F0F0;stroke-width:9.72"/>
	<line x1="1305.96" y1="1017.06" x2="1305.96" y2="952.26" style="stroke:#F0F0F0;stroke-width:9.72"/>
	<line x1="1305.96" y1="919.86" x2="1305.96" y2="855.06" style="stroke:#F0F0F0;stroke-width:9.72"/>
	<line x1="1305.96" y1="822.66" x2="1305.96" y2="757.86" style="stroke:#F0F0F0;stroke-width:9.72"/>
	<line x1="1305.96" y1="725.46" x2="1305.96" y2="660.66" style="stroke:#F0F0F0;stroke-width:9.72"/>
	<line x1="1305.96" y1="628.26" x2="1305.96" y2="563.46" style="stroke:#F0F0F0;stroke-width:9.72"/>
	<line x1="1305.96" y1="531.06" x2="1305.96" y2="466.26" style="stroke:#F0F0F0;stroke-width:9.72"/>
	<line x1="1305.96" y1="433.86" x2="1305.96" y2="369.06" style="stroke:#F0F0F0;stroke-width:9.72"/>
	<line x1="1305.96" y1="336.66" x2="1305.96" y2="271.86" style="stroke:#F0F0F0;stroke-width:9.72"/>
	<line x1="1305.96" y1="239.46" x2="1305.96" y2="174.66" style="stroke:#F0F0F0;stroke-width:9.72"/>
	<line x1="1305.96" y1="142.26" x2="1305.96" y2="113.40" style="stroke:#F0F0F0;stroke-width:9.72"/>
	<line x1="1644.30" y1="2766.66" x2="1644.30" y2="2701.86" style="stroke:#F0F0F0;stroke-width:9.72"/>
	<line x1="1644.30" y1="2669.46" x2="1644.30" y2="2604.66" style="stroke:#F0F0F0;stroke-width:9.72"/>
	<line x1="1644.30" y1="2572.26" x2="1644.30" y2="2507.46" style="stroke:#F0F0F0;stroke-width:9.72"/>
	<line x1="1644.30" y1="2475.06" x2="1644.30" y2="2410.26" style="stroke:#F0F0F0;stroke-width:9.72"/>
	<line x1="1644.30" y1="2377.86" x2="1644.30" y2="2313.06" style="stroke:#F0F0F0;stroke-width:9.72"/>
	<line x1="1644.30" y1="2280.66" x2="1644.30" y2="2215.86" style="stroke:#F0F0F0;stroke-width:9.72"/>
	<line x1="1644.30" y1="2183.46" x2="1644.30" y2="2118.66" style="stroke:#F0F0F0;stroke-width:9.72"/>
	<line x1="1644.30" y1="2086.26" x2="1644.30" y2="2021.46" style="stroke:#F0F0F0;stroke-width:9.72"/>
	<line x1="1644.30" y1="1989.06" x2="1644.30" y2="1924.26" style="stroke:#F0F0F0;stroke-width:9.72"/>
	<line x1="1644.30" y1="1891.86" x2="1644.30" y2="1827.06" style="stroke:#F0F0F0;stroke-width:9.72"/>
	<line x1="1644.30" y1="1794.66" x2="1644.30" y2="1729.86" style="stroke:#F0F0F0;stroke-width:9.72"/>
	<line x1="1644.30" y1="1697.46" x2="1644.30" y2="1632.66" style="stroke:#F0F0F0;stroke-width:9.72"/>
	<line x1="1644.30" y1="1600.26" x2="1644.30" y2="1535.46" style="stroke:#F0F0F0;stroke-width:9.72"/>
	<line x1="1644.30" y1="1503.06" x2="1644.30" y2="1438.26" style="stroke:#F0F0F0;stroke-width:9.72"/>
	<line x1="1644.30" y1="1405.86" x2="1644.30" y2="1341.06" style="stroke:#F0F0F0;stroke-width:9.72"/>
	<line x1="1644.30" y1="1308.66" x2="1644.30" y2="1243.86" style="stroke:#F0F0F0;stroke-width:9.72"/>
	<line x1="1644.30" y1="1211.46" x2="1644.30" y2="1146.66" style="stroke:#F0F0F0;stroke-width:9.72"/>
	<line x1="1644.30" y1="1114.26" x2="1644.30" y2="1049.46" style="stroke:#F0F0F0;stroke-width:9.72"/>
	<line x1="1644.30" y1="1017.06" x2="1644.30" y2="952.26" style="stroke:#F0F0F0;stroke-width:9.72"/>
	<line x1="1644.30" y1="919.86" x2="1644.30" y2="855.06" style="stroke:#F0F0F0;stroke-width:9.72"/>
	<line x1="1644.30" y1="822.66" x2="1644.30" y2="757.86" style="stroke:#F0F0F0;stroke-width:9.72"/>
	<line x1="1644.30" y1="725.46" x2="1644.30" y2="660.66" style="stroke:#F0F0F0;stroke-width:9.72"/>
	<line x1="1644.30" y1="628.26" x2="1644.30" y2="563.46" style="stroke:#F0F0F0;stroke-width:9.72"/>
	<line x1="1644.30" y1="531.06" x2="1644.30" y2="466.26" style="stroke:#F0F0F0;stroke-width:9.72"/>
	<line x1="1644.30" y1="433.86" x2="1644.30" y2="369.06" style="stroke:#F0F0F0;stroke-width:9.72"/>
	<line x1="1644.30" y1="336.66" x2="1644.30" y2="271.86" style="stroke:#F0F0F0;stroke-width:9.72"/>
	<line x1="1644.30" y1="239.46" x2="1644.30" y2="174.66" style="stroke:#F0F0F0;stroke-width:9.72"/>
	<line x1="1644.30" y1="142.26" x2="1644.30" y2="113.40" style="stroke:#F0F0F0;stroke-width:9.72"/>
	<line x1="1982.81" y1="2766.66" x2="1982.81" y2="2701.86" style="stroke:#F0F0F0;stroke-width:9.72"/>
	<line x1="1982.81" y1="2669.46" x2="1982.81" y2="2604.66" style="stroke:#F0F0F0;stroke-width:9.72"/>
	<line x1="1982.81" y1="2572.26" x2="1982.81" y2="2507.46" style="stroke:#F0F0F0;stroke-width:9.72"/>
	<line x1="1982.81" y1="2475.06" x2="1982.81" y2="2410.26" style="stroke:#F0F0F0;stroke-width:9.72"/>
	<line x1="1982.81" y1="2377.86" x2="1982.81" y2="2313.06" style="stroke:#F0F0F0;stroke-width:9.72"/>
	<line x1="1982.81" y1="2280.66" x2="1982.81" y2="2215.86" style="stroke:#F0F0F0;stroke-width:9.72"/>
	<line x1="1982.81" y1="2183.46" x2="1982.81" y2="2118.66" style="stroke:#F0F0F0;stroke-width:9.72"/>
	<line x1="1982.81" y1="2086.26" x2="1982.81" y2="2021.46" style="stroke:#F0F0F0;stroke-width:9.72"/>
	<line x1="1982.81" y1="1989.06" x2="1982.81" y2="1924.26" style="stroke:#F0F0F0;stroke-width:9.72"/>
	<line x1="1982.81" y1="1891.86" x2="1982.81" y2="1827.06" style="stroke:#F0F0F0;stroke-width:9.72"/>
	<line x1="1982.81" y1="1794.66" x2="1982.81" y2="1729.86" style="stroke:#F0F0F0;stroke-width:9.72"/>
	<line x1="1982.81" y1="1697.46" x2="1982.81" y2="1632.66" style="stroke:#F0F0F0;stroke-width:9.72"/>
	<line x1="1982.81" y1="1600.26" x2="1982.81" y2="1535.46" style="stroke:#F0F0F0;stroke-width:9.72"/>
	<line x1="1982.81" y1="1503.06" x2="1982.81" y2="1438.26" style="stroke:#F0F0F0;stroke-width:9.72"/>
	<line x1="1982.81" y1="1405.86" x2="1982.81" y2="1341.06" style="stroke:#F0F0F0;stroke-width:9.72"/>
	<line x1="1982.81" y1="1308.66" x2="1982.81" y2="1243.86" style="stroke:#F0F0F0;stroke-width:9.72"/>
	<line x1="1982.81" y1="1211.46" x2="1982.81" y2="1146.66" style="stroke:#F0F0F0;stroke-width:9.72"/>
	<line x1="1982.81" y1="1114.26" x2="1982.81" y2="1049.46" style="stroke:#F0F0F0;stroke-width:9.72"/>
	<line x1="1982.81" y1="1017.06" x2="1982.81" y2="952.26" style="stroke:#F0F0F0;stroke-width:9.72"/>
	<line x1="1982.81" y1="919.86" x2="1982.81" y2="855.06" style="stroke:#F0F0F0;stroke-width:9.72"/>
	<line x1="1982.81" y1="822.66" x2="1982.81" y2="757.86" style="stroke:#F0F0F0;stroke-width:9.72"/>
	<line x1="1982.81" y1="725.46" x2="1982.81" y2="660.66" style="stroke:#F0F0F0;stroke-width:9.72"/>
	<line x1="1982.81" y1="628.26" x2="1982.81" y2="563.46" style="stroke:#F0F0F0;stroke-width:9.72"/>
	<line x1="1982.81" y1="531.06" x2="1982.81" y2="466.26" style="stroke:#F0F0F0;stroke-width:9.72"/>
	<line x1="1982.81" y1="433.86" x2="1982.81" y2="369.06" style="stroke:#F0F0F0;stroke-width:9.72"/>
	<line x1="1982.81" y1="336.66" x2="1982.81" y2="271.86" style="stroke:#F0F0F0;stroke-width:9.72"/>
	<line x1="1982.81" y1="239.46" x2="1982.81" y2="174.66" style="stroke:#F0F0F0;stroke-width:9.72"/>
	<line x1="1982.81" y1="142.26" x2="1982.81" y2="113.40" style="stroke:#F0F0F0;stroke-width:9.72"/>
	<line x1="2321.16" y1="2766.66" x2="2321.16" y2="2701.86" style="stroke:#F0F0F0;stroke-width:9.72"/>
	<line x1="2321.16" y1="2669.46" x2="2321.16" y2="2604.66" style="stroke:#F0F0F0;stroke-width:9.72"/>
	<line x1="2321.16" y1="2572.26" x2="2321.16" y2="2507.46" style="stroke:#F0F0F0;stroke-width:9.72"/>
	<line x1="2321.16" y1="2475.06" x2="2321.16" y2="2410.26" style="stroke:#F0F0F0;stroke-width:9.72"/>
	<line x1="2321.16" y1="2377.86" x2="2321.16" y2="2313.06" style="stroke:#F0F0F0;stroke-width:9.72"/>
	<line x1="2321.16" y1="2280.66" x2="2321.16" y2="2215.86" style="stroke:#F0F0F0;stroke-width:9.72"/>
	<line x1="2321.16" y1="2183.46" x2="2321.16" y2="2118.66" style="stroke:#F0F0F0;stroke-width:9.72"/>
	<line x1="2321.16" y1="2086.26" x2="2321.16" y2="2021.46" style="stroke:#F0F0F0;stroke-width:9.72"/>
	<line x1="2321.16" y1="1989.06" x2="2321.16" y2="1924.26" style="stroke:#F0F0F0;stroke-width:9.72"/>
	<line x1="2321.16" y1="1891.86" x2="2321.16" y2="1827.06" style="stroke:#F0F0F0;stroke-width:9.72"/>
	<line x1="2321.16" y1="1794.66" x2="2321.16" y2="1729.86" style="stroke:#F0F0F0;stroke-width:9.72"/>
	<line x1="2321.16" y1="1697.46" x2="2321.16" y2="1632.66" style="stroke:#F0F0F0;stroke-width:9.72"/>
	<line x1="2321.16" y1="1600.26" x2="2321.16" y2="1535.46" style="stroke:#F0F0F0;stroke-width:9.72"/>
	<line x1="2321.16" y1="1503.06" x2="2321.16" y2="1438.26" style="stroke:#F0F0F0;stroke-width:9.72"/>
	<line x1="2321.16" y1="1405.86" x2="2321.16" y2="1341.06" style="stroke:#F0F0F0;stroke-width:9.72"/>
	<line x1="2321.16" y1="1308.66" x2="2321.16" y2="1243.86" style="stroke:#F0F0F0;stroke-width:9.72"/>
	<line x1="2321.16" y1="1211.46" x2="2321.16" y2="1146.66" style="stroke:#F0F0F0;stroke-width:9.72"/>
	<line x1="2321.16" y1="1114.26" x2="2321.16" y2="1049.46" style="stroke:#F0F0F0;stroke-width:9.72"/>
	<line x1="2321.16" y1="1017.06" x2="2321.16" y2="952.26" style="stroke:#F0F0F0;stroke-width:9.72"/>
	<line x1="2321.16" y1="919.86" x2="2321.16" y2="855.06" style="stroke:#F0F0F0;stroke-width:9.72"/>
	<line x1="2321.16" y1="822.66" x2="2321.16" y2="757.86" style="stroke:#F0F0F0;stroke-width:9.72"/>
	<line x1="2321.16" y1="725.46" x2="2321.16" y2="660.66" style="stroke:#F0F0F0;stroke-width:9.72"/>
	<line x1="2321.16" y1="628.26" x2="2321.16" y2="563.46" style="stroke:#F0F0F0;stroke-width:9.72"/>
	<line x1="2321.16" y1="531.06" x2="2321.16" y2="466.26" style="stroke:#F0F0F0;stroke-width:9.72"/>
	<line x1="2321.16" y1="433.86" x2="2321.16" y2="369.06" style="stroke:#F0F0F0;stroke-width:9.72"/>
	<line x1="2321.16" y1="336.66" x2="2321.16" y2="271.86" style="stroke:#F0F0F0;stroke-width:9.72"/>
	<line x1="2321.16" y1="239.46" x2="2321.16" y2="174.66" style="stroke:#F0F0F0;stroke-width:9.72"/>
	<line x1="2321.16" y1="142.26" x2="2321.16" y2="113.40" style="stroke:#F0F0F0;stroke-width:9.72"/>
	<path d=" M795.15 1837.35 L832.11 1867.05 L834.64 1846.29 L847.63 1876.33 L899.78 1854.06 L990.39 1885.61 L1050.30 1918.69 L1078.31 1887.81 L1097.55 1787.57 L1115.94 1821.66 L1151.04 1855.91 L1211.96 1830.94 L1263.09 1805.29 L1306.29 1835.49 L1379.87 1866.21 L1419.86 1832.29 L1421.89 1863.68 L1429.48 1836.00 L1436.91 1802.08 L1478.59 1840.05 L1537.14 1879.88 L1574.44 1850.34 L1595.19 1890.00 L1599.92 1931.85 L1612.07 1968.13 L1649.03 2005.43 L1688.85 1966.11 L1752.64 1926.79 L1815.58 1971.34 L1831.11 1830.60 L1839.54 1791.28 L1843.59 1651.73 L1878.69 1692.23 L1916.83 1735.59 L1928.64 1782.84 L1948.56 1742.85 L1979.10 1794.32 L1998.00 1605.49 L2019.26 1560.09 L2043.39 1623.38 L2062.63 1568.87 L2091.49 1638.73 L2119.50 1579.84 L2137.89 1525.33 L2155.95 1604.14 L2185.31 1538.33 L2226.32 1259.72 L2263.44 1353.71 L2276.44 1276.26 L2288.25 1388.64 L2310.19 1237.28" stroke-linejoin="round" style="fill:none;stroke:#000000;stroke-width:14.58"/>
	<path d=" M795.15 1304.61 L832.11 1326.88 L834.64 1305.62 L847.63 1328.06 L899.78 1305.11 L990.39 1328.40 L1050.30 1353.88 L1078.31 1320.98 L1097.55 1230.69 L1115.94 1257.02 L1151.04 1281.83 L1211.96 1255.84 L1263.09 1230.02 L1306.29 1248.92 L1379.87 1267.99 L1419.86 1231.54 L1421.89 1250.94 L1429.48 1222.09 L1436.91 1185.81 L1478.59 1212.97 L1537.14 1241.16 L1574.44 1211.79 L1595.19 1241.33 L1599.92 1270.52 L1612.07 1292.79 L1649.03 1315.58 L1688.85 1273.22 L1752.64 1231.03 L1815.58 1263.26 L1831.11 1134.84 L1839.54 1092.82 L1843.59 964.74 L1878.69 989.38 L1916.83 1015.71 L1928.64 1043.89 L1948.56 1000.69 L1979.10 1031.23 L1998.00 854.72 L2019.26 804.09 L2043.39 845.44 L2062.63 783.51 L2091.49 829.74 L2119.50 762.07 L2137.89 699.64 L2155.95 743.34 L2185.31 667.74 L2226.32 398.76 L2263.44 449.21 L2276.44 352.86 L2288.25 416.81 L2310.19 184.78" stroke-linejoin="round" style="fill:none;stroke:#A0A0A0;stroke-width:14.58"/>
	<path d=" M795.15 2369.93 L832.11 2407.05 L834.64 2386.97 L847.63 2424.43 L899.78 2403.17 L990.39 2442.99 L1050.30 2483.32 L1078.31 2454.47 L1097.55 2344.44 L1115.94 2386.29 L1151.04 2429.83 L1211.96 2406.04 L1263.09 2380.39 L1306.29 2421.90 L1379.87 2464.43 L1419.86 2433.04 L1421.89 2476.41 L1429.48 2450.08 L1436.91 2418.36 L1478.59 2467.13 L1537.14 2518.76 L1574.44 2488.89 L1595.19 2538.84 L1599.92 2593.01 L1612.07 2643.64 L1649.03 2695.44 L1688.85 2658.99 L1752.64 2622.54 L1815.58 2679.41 L1831.11 2526.36 L1839.54 2489.91 L1843.59 2338.71 L1878.69 2395.07 L1916.83 2455.65 L1928.64 2521.97 L1948.56 2484.84 L1979.10 2557.41 L1998.00 2356.26 L2019.26 2316.26 L2043.39 2401.31 L2062.63 2354.40 L2091.49 2447.72 L2119.50 2397.60 L2137.89 2350.86 L2155.95 2464.76 L2185.31 2409.07 L2226.32 2120.51 L2263.44 2258.21 L2276.44 2199.66 L2288.25 2360.48 L2310.19 2289.60" stroke-linejoin="round" style="fill:none;stroke:#A0A0A0;stroke-width:14.58"/>
	<line x1="557.89" y1="2766.66" x2="557.89" y2="113.40" style="stroke:#000000;stroke-width:6.48"/>
	<line x1="557.89" y1="2573.44" x2="513.00" y2="2573.44" style="stroke:#000000;stroke-width:6.48"/>
	<text x="490.39" y="2612.87" style="font-family:'Helvetica';font-size:112.56px;fill:#000000" text-anchor="end">.2</text>
	<line x1="557.89" y1="2014.37" x2="513.00" y2="2014.37" style="stroke:#000000;stroke-width:6.48"/>
	<text x="490.39" y="2053.81" style="font-family:'Helvetica';font-size:112.56px;fill:#000000" text-anchor="end">.25</text>
	<line x1="557.89" y1="1455.30" x2="513.00" y2="1455.30" style="stroke:#000000;stroke-width:6.48"/>
	<text x="490.39" y="1494.74" style="font-family:'Helvetica';font-size:112.56px;fill:#000000" text-anchor="end">.3</text>
	<line x1="557.89" y1="896.06" x2="513.00" y2="896.06" style="stroke:#000000;stroke-width:6.48"/>
	<text x="490.39" y="935.50" style="font-family:'Helvetica';font-size:112.56px;fill:#000000" text-anchor="end">.35</text>
	<line x1="557.89" y1="336.99" x2="513.00" y2="336.99" style="stroke:#000000;stroke-width:6.48"/>
	<text x="490.39" y="376.43" style="font-family:'Helvetica';font-size:112.56px;fill:#000000" text-anchor="end">.4</text>
	<text x="214.55" y="1439.94" style="font-family:'Helvetica';font-size:112.56px;fill:#000000" transform="rotate(-90 214.55,1439.94)" text-anchor="middle">Estimated causal effect</text>
	<line x1="557.89" y1="2766.66" x2="2392.37" y2="2766.66" style="stroke:#000000;stroke-width:6.48"/>
	<line x1="629.27" y1="2766.66" x2="629.27" y2="2811.54" style="stroke:#000000;stroke-width:6.48"/>
	<text x="629.27" y="2912.86" style="font-family:'Helvetica';font-size:112.56px;fill:#000000" text-anchor="middle">1.35</text>
	<line x1="967.61" y1="2766.66" x2="967.61" y2="2811.54" style="stroke:#000000;stroke-width:6.48"/>
	<text x="967.61" y="2912.86" style="font-family:'Helvetica';font-size:112.56px;fill:#000000" text-anchor="middle">1.355</text>
	<line x1="1305.96" y1="2766.66" x2="1305.96" y2="2811.54" style="stroke:#000000;stroke-width:6.48"/>
	<text x="1305.96" y="2912.86" style="font-family:'Helvetica';font-size:112.56px;fill:#000000" text-anchor="middle">1.36</text>
	<line x1="1644.30" y1="2766.66" x2="1644.30" y2="2811.54" style="stroke:#000000;stroke-width:6.48"/>
	<text x="1644.30" y="2912.86" style="font-family:'Helvetica';font-size:112.56px;fill:#000000" text-anchor="middle">1.365</text>
	<line x1="1982.81" y1="2766.66" x2="1982.81" y2="2811.54" style="stroke:#000000;stroke-width:6.48"/>
	<text x="1982.81" y="2912.86" style="font-family:'Helvetica';font-size:112.56px;fill:#000000" text-anchor="middle">1.37</text>
	<line x1="2321.16" y1="2766.66" x2="2321.16" y2="2811.54" style="stroke:#000000;stroke-width:6.48"/>
	<text x="2321.16" y="2912.86" style="font-family:'Helvetica';font-size:112.56px;fill:#000000" text-anchor="middle">1.375</text>
	<text x="1475.21" y="3070.31" style="font-family:'Helvetica';font-size:112.56px;fill:#000000" text-anchor="middle">Median of exposure in moving window</text>
	<rect x="2431.35" y="1335.15" width="2816.44" height="209.76" style="fill:#FFFFFF"/>
	<rect x="2434.59" y="1338.39" width="2809.96" height="203.28" style="fill:none;stroke:#FFFFFF;stroke-width:6.48"/>
	<line x1="2479.95" y1="1439.94" x2="2739.15" y2="1439.94" style="stroke:#000000;stroke-width:14.58"/>
	<line x1="4183.31" y1="1439.94" x2="4442.51" y2="1439.94" style="stroke:#A0A0A0;stroke-width:14.58"/>
	<text x="2806.65" y="1479.38" style="font-family:'Helvetica';font-size:112.56px;fill:#000000">Estimated causal effect</text>
	<text x="4510.01" y="1479.38" style="font-family:'Helvetica';font-size:112.56px;fill:#000000">95% CI limits</text>
</svg>
