<?xml version="1.0" encoding="UTF-8" standalone="no"?>
<!-- This is a Stata 19.5 generated SVG file (http://www.stata.com) -->

<svg version="1.1" width="7.500in" height="4.500in" viewBox="0 0 5400 3240" xmlns="http://www.w3.org/2000/svg" xmlns:xlink="http://www.w3.org/1999/xlink">
	<desc>Stata Graph - Graph</desc>
	<rect x="0" y="0" width="5400" height="3240" style="fill:#FFFFFF;stroke:none"/>
	<rect x="0.00" y="0.00" width="5400.00" height="3240.00" style="fill:#FFFFFF"/>
	<rect x="3.24" y="3.24" width="5393.52" height="3233.52" style="fill:none;stroke:#FFFFFF;stroke-width:6.48"/>
	<rect x="531.56" y="113.40" width="4755.04" height="2365.71" style="fill:#FFFFFF"/>
	<rect x="534.80" y="116.64" width="4748.56" height="2359.23" style="fill:none;stroke:#FFFFFF;stroke-width:6.48"/>
	<line x1="531.56" y1="2299.89" x2="596.36" y2="2299.89" style="stroke:#F0F0F0;stroke-width:9.72"/>
	<line x1="628.76" y1="2299.89" x2="693.56" y2="2299.89" style="stroke:#F0F0F0;stroke-width:9.72"/>
	<line x1="725.96" y1="2299.89" x2="790.76" y2="2299.89" style="stroke:#F0F0F0;stroke-width:9.72"/>
	<line x1="823.16" y1="2299.89" x2="887.96" y2="2299.89" style="stroke:#F0F0F0;stroke-width:9.72"/>
	<line x1="920.36" y1="2299.89" x2="985.16" y2="2299.89" style="stroke:#F0F0F0;stroke-width:9.72"/>
	<line x1="1017.56" y1="2299.89" x2="1082.36" y2="2299.89" style="stroke:#F0F0F0;stroke-width:9.72"/>
	<line x1="1114.76" y1="2299.89" x2="1179.56" y2="2299.89" style="stroke:#F0F0F0;stroke-width:9.72"/>
	<line x1="1211.96" y1="2299.89" x2="1276.76" y2="2299.89" style="stroke:#F0F0F0;stroke-width:9.72"/>
	<line x1="1309.16" y1="2299.89" x2="1373.96" y2="2299.89" style="stroke:#F0F0F0;stroke-width:9.72"/>
	<line x1="1406.36" y1="2299.89" x2="1471.16" y2="2299.89" style="stroke:#F0F0F0;stroke-width:9.72"/>
	<line x1="1503.56" y1="2299.89" x2="1568.36" y2="2299.89" style="stroke:#F0F0F0;stroke-width:9.72"/>
	<line x1="1600.76" y1="2299.89" x2="1665.56" y2="2299.89" style="stroke:#F0F0F0;stroke-width:9.72"/>
	<line x1="1697.96" y1="2299.89" x2="1762.76" y2="2299.89" style="stroke:#F0F0F0;stroke-width:9.72"/>
	<line x1="1795.16" y1="2299.89" x2="1859.96" y2="2299.89" style="stroke:#F0F0F0;stroke-width:9.72"/>
	<line x1="1892.36" y1="2299.89" x2="1957.16" y2="2299.89" style="stroke:#F0F0F0;stroke-width:9.72"/>
	<line x1="1989.56" y1="2299.89" x2="2054.36" y2="2299.89" style="stroke:#F0F0F0;stroke-width:9.72"/>
	<line x1="2086.76" y1="2299.89" x2="2151.56" y2="2299.89" style="stroke:#F0F0F0;stroke-width:9.72"/>
	<line x1="2183.96" y1="2299.89" x2="2248.76" y2="2299.89" style="stroke:#F0F0F0;stroke-width:9.72"/>
	<line x1="2281.16" y1="2299.89" x2="2345.96" y2="2299.89" style="stroke:#F0F0F0;stroke-width:9.72"/>
	<line x1="2378.36" y1="2299.89" x2="2443.16" y2="2299.89" style="stroke:#F0F0F0;stroke-width:9.72"/>
	<line x1="2475.56" y1="2299.89" x2="2540.36" y2="2299.89" style="stroke:#F0F0F0;stroke-width:9.72"/>
	<line x1="2572.76" y1="2299.89" x2="2637.56" y2="2299.89" style="stroke:#F0F0F0;stroke-width:9.72"/>
	<line x1="2669.96" y1="2299.89" x2="2734.76" y2="2299.89" style="stroke:#F0F0F0;stroke-width:9.72"/>
	<line x1="2767.16" y1="2299.89" x2="2831.96" y2="2299.89" style="stroke:#F0F0F0;stroke-width:9.72"/>
	<line x1="2864.36" y1="2299.89" x2="2929.16" y2="2299.89" style="stroke:#F0F0F0;stroke-width:9.72"/>
	<line x1="2961.56" y1="2299.89" x2="3026.36" y2="2299.89" style="stroke:#F0F0F0;stroke-width:9.72"/>
	<line x1="3058.76" y1="2299.89" x2="3123.56" y2="2299.89" style="stroke:#F0F0F0;stroke-width:9.72"/>
	<line x1="3155.96" y1="2299.89" x2="3220.76" y2="2299.89" style="stroke:#F0F0F0;stroke-width:9.72"/>
	<line x1="3253.16" y1="2299.89" x2="3317.96" y2="2299.89" style="stroke:#F0F0F0;stroke-width:9.72"/>
	<line x1="3350.36" y1="2299.89" x2="3415.16" y2="2299.89" style="stroke:#F0F0F0;stroke-width:9.72"/>
	<line x1="3447.56" y1="2299.89" x2="3512.36" y2="2299.89" style="stroke:#F0F0F0;stroke-width:9.72"/>
	<line x1="3544.76" y1="2299.89" x2="3609.56" y2="2299.89" style="stroke:#F0F0F0;stroke-width:9.72"/>
	<line x1="3641.96" y1="2299.89" x2="3706.76" y2="2299.89" style="stroke:#F0F0F0;stroke-width:9.72"/>
	<line x1="3739.16" y1="2299.89" x2="3803.96" y2="2299.89" style="stroke:#F0F0F0;stroke-width:9.72"/>
	<line x1="3836.36" y1="2299.89" x2="3901.16" y2="2299.89" style="stroke:#F0F0F0;stroke-width:9.72"/>
	<line x1="3933.56" y1="2299.89" x2="3998.36" y2="2299.89" style="stroke:#F0F0F0;stroke-width:9.72"/>
	<line x1="4030.76" y1="2299.89" x2="4095.56" y2="2299.89" style="stroke:#F0F0F0;stroke-width:9.72"/>
	<line x1="4127.96" y1="2299.89" x2="4192.76" y2="2299.89" style="stroke:#F0F0F0;stroke-width:9.72"/>
	<line x1="4225.16" y1="2299.89" x2="4289.96" y2="2299.89" style="stroke:#F0F0F0;stroke-width:9.72"/>
	<line x1="4322.36" y1="2299.89" x2="4387.16" y2="2299.89" style="stroke:#F0F0F0;stroke-width:9.72"/>
	<line x1="4419.56" y1="2299.89" x2="4484.36" y2="2299.89" style="stroke:#F0F0F0;stroke-width:9.72"/>
	<line x1="4516.76" y1="2299.89" x2="4581.56" y2="2299.89" style="stroke:#F0F0F0;stroke-width:9.72"/>
	<line x1="4613.96" y1="2299.89" x2="4678.76" y2="2299.89" style="stroke:#F0F0F0;stroke-width:9.72"/>
	<line x1="4711.16" y1="2299.89" x2="4775.96" y2="2299.89" style="stroke:#F0F0F0;stroke-width:9.72"/>
	<line x1="4808.36" y1="2299.89" x2="4873.16" y2="2299.89" style="stroke:#F0F0F0;stroke-width:9.72"/>
	<line x1="4905.56" y1="2299.89" x2="4970.36" y2="2299.89" style="stroke:#F0F0F0;stroke-width:9.72"/>
	<line x1="5002.76" y1="2299.89" x2="5067.56" y2="2299.89" style="stroke:#F0F0F0;stroke-width:9.72"/>
	<line x1="5099.96" y1="2299.89" x2="5164.76" y2="2299.89" style="stroke:#F0F0F0;stroke-width:9.72"/>
	<line x1="5197.16" y1="2299.89" x2="5261.96" y2="2299.89" style="stroke:#F0F0F0;stroke-width:9.72"/>
	<line x1="531.56" y1="1639.74" x2="596.36" y2="1639.74" style="stroke:#F0F0F0;stroke-width:9.72"/>
	<line x1="628.76" y1="1639.74" x2="693.56" y2="1639.74" style="stroke:#F0F0F0;stroke-width:9.72"/>
	<line x1="725.96" y1="1639.74" x2="790.76" y2="1639.74" style="stroke:#F0F0F0;stroke-width:9.72"/>
	<line x1="823.16" y1="1639.74" x2="887.96" y2="1639.74" style="stroke:#F0F0F0;stroke-width:9.72"/>
	<line x1="920.36" y1="1639.74" x2="985.16" y2="1639.74" style="stroke:#F0F0F0;stroke-width:9.72"/>
	<line x1="1017.56" y1="1639.74" x2="1082.36" y2="1639.74" style="stroke:#F0F0F0;stroke-width:9.72"/>
	<line x1="1114.76" y1="1639.74" x2="1179.56" y2="1639.74" style="stroke:#F0F0F0;stroke-width:9.72"/>
	<line x1="1211.96" y1="1639.74" x2="1276.76" y2="1639.74" style="stroke:#F0F0F0;stroke-width:9.72"/>
	<line x1="1309.16" y1="1639.74" x2="1373.96" y2="1639.74" style="stroke:#F0F0F0;stroke-width:9.72"/>
	<line x1="1406.36" y1="1639.74" x2="1471.16" y2="1639.74" style="stroke:#F0F0F0;stroke-width:9.72"/>
	<line x1="1503.56" y1="1639.74" x2="1568.36" y2="1639.74" style="stroke:#F0F0F0;stroke-width:9.72"/>
	<line x1="1600.76" y1="1639.74" x2="1665.56" y2="1639.74" style="stroke:#F0F0F0;stroke-width:9.72"/>
	<line x1="1697.96" y1="1639.74" x2="1762.76" y2="1639.74" style="stroke:#F0F0F0;stroke-width:9.72"/>
	<line x1="1795.16" y1="1639.74" x2="1859.96" y2="1639.74" style="stroke:#F0F0F0;stroke-width:9.72"/>
	<line x1="1892.36" y1="1639.74" x2="1957.16" y2="1639.74" style="stroke:#F0F0F0;stroke-width:9.72"/>
	<line x1="1989.56" y1="1639.74" x2="2054.36" y2="1639.74" style="stroke:#F0F0F0;stroke-width:9.72"/>
	<line x1="2086.76" y1="1639.74" x2="2151.56" y2="1639.74" style="stroke:#F0F0F0;stroke-width:9.72"/>
	<line x1="2183.96" y1="1639.74" x2="2248.76" y2="1639.74" style="stroke:#F0F0F0;stroke-width:9.72"/>
	<line x1="2281.16" y1="1639.74" x2="2345.96" y2="1639.74" style="stroke:#F0F0F0;stroke-width:9.72"/>
	<line x1="2378.36" y1="1639.74" x2="2443.16" y2="1639.74" style="stroke:#F0F0F0;stroke-width:9.72"/>
	<line x1="2475.56" y1="1639.74" x2="2540.36" y2="1639.74" style="stroke:#F0F0F0;stroke-width:9.72"/>
	<line x1="2572.76" y1="1639.74" x2="2637.56" y2="1639.74" style="stroke:#F0F0F0;stroke-width:9.72"/>
	<line x1="2669.96" y1="1639.74" x2="2734.76" y2="1639.74" style="stroke:#F0F0F0;stroke-width:9.72"/>
	<line x1="2767.16" y1="1639.74" x2="2831.96" y2="1639.74" style="stroke:#F0F0F0;stroke-width:9.72"/>
	<line x1="2864.36" y1="1639.74" x2="2929.16" y2="1639.74" style="stroke:#F0F0F0;stroke-width:9.72"/>
	<line x1="2961.56" y1="1639.74" x2="3026.36" y2="1639.74" style="stroke:#F0F0F0;stroke-width:9.72"/>
	<line x1="3058.76" y1="1639.74" x2="3123.56" y2="1639.74" style="stroke:#F0F0F0;stroke-width:9.72"/>
	<line x1="3155.96" y1="1639.74" x2="3220.76" y2="1639.74" style="stroke:#F0F0F0;stroke-width:9.72"/>
	<line x1="3253.16" y1="1639.74" x2="3317.96" y2="1639.74" style="stroke:#F0F0F0;stroke-width:9.72"/>
	<line x1="3350.36" y1="1639.74" x2="3415.16" y2="1639.74" style="stroke:#F0F0F0;stroke-width:9.72"/>
	<line x1="3447.56" y1="1639.74" x2="3512.36" y2="1639.74" style="stroke:#F0F0F0;stroke-width:9.72"/>
	<line x1="3544.76" y1="1639.74" x2="3609.56" y2="1639.74" style="stroke:#F0F0F0;stroke-width:9.72"/>
	<line x1="3641.96" y1="1639.74" x2="3706.76" y2="1639.74" style="stroke:#F0F0F0;stroke-width:9.72"/>
	<line x1="3739.16" y1="1639.74" x2="3803.96" y2="1639.74" style="stroke:#F0F0F0;stroke-width:9.72"/>
	<line x1="3836.36" y1="1639.74" x2="3901.16" y2="1639.74" style="stroke:#F0F0F0;stroke-width:9.72"/>
	<line x1="3933.56" y1="1639.74" x2="3998.36" y2="1639.74" style="stroke:#F0F0F0;stroke-width:9.72"/>
	<line x1="4030.76" y1="1639.74" x2="4095.56" y2="1639.74" style="stroke:#F0F0F0;stroke-width:9.72"/>
	<line x1="4127.96" y1="1639.74" x2="4192.76" y2="1639.74" style="stroke:#F0F0F0;stroke-width:9.72"/>
	<line x1="4225.16" y1="1639.74" x2="4289.96" y2="1639.74" style="stroke:#F0F0F0;stroke-width:9.72"/>
	<line x1="4322.36" y1="1639.74" x2="4387.16" y2="1639.74" style="stroke:#F0F0F0;stroke-width:9.72"/>
	<line x1="4419.56" y1="1639.74" x2="4484.36" y2="1639.74" style="stroke:#F0F0F0;stroke-width:9.72"/>
	<line x1="4516.76" y1="1639.74" x2="4581.56" y2="1639.74" style="stroke:#F0F0F0;stroke-width:9.72"/>
	<line x1="4613.96" y1="1639.74" x2="4678.76" y2="1639.74" style="stroke:#F0F0F0;stroke-width:9.72"/>
	<line x1="4711.16" y1="1639.74" x2="4775.96" y2="1639.74" style="stroke:#F0F0F0;stroke-width:9.72"/>
	<line x1="4808.36" y1="1639.74" x2="4873.16" y2="1639.74" style="stroke:#F0F0F0;stroke-width:9.72"/>
	<line x1="4905.56" y1="1639.74" x2="4970.36" y2="1639.74" style="stroke:#F0F0F0;stroke-width:9.72"/>
	<line x1="5002.76" y1="1639.74" x2="5067.56" y2="1639.74" style="stroke:#F0F0F0;stroke-width:9.72"/>
	<line x1="5099.96" y1="1639.74" x2="5164.76" y2="1639.74" style="stroke:#F0F0F0;stroke-width:9.72"/>
	<line x1="5197.16" y1="1639.74" x2="5261.96" y2="1639.74" style="stroke:#F0F0F0;stroke-width:9.72"/>
	<line x1="531.56" y1="979.76" x2="596.36" y2="979.76" style="stroke:#F0F0F0;stroke-width:9.72"/>
	<line x1="628.76" y1="979.76" x2="693.56" y2="979.76" style="stroke:#F0F0F0;stroke-width:9.72"/>
	<line x1="725.96" y1="979.76" x2="790.76" y2="979.76" style="stroke:#F0F0F0;stroke-width:9.72"/>
	<line x1="823.16" y1="979.76" x2="887.96" y2="979.76" style="stroke:#F0F0F0;stroke-width:9.72"/>
	<line x1="920.36" y1="979.76" x2="985.16" y2="979.76" style="stroke:#F0F0F0;stroke-width:9.72"/>
	<line x1="1017.56" y1="979.76" x2="1082.36" y2="979.76" style="stroke:#F0F0F0;stroke-width:9.72"/>
	<line x1="1114.76" y1="979.76" x2="1179.56" y2="979.76" style="stroke:#F0F0F0;stroke-width:9.72"/>
	<line x1="1211.96" y1="979.76" x2="1276.76" y2="979.76" style="stroke:#F0F0F0;stroke-width:9.72"/>
	<line x1="1309.16" y1="979.76" x2="1373.96" y2="979.76" style="stroke:#F0F0F0;stroke-width:9.72"/>
	<line x1="1406.36" y1="979.76" x2="1471.16" y2="979.76" style="stroke:#F0F0F0;stroke-width:9.72"/>
	<line x1="1503.56" y1="979.76" x2="1568.36" y2="979.76" style="stroke:#F0F0F0;stroke-width:9.72"/>
	<line x1="1600.76" y1="979.76" x2="1665.56" y2="979.76" style="stroke:#F0F0F0;stroke-width:9.72"/>
	<line x1="1697.96" y1="979.76" x2="1762.76" y2="979.76" style="stroke:#F0F0F0;stroke-width:9.72"/>
	<line x1="1795.16" y1="979.76" x2="1859.96" y2="979.76" style="stroke:#F0F0F0;stroke-width:9.72"/>
	<line x1="1892.36" y1="979.76" x2="1957.16" y2="979.76" style="stroke:#F0F0F0;stroke-width:9.72"/>
	<line x1="1989.56" y1="979.76" x2="2054.36" y2="979.76" style="stroke:#F0F0F0;stroke-width:9.72"/>
	<line x1="2086.76" y1="979.76" x2="2151.56" y2="979.76" style="stroke:#F0F0F0;stroke-width:9.72"/>
	<line x1="2183.96" y1="979.76" x2="2248.76" y2="979.76" style="stroke:#F0F0F0;stroke-width:9.72"/>
	<line x1="2281.16" y1="979.76" x2="2345.96" y2="979.76" style="stroke:#F0F0F0;stroke-width:9.72"/>
	<line x1="2378.36" y1="979.76" x2="2443.16" y2="979.76" style="stroke:#F0F0F0;stroke-width:9.72"/>
	<line x1="2475.56" y1="979.76" x2="2540.36" y2="979.76" style="stroke:#F0F0F0;stroke-width:9.72"/>
	<line x1="2572.76" y1="979.76" x2="2637.56" y2="979.76" style="stroke:#F0F0F0;stroke-width:9.72"/>
	<line x1="2669.96" y1="979.76" x2="2734.76" y2="979.76" style="stroke:#F0F0F0;stroke-width:9.72"/>
	<line x1="2767.16" y1="979.76" x2="2831.96" y2="979.76" style="stroke:#F0F0F0;stroke-width:9.72"/>
	<line x1="2864.36" y1="979.76" x2="2929.16" y2="979.76" style="stroke:#F0F0F0;stroke-width:9.72"/>
	<line x1="2961.56" y1="979.76" x2="3026.36" y2="979.76" style="stroke:#F0F0F0;stroke-width:9.72"/>
	<line x1="3058.76" y1="979.76" x2="3123.56" y2="979.76" style="stroke:#F0F0F0;stroke-width:9.72"/>
	<line x1="3155.96" y1="979.76" x2="3220.76" y2="979.76" style="stroke:#F0F0F0;stroke-width:9.72"/>
	<line x1="3253.16" y1="979.76" x2="3317.96" y2="979.76" style="stroke:#F0F0F0;stroke-width:9.72"/>
	<line x1="3350.36" y1="979.76" x2="3415.16" y2="979.76" style="stroke:#F0F0F0;stroke-width:9.72"/>
	<line x1="3447.56" y1="979.76" x2="3512.36" y2="979.76" style="stroke:#F0F0F0;stroke-width:9.72"/>
	<line x1="3544.76" y1="979.76" x2="3609.56" y2="979.76" style="stroke:#F0F0F0;stroke-width:9.72"/>
	<line x1="3641.96" y1="979.76" x2="3706.76" y2="979.76" style="stroke:#F0F0F0;stroke-width:9.72"/>
	<line x1="3739.16" y1="979.76" x2="3803.96" y2="979.76" style="stroke:#F0F0F0;stroke-width:9.72"/>
	<line x1="3836.36" y1="979.76" x2="3901.16" y2="979.76" style="stroke:#F0F0F0;stroke-width:9.72"/>
	<line x1="3933.56" y1="979.76" x2="3998.36" y2="979.76" style="stroke:#F0F0F0;stroke-width:9.72"/>
	<line x1="4030.76" y1="979.76" x2="4095.56" y2="979.76" style="stroke:#F0F0F0;stroke-width:9.72"/>
	<line x1="4127.96" y1="979.76" x2="4192.76" y2="979.76" style="stroke:#F0F0F0;stroke-width:9.72"/>
	<line x1="4225.16" y1="979.76" x2="4289.96" y2="979.76" style="stroke:#F0F0F0;stroke-width:9.72"/>
	<line x1="4322.36" y1="979.76" x2="4387.16" y2="979.76" style="stroke:#F0F0F0;stroke-width:9.72"/>
	<line x1="4419.56" y1="979.76" x2="4484.36" y2="979.76" style="stroke:#F0F0F0;stroke-width:9.72"/>
	<line x1="4516.76" y1="979.76" x2="4581.56" y2="979.76" style="stroke:#F0F0F0;stroke-width:9.72"/>
	<line x1="4613.96" y1="979.76" x2="4678.76" y2="979.76" style="stroke:#F0F0F0;stroke-width:9.72"/>
	<line x1="4711.16" y1="979.76" x2="4775.96" y2="979.76" style="stroke:#F0F0F0;stroke-width:9.72"/>
	<line x1="4808.36" y1="979.76" x2="4873.16" y2="979.76" style="stroke:#F0F0F0;stroke-width:9.72"/>
	<line x1="4905.56" y1="979.76" x2="4970.36" y2="979.76" style="stroke:#F0F0F0;stroke-width:9.72"/>
	<line x1="5002.76" y1="979.76" x2="5067.56" y2="979.76" style="stroke:#F0F0F0;stroke-width:9.72"/>
	<line x1="5099.96" y1="979.76" x2="5164.76" y2="979.76" style="stroke:#F0F0F0;stroke-width:9.72"/>
	<line x1="5197.16" y1="979.76" x2="5261.96" y2="979.76" style="stroke:#F0F0F0;stroke-width:9.72"/>
	<line x1="531.56" y1="319.61" x2="596.36" y2="319.61" style="stroke:#F0F0F0;stroke-width:9.72"/>
	<line x1="628.76" y1="319.61" x2="693.56" y2="319.61" style="stroke:#F0F0F0;stroke-width:9.72"/>
	<line x1="725.96" y1="319.61" x2="790.76" y2="319.61" style="stroke:#F0F0F0;stroke-width:9.72"/>
	<line x1="823.16" y1="319.61" x2="887.96" y2="319.61" style="stroke:#F0F0F0;stroke-width:9.72"/>
	<line x1="920.36" y1="319.61" x2="985.16" y2="319.61" style="stroke:#F0F0F0;stroke-width:9.72"/>
	<line x1="1017.56" y1="319.61" x2="1082.36" y2="319.61" style="stroke:#F0F0F0;stroke-width:9.72"/>
	<line x1="1114.76" y1="319.61" x2="1179.56" y2="319.61" style="stroke:#F0F0F0;stroke-width:9.72"/>
	<line x1="1211.96" y1="319.61" x2="1276.76" y2="319.61" style="stroke:#F0F0F0;stroke-width:9.72"/>
	<line x1="1309.16" y1="319.61" x2="1373.96" y2="319.61" style="stroke:#F0F0F0;stroke-width:9.72"/>
	<line x1="1406.36" y1="319.61" x2="1471.16" y2="319.61" style="stroke:#F0F0F0;stroke-width:9.72"/>
	<line x1="1503.56" y1="319.61" x2="1568.36" y2="319.61" style="stroke:#F0F0F0;stroke-width:9.72"/>
	<line x1="1600.76" y1="319.61" x2="1665.56" y2="319.61" style="stroke:#F0F0F0;stroke-width:9.72"/>
	<line x1="1697.96" y1="319.61" x2="1762.76" y2="319.61" style="stroke:#F0F0F0;stroke-width:9.72"/>
	<line x1="1795.16" y1="319.61" x2="1859.96" y2="319.61" style="stroke:#F0F0F0;stroke-width:9.72"/>
	<line x1="1892.36" y1="319.61" x2="1957.16" y2="319.61" style="stroke:#F0F0F0;stroke-width:9.72"/>
	<line x1="1989.56" y1="319.61" x2="2054.36" y2="319.61" style="stroke:#F0F0F0;stroke-width:9.72"/>
	<line x1="2086.76" y1="319.61" x2="2151.56" y2="319.61" style="stroke:#F0F0F0;stroke-width:9.72"/>
	<line x1="2183.96" y1="319.61" x2="2248.76" y2="319.61" style="stroke:#F0F0F0;stroke-width:9.72"/>
	<line x1="2281.16" y1="319.61" x2="2345.96" y2="319.61" style="stroke:#F0F0F0;stroke-width:9.72"/>
	<line x1="2378.36" y1="319.61" x2="2443.16" y2="319.61" style="stroke:#F0F0F0;stroke-width:9.72"/>
	<line x1="2475.56" y1="319.61" x2="2540.36" y2="319.61" style="stroke:#F0F0F0;stroke-width:9.72"/>
	<line x1="2572.76" y1="319.61" x2="2637.56" y2="319.61" style="stroke:#F0F0F0;stroke-width:9.72"/>
	<line x1="2669.96" y1="319.61" x2="2734.76" y2="319.61" style="stroke:#F0F0F0;stroke-width:9.72"/>
	<line x1="2767.16" y1="319.61" x2="2831.96" y2="319.61" style="stroke:#F0F0F0;stroke-width:9.72"/>
	<line x1="2864.36" y1="319.61" x2="2929.16" y2="319.61" style="stroke:#F0F0F0;stroke-width:9.72"/>
	<line x1="2961.56" y1="319.61" x2="3026.36" y2="319.61" style="stroke:#F0F0F0;stroke-width:9.72"/>
	<line x1="3058.76" y1="319.61" x2="3123.56" y2="319.61" style="stroke:#F0F0F0;stroke-width:9.72"/>
	<line x1="3155.96" y1="319.61" x2="3220.76" y2="319.61" style="stroke:#F0F0F0;stroke-width:9.72"/>
	<line x1="3253.16" y1="319.61" x2="3317.96" y2="319.61" style="stroke:#F0F0F0;stroke-width:9.72"/>
	<line x1="3350.36" y1="319.61" x2="3415.16" y2="319.61" style="stroke:#F0F0F0;stroke-width:9.72"/>
	<line x1="3447.56" y1="319.61" x2="3512.36" y2="319.61" style="stroke:#F0F0F0;stroke-width:9.72"/>
	<line x1="3544.76" y1="319.61" x2="3609.56" y2="319.61" style="stroke:#F0F0F0;stroke-width:9.72"/>
	<line x1="3641.96" y1="319.61" x2="3706.76" y2="319.61" style="stroke:#F0F0F0;stroke-width:9.72"/>
	<line x1="3739.16" y1="319.61" x2="3803.96" y2="319.61" style="stroke:#F0F0F0;stroke-width:9.72"/>
	<line x1="3836.36" y1="319.61" x2="3901.16" y2="319.61" style="stroke:#F0F0F0;stroke-width:9.72"/>
	<line x1="3933.56" y1="319.61" x2="3998.36" y2="319.61" style="stroke:#F0F0F0;stroke-width:9.72"/>
	<line x1="4030.76" y1="319.61" x2="4095.56" y2="319.61" style="stroke:#F0F0F0;stroke-width:9.72"/>
	<line x1="4127.96" y1="319.61" x2="4192.76" y2="319.61" style="stroke:#F0F0F0;stroke-width:9.72"/>
	<line x1="4225.16" y1="319.61" x2="4289.96" y2="319.61" style="stroke:#F0F0F0;stroke-width:9.72"/>
	<line x1="4322.36" y1="319.61" x2="4387.16" y2="319.61" style="stroke:#F0F0F0;stroke-width:9.72"/>
	<line x1="4419.56" y1="319.61" x2="4484.36" y2="319.61" style="stroke:#F0F0F0;stroke-width:9.72"/>
	<line x1="4516.76" y1="319.61" x2="4581.56" y2="319.61" style="stroke:#F0F0F0;stroke-width:9.72"/>
	<line x1="4613.96" y1="319.61" x2="4678.76" y2="319.61" style="stroke:#F0F0F0;stroke-width:9.72"/>
	<line x1="4711.16" y1="319.61" x2="4775.96" y2="319.61" style="stroke:#F0F0F0;stroke-width:9.72"/>
	<line x1="4808.36" y1="319.61" x2="4873.16" y2="319.61" style="stroke:#F0F0F0;stroke-width:9.72"/>
	<line x1="4905.56" y1="319.61" x2="4970.36" y2="319.61" style="stroke:#F0F0F0;stroke-width:9.72"/>
	<line x1="5002.76" y1="319.61" x2="5067.56" y2="319.61" style="stroke:#F0F0F0;stroke-width:9.72"/>
	<line x1="5099.96" y1="319.61" x2="5164.76" y2="319.61" style="stroke:#F0F0F0;stroke-width:9.72"/>
	<line x1="5197.16" y1="319.61" x2="5261.96" y2="319.61" style="stroke:#F0F0F0;stroke-width:9.72"/>
	<line x1="602.78" y1="2479.11" x2="602.78" y2="2414.31" style="stroke:#F0F0F0;stroke-width:9.72"/>
	<line x1="602.78" y1="2381.91" x2="602.78" y2="2317.11" style="stroke:#F0F0F0;stroke-width:9.72"/>
	<line x1="602.78" y1="2284.71" x2="602.78" y2="2219.91" style="stroke:#F0F0F0;stroke-width:9.72"/>
	<line x1="602.78" y1="2187.51" x2="602.78" y2="2122.71" style="stroke:#F0F0F0;stroke-width:9.72"/>
	<line x1="602.78" y1="2090.31" x2="602.78" y2="2025.51" style="stroke:#F0F0F0;stroke-width:9.72"/>
	<line x1="602.78" y1="1993.11" x2="602.78" y2="1928.31" style="stroke:#F0F0F0;stroke-width:9.72"/>
	<line x1="602.78" y1="1895.91" x2="602.78" y2="1831.11" style="stroke:#F0F0F0;stroke-width:9.72"/>
	<line x1="602.78" y1="1798.71" x2="602.78" y2="1733.91" style="stroke:#F0F0F0;stroke-width:9.72"/>
	<line x1="602.78" y1="1701.51" x2="602.78" y2="1636.71" style="stroke:#F0F0F0;stroke-width:9.72"/>
	<line x1="602.78" y1="1604.31" x2="602.78" y2="1539.51" style="stroke:#F0F0F0;stroke-width:9.72"/>
	<line x1="602.78" y1="1507.11" x2="602.78" y2="1442.31" style="stroke:#F0F0F0;stroke-width:9.72"/>
	<line x1="602.78" y1="1409.91" x2="602.78" y2="1345.11" style="stroke:#F0F0F0;stroke-width:9.72"/>
	<line x1="602.78" y1="1312.71" x2="602.78" y2="1247.91" style="stroke:#F0F0F0;stroke-width:9.72"/>
	<line x1="602.78" y1="1215.51" x2="602.78" y2="1150.71" style="stroke:#F0F0F0;stroke-width:9.72"/>
	<line x1="602.78" y1="1118.31" x2="602.78" y2="1053.51" style="stroke:#F0F0F0;stroke-width:9.72"/>
	<line x1="602.78" y1="1021.11" x2="602.78" y2="956.31" style="stroke:#F0F0F0;stroke-width:9.72"/>
	<line x1="602.78" y1="923.91" x2="602.78" y2="859.11" style="stroke:#F0F0F0;stroke-width:9.72"/>
	<line x1="602.78" y1="826.71" x2="602.78" y2="761.91" style="stroke:#F0F0F0;stroke-width:9.72"/>
	<line x1="602.78" y1="729.51" x2="602.78" y2="664.71" style="stroke:#F0F0F0;stroke-width:9.72"/>
	<line x1="602.78" y1="632.31" x2="602.78" y2="567.51" style="stroke:#F0F0F0;stroke-width:9.72"/>
	<line x1="602.78" y1="535.11" x2="602.78" y2="470.31" style="stroke:#F0F0F0;stroke-width:9.72"/>
	<line x1="602.78" y1="437.91" x2="602.78" y2="373.11" style="stroke:#F0F0F0;stroke-width:9.72"/>
	<line x1="602.78" y1="340.71" x2="602.78" y2="275.91" style="stroke:#F0F0F0;stroke-width:9.72"/>
	<line x1="602.78" y1="243.51" x2="602.78" y2="178.71" style="stroke:#F0F0F0;stroke-width:9.72"/>
	<line x1="602.78" y1="146.31" x2="602.78" y2="113.40" style="stroke:#F0F0F0;stroke-width:9.72"/>
	<line x1="1525.33" y1="2479.11" x2="1525.33" y2="2414.31" style="stroke:#F0F0F0;stroke-width:9.72"/>
	<line x1="1525.33" y1="2381.91" x2="1525.33" y2="2317.11" style="stroke:#F0F0F0;stroke-width:9.72"/>
	<line x1="1525.33" y1="2284.71" x2="1525.33" y2="2219.91" style="stroke:#F0F0F0;stroke-width:9.72"/>
	<line x1="1525.33" y1="2187.51" x2="1525.33" y2="2122.71" style="stroke:#F0F0F0;stroke-width:9.72"/>
	<line x1="1525.33" y1="2090.31" x2="1525.33" y2="2025.51" style="stroke:#F0F0F0;stroke-width:9.72"/>
	<line x1="1525.33" y1="1993.11" x2="1525.33" y2="1928.31" style="stroke:#F0F0F0;stroke-width:9.72"/>
	<line x1="1525.33" y1="1895.91" x2="1525.33" y2="1831.11" style="stroke:#F0F0F0;stroke-width:9.72"/>
	<line x1="1525.33" y1="1798.71" x2="1525.33" y2="1733.91" style="stroke:#F0F0F0;stroke-width:9.72"/>
	<line x1="1525.33" y1="1701.51" x2="1525.33" y2="1636.71" style="stroke:#F0F0F0;stroke-width:9.72"/>
	<line x1="1525.33" y1="1604.31" x2="1525.33" y2="1539.51" style="stroke:#F0F0F0;stroke-width:9.72"/>
	<line x1="1525.33" y1="1507.11" x2="1525.33" y2="1442.31" style="stroke:#F0F0F0;stroke-width:9.72"/>
	<line x1="1525.33" y1="1409.91" x2="1525.33" y2="1345.11" style="stroke:#F0F0F0;stroke-width:9.72"/>
	<line x1="1525.33" y1="1312.71" x2="1525.33" y2="1247.91" style="stroke:#F0F0F0;stroke-width:9.72"/>
	<line x1="1525.33" y1="1215.51" x2="1525.33" y2="1150.71" style="stroke:#F0F0F0;stroke-width:9.72"/>
	<line x1="1525.33" y1="1118.31" x2="1525.33" y2="1053.51" style="stroke:#F0F0F0;stroke-width:9.72"/>
	<line x1="1525.33" y1="1021.11" x2="1525.33" y2="956.31" style="stroke:#F0F0F0;stroke-width:9.72"/>
	<line x1="1525.33" y1="923.91" x2="1525.33" y2="859.11" style="stroke:#F0F0F0;stroke-width:9.72"/>
	<line x1="1525.33" y1="826.71" x2="1525.33" y2="761.91" style="stroke:#F0F0F0;stroke-width:9.72"/>
	<line x1="1525.33" y1="729.51" x2="1525.33" y2="664.71" style="stroke:#F0F0F0;stroke-width:9.72"/>
	<line x1="1525.33" y1="632.31" x2="1525.33" y2="567.51" style="stroke:#F0F0F0;stroke-width:9.72"/>
	<line x1="1525.33" y1="535.11" x2="1525.33" y2="470.31" style="stroke:#F0F0F0;stroke-width:9.72"/>
	<line x1="1525.33" y1="437.91" x2="1525.33" y2="373.11" style="stroke:#F0F0F0;stroke-width:9.72"/>
	<line x1="1525.33" y1="340.71" x2="1525.33" y2="275.91" style="stroke:#F0F0F0;stroke-width:9.72"/>
	<line x1="1525.33" y1="243.51" x2="1525.33" y2="178.71" style="stroke:#F0F0F0;stroke-width:9.72"/>
	<line x1="1525.33" y1="146.31" x2="1525.33" y2="113.40" style="stroke:#F0F0F0;stroke-width:9.72"/>
	<line x1="2447.89" y1="2479.11" x2="2447.89" y2="2414.31" style="stroke:#F0F0F0;stroke-width:9.72"/>
	<line x1="2447.89" y1="2381.91" x2="2447.89" y2="2317.11" style="stroke:#F0F0F0;stroke-width:9.72"/>
	<line x1="2447.89" y1="2284.71" x2="2447.89" y2="2219.91" style="stroke:#F0F0F0;stroke-width:9.72"/>
	<line x1="2447.89" y1="2187.51" x2="2447.89" y2="2122.71" style="stroke:#F0F0F0;stroke-width:9.72"/>
	<line x1="2447.89" y1="2090.31" x2="2447.89" y2="2025.51" style="stroke:#F0F0F0;stroke-width:9.72"/>
	<line x1="2447.89" y1="1993.11" x2="2447.89" y2="1928.31" style="stroke:#F0F0F0;stroke-width:9.72"/>
	<line x1="2447.89" y1="1895.91" x2="2447.89" y2="1831.11" style="stroke:#F0F0F0;stroke-width:9.72"/>
	<line x1="2447.89" y1="1798.71" x2="2447.89" y2="1733.91" style="stroke:#F0F0F0;stroke-width:9.72"/>
	<line x1="2447.89" y1="1701.51" x2="2447.89" y2="1636.71" style="stroke:#F0F0F0;stroke-width:9.72"/>
	<line x1="2447.89" y1="1604.31" x2="2447.89" y2="1539.51" style="stroke:#F0F0F0;stroke-width:9.72"/>
	<line x1="2447.89" y1="1507.11" x2="2447.89" y2="1442.31" style="stroke:#F0F0F0;stroke-width:9.72"/>
	<line x1="2447.89" y1="1409.91" x2="2447.89" y2="1345.11" style="stroke:#F0F0F0;stroke-width:9.72"/>
	<line x1="2447.89" y1="1312.71" x2="2447.89" y2="1247.91" style="stroke:#F0F0F0;stroke-width:9.72"/>
	<line x1="2447.89" y1="1215.51" x2="2447.89" y2="1150.71" style="stroke:#F0F0F0;stroke-width:9.72"/>
	<line x1="2447.89" y1="1118.31" x2="2447.89" y2="1053.51" style="stroke:#F0F0F0;stroke-width:9.72"/>
	<line x1="2447.89" y1="1021.11" x2="2447.89" y2="956.31" style="stroke:#F0F0F0;stroke-width:9.72"/>
	<line x1="2447.89" y1="923.91" x2="2447.89" y2="859.11" style="stroke:#F0F0F0;stroke-width:9.72"/>
	<line x1="2447.89" y1="826.71" x2="2447.89" y2="761.91" style="stroke:#F0F0F0;stroke-width:9.72"/>
	<line x1="2447.89" y1="729.51" x2="2447.89" y2="664.71" style="stroke:#F0F0F0;stroke-width:9.72"/>
	<line x1="2447.89" y1="632.31" x2="2447.89" y2="567.51" style="stroke:#F0F0F0;stroke-width:9.72"/>
	<line x1="2447.89" y1="535.11" x2="2447.89" y2="470.31" style="stroke:#F0F0F0;stroke-width:9.72"/>
	<line x1="2447.89" y1="437.91" x2="2447.89" y2="373.11" style="stroke:#F0F0F0;stroke-width:9.72"/>
	<line x1="2447.89" y1="340.71" x2="2447.89" y2="275.91" style="stroke:#F0F0F0;stroke-width:9.72"/>
	<line x1="2447.89" y1="243.51" x2="2447.89" y2="178.71" style="stroke:#F0F0F0;stroke-width:9.72"/>
	<line x1="2447.89" y1="146.31" x2="2447.89" y2="113.40" style="stroke:#F0F0F0;stroke-width:9.72"/>
	<line x1="3370.28" y1="2479.11" x2="3370.28" y2="2414.31" style="stroke:#F0F0F0;stroke-width:9.72"/>
	<line x1="3370.28" y1="2381.91" x2="3370.28" y2="2317.11" style="stroke:#F0F0F0;stroke-width:9.72"/>
	<line x1="3370.28" y1="2284.71" x2="3370.28" y2="2219.91" style="stroke:#F0F0F0;stroke-width:9.72"/>
	<line x1="3370.28" y1="2187.51" x2="3370.28" y2="2122.71" style="stroke:#F0F0F0;stroke-width:9.72"/>
	<line x1="3370.28" y1="2090.31" x2="3370.28" y2="2025.51" style="stroke:#F0F0F0;stroke-width:9.72"/>
	<line x1="3370.28" y1="1993.11" x2="3370.28" y2="1928.31" style="stroke:#F0F0F0;stroke-width:9.72"/>
	<line x1="3370.28" y1="1895.91" x2="3370.28" y2="1831.11" style="stroke:#F0F0F0;stroke-width:9.72"/>
	<line x1="3370.28" y1="1798.71" x2="3370.28" y2="1733.91" style="stroke:#F0F0F0;stroke-width:9.72"/>
	<line x1="3370.28" y1="1701.51" x2="3370.28" y2="1636.71" style="stroke:#F0F0F0;stroke-width:9.72"/>
	<line x1="3370.28" y1="1604.31" x2="3370.28" y2="1539.51" style="stroke:#F0F0F0;stroke-width:9.72"/>
	<line x1="3370.28" y1="1507.11" x2="3370.28" y2="1442.31" style="stroke:#F0F0F0;stroke-width:9.72"/>
	<line x1="3370.28" y1="1409.91" x2="3370.28" y2="1345.11" style="stroke:#F0F0F0;stroke-width:9.72"/>
	<line x1="3370.28" y1="1312.71" x2="3370.28" y2="1247.91" style="stroke:#F0F0F0;stroke-width:9.72"/>
	<line x1="3370.28" y1="1215.51" x2="3370.28" y2="1150.71" style="stroke:#F0F0F0;stroke-width:9.72"/>
	<line x1="3370.28" y1="1118.31" x2="3370.28" y2="1053.51" style="stroke:#F0F0F0;stroke-width:9.72"/>
	<line x1="3370.28" y1="1021.11" x2="3370.28" y2="956.31" style="stroke:#F0F0F0;stroke-width:9.72"/>
	<line x1="3370.28" y1="923.91" x2="3370.28" y2="859.11" style="stroke:#F0F0F0;stroke-width:9.72"/>
	<line x1="3370.28" y1="826.71" x2="3370.28" y2="761.91" style="stroke:#F0F0F0;stroke-width:9.72"/>
	<line x1="3370.28" y1="729.51" x2="3370.28" y2="664.71" style="stroke:#F0F0F0;stroke-width:9.72"/>
	<line x1="3370.28" y1="632.31" x2="3370.28" y2="567.51" style="stroke:#F0F0F0;stroke-width:9.72"/>
	<line x1="3370.28" y1="535.11" x2="3370.28" y2="470.31" style="stroke:#F0F0F0;stroke-width:9.72"/>
	<line x1="3370.28" y1="437.91" x2="3370.28" y2="373.11" style="stroke:#F0F0F0;stroke-width:9.72"/>
	<line x1="3370.28" y1="340.71" x2="3370.28" y2="275.91" style="stroke:#F0F0F0;stroke-width:9.72"/>
	<line x1="3370.28" y1="243.51" x2="3370.28" y2="178.71" style="stroke:#F0F0F0;stroke-width:9.72"/>
	<line x1="3370.28" y1="146.31" x2="3370.28" y2="113.40" style="stroke:#F0F0F0;stroke-width:9.72"/>
	<line x1="4292.83" y1="2479.11" x2="4292.83" y2="2414.31" style="stroke:#F0F0F0;stroke-width:9.72"/>
	<line x1="4292.83" y1="2381.91" x2="4292.83" y2="2317.11" style="stroke:#F0F0F0;stroke-width:9.72"/>
	<line x1="4292.83" y1="2284.71" x2="4292.83" y2="2219.91" style="stroke:#F0F0F0;stroke-width:9.72"/>
	<line x1="4292.83" y1="2187.51" x2="4292.83" y2="2122.71" style="stroke:#F0F0F0;stroke-width:9.72"/>
	<line x1="4292.83" y1="2090.31" x2="4292.83" y2="2025.51" style="stroke:#F0F0F0;stroke-width:9.72"/>
	<line x1="4292.83" y1="1993.11" x2="4292.83" y2="1928.31" style="stroke:#F0F0F0;stroke-width:9.72"/>
	<line x1="4292.83" y1="1895.91" x2="4292.83" y2="1831.11" style="stroke:#F0F0F0;stroke-width:9.72"/>
	<line x1="4292.83" y1="1798.71" x2="4292.83" y2="1733.91" style="stroke:#F0F0F0;stroke-width:9.72"/>
	<line x1="4292.83" y1="1701.51" x2="4292.83" y2="1636.71" style="stroke:#F0F0F0;stroke-width:9.72"/>
	<line x1="4292.83" y1="1604.31" x2="4292.83" y2="1539.51" style="stroke:#F0F0F0;stroke-width:9.72"/>
	<line x1="4292.83" y1="1507.11" x2="4292.83" y2="1442.31" style="stroke:#F0F0F0;stroke-width:9.72"/>
	<line x1="4292.83" y1="1409.91" x2="4292.83" y2="1345.11" style="stroke:#F0F0F0;stroke-width:9.72"/>
	<line x1="4292.83" y1="1312.71" x2="4292.83" y2="1247.91" style="stroke:#F0F0F0;stroke-width:9.72"/>
	<line x1="4292.83" y1="1215.51" x2="4292.83" y2="1150.71" style="stroke:#F0F0F0;stroke-width:9.72"/>
	<line x1="4292.83" y1="1118.31" x2="4292.83" y2="1053.51" style="stroke:#F0F0F0;stroke-width:9.72"/>
	<line x1="4292.83" y1="1021.11" x2="4292.83" y2="956.31" style="stroke:#F0F0F0;stroke-width:9.72"/>
	<line x1="4292.83" y1="923.91" x2="4292.83" y2="859.11" style="stroke:#F0F0F0;stroke-width:9.72"/>
	<line x1="4292.83" y1="826.71" x2="4292.83" y2="761.91" style="stroke:#F0F0F0;stroke-width:9.72"/>
	<line x1="4292.83" y1="729.51" x2="4292.83" y2="664.71" style="stroke:#F0F0F0;stroke-width:9.72"/>
	<line x1="4292.83" y1="632.31" x2="4292.83" y2="567.51" style="stroke:#F0F0F0;stroke-width:9.72"/>
	<line x1="4292.83" y1="535.11" x2="4292.83" y2="470.31" style="stroke:#F0F0F0;stroke-width:9.72"/>
	<line x1="4292.83" y1="437.91" x2="4292.83" y2="373.11" style="stroke:#F0F0F0;stroke-width:9.72"/>
	<line x1="4292.83" y1="340.71" x2="4292.83" y2="275.91" style="stroke:#F0F0F0;stroke-width:9.72"/>
	<line x1="4292.83" y1="243.51" x2="4292.83" y2="178.71" style="stroke:#F0F0F0;stroke-width:9.72"/>
	<line x1="4292.83" y1="146.31" x2="4292.83" y2="113.40" style="stroke:#F0F0F0;stroke-width:9.72"/>
	<line x1="5215.39" y1="2479.11" x2="5215.39" y2="2414.31" style="stroke:#F0F0F0;stroke-width:9.72"/>
	<line x1="5215.39" y1="2381.91" x2="5215.39" y2="2317.11" style="stroke:#F0F0F0;stroke-width:9.72"/>
	<line x1="5215.39" y1="2284.71" x2="5215.39" y2="2219.91" style="stroke:#F0F0F0;stroke-width:9.72"/>
	<line x1="5215.39" y1="2187.51" x2="5215.39" y2="2122.71" style="stroke:#F0F0F0;stroke-width:9.72"/>
	<line x1="5215.39" y1="2090.31" x2="5215.39" y2="2025.51" style="stroke:#F0F0F0;stroke-width:9.72"/>
	<line x1="5215.39" y1="1993.11" x2="5215.39" y2="1928.31" style="stroke:#F0F0F0;stroke-width:9.72"/>
	<line x1="5215.39" y1="1895.91" x2="5215.39" y2="1831.11" style="stroke:#F0F0F0;stroke-width:9.72"/>
	<line x1="5215.39" y1="1798.71" x2="5215.39" y2="1733.91" style="stroke:#F0F0F0;stroke-width:9.72"/>
	<line x1="5215.39" y1="1701.51" x2="5215.39" y2="1636.71" style="stroke:#F0F0F0;stroke-width:9.72"/>
	<line x1="5215.39" y1="1604.31" x2="5215.39" y2="1539.51" style="stroke:#F0F0F0;stroke-width:9.72"/>
	<line x1="5215.39" y1="1507.11" x2="5215.39" y2="1442.31" style="stroke:#F0F0F0;stroke-width:9.72"/>
	<line x1="5215.39" y1="1409.91" x2="5215.39" y2="1345.11" style="stroke:#F0F0F0;stroke-width:9.72"/>
	<line x1="5215.39" y1="1312.71" x2="5215.39" y2="1247.91" style="stroke:#F0F0F0;stroke-width:9.72"/>
	<line x1="5215.39" y1="1215.51" x2="5215.39" y2="1150.71" style="stroke:#F0F0F0;stroke-width:9.72"/>
	<line x1="5215.39" y1="1118.31" x2="5215.39" y2="1053.51" style="stroke:#F0F0F0;stroke-width:9.72"/>
	<line x1="5215.39" y1="1021.11" x2="5215.39" y2="956.31" style="stroke:#F0F0F0;stroke-width:9.72"/>
	<line x1="5215.39" y1="923.91" x2="5215.39" y2="859.11" style="stroke:#F0F0F0;stroke-width:9.72"/>
	<line x1="5215.39" y1="826.71" x2="5215.39" y2="761.91" style="stroke:#F0F0F0;stroke-width:9.72"/>
	<line x1="5215.39" y1="729.51" x2="5215.39" y2="664.71" style="stroke:#F0F0F0;stroke-width:9.72"/>
	<line x1="5215.39" y1="632.31" x2="5215.39" y2="567.51" style="stroke:#F0F0F0;stroke-width:9.72"/>
	<line x1="5215.39" y1="535.11" x2="5215.39" y2="470.31" style="stroke:#F0F0F0;stroke-width:9.72"/>
	<line x1="5215.39" y1="437.91" x2="5215.39" y2="373.11" style="stroke:#F0F0F0;stroke-width:9.72"/>
	<line x1="5215.39" y1="340.71" x2="5215.39" y2="275.91" style="stroke:#F0F0F0;stroke-width:9.72"/>
	<line x1="5215.39" y1="243.51" x2="5215.39" y2="178.71" style="stroke:#F0F0F0;stroke-width:9.72"/>
	<line x1="5215.39" y1="146.31" x2="5215.39" y2="113.40" style="stroke:#F0F0F0;stroke-width:9.72"/>
	<path d=" M1055.53 1648.01 L1156.28 1674.34 L1163.19 1656.11 L1198.46 1682.61 L1340.55 1663.03 L1587.77 1690.88 L1750.95 1720.07 L1827.56 1692.73 L1879.71 1604.14 L1929.99 1634.18 L2025.51 1664.55 L2191.73 1642.44 L2330.94 1619.66 L2448.73 1646.49 L2649.54 1673.66 L2758.56 1643.63 L2763.79 1671.47 L2784.54 1647.00 L2804.79 1616.96 L2918.70 1650.54 L3078.17 1685.81 L3179.76 1659.66 L3236.46 1694.76 L3249.45 1731.71 L3282.36 1763.94 L3383.44 1797.02 L3491.78 1762.09 L3665.93 1727.33 L3837.21 1766.81 L3879.56 1642.11 L3902.51 1607.34 L3913.65 1483.82 L4009.33 1519.59 L4113.45 1558.07 L4145.68 1599.92 L4199.85 1564.48 L4283.21 1610.04 L4334.34 1442.81 L4392.56 1402.65 L4458.54 1458.68 L4510.52 1410.41 L4589.33 1472.18 L4665.77 1420.03 L4715.89 1371.77 L4765.16 1441.63 L4845.15 1383.41 L4956.86 1136.53 L5057.94 1219.89 L5093.72 1151.21 L5125.61 1250.78 L5185.69 1116.79" stroke-linejoin="round" style="fill:none;stroke:#000000;stroke-width:14.58"/>
	<path d=" M1055.53 1176.36 L1156.28 1196.10 L1163.19 1177.37 L1198.46 1197.11 L1340.55 1176.86 L1587.77 1197.45 L1750.95 1220.06 L1827.56 1190.87 L1879.71 1110.88 L1929.99 1134.17 L2025.51 1156.28 L2191.73 1133.16 L2330.94 1110.38 L2448.73 1127.08 L2649.54 1143.96 L2758.56 1111.72 L2763.79 1128.94 L2784.54 1103.29 L2804.79 1071.06 L2918.70 1095.19 L3078.17 1120.16 L3179.76 1094.18 L3236.46 1120.33 L3249.45 1146.32 L3282.36 1165.89 L3383.44 1185.97 L3491.78 1148.51 L3665.93 1111.22 L3837.21 1139.74 L3879.56 1026.00 L3902.51 988.88 L3913.65 875.31 L4009.33 897.24 L4113.45 920.53 L4145.68 945.51 L4199.85 907.37 L4283.21 934.37 L4334.34 778.11 L4392.56 733.22 L4458.54 769.84 L4510.52 714.99 L4589.33 755.83 L4665.77 695.93 L4715.89 640.74 L4765.16 679.39 L4845.15 612.39 L4956.86 374.29 L5057.94 418.84 L5093.72 333.62 L5125.61 390.15 L5185.69 184.78" stroke-linejoin="round" style="fill:none;stroke:#A0A0A0;stroke-width:14.58"/>
	<path d=" M1055.53 2119.67 L1156.28 2152.57 L1163.19 2134.69 L1198.46 2168.10 L1340.55 2149.20 L1587.77 2184.47 L1750.95 2220.24 L1827.56 2194.59 L1879.71 2097.23 L1929.99 2134.18 L2025.51 2172.66 L2191.73 2151.73 L2330.94 2129.12 L2448.73 2165.74 L2649.54 2203.37 L2758.56 2175.69 L2763.79 2214.00 L2784.54 2190.71 L2804.79 2162.70 L2918.70 2205.90 L3078.17 2251.46 L3179.76 2224.97 L3236.46 2269.35 L3249.45 2317.28 L3282.36 2361.99 L3383.44 2407.89 L3491.78 2375.66 L3665.93 2343.43 L3837.21 2393.72 L3879.56 2258.21 L3902.51 2225.98 L3913.65 2092.16 L4009.33 2141.94 L4113.45 2195.61 L4145.68 2254.33 L4199.85 2221.59 L4283.21 2285.72 L4334.34 2107.52 L4392.56 2072.25 L4458.54 2147.51 L4510.52 2106.00 L4589.33 2188.52 L4665.77 2144.31 L4715.89 2102.96 L4765.16 2203.71 L4845.15 2154.43 L4956.86 1898.94 L5057.94 2020.78 L5093.72 1968.98 L5125.61 2111.23 L5185.69 2048.63" stroke-linejoin="round" style="fill:none;stroke:#A0A0A0;stroke-width:14.58"/>
	<line x1="531.56" y1="2479.11" x2="531.56" y2="113.40" style="stroke:#000000;stroke-width:6.48"/>
	<line x1="531.56" y1="2299.89" x2="486.51" y2="2299.89" style="stroke:#000000;stroke-width:6.48"/>
	<text x="464.06" y="2339.33" style="font-family:'Helvetica';font-size:112.56px;fill:#000000" text-anchor="end">-.3</text>
	<line x1="531.56" y1="1639.74" x2="486.51" y2="1639.74" style="stroke:#000000;stroke-width:6.48"/>
	<text x="464.06" y="1679.18" style="font-family:'Helvetica';font-size:112.56px;fill:#000000" text-anchor="end">-.2</text>
	<line x1="531.56" y1="979.76" x2="486.51" y2="979.76" style="stroke:#000000;stroke-width:6.48"/>
	<text x="464.06" y="1019.20" style="font-family:'Helvetica';font-size:112.56px;fill:#000000" text-anchor="end">-.1</text>
	<line x1="531.56" y1="319.61" x2="486.51" y2="319.61" style="stroke:#000000;stroke-width:6.48"/>
	<text x="464.06" y="359.05" style="font-family:'Helvetica';font-size:112.56px;fill:#000000" text-anchor="end">0</text>
	<text x="214.55" y="1296.34" style="font-family:'Helvetica';font-size:112.56px;fill:#000000" transform="rotate(-90 214.55,1296.34)" text-anchor="middle">Estimated causal effect</text>
	<line x1="531.56" y1="2479.11" x2="5286.60" y2="2479.11" style="stroke:#000000;stroke-width:6.48"/>
	<line x1="602.78" y1="2479.11" x2="602.78" y2="2524.16" style="stroke:#000000;stroke-width:6.48"/>
	<text x="602.78" y="2625.31" style="font-family:'Helvetica';font-size:112.56px;fill:#000000" text-anchor="middle">1.35</text>
	<line x1="1525.33" y1="2479.11" x2="1525.33" y2="2524.16" style="stroke:#000000;stroke-width:6.48"/>
	<text x="1525.33" y="2625.31" style="font-family:'Helvetica';font-size:112.56px;fill:#000000" text-anchor="middle">1.355</text>
	<line x1="2447.89" y1="2479.11" x2="2447.89" y2="2524.16" style="stroke:#000000;stroke-width:6.48"/>
	<text x="2447.89" y="2625.31" style="font-family:'Helvetica';font-size:112.56px;fill:#000000" text-anchor="middle">1.36</text>
	<line x1="3370.28" y1="2479.11" x2="3370.28" y2="2524.16" style="stroke:#000000;stroke-width:6.48"/>
	<text x="3370.28" y="2625.31" style="font-family:'Helvetica';font-size:112.56px;fill:#000000" text-anchor="middle">1.365</text>
	<line x1="4292.83" y1="2479.11" x2="4292.83" y2="2524.16" style="stroke:#000000;stroke-width:6.48"/>
	<text x="4292.83" y="2625.31" style="font-family:'Helvetica';font-size:112.56px;fill:#000000" text-anchor="middle">1.37</text>
	<line x1="5215.39" y1="2479.11" x2="5215.39" y2="2524.16" style="stroke:#000000;stroke-width:6.48"/>
	<text x="5215.39" y="2625.31" style="font-family:'Helvetica';font-size:112.56px;fill:#000000" text-anchor="middle">1.375</text>
	<text x="2909.08" y="2782.75" style="font-family:'Helvetica';font-size:112.56px;fill:#000000" text-anchor="middle">Median of exposure in moving window</text>
	<rect x="1500.86" y="2878.03" width="2816.44" height="209.76" style="fill:#FFFFFF"/>
	<rect x="1504.10" y="2881.27" width="2809.96" height="203.28" style="fill:none;stroke:#FFFFFF;stroke-width:6.48"/>
	<line x1="1549.46" y1="2982.83" x2="1808.66" y2="2982.83" style="stroke:#000000;stroke-width:14.58"/>
	<line x1="3252.83" y1="2982.83" x2="3512.03" y2="2982.83" style="stroke:#A0A0A0;stroke-width:14.58"/>
	<text x="1876.16" y="3022.26" style="font-family:'Helvetica';font-size:112.56px;fill:#000000">Estimated causal effect</text>
	<text x="3579.53" y="3022.26" style="font-family:'Helvetica';font-size:112.56px;fill:#000000">95% CI limits</text>
</svg>
