<?xml version="1.0" encoding="UTF-8" standalone="no"?>
<!-- This is a Stata 17.0 generated SVG file (http://www.stata.com) -->

<svg version="1.1" width="5.500in" height="4.000in" viewBox="0 0 3960 2880" xmlns="http://www.w3.org/2000/svg" xmlns:xlink="http://www.w3.org/1999/xlink">
	<desc>Stata Graph - Graph</desc>
	<rect x="0" y="0" width="3960" height="2880" style="fill:#EAF2F3;stroke:none"/>
	<rect x="0.00" y="0.00" width="3959.88" height="2880.00" style="fill:#EAF2F3"/>
	<rect x="2.88" y="2.88" width="3954.12" height="2874.24" style="fill:none;stroke:#EAF2F3;stroke-width:5.76"/>
	<rect x="390.80" y="100.86" width="3468.22" height="2388.33" style="fill:#FFFFFF"/>
	<rect x="393.68" y="103.74" width="3462.46" height="2382.57" style="fill:none;stroke:#FFFFFF;stroke-width:5.76"/>
	<line x1="390.80" y1="2205.42" x2="3859.02" y2="2205.42" style="stroke:#EAF2F3;stroke-width:8.64"/>
	<line x1="390.80" y1="1695.06" x2="3859.02" y2="1695.06" style="stroke:#EAF2F3;stroke-width:8.64"/>
	<line x1="390.80" y1="1184.82" x2="3859.02" y2="1184.82" style="stroke:#EAF2F3;stroke-width:8.64"/>
	<line x1="390.80" y1="674.46" x2="3859.02" y2="674.46" style="stroke:#EAF2F3;stroke-width:8.64"/>
	<line x1="390.80" y1="164.22" x2="3859.02" y2="164.22" style="stroke:#EAF2F3;stroke-width:8.64"/>
	<path d=" M470.87 1995.41 L476.31 1697.66 L476.56 1472.67 L476.93 1553.61 L477.18 2133.89 L478.17 1665.85 L483.00 1552.99 L483.00 1588.88 L484.11 1761.39 L484.85 1541.48 L486.59 2129.19 L487.45 1557.94 L488.19 1555.21 L488.32 1695.18 L488.32 1709.66 L488.44 1648.40 L488.69 1379.86 L489.06 1623.65 L491.04 1554.22 L491.54 1425.77 L492.15 1797.15 L493.76 1971.40 L494.51 2122.38 L497.35 1619.69 L497.60 1179.75 L498.84 1723.03 L499.08 1695.18 L501.31 1531.33 L501.56 1439.26 L501.93 1460.91 L504.65 1747.65 L505.40 1436.78 L505.77 1740.47 L507.00 1821.16 L510.22 1882.30 L511.46 1549.65 L512.45 1370.33 L512.70 1165.27 L515.42 1444.08 L515.67 1412.28 L515.79 1490.49 L516.41 1596.55 L516.41 1462.40 L517.03 1647.29 L517.65 1606.82 L519.38 1607.56 L520.37 1954.20 L521.36 1818.44 L522.10 1686.77 L525.69 1705.33 L525.94 1719.19 L526.31 1645.80 L527.92 1561.90 L528.66 1635.78 L529.03 2044.29 L529.40 1598.78 L531.51 1739.11 L532.00 1652.11 L532.13 1889.10 L535.10 1996.64 L535.84 1686.02 L536.09 1495.07 L537.57 1548.16 L537.82 1534.30 L540.91 1205.61 L541.04 1868.56 L541.90 1218.48 L543.39 1782.92 L544.01 2052.83 L544.01 1810.64 L544.13 1468.96 L544.87 1453.12 L545.00 1703.10 L545.24 1329.86 L545.37 1656.07 L545.61 2154.55 L545.86 1828.59 L545.99 1641.47 L546.60 1794.93 L547.10 1761.39 L548.34 2006.55 L549.20 1341.86 L549.70 1670.06 L549.95 1776.24 L550.07 1870.91 L550.56 1594.82 L550.56 1694.81 L551.06 1842.82 L551.18 1167.00 L551.18 1886.26 L552.79 1740.60 L553.29 1283.33 L554.15 1509.92 L554.77 1575.39 L555.51 1187.67 L556.50 1360.55 L557.00 1161.68 L557.00 1615.24 L557.37 1465.37 L557.99 1729.34 L558.73 1519.45 L558.73 1804.58 L559.47 1657.56 L559.85 1530.09 L560.09 1711.27 L560.46 1453.86 L561.45 1666.47 L561.70 1231.97 L562.32 1800.25 L563.68 1879.20 L563.93 1627.61 L564.30 1701.86 L565.29 1602.49 L565.54 1518.34 L566.03 1615.11 L566.90 1714.61 L567.02 1640.11 L567.15 1623.40 L567.52 1584.79 L568.14 1401.88 L568.38 992.63 L568.88 1508.68 L569.50 1733.67 L569.50 1682.19 L569.62 1727.23 L569.87 1746.91 L570.12 1812.62 L570.24 1706.19 L571.23 1539.25 L571.35 1763.49 L571.48 1487.15 L571.73 1685.40 L572.10 1397.18 L572.34 1645.18 L573.33 1626.50 L573.83 1758.91 L574.57 1669.69 L575.19 1304.12 L575.19 1662.14 L575.44 1757.80 L575.68 1224.79 L576.06 1700.63 L577.17 1482.32 L577.29 2104.56 L577.29 1708.42 L577.42 1740.10 L577.67 1481.46 L577.79 1522.67 L577.79 1353.62 L577.91 1516.11 L578.66 1736.76 L578.66 1927.22 L579.52 1760.40 L579.65 1921.03 L580.39 1227.27 L581.25 1207.34 L581.63 1411.41 L581.75 1688.37 L581.75 1447.92 L581.87 1479.72 L582.12 1211.18 L582.37 1679.71 L582.86 1525.76 L582.99 1427.62 L583.11 1506.95 L583.23 1956.05 L583.36 1666.59 L584.35 1643.70 L584.60 1305.85 L584.97 1793.19 L585.34 1112.79 L585.34 1007.36 L585.59 1695.68 L586.33 1497.92 L586.58 1799.50 L586.82 1472.67 L586.82 2067.31 L587.19 1659.54 L587.57 1082.60 L587.69 2138.10 L587.81 1495.94 L587.81 1397.06 L588.55 1592.09 L588.93 1826.36 L589.92 1727.11 L589.92 1675.50 L590.29 1698.03 L590.66 1536.53 L591.28 1700.13 L591.53 1531.33 L592.02 1321.32 L592.02 1506.70 L592.64 1342.98 L593.13 1652.61 L593.26 1582.81 L593.63 1346.94 L593.75 1754.09 L593.88 1680.21 L593.88 2023.62 L594.12 1281.10 L594.12 1614.12 L594.37 1250.41 L594.37 1293.60 L594.37 1765.84 L595.98 1828.59 L596.48 1636.64 L596.85 2236.60 L596.97 1395.20 L597.96 1471.80 L597.96 1939.22 L598.21 2030.18 L598.33 1537.15 L598.95 1707.31 L598.95 1336.05 L599.07 1452.00 L599.07 1811.26 L599.69 1408.94 L599.94 1603.11 L600.06 1558.18 L600.06 1493.34 L600.31 1696.67 L600.43 1223.31 L600.68 1799.63 L600.68 1669.93 L600.93 1405.35 L601.30 1686.02 L601.55 1667.46 L601.55 1594.32 L601.80 1287.29 L602.29 1332.95 L602.29 1613.87 L602.66 1220.96 L602.79 2035.13 L603.03 1445.94 L603.78 1607.69 L603.90 1087.43 L604.02 1148.31 L604.15 1550.76 L604.27 2089.46 L604.64 2031.91 L604.89 1795.42 L605.51 1599.77 L605.88 2024.98 L606.13 1299.91 L606.25 1853.21 L606.50 1394.46 L606.99 1565.98 L607.12 1525.76 L607.37 1822.89 L607.49 1150.79 L607.49 1888.98 L607.61 1264.02 L608.23 1181.85 L608.23 1197.94 L608.36 1363.52 L609.35 1743.44 L609.35 1431.21 L609.59 1811.14 L609.59 1598.28 L609.72 1312.04 L609.84 1771.04 L609.84 1515.61 L609.96 2099.11 L610.09 1593.58 L610.21 1612.64 L610.46 1557.69 L610.58 1536.16 L610.71 2123.74 L610.95 1150.29 L611.45 1364.26 L611.82 1468.96 L611.82 1732.18 L611.94 1621.79 L612.69 1506.33 L612.81 1600.88 L613.30 2138.84 L613.43 1815.96 L613.43 1779.21 L614.05 1843.44 L614.29 1595.06 L614.54 1552.49 L614.79 1343.60 L615.90 1180.98 L616.40 1755.32 L616.52 1841.58 L616.65 1907.05 L616.65 1256.60 L617.51 1763.62 L617.88 1601.75 L618.13 1517.59 L618.38 1608.80 L618.50 1425.52 L618.63 1612.51 L618.87 1678.10 L620.85 1135.69 L620.98 1662.14 L620.98 2017.68 L620.98 1453.98 L621.10 1995.04 L621.72 1811.76 L621.84 1490.74 L621.84 1689.24 L622.46 1345.08 L622.59 1625.75 L622.83 1862.99 L623.08 1582.69 L623.45 1469.33 L623.58 1757.80 L623.95 2110.87 L623.95 1611.89 L624.20 1701.12 L624.69 1807.67 L624.94 1455.59 L625.06 1349.16 L625.18 1621.18 L625.31 1651.25 L625.68 1751.36 L625.80 1630.70 L626.17 1187.79 L626.17 1775.87 L626.17 1549.89 L626.42 991.64 L626.42 1762.75 L626.67 1153.39 L626.79 1630.33 L626.92 1554.22 L627.17 1339.64 L627.41 1410.92 L627.78 1200.91 L627.78 1291.12 L627.91 1336.79 L628.03 1710.90 L628.16 1214.77 L628.16 1513.51 L629.15 1617.83 L629.27 1908.04 L629.76 1600.14 L629.89 1539.25 L629.89 1958.03 L630.01 1560.29 L630.26 1541.97 L630.51 1636.40 L630.88 1482.32 L631.37 1836.26 L631.74 1517.47 L631.74 1639.49 L631.87 1793.32 L632.24 1777.11 L632.73 1690.97 L632.73 1407.33 L633.35 2151.34 L633.85 2142.43 L634.22 1097.57 L634.34 1563.63 L634.84 1996.27 L634.96 2204.18 L635.33 1745.80 L635.70 1493.59 L635.70 1673.52 L635.95 1559.67 L635.95 1668.70 L636.08 1745.30 L636.45 1730.08 L636.69 1465.00 L636.82 1245.95 L637.31 2265.07 L637.68 1326.27 L637.93 1269.22 L638.18 1294.59 L638.18 1666.22 L638.18 1447.18 L638.80 1721.66 L639.17 1463.51 L639.29 1679.59 L639.66 1007.98 L639.66 1645.31 L639.91 975.18 L640.16 1714.11 L640.28 1522.92 L640.53 1950.36 L640.90 2125.47 L642.39 1491.48 L642.63 1504.23 L642.88 1284.19 L644.37 1683.42 L644.49 1646.92 L644.74 1674.39 L644.74 1902.34 L644.86 1579.47 L644.99 1845.54 L645.73 1613.63 L645.98 1781.44 L646.10 1692.21 L646.22 1420.94 L646.47 1389.88 L646.47 1876.60 L646.72 1669.19 L646.72 1798.89 L647.58 2035.50 L647.96 1699.88 L648.08 1642.21 L648.08 1649.02 L648.20 1176.78 L648.33 2155.30 L648.45 2157.15 L650.06 1905.81 L650.55 1761.14 L650.68 1585.04 L650.80 1596.42 L651.05 1750.87 L651.17 1852.84 L651.30 1773.76 L651.30 1661.27 L651.42 1448.91 L651.42 1748.77 L651.54 1614.49 L652.16 1604.84 L653.03 1996.03 L653.15 1608.92 L653.40 1763.99 L653.52 1749.14 L653.52 1585.78 L653.52 1886.50 L653.77 1176.78 L654.27 1784.90 L654.76 1402.13 L654.89 1473.91 L655.26 1680.45 L655.50 1412.90 L655.63 1413.39 L655.63 1567.84 L655.88 1624.02 L656.00 1533.68 L656.25 1532.82 L656.25 1454.73 L656.49 1706.07 L656.62 1219.97 L656.74 1597.79 L656.87 1767.58 L657.36 1715.72 L657.73 1633.18 L657.73 1713.87 L657.73 1513.26 L657.73 1942.56 L658.23 1944.67 L658.23 1679.34 L658.35 1322.43 L658.97 1546.18 L658.97 1621.42 L659.09 1506.58 L659.34 1691.84 L660.33 1798.51 L660.95 1240.63 L661.20 1354.98 L661.20 1786.76 L661.57 1264.89 L661.94 1211.67 L662.31 1389.88 L662.31 1764.36 L662.43 1846.41 L662.43 1518.95 L662.68 1820.42 L662.68 1767.45 L662.93 1337.90 L663.05 1820.91 L663.05 1408.69 L663.18 1569.08 L663.80 2255.91 L664.17 1860.27 L664.79 1436.53 L664.79 1367.11 L664.91 1128.39 L665.28 1682.43 L665.53 1231.85 L665.53 1605.34 L665.65 1666.22 L665.78 1995.04 L666.02 1404.11 L666.02 1165.64 L666.02 2031.17 L666.15 1850.62 L666.39 1958.03 L666.77 1656.82 L666.89 1585.91 L666.89 1291.62 L667.14 1375.28 L667.51 1646.17 L667.63 1543.46 L667.63 1419.58 L668.00 1726.86 L668.13 1583.43 L668.25 1898.26 L668.25 1958.03 L668.50 1815.35 L668.75 851.43 L668.75 1755.70 L668.99 1019.98 L668.99 1284.81 L669.24 1657.06 L669.24 1111.93 L669.49 1371.44 L669.61 1598.03 L669.61 2017.56 L669.86 1262.17 L669.98 1567.10 L670.60 1365.62 L670.60 1935.51 L670.85 1933.16 L670.85 1137.17 L670.85 1743.94 L670.85 1205.36 L670.85 1394.46 L670.85 1335.43 L671.22 1580.46 L671.22 1687.01 L671.47 1204.74 L671.84 1468.22 L672.21 1528.11 L672.83 1526.63 L673.20 1488.76 L673.32 1494.82 L673.32 1552.99 L673.70 1873.14 L673.82 1457.20 L673.82 1538.14 L673.94 1429.73 L673.94 1939.97 L674.07 1323.30 L674.19 1576.75 L674.31 2079.44 L674.44 1627.12 L674.56 1217.61 L674.56 1364.51 L675.06 1684.79 L675.06 1094.60 L675.18 1515.12 L675.43 839.92 L675.68 1028.77 L675.68 1367.98 L675.80 1590.36 L676.05 1624.89 L676.05 1472.18 L676.05 1562.27 L676.17 1521.68 L676.29 1249.42 L676.42 1949.00 L676.42 1438.51 L676.42 1569.69 L676.54 1430.72 L676.79 1851.85 L676.79 1390.75 L677.28 1567.22 L677.28 1989.10 L677.53 1365.50 L677.66 1529.60 L677.78 1338.15 L677.90 1685.28 L678.27 1654.84 L678.52 1612.76 L678.89 988.92 L679.02 1425.15 L679.14 1610.16 L679.14 1916.20 L679.14 1231.97 L679.51 1295.33 L679.76 1349.91 L680.01 1910.02 L680.13 1695.43 L680.38 1786.02 L680.50 1154.62 L680.63 1548.66 L680.87 1279.74 L681.00 1411.17 L681.12 1970.16 L681.49 1332.33 L681.49 1264.76 L682.48 1447.92 L682.48 1028.89 L682.61 1431.83 L682.73 899.32 L682.85 1196.08 L682.98 1653.85 L683.10 1776.98 L683.22 1700.38 L683.35 1905.81 L683.47 1563.01 L683.60 1222.56 L683.60 1687.26 L683.72 1650.38 L683.72 1914.60 L684.34 2180.79 L684.34 2105.05 L684.34 1696.91 L684.34 1805.20 L684.34 1368.84 L684.46 1434.93 L684.59 1547.29 L684.83 1542.22 L684.96 1771.04 L684.96 1536.28 L685.08 1610.53 L685.20 1491.98 L685.45 1214.27 L685.58 1661.40 L686.07 1270.95 L686.19 1447.80 L686.32 1099.68 L686.32 1604.47 L686.44 1121.95 L686.44 1003.77 L686.57 1169.47 L686.57 1331.72 L686.94 1558.68 L687.06 1550.39 L687.31 1954.20 L687.68 1408.69 L687.80 1676.37 L687.80 1765.84 L687.93 1701.00 L688.79 1754.09 L688.92 1084.58 L688.92 1184.20 L689.16 1392.97 L689.41 1625.01 L689.66 2001.84 L689.78 1667.34 L690.03 1386.41 L690.03 1682.93 L690.28 1571.06 L690.40 1780.82 L690.65 1487.52 L690.77 1663.50 L690.90 1388.52 L690.90 1483.81 L690.90 1351.52 L691.02 1518.71 L691.02 1804.21 L691.27 2038.60 L691.52 1212.42 L691.52 1507.07 L691.64 1604.22 L691.89 1321.32 L692.01 1509.92 L692.01 1653.85 L692.13 1735.40 L693.25 1697.28 L693.25 1735.40 L693.37 1128.39 L693.50 1917.44 L693.62 1906.68 L693.74 1321.44 L694.73 1238.03 L694.86 1525.51 L695.72 1805.45 L696.09 1415.99 L696.47 2018.43 L696.47 1468.09 L696.71 1502.62 L697.58 1363.64 L697.95 1301.02 L698.07 1483.07 L698.20 1323.67 L698.20 1548.28 L698.20 1767.33 L698.32 1236.05 L698.69 1760.77 L698.69 1283.33 L699.06 1617.46 L699.93 1647.54 L700.18 1528.11 L700.43 1483.69 L700.80 1494.82 L700.80 1487.03 L700.80 1657.44 L701.04 1665.97 L701.04 1341.49 L701.17 1564.62 L701.66 1177.02 L701.66 2012.49 L702.03 1720.06 L702.28 1282.46 L702.53 1725.75 L702.65 1673.03 L703.02 1726.12 L703.15 1591.35 L703.27 1693.82 L703.77 1590.86 L703.89 1768.07 L704.01 1616.84 L704.14 1760.89 L704.14 1705.20 L704.26 1956.18 L704.26 1618.08 L704.51 1636.27 L704.51 2018.18 L704.63 1351.02 L704.88 1629.34 L705.00 1729.46 L705.00 1699.39 L705.25 1180.24 L705.87 1324.79 L705.87 1516.97 L706.24 1688.87 L706.74 1802.85 L706.74 1425.89 L707.60 1388.02 L707.60 1274.54 L707.73 2175.35 L707.73 947.95 L707.97 1584.67 L708.10 1650.75 L708.10 2425.95 L708.22 1419.83 L708.47 1786.76 L708.47 1192.74 L708.59 1901.60 L708.84 1900.86 L708.96 1636.64 L709.09 1528.73 L709.21 1924.25 L709.34 1568.09 L709.58 1073.69 L709.58 1821.53 L709.58 1476.75 L709.95 1975.48 L709.95 1188.04 L710.08 1543.33 L710.33 1628.11 L710.33 1423.91 L710.45 1546.43 L710.45 1590.86 L710.57 1066.26 L710.57 1983.53 L711.07 1633.18 L711.07 1479.23 L711.19 1510.91 L711.32 1674.14 L711.44 2037.98 L711.44 1175.29 L711.69 1859.53 L712.06 1405.10 L712.31 1848.88 L712.55 1475.39 L712.68 1825.00 L712.80 1296.57 L712.92 819.50 L713.17 1684.29 L713.42 1184.82 L713.42 987.68 L713.54 1873.01 L713.67 1828.22 L714.16 2252.20 L714.53 1463.02 L714.66 1334.31 L714.78 1575.51 L714.90 1400.03 L715.03 1934.77 L715.03 1329.36 L715.15 1467.84 L715.28 1606.08 L715.40 1636.03 L715.40 2162.10 L715.52 2028.70 L715.52 1253.63 L715.52 1166.01 L715.77 1738.99 L715.89 1452.99 L716.02 1767.70 L716.27 1686.39 L716.27 1348.92 L716.27 1678.84 L716.39 1648.40 L716.39 1586.65 L716.51 1434.68 L716.76 1552.00 L717.01 1232.22 L717.01 1568.58 L717.13 1525.89 L717.13 1817.94 L717.26 1654.59 L717.38 1667.34 L717.50 1434.68 L717.63 1372.06 L717.63 1353.50 L718.00 1139.65 L718.00 1634.54 L718.12 1495.57 L718.12 1719.19 L718.25 1403.37 L718.25 1954.94 L718.62 2157.03 L718.86 1470.07 L718.99 1919.55 L718.99 1318.60 L719.11 1295.58 L719.11 1114.90 L719.61 1942.94 L719.73 1855.81 L719.73 2320.63 L719.98 1582.94 L720.10 1679.71 L720.35 1427.62 L720.72 1482.32 L720.72 1806.44 L720.84 1792.08 L721.09 1595.43 L721.09 1017.63 L721.22 1431.09 L721.22 2052.95 L721.46 1884.28 L721.46 1842.57 L721.59 1651.12 L721.71 1340.63 L721.83 1607.44 L722.58 1373.67 L722.70 1667.46 L722.70 1840.22 L722.82 1469.58 L723.07 1923.51 L723.07 1909.40 L723.20 1351.39 L723.20 1513.51 L723.32 1143.98 L723.44 1291.99 L723.57 1389.01 L724.19 1591.85 L724.80 1521.06 L724.80 966.64 L725.18 1221.33 L725.30 1808.66 L725.42 1235.06 L725.55 1439.01 L725.55 1160.07 L725.79 1741.59 L725.79 1832.18 L725.92 1299.54 L726.41 1589.62 L726.54 1979.20 L726.54 1726.74 L726.54 1838.12 L726.54 1667.71 L726.66 1291.74 L726.66 1278.25 L726.78 1281.22 L726.91 1767.45 L727.03 1012.80 L727.03 1517.47 L727.03 1609.79 L727.16 1818.81 L727.28 1437.52 L727.53 1415.37 L727.53 1523.04 L727.65 1424.53 L727.77 1040.65 L728.02 1504.10 L728.15 1649.52 L728.15 995.23 L728.76 1813.74 L729.14 1551.13 L729.26 1453.74 L729.26 1526.26 L729.38 1638.13 L729.38 1818.07 L729.38 1341.74 L729.63 1402.01 L729.63 1856.93 L729.88 1261.92 L729.88 1467.23 L730.50 1189.27 L730.50 1247.44 L730.99 1653.23 L730.99 1167.62 L731.12 1282.59 L731.12 2211.23 L731.36 1245.46 L731.36 1359.68 L731.49 1777.85 L731.49 1550.26 L731.73 1306.59 L731.73 1749.14 L731.98 1252.88 L731.98 1775.74 L732.11 1551.87 L732.11 1296.20 L732.35 1392.97 L732.97 1312.16 L733.22 1689.86 L733.22 1708.05 L733.34 1082.23 L733.47 1961.62 L733.47 1733.92 L733.59 1305.23 L733.71 1391.86 L733.84 1399.66 L733.84 1237.79 L733.96 1794.93 L734.09 1489.25 L734.09 1924.37 L734.09 1565.61 L734.21 1843.07 L734.58 1621.18 L734.58 1250.29 L734.70 1112.79 L734.83 1059.46 L734.95 1984.52 L735.20 1687.26 L735.32 1323.42 L735.32 1435.42 L735.45 1557.19 L735.45 1337.53 L735.57 1151.41 L735.69 946.22 L735.69 1124.18 L735.94 1451.63 L735.94 1451.63 L736.07 667.16 L736.07 1773.64 L736.68 1502.50 L736.81 2155.67 L737.18 943.13 L737.43 1898.76 L737.43 1620.56 L737.43 1784.78 L738.05 2071.27 L738.17 1645.06 L738.29 1723.40 L738.29 1196.45 L738.42 1749.88 L738.54 1069.98 L738.54 1412.16 L738.66 1768.44 L738.66 1486.16 L738.79 1984.27 L738.79 1412.28 L738.91 1242.37 L739.28 1439.26 L739.41 1833.17 L739.41 1522.67 L739.53 1491.48 L739.65 1581.70 L739.65 1797.03 L739.78 978.52 L740.03 1621.67 L740.03 1512.77 L740.15 1510.66 L740.15 1550.02 L740.27 1663.87 L740.27 1469.70 L740.52 1313.15 L740.52 1387.53 L740.77 1046.71 L740.89 1685.16 L741.14 977.28 L741.26 1693.82 L741.39 1330.23 L741.51 1417.85 L741.51 1720.55 L741.51 1827.72 L741.51 1385.55 L741.76 1431.21 L742.01 1592.96 L742.13 1302.63 L742.13 1422.67 L742.13 951.42 L742.13 1511.41 L742.38 1265.75 L742.50 1341.12 L742.62 1696.79 L742.75 1553.98 L742.87 1899.37 L743.74 1450.15 L743.74 1542.47 L743.86 1431.71 L743.86 1510.79 L744.11 1635.90 L744.85 1265.88 L744.85 996.47 L744.98 1327.88 L745.10 1731.07 L745.10 1994.29 L745.35 1869.55 L745.47 964.41 L745.47 1113.54 L745.59 1385.42 L745.72 1435.67 L745.97 1797.15 L746.09 1472.18 L746.46 1735.03 L746.96 1532.20 L747.08 1348.67 L747.08 1333.20 L747.33 1767.08 L747.33 787.94 L747.33 1657.68 L747.45 1690.35 L747.45 1955.93 L747.45 1458.69 L747.57 1206.35 L747.57 1836.26 L747.95 1182.96 L748.44 1088.54 L748.56 1623.53 L748.56 1733.67 L748.69 1458.19 L748.69 1241.13 L748.69 1564.37 L749.18 1901.35 L749.18 1390.62 L749.43 1445.20 L749.55 1440.50 L749.55 1684.66 L749.68 1448.54 L749.68 1503.73 L749.80 1327.01 L749.80 1229.49 L749.80 1347.43 L749.93 1655.58 L750.05 1561.53 L750.05 1791.96 L750.42 1649.14 L750.42 1747.90 L750.67 1094.36 L750.67 1779.95 L751.16 1612.27 L751.41 1607.81 L751.41 1616.60 L751.66 1377.75 L751.78 1806.44 L751.78 1671.67 L751.91 1329.36 L752.03 1565.36 L752.15 1311.54 L753.02 1162.42 L753.14 1229.37 L753.27 1929.69 L753.27 1672.41 L753.27 1418.47 L753.39 1520.19 L754.01 1762.13 L754.01 1049.19 L754.01 1865.22 L754.13 1556.70 L754.13 1198.06 L754.50 1330.35 L754.50 1722.41 L754.50 1125.67 L754.88 1165.89 L755.00 2126.71 L755.25 902.54 L755.37 1500.14 L755.74 1465.00 L755.74 1614.37 L755.99 1541.35 L756.24 1809.03 L756.36 1912.74 L756.36 1533.68 L756.73 1075.42 L756.73 1546.30 L756.73 1394.21 L756.86 898.58 L756.86 1947.14 L756.86 1731.44 L756.98 1718.45 L757.23 1289.02 L757.72 1808.79 L758.34 1487.77 L758.46 1444.33 L758.46 1419.58 L758.84 1626.00 L758.84 1106.48 L758.84 1491.98 L758.96 1410.30 L758.96 1050.30 L759.58 1514.38 L759.95 1404.11 L759.95 1539.13 L760.07 1455.59 L760.07 1565.49 L760.20 1482.08 L760.57 1381.59 L760.69 1354.73 L761.19 1682.06 L761.56 1617.22 L761.68 1639.00 L761.68 1670.92 L761.93 1327.76 L762.05 1453.74 L762.05 1617.46 L762.05 1575.88 L762.05 1355.72 L762.18 1490.99 L762.30 1573.65 L762.42 1224.42 L762.55 1420.94 L762.67 1463.02 L763.41 1646.30 L763.54 1775.37 L763.54 1416.73 L763.91 1259.44 L763.91 1764.11 L764.03 1592.59 L764.03 1415.00 L764.16 1436.53 L764.65 1854.20 L765.15 1713.62 L765.15 1192.37 L765.27 1336.05 L765.39 842.76 L765.52 1441.73 L765.52 1201.65 L765.64 1288.65 L765.77 1470.69 L765.77 1646.92 L765.89 1520.94 L766.38 1090.64 L766.51 1571.92 L766.63 1445.57 L766.76 1609.17 L766.88 1650.75 L766.88 1537.39 L766.88 1334.69 L767.00 1540.86 L767.25 1607.32 L767.25 1537.52 L767.50 1734.04 L767.62 1939.47 L767.62 1507.45 L767.62 1225.16 L767.62 1011.94 L767.87 1728.72 L767.99 1138.91 L767.99 1388.39 L768.12 1526.13 L768.12 1313.28 L768.24 1212.79 L768.36 1480.22 L768.36 1589.99 L768.49 1704.09 L768.61 1394.33 L768.86 1791.96 L769.85 1689.24 L769.85 991.14 L770.10 1926.97 L770.22 1779.83 L770.22 1502.25 L770.22 1754.83 L770.22 1462.15 L770.96 1526.75 L771.09 1633.67 L771.33 1473.41 L771.46 1684.04 L771.46 1593.58 L771.58 1319.22 L771.58 1752.85 L771.71 1192.24 L771.83 1123.19 L772.08 1213.41 L772.32 1075.30 L772.45 1667.83 L772.45 1796.04 L772.70 1843.31 L772.82 1653.35 L772.82 1611.52 L772.94 1386.91 L773.31 1722.16 L773.31 1570.68 L773.56 1698.89 L773.56 1508.68 L773.56 1205.61 L773.81 1364.26 L773.81 1436.53 L773.93 857.00 L774.30 1519.33 L774.43 1224.42 L774.55 1835.27 L774.68 1017.01 L774.68 1333.82 L775.05 2022.88 L775.67 1455.35 L776.16 1574.03 L776.16 1484.06 L776.28 1357.58 L776.66 894.99 L777.03 1629.22 L777.03 933.72 L777.27 1874.50 L777.65 1730.45 L777.65 1988.48 L778.26 1174.05 L778.26 1100.30 L778.26 1472.30 L778.26 1498.29 L778.39 968.37 L778.51 1639.12 L778.51 1487.89 L778.51 1645.68 L778.51 1614.12 L778.64 1893.19 L778.88 1386.66 L778.88 992.63 L778.88 1925.61 L779.01 1664.37 L779.13 1217.49 L779.25 1448.91 L779.25 2042.93 L779.38 1301.52 L779.50 1384.06 L779.50 1483.19 L779.50 1295.21 L779.87 1784.53 L780.00 1411.04 L780.12 1238.65 L780.24 1562.64 L780.37 1125.79 L780.49 1424.16 L780.49 1258.70 L780.62 1884.77 L780.74 1280.36 L780.99 1631.20 L781.23 1464.13 L781.23 1324.04 L781.36 1601.13 L781.36 1368.84 L781.48 1716.59 L781.48 1895.91 L781.61 1407.82 L781.85 1606.45 L781.98 1702.36 L782.72 1605.34 L782.72 1388.89 L782.97 1459.06 L783.09 1545.44 L783.09 1475.27 L783.21 1277.26 L783.21 1736.89 L783.46 1735.40 L783.59 1268.97 L783.71 1886.26 L783.83 1486.04 L783.96 1107.23 L783.96 1387.16 L784.33 1699.64 L784.45 1311.05 L784.45 1645.31 L784.82 1480.59 L784.82 1781.07 L784.95 1768.32 L784.95 1763.74 L785.07 2055.18 L785.07 1569.57 L785.19 1554.97 L785.19 1608.18 L785.19 1535.79 L785.32 1250.78 L785.44 1736.64 L785.57 1665.60 L785.57 1362.53 L785.69 1545.81 L785.69 1590.36 L785.81 1790.10 L785.94 1777.48 L786.31 1402.50 L786.43 1727.60 L786.56 1619.44 L786.56 1208.83 L786.56 1246.57 L786.68 1419.21 L786.80 1492.60 L786.93 1392.48 L786.93 1556.70 L787.17 1362.53 L787.55 1246.70 L787.67 1056.24 L787.92 1529.72 L787.92 1285.80 L788.04 1300.28 L788.04 1339.88 L788.29 1377.38 L788.41 830.02 L788.41 1055.50 L788.41 1676.25 L788.78 1829.95 L788.78 1225.91 L788.91 1538.01 L789.15 1391.36 L789.28 1327.01 L789.28 1403.74 L789.40 1188.78 L789.65 1520.69 L789.65 913.80 L789.77 1603.85 L789.77 1598.90 L789.90 1072.95 L790.02 1664.98 L790.14 1260.43 L790.14 2017.93 L790.64 1804.95 L790.76 1661.52 L790.89 2147.75 L791.01 1419.33 L791.13 1364.63 L791.51 1287.66 L791.51 878.65 L791.63 2069.78 L791.88 1441.86 L791.88 1532.82 L791.88 1341.37 L792.00 1614.37 L792.12 1354.98 L792.37 1201.53 L792.50 1509.18 L792.50 1250.41 L792.62 923.70 L792.62 1383.44 L792.74 1606.70 L792.74 1526.38 L792.99 1558.68 L792.99 1304.74 L793.36 1730.82 L793.49 1883.53 L793.49 1457.45 L793.61 1641.84 L793.98 1498.41 L794.10 921.72 L794.10 1294.09 L794.23 1391.24 L794.60 1319.59 L794.72 1111.06 L794.72 748.71 L794.85 961.57 L794.85 999.06 L795.09 1303.25 L795.09 1637.26 L795.22 965.78 L795.22 1184.70 L795.34 2047.14 L795.47 1844.55 L795.59 1268.85 L795.71 1652.98 L795.84 1118.49 L796.21 1380.60 L796.33 1007.85 L796.33 1327.01 L796.46 1752.23 L796.58 1118.36 L796.58 1486.53 L796.83 1086.06 L796.95 1108.22 L797.20 1455.59 L797.45 993.62 L797.45 1514.50 L797.57 1558.68 L797.57 1501.51 L797.69 1907.54 L797.94 1803.09 L797.94 1465.49 L798.06 1423.17 L798.19 1466.61 L798.19 1825.00 L798.31 1363.40 L798.44 1605.21 L798.44 1323.67 L798.44 1752.35 L798.56 1936.75 L798.81 1682.06 L798.81 998.94 L798.93 1158.09 L798.93 1171.45 L799.05 1275.53 L799.18 1211.30 L799.30 1348.30 L799.43 1610.41 L799.43 1244.47 L799.67 974.31 L799.67 1146.33 L799.67 1751.12 L799.92 1644.57 L800.04 1757.18 L800.17 1426.39 L800.29 910.70 L800.54 2034.64 L800.54 1809.90 L800.54 1538.38 L800.54 1141.88 L800.54 1173.19 L800.54 1524.03 L800.66 1450.89 L800.66 1887.25 L800.79 1152.52 L800.79 1780.08 L800.79 1343.10 L800.91 1413.89 L800.91 1531.08 L801.03 2099.48 L801.78 1912.37 L801.90 1460.54 L802.02 995.48 L802.15 1777.72 L802.27 1666.59 L802.77 1850.12 L802.77 1432.08 L802.89 1444.95 L802.89 1384.56 L802.89 1306.84 L802.89 1490.12 L803.01 1233.45 L803.01 903.16 L803.14 1566.85 L803.26 1545.31 L803.26 1958.28 L803.26 1387.90 L803.63 1433.94 L803.76 1244.10 L803.76 1668.70 L804.00 1574.03 L804.00 1225.53 L804.13 850.31 L804.25 1547.17 L804.38 1412.77 L804.75 1628.97 L804.75 1362.78 L804.87 1432.70 L804.99 1640.85 L804.99 1684.04 L805.12 1597.29 L805.37 1523.78 L805.37 1649.39 L805.61 1185.31 L805.74 1297.56 L806.11 1464.13 L806.36 1297.81 L806.48 1457.08 L806.48 1649.14 L806.85 1530.46 L806.85 1364.51 L806.97 2052.58 L806.97 1409.68 L807.22 1069.60 L807.35 1803.84 L807.47 1148.44 L807.47 1715.10 L807.47 1430.22 L807.72 826.18 L807.84 1356.34 L807.96 1889.10 L807.96 1626.74 L807.96 1753.10 L807.96 1393.10 L808.09 1224.79 L808.09 1395.82 L808.34 1203.63 L808.58 1692.71 L808.71 1137.92 L809.08 1428.49 L809.08 1767.95 L809.20 1480.34 L809.20 1752.23 L809.33 1608.31 L809.33 1540.36 L809.45 1525.76 L809.45 1112.79 L809.70 1525.02 L809.70 1116.88 L809.70 1689.61 L810.07 670.25 L810.32 1755.20 L810.44 1226.65 L810.44 1396.93 L810.44 2088.84 L810.56 1569.20 L810.69 1263.28 L810.81 906.99 L811.06 1921.90 L811.18 1260.93 L811.43 2091.56 L811.68 1464.63 L811.92 1733.67 L811.92 1591.60 L811.92 1231.60 L812.05 1720.18 L812.17 1434.80 L812.17 1713.00 L812.17 1152.27 L812.30 1830.20 L812.54 1103.14 L813.29 1836.26 L813.41 1299.66 L813.53 1642.71 L813.53 1593.95 L813.66 1166.88 L813.66 1485.67 L813.78 1245.09 L813.90 1528.48 L814.03 1556.70 L814.03 1577.37 L814.15 1352.51 L814.15 1462.03 L814.15 1390.13 L814.15 1227.27 L814.40 1447.05 L814.52 1495.94 L814.77 998.69 L815.02 2053.82 L815.14 1327.63 L815.27 1890.59 L815.27 1180.86 L815.39 1213.28 L815.51 2036.62 L815.76 1509.92 L815.88 1525.89 L816.26 1533.06 L816.26 1258.21 L816.26 1273.80 L816.38 2124.61 L816.87 1075.67 L817.00 1972.39 L817.00 1469.33 L817.00 1544.70 L817.12 1530.71 L817.37 1156.23 L817.37 1669.07 L817.86 1592.96 L817.99 1212.17 L818.11 1038.79 L818.61 1552.00 L818.61 1525.14 L818.73 1555.46 L818.73 1655.95 L818.98 1258.58 L819.10 1594.32 L819.10 1397.55 L819.10 1461.66 L819.23 1366.49 L819.72 1291.87 L819.84 1412.16 L819.97 1119.35 L820.34 1222.56 L820.59 1823.27 L820.83 817.15 L820.83 1707.93 L820.83 1445.82 L820.96 1225.29 L821.21 1445.57 L821.21 1338.52 L821.45 1184.20 L821.58 1274.54 L821.58 1284.69 L821.70 1410.79 L821.95 1052.40 L822.07 1456.83 L822.07 1542.34 L822.20 1455.96 L822.32 1493.34 L822.32 1181.11 L822.44 1489.01 L822.44 1264.76 L822.57 1496.18 L822.69 1488.76 L823.31 1399.90 L823.31 1574.89 L823.56 1290.51 L823.68 1419.46 L823.68 1483.07 L823.93 1995.28 L824.18 1480.96 L824.18 1484.55 L824.30 1850.49 L824.30 1270.09 L824.30 1608.80 L824.55 1924.37 L825.17 2120.65 L825.17 2034.39 L825.29 854.27 L825.41 1894.42 L825.66 1721.17 L825.66 1986.99 L825.78 1284.81 L826.03 1839.23 L826.28 1253.38 L826.40 1755.82 L826.65 1140.64 L826.77 1622.54 L826.77 1631.32 L826.90 1671.67 L826.90 1182.59 L827.15 1152.64 L827.27 1534.92 L827.52 1199.55 L827.52 1407.58 L827.64 1500.64 L827.64 1523.04 L827.76 1336.42 L828.01 1905.56 L828.01 1614.00 L828.14 1503.11 L828.26 1852.84 L828.38 1007.36 L828.51 1401.02 L828.51 1217.24 L828.75 1407.33 L828.88 1169.72 L828.88 2302.69 L829.00 1421.19 L829.25 1487.27 L829.25 1425.15 L829.37 1928.83 L829.50 1666.84 L829.62 2021.89 L829.74 1907.29 L829.87 1649.27 L830.12 1548.41 L830.12 1316.62 L830.24 1279.49 L830.36 1510.42 L830.49 1508.56 L830.49 1808.54 L830.49 1018.12 L830.61 1458.07 L830.61 1343.22 L830.73 1340.87 L830.73 1864.85 L830.98 1413.64 L830.98 1925.86 L831.11 1643.95 L831.23 1286.67 L831.23 1352.88 L831.23 1392.85 L831.48 1999.12 L831.60 1385.05 L831.60 1432.57 L831.85 1490.62 L831.97 1077.03 L831.97 1495.69 L831.97 1146.08 L832.10 1133.71 L832.47 1859.28 L832.59 1507.07 L832.71 1195.46 L832.84 1242.86 L832.96 940.53 L832.96 1184.32 L833.21 1801.49 L833.21 1700.38 L833.70 1569.32 L833.70 1596.30 L833.70 1147.20 L833.70 1718.20 L833.83 1731.07 L834.32 820.36 L834.57 1594.07 L834.69 1540.12 L834.69 1347.56 L834.69 1278.87 L834.69 1374.04 L834.69 1384.06 L834.82 1636.64 L834.82 1252.64 L834.94 1700.63 L834.94 1045.97 L835.19 1710.40 L835.31 849.45 L835.31 1582.32 L835.44 1282.96 L835.68 1691.72 L836.18 1515.12 L836.30 1565.49 L836.80 1513.26 L836.92 1908.41 L837.05 1433.81 L837.54 1734.16 L837.66 1224.42 L837.66 1656.94 L837.91 1635.41 L837.91 1354.86 L837.91 1446.68 L838.04 2032.41 L838.28 1491.98 L838.28 1871.41 L838.41 1738.49 L838.41 1453.74 L838.53 1203.75 L839.03 1347.56 L839.15 1560.78 L839.89 1272.31 L840.02 615.80 L840.26 1360.18 L840.51 1667.95 L840.76 1140.02 L841.01 1555.59 L841.38 1399.41 L841.38 1498.41 L841.38 1323.55 L841.50 1137.42 L841.62 1268.97 L841.75 1456.21 L842.00 1801.24 L842.12 1663.75 L842.12 1712.63 L842.24 1287.91 L842.37 1390.00 L842.49 1527.62 L842.49 1793.56 L842.61 1450.27 L842.74 1634.66 L842.86 1067.62 L842.99 1426.88 L842.99 1316.74 L843.11 1342.48 L843.36 1105.49 L843.60 1027.03 L843.85 1546.43 L844.10 1008.59 L844.22 633.12 L844.35 1372.06 L844.47 1363.15 L844.84 1591.10 L844.84 1538.63 L844.97 1338.40 L845.09 1723.27 L845.34 1388.27 L845.34 1899.00 L845.46 1067.38 L845.46 1675.13 L846.20 1805.45 L846.33 1238.03 L846.57 1267.24 L846.57 1782.18 L846.82 1730.70 L846.95 1415.87 L847.07 1520.81 L847.32 1409.06 L847.32 1194.72 L847.56 1916.20 L847.69 1175.04 L847.94 1450.52 L848.06 1286.30 L848.18 1777.23 L848.31 1089.03 L848.31 1229.87 L848.55 1493.71 L848.55 1048.57 L848.93 1543.95 L849.17 1326.15 L849.30 1825.00 L849.79 1207.59 L850.29 1860.02 L850.29 1479.35 L850.41 2033.03 L850.41 1351.64 L850.66 1539.62 L850.91 1534.30 L850.91 1730.70 L851.03 1817.57 L851.15 1619.81 L851.28 1550.64 L851.28 1549.89 L851.65 2086.12 L851.65 1734.29 L851.77 1708.92 L851.90 1357.33 L852.02 1776.49 L852.02 1196.58 L852.51 1328.62 L852.51 1743.32 L852.51 1563.88 L852.64 1859.03 L852.64 1848.64 L852.64 1299.42 L852.76 1095.84 L852.76 1498.04 L852.76 1503.36 L852.89 1476.26 L852.89 1270.33 L853.13 1423.66 L853.50 1187.79 L853.63 1304.98 L853.75 1302.63 L853.75 1145.59 L853.75 1135.57 L854.00 1640.23 L854.12 1258.45 L854.12 1307.71 L854.37 1316.12 L854.74 1239.64 L854.99 1364.26 L854.99 2020.78 L855.11 1043.99 L855.61 1489.75 L855.98 1378.87 L855.98 1490.74 L856.10 1459.80 L856.10 1411.17 L856.35 853.28 L856.60 1240.88 L856.85 1557.19 L856.97 1783.42 L857.09 1464.01 L857.34 1583.18 L857.34 1683.18 L857.71 1633.67 L857.71 1697.04 L857.96 1465.25 L858.08 1602.61 L858.21 1585.16 L858.33 1189.52 L858.58 913.06 L858.83 1543.58 L859.32 1855.44 L859.57 1352.01 L859.69 1563.26 L859.82 1389.26 L860.06 1477.00 L860.06 1315.63 L860.31 1736.27 L860.31 1421.44 L860.56 1620.19 L860.56 1707.68 L860.68 1316.49 L861.05 1729.09 L861.18 1100.05 L861.18 1503.73 L861.42 1249.05 L861.67 1650.13 L861.80 1442.35 L861.92 895.48 L862.04 960.95 L862.04 1403.62 L862.17 1652.49 L862.17 1432.33 L862.29 1727.60 L862.41 1652.73 L862.66 1815.22 L862.79 2068.79 L862.91 1447.80 L863.03 1147.32 L863.16 1847.77 L863.53 1870.66 L863.65 1448.79 L863.78 1810.40 L863.78 1767.21 L863.78 1005.25 L863.90 1620.80 L863.90 813.68 L864.02 1245.46 L864.15 1237.54 L864.27 1786.14 L864.39 1698.15 L864.64 1128.02 L864.64 1601.13 L864.77 2074.24 L864.89 1143.98 L865.14 1682.19 L865.26 1471.19 L865.38 1402.01 L865.76 1524.52 L866.13 1517.35 L866.37 1173.19 L866.87 1409.68 L867.36 1435.17 L867.61 922.96 L867.74 1280.61 L867.86 1385.55 L868.23 810.46 L868.23 1859.15 L868.48 1171.95 L868.73 1492.84 L868.85 1307.95 L868.97 1563.75 L869.10 1069.60 L869.22 1542.59 L869.22 1682.19 L869.22 1409.31 L869.47 1329.36 L869.59 1461.41 L869.72 1499.65 L869.84 1408.94 L869.96 1651.25 L870.33 1440.00 L870.95 1531.70 L870.95 1366.49 L871.08 1224.92 L871.70 1150.29 L871.70 1525.64 L871.70 1071.96 L871.82 1409.80 L871.94 1505.71 L871.94 1685.16 L872.07 1364.76 L872.19 1282.21 L872.19 1598.53 L872.44 1300.03 L872.69 1046.71 L872.69 1459.43 L872.81 1485.05 L873.06 1392.23 L873.18 1652.73 L873.30 1492.72 L873.43 1574.27 L873.43 1516.48 L873.43 1482.57 L873.43 1216.87 L873.43 1142.00 L873.80 1745.55 L873.80 1288.40 L874.42 1411.29 L874.42 1529.35 L874.79 1583.18 L875.04 1565.36 L875.28 1132.72 L875.41 1554.97 L875.53 1402.63 L875.66 986.57 L875.78 1288.28 L875.78 807.25 L875.90 1477.62 L875.90 1305.60 L876.03 1180.61 L876.15 1035.82 L876.40 1181.85 L876.65 1172.69 L876.77 2041.44 L876.77 1725.62 L876.89 1087.30 L876.89 997.46 L877.64 1461.78 L878.01 1504.35 L878.01 1502.25 L878.13 956.37 L878.75 1798.64 L878.75 1275.28 L879.00 1741.46 L879.24 1600.76 L879.62 1235.68 L879.74 1645.18 L879.74 1499.90 L879.86 1370.82 L879.86 1673.89 L879.99 1552.99 L880.11 1448.42 L880.23 1285.43 L880.23 1335.68 L880.85 1570.93 L881.10 972.33 L881.22 1150.91 L881.22 1720.67 L881.60 1571.80 L882.34 1572.29 L882.83 1410.30 L882.83 1317.48 L882.96 1483.81 L882.96 1142.37 L883.08 1132.84 L883.33 1200.54 L883.33 1382.08 L883.45 1325.53 L883.45 1192.24 L883.45 1452.87 L883.58 1947.64 L883.95 1212.29 L884.19 1606.20 L884.32 1426.39 L884.32 1502.87 L884.57 1450.27 L884.57 1487.40 L884.69 1218.85 L884.81 1550.51 L884.94 1265.51 L884.94 1263.40 L884.94 1357.33 L885.06 1776.98 L885.18 1739.48 L885.18 1847.15 L885.56 1777.48 L885.80 1527.25 L886.05 1341.62 L886.30 1432.33 L886.30 1376.14 L886.42 1745.42 L886.42 1865.22 L886.92 2139.46 L887.29 1076.78 L887.41 1599.77 L887.54 1448.17 L887.66 1040.28 L887.78 1534.30 L887.91 1223.06 L888.28 1525.27 L888.40 1321.07 L888.77 1686.15 L889.14 1826.48 L889.14 1498.78 L889.14 1363.77 L889.14 1482.82 L889.14 890.78 L889.64 1535.17 L889.76 1701.62 L889.89 1461.90 L889.89 1073.69 L890.01 1468.22 L890.01 1947.51 L890.38 1620.19 L890.38 1556.70 L891.00 1821.04 L891.00 1507.45 L891.12 1309.56 L891.12 1590.48 L891.12 1321.69 L891.50 1478.24 L891.50 1431.58 L891.50 1374.66 L891.62 1107.60 L891.87 1606.20 L891.87 1168.36 L891.99 1638.25 L892.11 1462.40 L892.24 1263.03 L892.36 1206.97 L892.49 1031.12 L892.49 1859.65 L892.61 1363.77 L892.86 1262.54 L893.10 1330.60 L893.10 1530.59 L893.23 842.39 L893.23 1166.38 L893.35 1509.18 L893.72 1504.60 L893.72 1481.58 L893.72 1493.71 L893.85 1659.91 L893.85 1458.32 L893.97 1573.16 L894.09 1464.38 L894.47 1338.52 L894.59 1561.40 L894.84 1654.09 L895.08 1559.42 L895.33 939.42 L895.46 1337.04 L895.46 1093.12 L895.46 1014.41 L895.58 685.23 L895.70 1595.43 L895.70 1451.26 L895.95 1470.69 L896.20 1370.45 L896.20 1502.25 L896.45 1475.52 L896.57 1424.41 L896.82 1813.61 L896.94 1486.90 L897.06 1544.57 L897.19 1153.01 L897.19 1530.09 L897.19 1513.26 L897.31 1177.64 L897.31 1334.19 L897.31 1512.89 L897.56 1022.70 L897.68 1364.76 L897.68 1331.22 L897.93 1197.19 L898.18 1179.50 L898.55 1852.60 L898.67 1509.18 L898.92 1330.35 L899.04 1324.29 L899.04 1496.93 L899.17 1607.93 L899.17 1608.31 L899.42 1080.74 L899.66 1474.16 L899.79 1377.63 L900.28 1490.49 L900.41 1190.76 L900.41 1109.33 L900.78 1228.75 L901.02 1771.66 L901.15 1791.46 L901.40 1205.73 L901.64 2028.57 L901.77 1105.12 L901.77 1611.03 L901.89 1449.03 L901.89 1142.87 L902.26 1584.54 L902.39 1422.30 L902.39 1572.42 L902.39 1508.31 L902.39 1227.27 L902.51 1344.83 L902.51 1266.13 L902.63 1454.97 L902.88 1547.17 L903.00 1409.43 L903.13 1546.06 L903.25 1549.77 L903.50 1022.21 L903.50 1362.41 L903.50 1372.18 L904.61 1605.34 L904.61 1898.51 L904.74 1050.42 L904.86 1887.25 L904.98 1393.72 L905.11 1129.13 L905.48 1536.78 L905.60 1629.10 L905.73 1592.59 L905.85 1530.09 L906.10 1305.48 L906.59 1850.86 L906.84 1390.62 L907.09 1571.18 L907.09 1808.66 L907.21 850.44 L907.83 1272.68 L907.83 1442.85 L908.45 995.97 L908.70 1280.48 L908.82 1484.43 L908.94 1113.91 L908.94 1599.02 L909.07 1709.91 L909.19 1493.59 L909.56 1529.47 L909.69 1423.05 L909.69 1300.78 L909.81 1514.99 L909.81 1633.43 L909.81 1352.63 L909.81 1614.00 L909.81 1441.24 L909.93 1806.31 L910.06 1617.59 L910.06 1552.00 L910.68 1183.83 L910.80 1264.76 L910.80 1608.92 L910.80 1716.84 L910.92 1655.83 L911.17 1569.69 L911.30 1551.50 L911.67 1868.93 L911.79 1461.29 L911.79 1486.04 L912.04 1653.35 L912.41 1412.90 L912.66 1600.14 L913.03 1593.45 L913.15 1077.15 L913.89 1527.74 L913.89 2262.59 L914.27 1674.88 L914.27 964.79 L914.39 1787.25 L914.39 1525.51 L914.39 1708.92 L914.76 1606.08 L914.76 1538.76 L915.13 1559.92 L915.38 1312.04 L915.50 1187.42 L915.75 1597.04 L916.00 1575.88 L916.12 1372.93 L916.25 1639.12 L916.74 1774.88 L916.86 1334.93 L916.86 1407.82 L917.11 1337.04 L917.24 1134.95 L917.24 1334.81 L917.36 1958.16 L917.36 1369.71 L917.36 1347.80 L917.73 1281.97 L917.98 1031.74 L917.98 1774.26 L917.98 1495.94 L917.98 1349.91 L918.10 1705.70 L918.35 1119.85 L918.35 1601.99 L918.47 1912.86 L918.72 1453.98 L918.84 1579.72 L918.84 1491.61 L918.97 1253.01 L919.22 1787.38 L919.96 611.84 L920.08 1081.98 L920.33 1326.52 L920.45 944.74 L920.95 1144.60 L920.95 1395.32 L921.20 1612.39 L921.20 1677.98 L921.44 1696.29 L921.69 1519.70 L921.69 1489.13 L921.81 1908.04 L922.19 1344.59 L922.19 1124.18 L922.56 1524.03 L922.68 883.36 L922.93 1316.37 L922.93 1308.08 L923.42 1294.84 L923.67 1289.64 L923.67 1836.26 L924.17 1166.13 L924.17 1199.55 L924.17 1311.42 L924.17 1603.36 L924.29 1468.83 L924.29 1727.85 L924.41 1142.00 L924.41 1150.29 L924.54 1213.28 L924.78 1234.32 L924.91 1470.69 L925.03 1527.49 L925.16 1423.05 L925.28 1673.03 L925.53 1478.98 L925.65 1413.89 L925.77 1502.25 L926.15 1348.55 L926.39 1309.07 L926.52 1363.89 L926.89 1635.41 L926.89 1164.77 L926.89 1101.78 L927.01 1610.29 L927.26 1650.26 L927.26 1015.77 L927.38 1439.01 L927.38 1530.96 L927.75 1463.88 L927.88 1284.32 L928.00 1422.92 L928.37 1090.89 L928.37 1053.89 L928.37 1121.83 L928.62 1663.62 L928.74 1501.38 L928.99 1465.62 L928.99 1826.61 L929.12 919.00 L929.24 1228.01 L929.49 995.60 L929.49 1681.94 L929.61 1150.66 L929.98 1298.67 L930.48 1295.70 L930.48 1125.29 L930.60 1472.67 L930.85 1419.83 L931.84 1555.46 L931.96 1649.76 L932.09 1483.44 L932.21 1336.42 L932.33 1347.06 L932.70 1350.77 L932.70 1324.17 L932.95 1144.97 L933.32 1408.07 L933.57 1386.79 L933.57 1320.95 L933.69 1579.59 L933.82 970.48 L935.30 1353.62 L935.55 957.11 L935.55 1599.52 L935.67 1577.49 L935.67 1558.68 L935.80 996.59 L936.05 1352.38 L936.05 1376.76 L936.17 1267.61 L936.17 1423.66 L936.29 1352.51 L936.42 1125.42 L936.79 1474.28 L936.79 1310.92 L936.91 1013.79 L936.91 1009.83 L937.04 1307.95 L937.04 1298.30 L937.16 1290.75 L937.28 1945.78 L937.53 1076.53 L937.53 1415.13 L937.53 1555.09 L938.03 1114.16 L938.15 1484.43 L938.27 1146.70 L938.64 1486.53 L938.64 1595.43 L938.64 1428.49 L938.77 1198.93 L938.89 1181.97 L938.89 1716.22 L939.88 1637.14 L940.13 1068.61 L940.50 1624.76 L940.62 1313.15 L940.87 1627.49 L941.00 1101.53 L941.24 981.37 L941.37 1530.59 L941.61 1250.66 L941.86 1459.06 L941.86 1232.09 L941.99 1703.47 L941.99 711.83 L942.36 1398.91 L942.36 1419.46 L942.73 1543.46 L942.98 1888.24 L943.10 1628.23 L943.10 1225.29 L943.35 1556.45 L944.09 1655.95 L944.46 1618.82 L944.46 1490.74 L944.46 1514.25 L944.58 1595.19 L944.71 1716.09 L944.83 1403.74 L944.83 1035.08 L945.57 1403.37 L945.70 1559.30 L945.82 1378.12 L946.07 1102.89 L946.19 1176.90 L946.19 1330.23 L946.32 1178.26 L946.32 1646.05 L946.81 1537.15 L946.94 1039.04 L947.06 1312.78 L947.31 1486.28 L947.31 1818.81 L947.55 1465.74 L947.93 1339.88 L948.05 998.32 L948.05 1519.82 L948.17 1861.26 L948.17 1453.74 L948.17 972.83 L948.17 1277.63 L948.42 1235.93 L948.54 1456.71 L948.79 1490.86 L948.79 1558.93 L949.04 1475.27 L949.04 1288.65 L949.66 1598.40 L949.66 1553.85 L949.78 1124.43 L950.03 1512.27 L950.28 1415.50 L950.77 470.02 L950.90 1168.11 L950.90 1775.87 L951.27 1334.31 L951.51 1747.53 L951.76 960.21 L951.89 1433.69 L952.01 1662.51 L952.13 1473.78 L952.88 1331.59 L952.88 1774.01 L953.25 1259.07 L953.37 1046.22 L953.49 889.91 L953.62 1397.30 L953.87 1465.99 L953.87 1331.10 L954.24 1170.71 L954.24 847.84 L954.48 1384.19 L954.86 1387.90 L954.98 1553.73 L955.10 1357.46 L955.47 1208.46 L955.47 1432.45 L955.97 1238.16 L955.97 1297.81 L955.97 1299.29 L956.09 1093.37 L956.09 1112.55 L956.34 1486.90 L956.71 1241.75 L956.96 1366.61 L957.45 1458.93 L957.45 1379.48 L957.83 1531.95 L957.95 1692.09 L958.32 1828.09 L958.44 1167.49 L958.69 1703.47 L958.82 1019.86 L958.94 1157.72 L959.06 1550.76 L959.06 1479.11 L959.31 1819.55 L959.43 1390.87 L959.56 1207.22 L959.93 1126.78 L959.93 1298.80 L959.93 1168.61 L960.05 969.98 L960.05 1901.60 L960.30 1597.66 L960.55 1144.85 L960.67 1163.78 L961.29 1707.43 L961.41 1086.81 L961.54 1676.86 L961.66 1495.69 L961.66 929.52 L962.03 1220.71 L962.16 1634.29 L962.28 1493.34 L962.40 1247.19 L962.40 813.93 L962.78 1486.28 L962.90 1779.46 L963.27 1770.79 L963.52 1565.49 L963.64 1098.69 L964.01 1167.62 L964.01 1446.68 L964.38 1222.69 L964.76 1393.96 L965.13 1333.70 L965.50 1659.66 L965.62 1517.59 L965.62 1962.86 L965.62 1247.32 L965.99 1809.03 L966.49 1370.20 L966.61 1399.53 L966.74 1493.83 L966.86 1695.55 L966.86 1656.20 L967.23 1015.77 L967.35 1217.12 L967.48 1418.84 L967.60 1137.55 L967.85 1334.31 L968.10 995.35 L968.22 1453.37 L968.34 1272.07 L968.34 1304.12 L968.59 1842.57 L968.72 1405.35 L968.84 1604.72 L968.96 1165.64 L968.96 1628.60 L969.09 1832.79 L969.09 1175.54 L969.33 959.96 L969.71 1142.25 L969.71 1366.99 L969.71 1611.28 L970.32 1130.24 L970.57 1469.58 L970.70 1787.01 L971.19 1666.35 L971.19 1565.61 L971.19 1359.68 L971.19 1637.51 L971.19 1702.11 L971.19 1570.56 L971.31 1826.98 L971.56 1336.91 L971.56 1017.88 L971.93 1475.76 L971.93 1332.46 L971.93 1152.27 L972.18 1402.75 L972.18 1526.88 L972.80 1470.57 L973.05 1514.50 L973.17 1415.62 L973.17 1146.83 L973.17 1575.88 L973.42 1258.33 L973.67 1076.53 L973.67 1346.32 L973.67 1241.99 L973.79 1668.94 L973.91 1460.42 L974.16 1467.72 L974.28 1583.06 L974.28 1588.63 L974.78 1166.01 L975.03 1677.48 L975.03 1643.08 L975.15 1472.67 L975.15 1241.99 L975.15 1416.98 L975.40 1413.27 L975.40 1067.75 L975.52 1651.74 L975.77 1426.26 L976.02 1255.36 L976.02 1571.18 L976.39 1428.24 L977.01 2127.70 L977.63 1427.62 L977.75 1461.16 L978.12 1431.46 L978.12 1385.42 L978.24 1738.25 L978.24 1905.19 L978.37 1678.10 L978.49 1309.56 L978.62 1249.54 L978.74 1596.80 L978.86 1120.96 L979.36 2146.26 L979.36 1519.08 L979.48 1311.17 L979.48 1338.40 L979.73 1205.49 L979.73 1265.63 L979.73 1490.12 L980.22 866.65 L980.35 1797.90 L980.35 1485.29 L980.60 1380.97 L980.72 1472.05 L980.72 1613.87 L980.72 1267.73 L980.97 1268.60 L981.34 1292.49 L981.46 1206.23 L981.59 1279.74 L981.83 1315.87 L981.83 1463.27 L982.33 1369.96 L982.33 1246.20 L983.57 1500.27 L983.69 1429.48 L983.69 1115.02 L984.18 1297.06 L984.56 1236.05 L984.68 1295.83 L984.93 1326.52 L985.17 1505.34 L985.79 1737.50 L986.78 1582.44 L986.78 1470.94 L987.03 1656.32 L987.15 1216.50 L987.28 1311.42 L987.53 1199.42 L987.65 769.25 L987.77 1764.85 L988.27 919.74 L988.52 1449.28 L988.64 1479.11 L988.64 1285.56 L988.76 1483.81 L988.76 1446.68 L988.76 1584.30 L989.01 1023.32 L989.01 1322.06 L989.13 1344.59 L989.26 1707.56 L989.26 1392.85 L989.88 1357.33 L990.00 1090.89 L990.12 983.10 L990.12 1679.83 L990.37 1236.80 L990.50 1190.02 L990.62 1107.47 L990.74 1812.75 L990.87 1275.28 L991.11 1729.96 L991.11 1663.13 L991.24 1601.99 L991.61 1065.15 L991.73 1108.96 L991.86 1686.39 L992.10 1269.22 L993.22 1354.98 L993.34 1484.06 L994.83 929.14 L994.95 1543.46 L995.07 808.86 L995.20 1265.75 L995.32 1090.40 L996.31 1459.43 L996.56 1084.08 L996.68 1717.21 L996.93 1794.18 L997.18 1387.90 L997.43 1368.22 L997.92 1094.23 L998.17 1164.52 L998.17 1036.69 L998.29 1544.94 L998.29 1323.67 L998.42 1618.33 L998.42 1343.35 L998.66 1236.80 L999.78 1537.77 L1000.02 1079.38 L1000.02 1737.01 L1000.40 1307.83 L1000.40 1464.63 L1000.52 1499.28 L1000.89 1718.57 L1000.89 1639.49 L1001.14 1353.99 L1001.39 823.09 L1001.51 1113.66 L1001.88 1310.31 L1001.88 1579.59 L1002.25 927.66 L1002.75 1205.49 L1003.12 1209.69 L1003.24 1975.85 L1003.37 1234.57 L1003.74 1494.33 L1003.86 1308.20 L1003.98 1633.80 L1004.11 2345.51 L1004.11 1775.87 L1004.60 1287.16 L1004.60 1754.83 L1004.85 1338.77 L1005.10 1192.99 L1005.47 1715.97 L1005.72 1850.24 L1005.84 1359.44 L1005.84 1722.28 L1005.96 984.46 L1006.21 1360.67 L1006.21 782.99 L1006.46 1261.18 L1006.95 726.68 L1007.08 1308.33 L1007.20 1721.29 L1007.20 1420.45 L1007.20 1697.28 L1007.45 1383.94 L1007.94 1528.73 L1008.07 1246.94 L1008.32 1247.32 L1008.44 1237.41 L1009.06 1111.80 L1009.68 956.00 L1009.92 1299.66 L1010.17 1622.29 L1010.54 1416.49 L1010.67 1617.46 L1010.79 1377.75 L1010.91 952.78 L1011.04 1619.32 L1011.16 1290.75 L1011.29 1638.01 L1011.41 1340.01 L1012.40 1458.07 L1012.40 1642.96 L1012.40 1393.22 L1012.52 1376.64 L1012.77 1630.70 L1013.02 1349.16 L1013.14 1377.01 L1013.27 1050.92 L1013.39 1488.14 L1013.64 1114.90 L1013.64 1552.00 L1013.64 1753.22 L1013.76 1054.01 L1013.88 1355.72 L1014.01 1540.49 L1014.01 1767.33 L1014.01 989.04 L1014.13 1539.00 L1014.26 1178.14 L1014.63 1276.52 L1015.00 1406.96 L1015.12 1832.42 L1015.25 1159.33 L1015.49 1303.25 L1015.62 2030.80 L1016.48 1728.59 L1016.98 1210.93 L1018.09 1537.64 L1018.34 1733.67 L1018.59 1881.43 L1018.96 1493.96 L1018.96 1166.26 L1019.45 1614.37 L1019.45 1374.41 L1019.70 1057.97 L1019.95 1215.14 L1020.07 1341.74 L1020.20 1381.09 L1020.32 1322.31 L1020.44 1672.90 L1020.69 1385.80 L1021.06 1443.47 L1021.06 1839.48 L1021.19 1643.70 L1021.31 1169.10 L1021.43 1408.69 L1021.68 1525.51 L1021.80 1006.12 L1021.93 889.05 L1022.18 1270.33 L1022.42 1319.22 L1022.55 1483.81 L1022.92 1328.87 L1023.17 1103.14 L1023.41 1320.45 L1023.91 1229.00 L1023.91 1361.54 L1024.28 1655.70 L1024.28 1537.27 L1025.02 1483.93 L1025.02 1605.09 L1025.15 1665.48 L1025.27 1322.19 L1025.52 1533.31 L1025.64 1345.82 L1025.89 1563.63 L1026.26 1532.94 L1026.51 1055.37 L1026.51 1549.03 L1026.63 1069.23 L1026.63 1117.50 L1027.62 1427.25 L1027.74 1160.32 L1028.36 1554.47 L1028.49 1522.79 L1029.11 1465.12 L1029.23 1206.23 L1029.48 1264.89 L1029.72 1428.99 L1030.22 1386.41 L1030.22 1393.10 L1030.22 1373.67 L1030.59 1249.05 L1030.84 1451.88 L1031.09 1547.79 L1031.21 1637.14 L1031.33 1368.84 L1031.46 1418.84 L1031.46 1139.53 L1031.83 1424.53 L1032.08 1711.89 L1032.20 1256.72 L1032.20 1576.50 L1032.94 1375.65 L1033.31 1487.65 L1033.31 1599.64 L1033.44 1638.01 L1034.18 1564.25 L1034.55 1536.03 L1034.55 1540.24 L1034.67 1473.04 L1034.92 1115.76 L1035.05 1513.39 L1035.05 1872.02 L1035.29 1253.50 L1035.79 1333.32 L1036.04 1198.68 L1036.28 1382.08 L1036.28 1149.55 L1036.28 1332.09 L1037.03 1472.92 L1037.27 963.05 L1037.40 1321.32 L1037.52 899.81 L1037.52 1603.73 L1038.02 1232.59 L1038.02 1512.77 L1038.26 1811.26 L1038.39 1465.74 L1038.51 1298.67 L1038.63 1539.62 L1039.50 1202.64 L1039.62 1330.97 L1039.62 1745.42 L1040.12 1019.24 L1040.12 1107.84 L1040.86 1207.22 L1040.86 955.75 L1041.36 1697.28 L1041.85 1300.53 L1041.97 1835.02 L1042.10 1494.33 L1042.22 1209.82 L1042.22 1877.84 L1042.47 853.16 L1042.72 1730.08 L1042.96 852.66 L1043.34 1751.98 L1043.34 1630.46 L1043.46 1209.82 L1043.71 1230.48 L1044.20 1811.26 L1044.33 1308.33 L1044.33 1917.69 L1044.45 1373.54 L1044.57 1258.45 L1044.70 1526.75 L1044.95 1183.33 L1044.95 1102.52 L1044.95 1462.65 L1045.07 917.51 L1045.32 2140.57 L1045.44 1835.89 L1045.44 934.22 L1045.69 1328.62 L1046.43 1662.51 L1046.55 1518.21 L1046.68 968.62 L1047.05 1733.17 L1048.29 1306.84 L1048.53 1912.12 L1048.53 1269.34 L1049.15 1467.23 L1049.15 1601.50 L1049.28 1551.63 L1049.52 1172.94 L1049.77 713.69 L1050.27 1370.82 L1050.39 953.40 L1050.39 1226.15 L1050.76 1428.49 L1051.63 1199.92 L1051.75 1327.26 L1051.88 1963.48 L1052.25 1476.26 L1052.37 1598.03 L1052.74 1445.20 L1052.87 1415.37 L1053.24 1508.19 L1053.36 1210.93 L1053.48 1323.05 L1054.47 1504.10 L1054.47 1240.26 L1054.60 1501.13 L1055.34 1082.60 L1055.46 1307.46 L1055.46 1360.55 L1055.59 1271.45 L1057.07 1210.81 L1057.20 1563.63 L1057.32 1152.89 L1058.06 1361.42 L1058.68 1259.20 L1059.05 1487.03 L1059.05 1221.08 L1059.30 1460.17 L1059.42 1375.77 L1059.55 1138.41 L1059.92 1691.84 L1060.79 1315.38 L1061.90 1525.02 L1062.02 1520.94 L1062.02 1491.11 L1062.02 1576.01 L1062.27 1708.79 L1062.27 1371.56 L1062.39 1592.96 L1062.39 1391.12 L1062.64 1360.67 L1062.64 1470.32 L1063.26 755.89 L1064.25 1760.28 L1065.24 1668.45 L1065.49 1369.83 L1065.98 906.62 L1066.23 1019.86 L1066.60 969.12 L1066.72 1184.45 L1066.85 1737.75 L1066.97 1719.68 L1067.34 1555.46 L1067.47 1914.84 L1067.47 1324.04 L1068.33 1534.92 L1068.95 1660.78 L1068.95 1563.75 L1068.95 1157.22 L1069.08 1080.12 L1069.57 946.84 L1069.70 1325.03 L1069.70 1390.87 L1069.82 1000.18 L1070.19 1577.24 L1070.69 1410.30 L1070.93 1311.91 L1071.30 1538.38 L1072.05 1636.03 L1072.17 1841.21 L1072.54 1523.66 L1072.67 1208.46 L1073.04 1773.02 L1073.41 905.38 L1073.90 1195.46 L1074.03 1217.12 L1074.89 1652.24 L1075.26 927.66 L1075.26 1399.16 L1076.13 841.90 L1076.25 1308.08 L1076.25 1308.45 L1076.38 1494.70 L1076.75 1572.54 L1077.12 1160.94 L1077.24 1165.89 L1077.37 1011.56 L1077.49 1322.19 L1077.49 1587.27 L1078.23 1025.05 L1078.73 1614.00 L1078.73 904.89 L1079.10 1379.73 L1079.72 1286.92 L1079.97 1218.48 L1080.46 1436.04 L1081.20 1328.13 L1081.20 1440.99 L1081.33 1127.15 L1081.33 1308.82 L1081.45 1600.26 L1081.45 1452.87 L1081.82 1137.30 L1082.07 1216.13 L1082.44 1104.26 L1082.44 1627.86 L1082.81 1515.74 L1082.81 1845.67 L1083.56 1121.33 L1083.93 1629.71 L1083.93 1623.65 L1084.79 1557.44 L1084.79 1251.15 L1085.29 1454.36 L1085.29 1552.99 L1085.78 916.52 L1085.91 1396.07 L1086.40 1632.44 L1086.65 1632.44 L1086.77 1375.40 L1086.90 1187.79 L1087.02 749.08 L1087.02 1437.28 L1087.14 1503.61 L1087.27 1064.41 L1087.27 1541.23 L1087.52 923.45 L1087.89 1585.66 L1088.01 1262.41 L1088.63 1002.78 L1088.75 1080.62 L1088.75 1270.58 L1089.12 1524.77 L1089.37 1415.87 L1089.62 1292.86 L1090.48 1500.64 L1091.10 1634.79 L1091.10 1134.33 L1091.10 1216.62 L1091.47 1102.15 L1091.85 1502.62 L1092.22 1324.66 L1092.22 1299.42 L1092.22 1534.67 L1092.34 1260.19 L1092.46 1101.29 L1092.71 1510.42 L1092.96 1735.65 L1093.33 1474.77 L1093.46 1367.23 L1093.46 1397.80 L1093.46 1731.94 L1093.83 1211.80 L1095.19 1768.81 L1095.31 1626.99 L1096.30 1654.59 L1096.43 981.62 L1096.92 739.43 L1097.29 1319.34 L1097.42 1249.91 L1097.42 1132.22 L1097.79 1842.32 L1097.79 1304.86 L1097.91 1556.33 L1098.03 1238.03 L1098.28 1275.65 L1098.53 2068.79 L1098.53 757.62 L1099.02 1268.72 L1100.14 2043.05 L1100.26 1140.89 L1100.76 1288.90 L1101.00 1411.78 L1101.25 1170.96 L1101.25 1580.09 L1101.50 1559.67 L1101.62 1336.29 L1102.24 1508.93 L1102.74 1402.01 L1103.11 1367.60 L1103.36 1277.14 L1103.48 2135.99 L1104.10 1422.67 L1104.47 1574.89 L1104.59 1339.14 L1104.96 1878.83 L1105.21 1138.54 L1105.46 1502.37 L1105.58 1375.90 L1105.58 1460.42 L1106.33 1371.19 L1107.07 1279.49 L1107.56 1426.63 L1108.68 1429.11 L1109.05 823.09 L1109.17 1408.81 L1109.17 1461.66 L1109.54 1007.23 L1110.16 1029.01 L1110.29 1790.97 L1111.40 1665.11 L1111.65 1483.56 L1111.89 1536.90 L1112.02 1263.65 L1112.51 1383.20 L1113.01 1545.69 L1114.24 1442.72 L1114.37 899.57 L1115.98 1480.47 L1116.22 1412.65 L1116.22 1038.05 L1116.22 2178.81 L1116.84 1451.76 L1116.97 1333.94 L1117.21 1477.87 L1117.21 702.06 L1117.34 1500.76 L1117.46 1216.50 L1117.96 1170.71 L1118.21 1666.84 L1118.58 1840.10 L1119.07 1465.49 L1119.32 1517.84 L1119.81 1023.20 L1120.06 1054.51 L1120.43 1473.66 L1120.93 1075.54 L1121.05 1464.13 L1121.05 1270.83 L1121.55 985.33 L1122.17 1234.94 L1122.78 1373.67 L1122.78 1696.17 L1122.91 1364.39 L1123.65 1580.09 L1123.90 1299.66 L1124.02 1107.60 L1124.64 1657.31 L1125.26 1360.06 L1125.38 1337.78 L1125.38 1429.36 L1125.51 1117.50 L1125.63 1501.75 L1125.88 1218.60 L1126.37 1771.04 L1126.62 1502.62 L1126.87 1472.55 L1127.12 1116.01 L1127.61 1472.67 L1128.11 939.17 L1128.23 1264.89 L1129.10 1472.30 L1129.47 1006.99 L1129.47 1675.75 L1129.59 1479.72 L1129.84 1381.96 L1130.21 1609.42 L1130.33 1332.71 L1130.33 1264.02 L1130.46 1181.23 L1130.70 972.95 L1131.08 958.60 L1131.82 985.08 L1132.31 1926.72 L1132.56 1262.66 L1133.92 1915.83 L1134.17 1552.24 L1134.54 1612.14 L1134.79 1401.64 L1135.04 1546.55 L1135.04 1418.22 L1135.28 1635.65 L1135.41 1451.51 L1135.90 1491.36 L1135.90 1093.49 L1136.15 1880.69 L1136.15 1226.40 L1136.27 1886.26 L1136.40 1396.19 L1137.02 1170.22 L1137.26 769.75 L1137.39 1448.91 L1137.51 1039.66 L1137.76 1546.80 L1138.13 975.80 L1138.38 1163.91 L1139.37 1707.43 L1139.61 1348.55 L1140.11 1530.96 L1140.97 1463.14 L1141.22 1433.69 L1141.47 1518.58 L1141.47 1266.00 L1141.72 1326.89 L1141.84 1181.97 L1142.09 794.50 L1142.09 1860.76 L1142.34 1501.13 L1142.71 1258.95 L1142.83 1403.25 L1143.20 1286.55 L1143.57 1628.11 L1144.07 1108.46 L1144.32 1401.39 L1144.32 1063.66 L1144.44 1484.06 L1145.06 1123.56 L1145.18 1173.43 L1145.18 1493.96 L1146.05 1201.65 L1146.05 586.10 L1147.16 1150.04 L1147.29 1099.92 L1147.66 1695.06 L1148.03 1694.44 L1148.15 1123.69 L1148.15 1591.10 L1149.39 1399.04 L1150.63 1386.17 L1151.37 1529.85 L1151.37 1066.76 L1151.49 1181.73 L1151.62 1365.50 L1151.87 761.09 L1152.24 1554.84 L1152.48 1329.74 L1152.98 1365.50 L1153.23 1177.02 L1153.35 992.13 L1153.47 844.87 L1153.47 1491.11 L1154.34 1245.09 L1154.34 1367.73 L1154.84 1664.74 L1154.96 1592.59 L1155.45 979.26 L1155.83 1423.42 L1156.32 1068.61 L1156.57 1210.93 L1156.82 1331.34 L1156.94 935.70 L1157.06 1372.93 L1157.19 1100.05 L1157.43 1456.09 L1157.56 1621.55 L1157.56 1083.96 L1157.93 1082.35 L1158.05 1489.01 L1159.04 1379.36 L1159.66 1646.42 L1160.16 1535.79 L1160.16 1737.13 L1160.78 1260.68 L1161.27 988.42 L1161.27 1316.62 L1161.39 1549.52 L1162.14 849.57 L1162.63 1505.84 L1163.62 1345.08 L1163.62 1262.29 L1163.62 1766.59 L1163.74 1287.29 L1164.24 1338.15 L1164.73 1399.28 L1165.60 1708.42 L1165.97 1472.67 L1166.47 1390.13 L1166.59 1379.48 L1166.71 1356.84 L1166.96 1424.16 L1167.09 1162.79 L1167.21 1651.00 L1167.95 1419.21 L1168.70 1712.88 L1169.93 1237.17 L1170.06 1475.76 L1170.18 1175.91 L1170.30 1171.08 L1170.55 1505.71 L1170.92 1394.09 L1171.79 1244.10 L1171.91 814.55 L1174.26 1365.75 L1174.51 1205.49 L1174.64 1016.39 L1174.64 1055.99 L1174.64 1378.74 L1175.63 1244.72 L1175.87 1139.28 L1176.86 1320.70 L1176.86 1533.81 L1177.23 1893.43 L1177.36 1336.91 L1177.48 1340.50 L1177.98 1147.94 L1178.35 1978.33 L1179.59 1123.69 L1179.83 1459.43 L1180.20 1458.56 L1180.33 713.44 L1180.70 1434.93 L1181.57 1842.82 L1182.43 1444.58 L1182.68 1457.45 L1182.68 1588.88 L1182.80 1130.12 L1182.93 1392.73 L1183.30 1526.50 L1184.66 1154.50 L1184.78 1434.68 L1185.15 1405.97 L1185.40 798.46 L1186.27 1589.00 L1186.64 1371.69 L1186.76 1120.84 L1186.76 1545.07 L1187.01 1734.41 L1187.88 1420.08 L1187.88 1050.30 L1188.00 672.85 L1188.00 1843.56 L1188.12 1455.22 L1189.48 1289.39 L1189.73 1714.11 L1190.35 1282.83 L1190.72 1531.45 L1191.09 1622.78 L1192.46 1022.58 L1192.95 1181.60 L1193.20 1123.93 L1193.32 1062.30 L1193.57 1151.03 L1195.80 954.27 L1196.66 1307.71 L1197.28 900.80 L1198.15 1438.51 L1198.27 1055.37 L1198.64 1227.27 L1199.14 998.57 L1199.51 1702.85 L1199.76 1573.41 L1200.13 1513.39 L1200.75 1221.82 L1200.87 1194.97 L1200.99 1558.93 L1201.61 1586.15 L1201.86 1454.85 L1202.73 1418.47 L1202.85 1264.39 L1203.22 1363.64 L1203.22 1083.84 L1203.22 1379.61 L1204.09 1637.39 L1204.34 1050.18 L1204.58 1407.58 L1205.20 1488.76 L1205.20 1110.32 L1205.20 2090.33 L1205.45 1789.98 L1205.82 1419.58 L1205.82 1309.32 L1206.44 1344.21 L1206.93 862.44 L1207.55 1735.90 L1207.92 1235.93 L1208.42 1079.26 L1208.79 1770.42 L1209.29 1555.46 L1209.41 1218.48 L1209.41 786.83 L1210.15 909.47 L1210.40 1215.51 L1210.52 1308.33 L1211.14 1396.69 L1211.51 1142.87 L1211.51 1371.19 L1211.64 1389.88 L1211.76 1279.86 L1211.88 1160.07 L1212.13 1457.82 L1212.13 1282.09 L1214.61 798.83 L1215.47 1544.08 L1215.60 1567.71 L1217.08 1540.24 L1217.21 1220.58 L1217.82 1255.48 L1218.07 1868.68 L1218.81 1249.30 L1219.19 1552.37 L1219.19 1188.04 L1219.19 1266.13 L1220.05 1067.75 L1220.30 1041.02 L1220.92 1687.63 L1221.04 1453.61 L1221.66 1251.52 L1221.66 1005.50 L1221.66 1092.13 L1221.78 1242.61 L1222.03 1012.18 L1222.28 1220.21 L1222.77 1010.95 L1222.90 1170.71 L1223.76 1231.23 L1224.14 1485.91 L1224.51 1309.32 L1225.00 1087.55 L1225.50 985.33 L1226.86 1533.68 L1227.11 1495.19 L1227.60 1715.10 L1227.60 1274.29 L1227.60 1096.83 L1227.72 1571.92 L1228.22 1042.50 L1228.34 1514.50 L1228.71 975.92 L1228.71 1371.32 L1228.96 1681.69 L1229.09 1314.14 L1229.33 1364.51 L1230.45 1340.13 L1230.45 1172.57 L1230.57 1609.30 L1231.07 854.40 L1231.07 1314.51 L1231.44 1378.99 L1231.81 1553.23 L1232.55 1043.86 L1232.55 1645.68 L1232.80 1477.25 L1233.17 1207.34 L1233.66 1873.39 L1233.91 1207.10 L1234.90 1447.43 L1235.27 1363.03 L1235.77 1414.26 L1235.89 1120.59 L1236.51 1102.77 L1237.87 1711.76 L1238.86 1921.77 L1238.98 1194.84 L1239.11 1393.22 L1240.59 1287.04 L1240.72 1408.07 L1240.84 1669.93 L1240.96 1400.89 L1241.58 1282.21 L1241.71 1170.34 L1242.45 1530.22 L1242.70 1501.88 L1243.07 1333.32 L1243.44 1307.83 L1243.56 1392.23 L1245.54 1187.67 L1245.92 1506.58 L1246.91 1346.69 L1247.15 1595.93 L1247.40 1469.82 L1248.02 1249.91 L1248.02 1408.07 L1249.13 1072.20 L1249.50 1500.76 L1249.75 1488.51 L1250.37 1859.15 L1250.37 1133.71 L1250.49 1583.93 L1250.62 1588.63 L1250.99 1362.90 L1251.11 1470.07 L1251.24 1709.04 L1251.24 1633.18 L1251.48 867.76 L1251.98 1983.03 L1252.47 1224.42 L1252.47 860.21 L1252.47 1237.17 L1252.72 1211.80 L1253.09 994.11 L1253.22 1190.02 L1253.96 1259.57 L1254.21 1826.85 L1254.33 1436.53 L1254.83 1346.44 L1256.43 393.17 L1256.56 1151.16 L1257.18 1516.73 L1257.30 1148.81 L1258.17 1798.89 L1259.16 1294.34 L1259.53 1256.84 L1260.39 1239.89 L1260.52 1568.70 L1260.64 1204.00 L1261.14 729.28 L1261.88 1550.64 L1262.25 1162.54 L1265.22 1034.21 L1267.08 1232.34 L1267.20 1596.18 L1268.56 1852.10 L1268.93 1386.91 L1269.18 1335.43 L1269.43 1365.01 L1269.55 945.60 L1269.68 1325.65 L1270.54 1368.59 L1271.41 1093.12 L1272.03 1268.72 L1272.40 736.21 L1272.77 1316.62 L1273.14 1347.56 L1275.37 1356.84 L1276.36 1299.04 L1276.61 1068.12 L1276.73 1293.35 L1278.09 1616.60 L1279.70 1849.50 L1280.19 838.31 L1280.44 1745.30 L1280.57 1243.60 L1280.81 868.50 L1281.06 1140.02 L1281.18 1652.86 L1282.30 1420.32 L1282.42 1454.60 L1282.79 1448.04 L1283.29 1316.99 L1284.53 1823.76 L1284.53 1293.97 L1284.77 1654.71 L1285.52 1516.97 L1289.72 1292.11 L1291.58 1409.31 L1291.70 980.01 L1292.69 1480.34 L1293.06 1493.46 L1293.81 1528.98 L1293.93 1449.16 L1294.05 1797.90 L1294.18 1137.67 L1295.54 1452.87 L1296.16 919.24 L1296.78 1091.26 L1298.14 766.41 L1300.24 1226.28 L1300.61 1411.04 L1300.86 1263.28 L1302.47 1253.50 L1302.84 1442.23 L1303.09 1152.40 L1303.21 1366.37 L1303.95 1011.56 L1304.33 1430.84 L1304.82 1142.74 L1305.07 1195.96 L1305.19 1634.66 L1305.81 1506.95 L1306.80 1152.40 L1306.80 957.85 L1307.54 1390.87 L1307.67 1309.56 L1307.91 1778.71 L1309.28 1422.92 L1310.39 1631.57 L1310.64 1524.40 L1312.86 1367.60 L1313.98 1469.21 L1314.97 1132.97 L1315.09 1069.36 L1315.09 1232.46 L1315.22 1361.66 L1315.59 1179.50 L1316.21 993.99 L1316.33 1036.93 L1316.58 1470.07 L1316.70 1327.01 L1317.07 838.31 L1317.20 1396.31 L1318.68 1069.11 L1318.68 1720.18 L1319.79 1352.51 L1320.04 1443.59 L1320.29 1105.74 L1321.16 1144.97 L1321.28 1272.07 L1324.50 1175.29 L1325.24 1008.10 L1325.36 1340.13 L1326.11 1050.67 L1326.85 734.23 L1327.96 1095.96 L1329.32 1448.17 L1330.07 1215.39 L1330.07 1527.62 L1330.56 1532.20 L1330.68 1523.41 L1331.30 1340.87 L1331.80 1226.28 L1335.76 1145.84 L1336.25 985.95 L1336.38 1518.58 L1336.62 1136.43 L1337.37 1653.97 L1337.86 1211.30 L1338.11 1180.98 L1338.48 1384.19 L1339.10 993.12 L1339.47 1172.07 L1340.46 1281.84 L1341.45 1100.67 L1341.70 1348.92 L1343.68 1451.51 L1344.17 1198.31 L1344.54 1069.48 L1344.67 725.82 L1344.67 1257.34 L1344.67 1822.15 L1345.53 1221.95 L1345.66 1525.76 L1346.52 1433.19 L1346.65 1168.98 L1347.02 986.81 L1347.27 1563.88 L1347.27 1229.37 L1347.64 1375.77 L1348.13 1505.09 L1348.13 1275.90 L1348.50 1135.94 L1349.37 1535.91 L1350.61 779.03 L1352.96 1505.47 L1353.21 1025.80 L1354.57 1068.86 L1354.82 1365.62 L1355.81 1190.51 L1358.03 1119.72 L1358.28 1588.01 L1359.39 1320.70 L1359.39 1251.15 L1360.38 1118.36 L1364.22 1503.61 L1365.21 1307.95 L1365.58 863.68 L1368.92 1179.87 L1369.29 1220.83 L1369.79 1127.27 L1370.90 1248.43 L1371.15 1188.66 L1372.88 1295.95 L1373.38 1753.10 L1374.12 1334.07 L1374.86 1338.77 L1376.35 1399.78 L1376.60 1088.17 L1377.46 1595.68 L1377.96 1087.30 L1378.20 1098.69 L1378.70 1498.16 L1379.32 1923.01 L1379.69 1353.74 L1379.81 1479.72 L1380.43 1040.03 L1380.68 1737.75 L1381.67 1675.38 L1382.16 1224.30 L1383.90 1177.64 L1385.01 1581.95 L1385.01 1452.62 L1386.87 818.01 L1387.49 1432.20 L1387.61 1421.44 L1387.98 931.37 L1388.10 1156.23 L1388.60 1528.11 L1390.46 1040.03 L1390.58 1243.23 L1391.07 1176.03 L1391.82 1151.90 L1392.06 1409.80 L1392.06 1441.49 L1393.67 1584.30 L1393.80 1182.22 L1394.29 1060.57 L1394.42 1153.01 L1394.42 1496.80 L1397.51 1060.57 L1398.13 1797.03 L1400.23 1158.34 L1400.23 739.18 L1401.35 1258.21 L1402.34 1522.05 L1402.83 1276.89 L1403.45 1351.27 L1404.19 1006.24 L1404.56 1118.73 L1404.69 1460.05 L1405.43 854.52 L1407.04 964.66 L1407.16 1361.05 L1407.16 1676.99 L1407.29 1202.02 L1408.15 1164.52 L1408.89 1458.44 L1408.89 856.75 L1411.12 1300.16 L1411.37 1161.93 L1412.11 1466.11 L1412.48 1236.92 L1412.85 1403.74 L1413.47 1270.70 L1413.84 1416.24 L1414.59 993.25 L1416.32 1062.43 L1419.04 1201.28 L1419.91 985.58 L1420.16 1421.68 L1421.89 1418.96 L1422.51 1275.65 L1422.75 1311.91 L1423.62 1678.60 L1426.96 1143.86 L1429.19 1177.64 L1429.68 1081.61 L1430.18 916.15 L1430.43 1365.62 L1431.54 1007.85 L1434.63 1676.86 L1434.76 1142.12 L1435.25 1053.15 L1436.86 1555.96 L1436.86 858.11 L1437.73 1444.83 L1439.09 1179.50 L1439.83 1262.29 L1440.08 1344.83 L1441.32 747.47 L1441.94 1453.49 L1442.18 1098.81 L1442.31 1573.16 L1445.40 1356.22 L1445.90 1076.66 L1446.14 1811.01 L1446.14 1134.08 L1446.64 1149.30 L1446.76 1340.87 L1447.01 1610.53 L1448.62 1760.28 L1449.11 1495.94 L1451.59 1226.77 L1452.83 1263.40 L1453.07 1364.39 L1453.57 604.04 L1453.57 1254.12 L1454.43 1266.25 L1454.81 1012.68 L1454.93 1563.63 L1455.80 1236.67 L1456.91 998.82 L1457.28 954.39 L1457.40 1366.37 L1460.13 1423.17 L1461.86 1274.54 L1463.22 1353.37 L1464.58 1449.16 L1466.93 1030.87 L1467.43 1183.95 L1467.80 1326.77 L1468.29 1221.08 L1468.79 1177.27 L1469.04 1077.15 L1469.53 1816.95 L1472.38 1370.70 L1475.60 1281.22 L1475.84 1683.80 L1477.33 1278.75 L1477.58 704.04 L1478.19 1159.20 L1480.42 1413.02 L1481.91 1152.40 L1483.52 1420.57 L1483.76 1268.85 L1484.38 1845.54 L1484.63 1049.31 L1486.49 889.05 L1486.73 1113.78 L1486.98 1377.75 L1488.09 1364.14 L1490.20 831.25 L1491.44 1301.89 L1495.02 1791.21 L1495.52 1499.28 L1497.99 1000.06 L1498.24 1370.95 L1499.60 1368.35 L1502.08 1803.84 L1504.92 1565.36 L1505.05 776.80 L1506.04 1484.92 L1508.14 1166.13 L1510.25 1386.29 L1510.99 1276.77 L1510.99 1596.42 L1513.22 1277.26 L1514.58 1075.30 L1514.95 895.24 L1515.94 823.46 L1517.18 1281.10 L1518.04 1529.35 L1518.04 1707.31 L1519.16 873.70 L1520.89 1460.91 L1521.75 1216.50 L1522.74 935.70 L1524.35 1749.76 L1525.96 1047.33 L1526.70 2308.88 L1528.93 1492.47 L1530.05 1276.89 L1531.41 1569.45 L1531.65 801.31 L1532.64 1365.25 L1535.00 1612.76 L1535.86 1150.79 L1536.60 523.11 L1537.22 1273.30 L1537.72 1022.21 L1539.33 1600.88 L1540.07 1411.78 L1544.65 844.87 L1544.90 1482.94 L1545.76 1290.75 L1548.24 1494.70 L1548.24 875.56 L1552.57 1448.42 L1553.81 1016.64 L1554.18 949.44 L1554.55 884.47 L1558.88 1016.02 L1562.84 730.64 L1567.17 1204.62 L1567.29 1364.51 L1568.90 1508.31 L1569.40 1557.94 L1572.12 960.70 L1574.72 1534.05 L1575.34 1377.38 L1575.96 1363.89 L1578.06 983.60 L1578.68 1133.21 L1579.05 1663.50 L1583.75 1403.49 L1585.11 1030.99 L1585.36 1207.96 L1588.21 868.26 L1590.68 1414.26 L1590.68 989.41 L1591.43 832.62 L1592.42 1423.05 L1594.52 1202.52 L1596.38 972.33 L1597.74 1218.85 L1600.58 1278.25 L1601.20 1542.34 L1601.70 1495.44 L1604.17 1435.92 L1607.51 1109.33 L1609.00 950.06 L1610.85 1219.84 L1611.47 1313.40 L1612.83 1309.19 L1613.95 1295.70 L1617.66 1314.14 L1620.01 1181.35 L1620.14 1014.78 L1622.86 1426.02 L1623.97 883.36 L1624.71 1022.08 L1626.82 1135.81 L1628.92 1025.42 L1634.24 1253.38 L1636.22 831.01 L1639.81 1520.94 L1639.94 1707.06 L1641.30 1321.07 L1646.62 1322.19 L1647.98 1104.38 L1649.59 1378.62 L1650.45 1223.43 L1652.31 1154.50 L1653.55 1059.70 L1654.17 1162.79 L1654.41 1511.03 L1656.02 1292.73 L1656.39 965.53 L1660.48 961.20 L1661.34 1274.17 L1661.84 935.95 L1663.94 1356.34 L1664.69 920.23 L1667.66 1159.08 L1671.37 1063.42 L1673.22 1181.23 L1675.45 863.93 L1678.42 964.04 L1680.53 1713.50 L1683.25 1271.57 L1684.36 1171.33 L1687.21 1404.11 L1689.19 1239.64 L1691.91 957.98 L1692.16 1050.92 L1696.98 1531.58 L1702.06 1082.97 L1702.18 1455.72 L1702.55 975.43 L1704.78 708.37 L1705.89 915.41 L1714.06 801.55 L1714.56 1404.98 L1719.51 1439.38 L1720.37 1292.36 L1720.87 938.67 L1723.96 1033.47 L1729.16 1141.38 L1730.03 1483.44 L1733.00 1236.18 L1734.60 1120.47 L1734.98 1188.16 L1736.58 1102.15 L1738.19 920.98 L1745.12 1089.78 L1747.72 1454.23 L1749.45 989.54 L1753.29 1241.87 L1753.79 1138.41 L1754.03 1118.73 L1764.55 1105.00 L1767.89 1243.23 L1768.14 1572.54 L1768.88 1147.57 L1769.13 972.46 L1769.87 1129.13 L1775.19 842.76 L1778.66 950.68 L1779.28 1292.73 L1784.35 1337.41 L1786.08 1097.82 L1788.31 1124.92 L1789.80 1117.50 L1791.03 1509.05 L1793.51 1460.67 L1794.99 1106.73 L1803.90 1132.35 L1803.90 1167.99 L1807.74 1456.21 L1807.99 1183.09 L1809.23 749.33 L1809.72 1505.71 L1810.22 747.10 L1815.41 1107.97 L1819.00 952.66 L1825.31 1197.32 L1829.89 1053.89 L1833.85 1166.13 L1840.53 897.09 L1840.66 968.13 L1841.52 1219.22 L1844.37 793.26 L1848.45 1061.07 L1853.78 1196.95 L1857.98 941.77 L1861.70 1130.62 L1864.42 1148.81 L1872.59 1389.51 L1880.13 1136.06 L1885.21 1348.42 L1886.07 1305.60 L1890.78 1486.78 L1925.18 1178.88 L1925.30 1387.90 L1928.40 911.82 L1931.74 1146.70 L1932.36 1224.67 L1937.43 950.55 L1940.28 1359.31 L1942.88 895.85 L1943.49 1026.41 L1954.51 862.94 L1955.99 1306.96 L1959.83 1082.23 L1964.66 1144.23 L1969.23 1318.47 L1972.58 1007.85 L1975.17 465.69 L1975.67 1386.04 L1985.20 776.68 L1987.05 1187.42 L1989.28 1025.55 L1990.40 868.26 L1992.62 1160.44 L1996.46 1136.06 L2000.79 1266.74 L2001.29 880.14 L2005.25 1348.79 L2009.58 1193.11 L2023.68 1050.18 L2038.66 1125.05 L2045.09 661.46 L2048.56 794.50 L2053.38 988.05 L2056.48 1003.89 L2080.49 1226.28 L2081.97 1234.57 L2085.19 1154.50 L2087.79 542.41 L2091.25 620.38 L2094.84 867.76 L2125.65 1447.55 L2139.14 835.59 L2141.99 728.91 L2148.18 1023.07 L2151.02 977.53 L2156.59 1333.82 L2176.39 1161.55 L2183.45 1065.03 L2188.15 984.21 L2202.50 1127.89 L2206.22 1084.21 L2208.07 1256.60 L2211.54 1030.37 L2231.71 989.78 L2237.28 981.37 L2238.27 702.92 L2243.84 1016.14 L2246.19 1157.47 L2269.20 1114.40 L2295.56 631.76 L2326.13 1155.61 L2326.38 655.03 L2327.86 935.21 L2343.08 819.99 L2366.10 860.71 L2416.09 1306.22 L2419.93 982.48 L2436.89 920.85 L2467.20 1206.35 L2504.45 440.94 L2579.57 1068.12 L2585.39 1067.25 L2622.39 729.16 L2662.48 874.82 L2689.34 562.96 L2725.10 1024.93 L2744.65 992.75 L2869.64 1016.51 L2932.88 199.00 L3037.07 1034.95 L3073.33 690.55 L3089.17 384.38 L3795.66 473.85" stroke-linejoin="round" style="fill:none;stroke:#1A476F;stroke-width:8.64"/>
	<line x1="390.80" y1="2489.19" x2="390.80" y2="100.86" style="stroke:#000000;stroke-width:5.76"/>
	<line x1="390.80" y1="2205.42" x2="350.83" y2="2205.42" style="stroke:#000000;stroke-width:5.76"/>
	<text x="300.72" y="2205.42" style="font-family:'Helvetica';font-size:99.99px;fill:#000000" transform="rotate(-90 300.72,2205.42)" text-anchor="middle">-2</text>
	<line x1="390.80" y1="1695.06" x2="350.83" y2="1695.06" style="stroke:#000000;stroke-width:5.76"/>
	<text x="300.72" y="1695.06" style="font-family:'Helvetica';font-size:99.99px;fill:#000000" transform="rotate(-90 300.72,1695.06)" text-anchor="middle">0</text>
	<line x1="390.80" y1="1184.82" x2="350.83" y2="1184.82" style="stroke:#000000;stroke-width:5.76"/>
	<text x="300.72" y="1184.82" style="font-family:'Helvetica';font-size:99.99px;fill:#000000" transform="rotate(-90 300.72,1184.82)" text-anchor="middle">2</text>
	<line x1="390.80" y1="674.46" x2="350.83" y2="674.46" style="stroke:#000000;stroke-width:5.76"/>
	<text x="300.72" y="674.46" style="font-family:'Helvetica';font-size:99.99px;fill:#000000" transform="rotate(-90 300.72,674.46)" text-anchor="middle">4</text>
	<line x1="390.80" y1="164.22" x2="350.83" y2="164.22" style="stroke:#000000;stroke-width:5.76"/>
	<text x="300.72" y="164.22" style="font-family:'Helvetica';font-size:99.99px;fill:#000000" transform="rotate(-90 300.72,164.22)" text-anchor="middle">6</text>
	<text x="190.71" y="1294.96" style="font-family:'Helvetica';font-size:99.99px;fill:#000000" transform="rotate(-90 190.71,1294.96)" text-anchor="middle">y1</text>
	<line x1="390.80" y1="2489.19" x2="3859.02" y2="2489.19" style="stroke:#000000;stroke-width:5.76"/>
	<line x1="454.16" y1="2489.19" x2="454.16" y2="2529.16" style="stroke:#000000;stroke-width:5.76"/>
	<text x="454.16" y="2619.14" style="font-family:'Helvetica';font-size:99.99px;fill:#000000" text-anchor="middle">0</text>
	<line x1="1093.08" y1="2489.19" x2="1093.08" y2="2529.16" style="stroke:#000000;stroke-width:5.76"/>
	<text x="1093.08" y="2619.14" style="font-family:'Helvetica';font-size:99.99px;fill:#000000" text-anchor="middle">2</text>
	<line x1="1732.13" y1="2489.19" x2="1732.13" y2="2529.16" style="stroke:#000000;stroke-width:5.76"/>
	<text x="1732.13" y="2619.14" style="font-family:'Helvetica';font-size:99.99px;fill:#000000" text-anchor="middle">4</text>
	<line x1="2371.05" y1="2489.19" x2="2371.05" y2="2529.16" style="stroke:#000000;stroke-width:5.76"/>
	<text x="2371.05" y="2619.14" style="font-family:'Helvetica';font-size:99.99px;fill:#000000" text-anchor="middle">6</text>
	<line x1="3010.10" y1="2489.19" x2="3010.10" y2="2529.16" style="stroke:#000000;stroke-width:5.76"/>
	<text x="3010.10" y="2619.14" style="font-family:'Helvetica';font-size:99.99px;fill:#000000" text-anchor="middle">8</text>
	<line x1="3649.02" y1="2489.19" x2="3649.02" y2="2529.16" style="stroke:#000000;stroke-width:5.76"/>
	<text x="3649.02" y="2619.14" style="font-family:'Helvetica';font-size:99.99px;fill:#000000" text-anchor="middle">10</text>
	<text x="2124.91" y="2729.16" style="font-family:'Helvetica';font-size:99.99px;fill:#000000" text-anchor="middle">x</text>
</svg>
