<?xml version="1.0" encoding="UTF-8" standalone="no"?>
<!-- This is a Stata 18.5 generated SVG file (http://www.stata.com) -->

<svg version="1.1" width="7.500in" height="4.500in" viewBox="0 0 5400 3240" xmlns="http://www.w3.org/2000/svg" xmlns:xlink="http://www.w3.org/1999/xlink">
	<desc>Stata Graph - Graph</desc>
	<rect x="0" y="0" width="5400" height="3240" style="fill:#FFFFFF;stroke:none"/>
	<rect x="0.00" y="0.00" width="5400.00" height="3240.00" style="fill:#FFFFFF"/>
	<rect x="3.24" y="3.24" width="5393.52" height="3233.52" style="fill:none;stroke:#FFFFFF;stroke-width:6.48"/>
	<rect x="557.89" y="113.40" width="4728.71" height="2365.71" style="fill:#FFFFFF"/>
	<rect x="561.13" y="116.64" width="4722.23" height="2359.23" style="fill:none;stroke:#FFFFFF;stroke-width:6.48"/>
	<line x1="557.89" y1="2407.89" x2="622.69" y2="2407.89" style="stroke:#F0F0F0;stroke-width:9.72"/>
	<line x1="655.09" y1="2407.89" x2="719.89" y2="2407.89" style="stroke:#F0F0F0;stroke-width:9.72"/>
	<line x1="752.29" y1="2407.89" x2="817.09" y2="2407.89" style="stroke:#F0F0F0;stroke-width:9.72"/>
	<line x1="849.49" y1="2407.89" x2="914.29" y2="2407.89" style="stroke:#F0F0F0;stroke-width:9.72"/>
	<line x1="946.69" y1="2407.89" x2="1011.49" y2="2407.89" style="stroke:#F0F0F0;stroke-width:9.72"/>
	<line x1="1043.89" y1="2407.89" x2="1108.69" y2="2407.89" style="stroke:#F0F0F0;stroke-width:9.72"/>
	<line x1="1141.09" y1="2407.89" x2="1205.89" y2="2407.89" style="stroke:#F0F0F0;stroke-width:9.72"/>
	<line x1="1238.29" y1="2407.89" x2="1303.09" y2="2407.89" style="stroke:#F0F0F0;stroke-width:9.72"/>
	<line x1="1335.49" y1="2407.89" x2="1400.29" y2="2407.89" style="stroke:#F0F0F0;stroke-width:9.72"/>
	<line x1="1432.69" y1="2407.89" x2="1497.49" y2="2407.89" style="stroke:#F0F0F0;stroke-width:9.72"/>
	<line x1="1529.89" y1="2407.89" x2="1594.69" y2="2407.89" style="stroke:#F0F0F0;stroke-width:9.72"/>
	<line x1="1627.09" y1="2407.89" x2="1691.89" y2="2407.89" style="stroke:#F0F0F0;stroke-width:9.72"/>
	<line x1="1724.29" y1="2407.89" x2="1789.09" y2="2407.89" style="stroke:#F0F0F0;stroke-width:9.72"/>
	<line x1="1821.49" y1="2407.89" x2="1886.29" y2="2407.89" style="stroke:#F0F0F0;stroke-width:9.72"/>
	<line x1="1918.69" y1="2407.89" x2="1983.49" y2="2407.89" style="stroke:#F0F0F0;stroke-width:9.72"/>
	<line x1="2015.89" y1="2407.89" x2="2080.69" y2="2407.89" style="stroke:#F0F0F0;stroke-width:9.72"/>
	<line x1="2113.09" y1="2407.89" x2="2177.89" y2="2407.89" style="stroke:#F0F0F0;stroke-width:9.72"/>
	<line x1="2210.29" y1="2407.89" x2="2275.09" y2="2407.89" style="stroke:#F0F0F0;stroke-width:9.72"/>
	<line x1="2307.49" y1="2407.89" x2="2372.29" y2="2407.89" style="stroke:#F0F0F0;stroke-width:9.72"/>
	<line x1="2404.69" y1="2407.89" x2="2469.49" y2="2407.89" style="stroke:#F0F0F0;stroke-width:9.72"/>
	<line x1="2501.89" y1="2407.89" x2="2566.69" y2="2407.89" style="stroke:#F0F0F0;stroke-width:9.72"/>
	<line x1="2599.09" y1="2407.89" x2="2663.89" y2="2407.89" style="stroke:#F0F0F0;stroke-width:9.72"/>
	<line x1="2696.29" y1="2407.89" x2="2761.09" y2="2407.89" style="stroke:#F0F0F0;stroke-width:9.72"/>
	<line x1="2793.49" y1="2407.89" x2="2858.29" y2="2407.89" style="stroke:#F0F0F0;stroke-width:9.72"/>
	<line x1="2890.69" y1="2407.89" x2="2955.49" y2="2407.89" style="stroke:#F0F0F0;stroke-width:9.72"/>
	<line x1="2987.89" y1="2407.89" x2="3052.69" y2="2407.89" style="stroke:#F0F0F0;stroke-width:9.72"/>
	<line x1="3085.09" y1="2407.89" x2="3149.89" y2="2407.89" style="stroke:#F0F0F0;stroke-width:9.72"/>
	<line x1="3182.29" y1="2407.89" x2="3247.09" y2="2407.89" style="stroke:#F0F0F0;stroke-width:9.72"/>
	<line x1="3279.49" y1="2407.89" x2="3344.29" y2="2407.89" style="stroke:#F0F0F0;stroke-width:9.72"/>
	<line x1="3376.69" y1="2407.89" x2="3441.49" y2="2407.89" style="stroke:#F0F0F0;stroke-width:9.72"/>
	<line x1="3473.89" y1="2407.89" x2="3538.69" y2="2407.89" style="stroke:#F0F0F0;stroke-width:9.72"/>
	<line x1="3571.09" y1="2407.89" x2="3635.89" y2="2407.89" style="stroke:#F0F0F0;stroke-width:9.72"/>
	<line x1="3668.29" y1="2407.89" x2="3733.09" y2="2407.89" style="stroke:#F0F0F0;stroke-width:9.72"/>
	<line x1="3765.49" y1="2407.89" x2="3830.29" y2="2407.89" style="stroke:#F0F0F0;stroke-width:9.72"/>
	<line x1="3862.69" y1="2407.89" x2="3927.49" y2="2407.89" style="stroke:#F0F0F0;stroke-width:9.72"/>
	<line x1="3959.89" y1="2407.89" x2="4024.69" y2="2407.89" style="stroke:#F0F0F0;stroke-width:9.72"/>
	<line x1="4057.09" y1="2407.89" x2="4121.89" y2="2407.89" style="stroke:#F0F0F0;stroke-width:9.72"/>
	<line x1="4154.29" y1="2407.89" x2="4219.09" y2="2407.89" style="stroke:#F0F0F0;stroke-width:9.72"/>
	<line x1="4251.49" y1="2407.89" x2="4316.29" y2="2407.89" style="stroke:#F0F0F0;stroke-width:9.72"/>
	<line x1="4348.69" y1="2407.89" x2="4413.49" y2="2407.89" style="stroke:#F0F0F0;stroke-width:9.72"/>
	<line x1="4445.89" y1="2407.89" x2="4510.69" y2="2407.89" style="stroke:#F0F0F0;stroke-width:9.72"/>
	<line x1="4543.09" y1="2407.89" x2="4607.89" y2="2407.89" style="stroke:#F0F0F0;stroke-width:9.72"/>
	<line x1="4640.29" y1="2407.89" x2="4705.09" y2="2407.89" style="stroke:#F0F0F0;stroke-width:9.72"/>
	<line x1="4737.49" y1="2407.89" x2="4802.29" y2="2407.89" style="stroke:#F0F0F0;stroke-width:9.72"/>
	<line x1="4834.69" y1="2407.89" x2="4899.49" y2="2407.89" style="stroke:#F0F0F0;stroke-width:9.72"/>
	<line x1="4931.89" y1="2407.89" x2="4996.69" y2="2407.89" style="stroke:#F0F0F0;stroke-width:9.72"/>
	<line x1="5029.09" y1="2407.89" x2="5093.89" y2="2407.89" style="stroke:#F0F0F0;stroke-width:9.72"/>
	<line x1="5126.29" y1="2407.89" x2="5191.09" y2="2407.89" style="stroke:#F0F0F0;stroke-width:9.72"/>
	<line x1="5223.49" y1="2407.89" x2="5286.60" y2="2407.89" style="stroke:#F0F0F0;stroke-width:9.72"/>
	<line x1="557.89" y1="1852.03" x2="622.69" y2="1852.03" style="stroke:#F0F0F0;stroke-width:9.72"/>
	<line x1="655.09" y1="1852.03" x2="719.89" y2="1852.03" style="stroke:#F0F0F0;stroke-width:9.72"/>
	<line x1="752.29" y1="1852.03" x2="817.09" y2="1852.03" style="stroke:#F0F0F0;stroke-width:9.72"/>
	<line x1="849.49" y1="1852.03" x2="914.29" y2="1852.03" style="stroke:#F0F0F0;stroke-width:9.72"/>
	<line x1="946.69" y1="1852.03" x2="1011.49" y2="1852.03" style="stroke:#F0F0F0;stroke-width:9.72"/>
	<line x1="1043.89" y1="1852.03" x2="1108.69" y2="1852.03" style="stroke:#F0F0F0;stroke-width:9.72"/>
	<line x1="1141.09" y1="1852.03" x2="1205.89" y2="1852.03" style="stroke:#F0F0F0;stroke-width:9.72"/>
	<line x1="1238.29" y1="1852.03" x2="1303.09" y2="1852.03" style="stroke:#F0F0F0;stroke-width:9.72"/>
	<line x1="1335.49" y1="1852.03" x2="1400.29" y2="1852.03" style="stroke:#F0F0F0;stroke-width:9.72"/>
	<line x1="1432.69" y1="1852.03" x2="1497.49" y2="1852.03" style="stroke:#F0F0F0;stroke-width:9.72"/>
	<line x1="1529.89" y1="1852.03" x2="1594.69" y2="1852.03" style="stroke:#F0F0F0;stroke-width:9.72"/>
	<line x1="1627.09" y1="1852.03" x2="1691.89" y2="1852.03" style="stroke:#F0F0F0;stroke-width:9.72"/>
	<line x1="1724.29" y1="1852.03" x2="1789.09" y2="1852.03" style="stroke:#F0F0F0;stroke-width:9.72"/>
	<line x1="1821.49" y1="1852.03" x2="1886.29" y2="1852.03" style="stroke:#F0F0F0;stroke-width:9.72"/>
	<line x1="1918.69" y1="1852.03" x2="1983.49" y2="1852.03" style="stroke:#F0F0F0;stroke-width:9.72"/>
	<line x1="2015.89" y1="1852.03" x2="2080.69" y2="1852.03" style="stroke:#F0F0F0;stroke-width:9.72"/>
	<line x1="2113.09" y1="1852.03" x2="2177.89" y2="1852.03" style="stroke:#F0F0F0;stroke-width:9.72"/>
	<line x1="2210.29" y1="1852.03" x2="2275.09" y2="1852.03" style="stroke:#F0F0F0;stroke-width:9.72"/>
	<line x1="2307.49" y1="1852.03" x2="2372.29" y2="1852.03" style="stroke:#F0F0F0;stroke-width:9.72"/>
	<line x1="2404.69" y1="1852.03" x2="2469.49" y2="1852.03" style="stroke:#F0F0F0;stroke-width:9.72"/>
	<line x1="2501.89" y1="1852.03" x2="2566.69" y2="1852.03" style="stroke:#F0F0F0;stroke-width:9.72"/>
	<line x1="2599.09" y1="1852.03" x2="2663.89" y2="1852.03" style="stroke:#F0F0F0;stroke-width:9.72"/>
	<line x1="2696.29" y1="1852.03" x2="2761.09" y2="1852.03" style="stroke:#F0F0F0;stroke-width:9.72"/>
	<line x1="2793.49" y1="1852.03" x2="2858.29" y2="1852.03" style="stroke:#F0F0F0;stroke-width:9.72"/>
	<line x1="2890.69" y1="1852.03" x2="2955.49" y2="1852.03" style="stroke:#F0F0F0;stroke-width:9.72"/>
	<line x1="2987.89" y1="1852.03" x2="3052.69" y2="1852.03" style="stroke:#F0F0F0;stroke-width:9.72"/>
	<line x1="3085.09" y1="1852.03" x2="3149.89" y2="1852.03" style="stroke:#F0F0F0;stroke-width:9.72"/>
	<line x1="3182.29" y1="1852.03" x2="3247.09" y2="1852.03" style="stroke:#F0F0F0;stroke-width:9.72"/>
	<line x1="3279.49" y1="1852.03" x2="3344.29" y2="1852.03" style="stroke:#F0F0F0;stroke-width:9.72"/>
	<line x1="3376.69" y1="1852.03" x2="3441.49" y2="1852.03" style="stroke:#F0F0F0;stroke-width:9.72"/>
	<line x1="3473.89" y1="1852.03" x2="3538.69" y2="1852.03" style="stroke:#F0F0F0;stroke-width:9.72"/>
	<line x1="3571.09" y1="1852.03" x2="3635.89" y2="1852.03" style="stroke:#F0F0F0;stroke-width:9.72"/>
	<line x1="3668.29" y1="1852.03" x2="3733.09" y2="1852.03" style="stroke:#F0F0F0;stroke-width:9.72"/>
	<line x1="3765.49" y1="1852.03" x2="3830.29" y2="1852.03" style="stroke:#F0F0F0;stroke-width:9.72"/>
	<line x1="3862.69" y1="1852.03" x2="3927.49" y2="1852.03" style="stroke:#F0F0F0;stroke-width:9.72"/>
	<line x1="3959.89" y1="1852.03" x2="4024.69" y2="1852.03" style="stroke:#F0F0F0;stroke-width:9.72"/>
	<line x1="4057.09" y1="1852.03" x2="4121.89" y2="1852.03" style="stroke:#F0F0F0;stroke-width:9.72"/>
	<line x1="4154.29" y1="1852.03" x2="4219.09" y2="1852.03" style="stroke:#F0F0F0;stroke-width:9.72"/>
	<line x1="4251.49" y1="1852.03" x2="4316.29" y2="1852.03" style="stroke:#F0F0F0;stroke-width:9.72"/>
	<line x1="4348.69" y1="1852.03" x2="4413.49" y2="1852.03" style="stroke:#F0F0F0;stroke-width:9.72"/>
	<line x1="4445.89" y1="1852.03" x2="4510.69" y2="1852.03" style="stroke:#F0F0F0;stroke-width:9.72"/>
	<line x1="4543.09" y1="1852.03" x2="4607.89" y2="1852.03" style="stroke:#F0F0F0;stroke-width:9.72"/>
	<line x1="4640.29" y1="1852.03" x2="4705.09" y2="1852.03" style="stroke:#F0F0F0;stroke-width:9.72"/>
	<line x1="4737.49" y1="1852.03" x2="4802.29" y2="1852.03" style="stroke:#F0F0F0;stroke-width:9.72"/>
	<line x1="4834.69" y1="1852.03" x2="4899.49" y2="1852.03" style="stroke:#F0F0F0;stroke-width:9.72"/>
	<line x1="4931.89" y1="1852.03" x2="4996.69" y2="1852.03" style="stroke:#F0F0F0;stroke-width:9.72"/>
	<line x1="5029.09" y1="1852.03" x2="5093.89" y2="1852.03" style="stroke:#F0F0F0;stroke-width:9.72"/>
	<line x1="5126.29" y1="1852.03" x2="5191.09" y2="1852.03" style="stroke:#F0F0F0;stroke-width:9.72"/>
	<line x1="5223.49" y1="1852.03" x2="5286.60" y2="1852.03" style="stroke:#F0F0F0;stroke-width:9.72"/>
	<line x1="557.89" y1="1296.34" x2="622.69" y2="1296.34" style="stroke:#F0F0F0;stroke-width:9.72"/>
	<line x1="655.09" y1="1296.34" x2="719.89" y2="1296.34" style="stroke:#F0F0F0;stroke-width:9.72"/>
	<line x1="752.29" y1="1296.34" x2="817.09" y2="1296.34" style="stroke:#F0F0F0;stroke-width:9.72"/>
	<line x1="849.49" y1="1296.34" x2="914.29" y2="1296.34" style="stroke:#F0F0F0;stroke-width:9.72"/>
	<line x1="946.69" y1="1296.34" x2="1011.49" y2="1296.34" style="stroke:#F0F0F0;stroke-width:9.72"/>
	<line x1="1043.89" y1="1296.34" x2="1108.69" y2="1296.34" style="stroke:#F0F0F0;stroke-width:9.72"/>
	<line x1="1141.09" y1="1296.34" x2="1205.89" y2="1296.34" style="stroke:#F0F0F0;stroke-width:9.72"/>
	<line x1="1238.29" y1="1296.34" x2="1303.09" y2="1296.34" style="stroke:#F0F0F0;stroke-width:9.72"/>
	<line x1="1335.49" y1="1296.34" x2="1400.29" y2="1296.34" style="stroke:#F0F0F0;stroke-width:9.72"/>
	<line x1="1432.69" y1="1296.34" x2="1497.49" y2="1296.34" style="stroke:#F0F0F0;stroke-width:9.72"/>
	<line x1="1529.89" y1="1296.34" x2="1594.69" y2="1296.34" style="stroke:#F0F0F0;stroke-width:9.72"/>
	<line x1="1627.09" y1="1296.34" x2="1691.89" y2="1296.34" style="stroke:#F0F0F0;stroke-width:9.72"/>
	<line x1="1724.29" y1="1296.34" x2="1789.09" y2="1296.34" style="stroke:#F0F0F0;stroke-width:9.72"/>
	<line x1="1821.49" y1="1296.34" x2="1886.29" y2="1296.34" style="stroke:#F0F0F0;stroke-width:9.72"/>
	<line x1="1918.69" y1="1296.34" x2="1983.49" y2="1296.34" style="stroke:#F0F0F0;stroke-width:9.72"/>
	<line x1="2015.89" y1="1296.34" x2="2080.69" y2="1296.34" style="stroke:#F0F0F0;stroke-width:9.72"/>
	<line x1="2113.09" y1="1296.34" x2="2177.89" y2="1296.34" style="stroke:#F0F0F0;stroke-width:9.72"/>
	<line x1="2210.29" y1="1296.34" x2="2275.09" y2="1296.34" style="stroke:#F0F0F0;stroke-width:9.72"/>
	<line x1="2307.49" y1="1296.34" x2="2372.29" y2="1296.34" style="stroke:#F0F0F0;stroke-width:9.72"/>
	<line x1="2404.69" y1="1296.34" x2="2469.49" y2="1296.34" style="stroke:#F0F0F0;stroke-width:9.72"/>
	<line x1="2501.89" y1="1296.34" x2="2566.69" y2="1296.34" style="stroke:#F0F0F0;stroke-width:9.72"/>
	<line x1="2599.09" y1="1296.34" x2="2663.89" y2="1296.34" style="stroke:#F0F0F0;stroke-width:9.72"/>
	<line x1="2696.29" y1="1296.34" x2="2761.09" y2="1296.34" style="stroke:#F0F0F0;stroke-width:9.72"/>
	<line x1="2793.49" y1="1296.34" x2="2858.29" y2="1296.34" style="stroke:#F0F0F0;stroke-width:9.72"/>
	<line x1="2890.69" y1="1296.34" x2="2955.49" y2="1296.34" style="stroke:#F0F0F0;stroke-width:9.72"/>
	<line x1="2987.89" y1="1296.34" x2="3052.69" y2="1296.34" style="stroke:#F0F0F0;stroke-width:9.72"/>
	<line x1="3085.09" y1="1296.34" x2="3149.89" y2="1296.34" style="stroke:#F0F0F0;stroke-width:9.72"/>
	<line x1="3182.29" y1="1296.34" x2="3247.09" y2="1296.34" style="stroke:#F0F0F0;stroke-width:9.72"/>
	<line x1="3279.49" y1="1296.34" x2="3344.29" y2="1296.34" style="stroke:#F0F0F0;stroke-width:9.72"/>
	<line x1="3376.69" y1="1296.34" x2="3441.49" y2="1296.34" style="stroke:#F0F0F0;stroke-width:9.72"/>
	<line x1="3473.89" y1="1296.34" x2="3538.69" y2="1296.34" style="stroke:#F0F0F0;stroke-width:9.72"/>
	<line x1="3571.09" y1="1296.34" x2="3635.89" y2="1296.34" style="stroke:#F0F0F0;stroke-width:9.72"/>
	<line x1="3668.29" y1="1296.34" x2="3733.09" y2="1296.34" style="stroke:#F0F0F0;stroke-width:9.72"/>
	<line x1="3765.49" y1="1296.34" x2="3830.29" y2="1296.34" style="stroke:#F0F0F0;stroke-width:9.72"/>
	<line x1="3862.69" y1="1296.34" x2="3927.49" y2="1296.34" style="stroke:#F0F0F0;stroke-width:9.72"/>
	<line x1="3959.89" y1="1296.34" x2="4024.69" y2="1296.34" style="stroke:#F0F0F0;stroke-width:9.72"/>
	<line x1="4057.09" y1="1296.34" x2="4121.89" y2="1296.34" style="stroke:#F0F0F0;stroke-width:9.72"/>
	<line x1="4154.29" y1="1296.34" x2="4219.09" y2="1296.34" style="stroke:#F0F0F0;stroke-width:9.72"/>
	<line x1="4251.49" y1="1296.34" x2="4316.29" y2="1296.34" style="stroke:#F0F0F0;stroke-width:9.72"/>
	<line x1="4348.69" y1="1296.34" x2="4413.49" y2="1296.34" style="stroke:#F0F0F0;stroke-width:9.72"/>
	<line x1="4445.89" y1="1296.34" x2="4510.69" y2="1296.34" style="stroke:#F0F0F0;stroke-width:9.72"/>
	<line x1="4543.09" y1="1296.34" x2="4607.89" y2="1296.34" style="stroke:#F0F0F0;stroke-width:9.72"/>
	<line x1="4640.29" y1="1296.34" x2="4705.09" y2="1296.34" style="stroke:#F0F0F0;stroke-width:9.72"/>
	<line x1="4737.49" y1="1296.34" x2="4802.29" y2="1296.34" style="stroke:#F0F0F0;stroke-width:9.72"/>
	<line x1="4834.69" y1="1296.34" x2="4899.49" y2="1296.34" style="stroke:#F0F0F0;stroke-width:9.72"/>
	<line x1="4931.89" y1="1296.34" x2="4996.69" y2="1296.34" style="stroke:#F0F0F0;stroke-width:9.72"/>
	<line x1="5029.09" y1="1296.34" x2="5093.89" y2="1296.34" style="stroke:#F0F0F0;stroke-width:9.72"/>
	<line x1="5126.29" y1="1296.34" x2="5191.09" y2="1296.34" style="stroke:#F0F0F0;stroke-width:9.72"/>
	<line x1="5223.49" y1="1296.34" x2="5286.60" y2="1296.34" style="stroke:#F0F0F0;stroke-width:9.72"/>
	<line x1="557.89" y1="740.47" x2="622.69" y2="740.47" style="stroke:#F0F0F0;stroke-width:9.72"/>
	<line x1="655.09" y1="740.47" x2="719.89" y2="740.47" style="stroke:#F0F0F0;stroke-width:9.72"/>
	<line x1="752.29" y1="740.47" x2="817.09" y2="740.47" style="stroke:#F0F0F0;stroke-width:9.72"/>
	<line x1="849.49" y1="740.47" x2="914.29" y2="740.47" style="stroke:#F0F0F0;stroke-width:9.72"/>
	<line x1="946.69" y1="740.47" x2="1011.49" y2="740.47" style="stroke:#F0F0F0;stroke-width:9.72"/>
	<line x1="1043.89" y1="740.47" x2="1108.69" y2="740.47" style="stroke:#F0F0F0;stroke-width:9.72"/>
	<line x1="1141.09" y1="740.47" x2="1205.89" y2="740.47" style="stroke:#F0F0F0;stroke-width:9.72"/>
	<line x1="1238.29" y1="740.47" x2="1303.09" y2="740.47" style="stroke:#F0F0F0;stroke-width:9.72"/>
	<line x1="1335.49" y1="740.47" x2="1400.29" y2="740.47" style="stroke:#F0F0F0;stroke-width:9.72"/>
	<line x1="1432.69" y1="740.47" x2="1497.49" y2="740.47" style="stroke:#F0F0F0;stroke-width:9.72"/>
	<line x1="1529.89" y1="740.47" x2="1594.69" y2="740.47" style="stroke:#F0F0F0;stroke-width:9.72"/>
	<line x1="1627.09" y1="740.47" x2="1691.89" y2="740.47" style="stroke:#F0F0F0;stroke-width:9.72"/>
	<line x1="1724.29" y1="740.47" x2="1789.09" y2="740.47" style="stroke:#F0F0F0;stroke-width:9.72"/>
	<line x1="1821.49" y1="740.47" x2="1886.29" y2="740.47" style="stroke:#F0F0F0;stroke-width:9.72"/>
	<line x1="1918.69" y1="740.47" x2="1983.49" y2="740.47" style="stroke:#F0F0F0;stroke-width:9.72"/>
	<line x1="2015.89" y1="740.47" x2="2080.69" y2="740.47" style="stroke:#F0F0F0;stroke-width:9.72"/>
	<line x1="2113.09" y1="740.47" x2="2177.89" y2="740.47" style="stroke:#F0F0F0;stroke-width:9.72"/>
	<line x1="2210.29" y1="740.47" x2="2275.09" y2="740.47" style="stroke:#F0F0F0;stroke-width:9.72"/>
	<line x1="2307.49" y1="740.47" x2="2372.29" y2="740.47" style="stroke:#F0F0F0;stroke-width:9.72"/>
	<line x1="2404.69" y1="740.47" x2="2469.49" y2="740.47" style="stroke:#F0F0F0;stroke-width:9.72"/>
	<line x1="2501.89" y1="740.47" x2="2566.69" y2="740.47" style="stroke:#F0F0F0;stroke-width:9.72"/>
	<line x1="2599.09" y1="740.47" x2="2663.89" y2="740.47" style="stroke:#F0F0F0;stroke-width:9.72"/>
	<line x1="2696.29" y1="740.47" x2="2761.09" y2="740.47" style="stroke:#F0F0F0;stroke-width:9.72"/>
	<line x1="2793.49" y1="740.47" x2="2858.29" y2="740.47" style="stroke:#F0F0F0;stroke-width:9.72"/>
	<line x1="2890.69" y1="740.47" x2="2955.49" y2="740.47" style="stroke:#F0F0F0;stroke-width:9.72"/>
	<line x1="2987.89" y1="740.47" x2="3052.69" y2="740.47" style="stroke:#F0F0F0;stroke-width:9.72"/>
	<line x1="3085.09" y1="740.47" x2="3149.89" y2="740.47" style="stroke:#F0F0F0;stroke-width:9.72"/>
	<line x1="3182.29" y1="740.47" x2="3247.09" y2="740.47" style="stroke:#F0F0F0;stroke-width:9.72"/>
	<line x1="3279.49" y1="740.47" x2="3344.29" y2="740.47" style="stroke:#F0F0F0;stroke-width:9.72"/>
	<line x1="3376.69" y1="740.47" x2="3441.49" y2="740.47" style="stroke:#F0F0F0;stroke-width:9.72"/>
	<line x1="3473.89" y1="740.47" x2="3538.69" y2="740.47" style="stroke:#F0F0F0;stroke-width:9.72"/>
	<line x1="3571.09" y1="740.47" x2="3635.89" y2="740.47" style="stroke:#F0F0F0;stroke-width:9.72"/>
	<line x1="3668.29" y1="740.47" x2="3733.09" y2="740.47" style="stroke:#F0F0F0;stroke-width:9.72"/>
	<line x1="3765.49" y1="740.47" x2="3830.29" y2="740.47" style="stroke:#F0F0F0;stroke-width:9.72"/>
	<line x1="3862.69" y1="740.47" x2="3927.49" y2="740.47" style="stroke:#F0F0F0;stroke-width:9.72"/>
	<line x1="3959.89" y1="740.47" x2="4024.69" y2="740.47" style="stroke:#F0F0F0;stroke-width:9.72"/>
	<line x1="4057.09" y1="740.47" x2="4121.89" y2="740.47" style="stroke:#F0F0F0;stroke-width:9.72"/>
	<line x1="4154.29" y1="740.47" x2="4219.09" y2="740.47" style="stroke:#F0F0F0;stroke-width:9.72"/>
	<line x1="4251.49" y1="740.47" x2="4316.29" y2="740.47" style="stroke:#F0F0F0;stroke-width:9.72"/>
	<line x1="4348.69" y1="740.47" x2="4413.49" y2="740.47" style="stroke:#F0F0F0;stroke-width:9.72"/>
	<line x1="4445.89" y1="740.47" x2="4510.69" y2="740.47" style="stroke:#F0F0F0;stroke-width:9.72"/>
	<line x1="4543.09" y1="740.47" x2="4607.89" y2="740.47" style="stroke:#F0F0F0;stroke-width:9.72"/>
	<line x1="4640.29" y1="740.47" x2="4705.09" y2="740.47" style="stroke:#F0F0F0;stroke-width:9.72"/>
	<line x1="4737.49" y1="740.47" x2="4802.29" y2="740.47" style="stroke:#F0F0F0;stroke-width:9.72"/>
	<line x1="4834.69" y1="740.47" x2="4899.49" y2="740.47" style="stroke:#F0F0F0;stroke-width:9.72"/>
	<line x1="4931.89" y1="740.47" x2="4996.69" y2="740.47" style="stroke:#F0F0F0;stroke-width:9.72"/>
	<line x1="5029.09" y1="740.47" x2="5093.89" y2="740.47" style="stroke:#F0F0F0;stroke-width:9.72"/>
	<line x1="5126.29" y1="740.47" x2="5191.09" y2="740.47" style="stroke:#F0F0F0;stroke-width:9.72"/>
	<line x1="5223.49" y1="740.47" x2="5286.60" y2="740.47" style="stroke:#F0F0F0;stroke-width:9.72"/>
	<line x1="557.89" y1="184.61" x2="622.69" y2="184.61" style="stroke:#F0F0F0;stroke-width:9.72"/>
	<line x1="655.09" y1="184.61" x2="719.89" y2="184.61" style="stroke:#F0F0F0;stroke-width:9.72"/>
	<line x1="752.29" y1="184.61" x2="817.09" y2="184.61" style="stroke:#F0F0F0;stroke-width:9.72"/>
	<line x1="849.49" y1="184.61" x2="914.29" y2="184.61" style="stroke:#F0F0F0;stroke-width:9.72"/>
	<line x1="946.69" y1="184.61" x2="1011.49" y2="184.61" style="stroke:#F0F0F0;stroke-width:9.72"/>
	<line x1="1043.89" y1="184.61" x2="1108.69" y2="184.61" style="stroke:#F0F0F0;stroke-width:9.72"/>
	<line x1="1141.09" y1="184.61" x2="1205.89" y2="184.61" style="stroke:#F0F0F0;stroke-width:9.72"/>
	<line x1="1238.29" y1="184.61" x2="1303.09" y2="184.61" style="stroke:#F0F0F0;stroke-width:9.72"/>
	<line x1="1335.49" y1="184.61" x2="1400.29" y2="184.61" style="stroke:#F0F0F0;stroke-width:9.72"/>
	<line x1="1432.69" y1="184.61" x2="1497.49" y2="184.61" style="stroke:#F0F0F0;stroke-width:9.72"/>
	<line x1="1529.89" y1="184.61" x2="1594.69" y2="184.61" style="stroke:#F0F0F0;stroke-width:9.72"/>
	<line x1="1627.09" y1="184.61" x2="1691.89" y2="184.61" style="stroke:#F0F0F0;stroke-width:9.72"/>
	<line x1="1724.29" y1="184.61" x2="1789.09" y2="184.61" style="stroke:#F0F0F0;stroke-width:9.72"/>
	<line x1="1821.49" y1="184.61" x2="1886.29" y2="184.61" style="stroke:#F0F0F0;stroke-width:9.72"/>
	<line x1="1918.69" y1="184.61" x2="1983.49" y2="184.61" style="stroke:#F0F0F0;stroke-width:9.72"/>
	<line x1="2015.89" y1="184.61" x2="2080.69" y2="184.61" style="stroke:#F0F0F0;stroke-width:9.72"/>
	<line x1="2113.09" y1="184.61" x2="2177.89" y2="184.61" style="stroke:#F0F0F0;stroke-width:9.72"/>
	<line x1="2210.29" y1="184.61" x2="2275.09" y2="184.61" style="stroke:#F0F0F0;stroke-width:9.72"/>
	<line x1="2307.49" y1="184.61" x2="2372.29" y2="184.61" style="stroke:#F0F0F0;stroke-width:9.72"/>
	<line x1="2404.69" y1="184.61" x2="2469.49" y2="184.61" style="stroke:#F0F0F0;stroke-width:9.72"/>
	<line x1="2501.89" y1="184.61" x2="2566.69" y2="184.61" style="stroke:#F0F0F0;stroke-width:9.72"/>
	<line x1="2599.09" y1="184.61" x2="2663.89" y2="184.61" style="stroke:#F0F0F0;stroke-width:9.72"/>
	<line x1="2696.29" y1="184.61" x2="2761.09" y2="184.61" style="stroke:#F0F0F0;stroke-width:9.72"/>
	<line x1="2793.49" y1="184.61" x2="2858.29" y2="184.61" style="stroke:#F0F0F0;stroke-width:9.72"/>
	<line x1="2890.69" y1="184.61" x2="2955.49" y2="184.61" style="stroke:#F0F0F0;stroke-width:9.72"/>
	<line x1="2987.89" y1="184.61" x2="3052.69" y2="184.61" style="stroke:#F0F0F0;stroke-width:9.72"/>
	<line x1="3085.09" y1="184.61" x2="3149.89" y2="184.61" style="stroke:#F0F0F0;stroke-width:9.72"/>
	<line x1="3182.29" y1="184.61" x2="3247.09" y2="184.61" style="stroke:#F0F0F0;stroke-width:9.72"/>
	<line x1="3279.49" y1="184.61" x2="3344.29" y2="184.61" style="stroke:#F0F0F0;stroke-width:9.72"/>
	<line x1="3376.69" y1="184.61" x2="3441.49" y2="184.61" style="stroke:#F0F0F0;stroke-width:9.72"/>
	<line x1="3473.89" y1="184.61" x2="3538.69" y2="184.61" style="stroke:#F0F0F0;stroke-width:9.72"/>
	<line x1="3571.09" y1="184.61" x2="3635.89" y2="184.61" style="stroke:#F0F0F0;stroke-width:9.72"/>
	<line x1="3668.29" y1="184.61" x2="3733.09" y2="184.61" style="stroke:#F0F0F0;stroke-width:9.72"/>
	<line x1="3765.49" y1="184.61" x2="3830.29" y2="184.61" style="stroke:#F0F0F0;stroke-width:9.72"/>
	<line x1="3862.69" y1="184.61" x2="3927.49" y2="184.61" style="stroke:#F0F0F0;stroke-width:9.72"/>
	<line x1="3959.89" y1="184.61" x2="4024.69" y2="184.61" style="stroke:#F0F0F0;stroke-width:9.72"/>
	<line x1="4057.09" y1="184.61" x2="4121.89" y2="184.61" style="stroke:#F0F0F0;stroke-width:9.72"/>
	<line x1="4154.29" y1="184.61" x2="4219.09" y2="184.61" style="stroke:#F0F0F0;stroke-width:9.72"/>
	<line x1="4251.49" y1="184.61" x2="4316.29" y2="184.61" style="stroke:#F0F0F0;stroke-width:9.72"/>
	<line x1="4348.69" y1="184.61" x2="4413.49" y2="184.61" style="stroke:#F0F0F0;stroke-width:9.72"/>
	<line x1="4445.89" y1="184.61" x2="4510.69" y2="184.61" style="stroke:#F0F0F0;stroke-width:9.72"/>
	<line x1="4543.09" y1="184.61" x2="4607.89" y2="184.61" style="stroke:#F0F0F0;stroke-width:9.72"/>
	<line x1="4640.29" y1="184.61" x2="4705.09" y2="184.61" style="stroke:#F0F0F0;stroke-width:9.72"/>
	<line x1="4737.49" y1="184.61" x2="4802.29" y2="184.61" style="stroke:#F0F0F0;stroke-width:9.72"/>
	<line x1="4834.69" y1="184.61" x2="4899.49" y2="184.61" style="stroke:#F0F0F0;stroke-width:9.72"/>
	<line x1="4931.89" y1="184.61" x2="4996.69" y2="184.61" style="stroke:#F0F0F0;stroke-width:9.72"/>
	<line x1="5029.09" y1="184.61" x2="5093.89" y2="184.61" style="stroke:#F0F0F0;stroke-width:9.72"/>
	<line x1="5126.29" y1="184.61" x2="5191.09" y2="184.61" style="stroke:#F0F0F0;stroke-width:9.72"/>
	<line x1="5223.49" y1="184.61" x2="5286.60" y2="184.61" style="stroke:#F0F0F0;stroke-width:9.72"/>
	<line x1="629.27" y1="2479.11" x2="629.27" y2="2414.31" style="stroke:#F0F0F0;stroke-width:9.72"/>
	<line x1="629.27" y1="2381.91" x2="629.27" y2="2317.11" style="stroke:#F0F0F0;stroke-width:9.72"/>
	<line x1="629.27" y1="2284.71" x2="629.27" y2="2219.91" style="stroke:#F0F0F0;stroke-width:9.72"/>
	<line x1="629.27" y1="2187.51" x2="629.27" y2="2122.71" style="stroke:#F0F0F0;stroke-width:9.72"/>
	<line x1="629.27" y1="2090.31" x2="629.27" y2="2025.51" style="stroke:#F0F0F0;stroke-width:9.72"/>
	<line x1="629.27" y1="1993.11" x2="629.27" y2="1928.31" style="stroke:#F0F0F0;stroke-width:9.72"/>
	<line x1="629.27" y1="1895.91" x2="629.27" y2="1831.11" style="stroke:#F0F0F0;stroke-width:9.72"/>
	<line x1="629.27" y1="1798.71" x2="629.27" y2="1733.91" style="stroke:#F0F0F0;stroke-width:9.72"/>
	<line x1="629.27" y1="1701.51" x2="629.27" y2="1636.71" style="stroke:#F0F0F0;stroke-width:9.72"/>
	<line x1="629.27" y1="1604.31" x2="629.27" y2="1539.51" style="stroke:#F0F0F0;stroke-width:9.72"/>
	<line x1="629.27" y1="1507.11" x2="629.27" y2="1442.31" style="stroke:#F0F0F0;stroke-width:9.72"/>
	<line x1="629.27" y1="1409.91" x2="629.27" y2="1345.11" style="stroke:#F0F0F0;stroke-width:9.72"/>
	<line x1="629.27" y1="1312.71" x2="629.27" y2="1247.91" style="stroke:#F0F0F0;stroke-width:9.72"/>
	<line x1="629.27" y1="1215.51" x2="629.27" y2="1150.71" style="stroke:#F0F0F0;stroke-width:9.72"/>
	<line x1="629.27" y1="1118.31" x2="629.27" y2="1053.51" style="stroke:#F0F0F0;stroke-width:9.72"/>
	<line x1="629.27" y1="1021.11" x2="629.27" y2="956.31" style="stroke:#F0F0F0;stroke-width:9.72"/>
	<line x1="629.27" y1="923.91" x2="629.27" y2="859.11" style="stroke:#F0F0F0;stroke-width:9.72"/>
	<line x1="629.27" y1="826.71" x2="629.27" y2="761.91" style="stroke:#F0F0F0;stroke-width:9.72"/>
	<line x1="629.27" y1="729.51" x2="629.27" y2="664.71" style="stroke:#F0F0F0;stroke-width:9.72"/>
	<line x1="629.27" y1="632.31" x2="629.27" y2="567.51" style="stroke:#F0F0F0;stroke-width:9.72"/>
	<line x1="629.27" y1="535.11" x2="629.27" y2="470.31" style="stroke:#F0F0F0;stroke-width:9.72"/>
	<line x1="629.27" y1="437.91" x2="629.27" y2="373.11" style="stroke:#F0F0F0;stroke-width:9.72"/>
	<line x1="629.27" y1="340.71" x2="629.27" y2="275.91" style="stroke:#F0F0F0;stroke-width:9.72"/>
	<line x1="629.27" y1="243.51" x2="629.27" y2="178.71" style="stroke:#F0F0F0;stroke-width:9.72"/>
	<line x1="629.27" y1="146.31" x2="629.27" y2="113.40" style="stroke:#F0F0F0;stroke-width:9.72"/>
	<line x1="1546.43" y1="2479.11" x2="1546.43" y2="2414.31" style="stroke:#F0F0F0;stroke-width:9.72"/>
	<line x1="1546.43" y1="2381.91" x2="1546.43" y2="2317.11" style="stroke:#F0F0F0;stroke-width:9.72"/>
	<line x1="1546.43" y1="2284.71" x2="1546.43" y2="2219.91" style="stroke:#F0F0F0;stroke-width:9.72"/>
	<line x1="1546.43" y1="2187.51" x2="1546.43" y2="2122.71" style="stroke:#F0F0F0;stroke-width:9.72"/>
	<line x1="1546.43" y1="2090.31" x2="1546.43" y2="2025.51" style="stroke:#F0F0F0;stroke-width:9.72"/>
	<line x1="1546.43" y1="1993.11" x2="1546.43" y2="1928.31" style="stroke:#F0F0F0;stroke-width:9.72"/>
	<line x1="1546.43" y1="1895.91" x2="1546.43" y2="1831.11" style="stroke:#F0F0F0;stroke-width:9.72"/>
	<line x1="1546.43" y1="1798.71" x2="1546.43" y2="1733.91" style="stroke:#F0F0F0;stroke-width:9.72"/>
	<line x1="1546.43" y1="1701.51" x2="1546.43" y2="1636.71" style="stroke:#F0F0F0;stroke-width:9.72"/>
	<line x1="1546.43" y1="1604.31" x2="1546.43" y2="1539.51" style="stroke:#F0F0F0;stroke-width:9.72"/>
	<line x1="1546.43" y1="1507.11" x2="1546.43" y2="1442.31" style="stroke:#F0F0F0;stroke-width:9.72"/>
	<line x1="1546.43" y1="1409.91" x2="1546.43" y2="1345.11" style="stroke:#F0F0F0;stroke-width:9.72"/>
	<line x1="1546.43" y1="1312.71" x2="1546.43" y2="1247.91" style="stroke:#F0F0F0;stroke-width:9.72"/>
	<line x1="1546.43" y1="1215.51" x2="1546.43" y2="1150.71" style="stroke:#F0F0F0;stroke-width:9.72"/>
	<line x1="1546.43" y1="1118.31" x2="1546.43" y2="1053.51" style="stroke:#F0F0F0;stroke-width:9.72"/>
	<line x1="1546.43" y1="1021.11" x2="1546.43" y2="956.31" style="stroke:#F0F0F0;stroke-width:9.72"/>
	<line x1="1546.43" y1="923.91" x2="1546.43" y2="859.11" style="stroke:#F0F0F0;stroke-width:9.72"/>
	<line x1="1546.43" y1="826.71" x2="1546.43" y2="761.91" style="stroke:#F0F0F0;stroke-width:9.72"/>
	<line x1="1546.43" y1="729.51" x2="1546.43" y2="664.71" style="stroke:#F0F0F0;stroke-width:9.72"/>
	<line x1="1546.43" y1="632.31" x2="1546.43" y2="567.51" style="stroke:#F0F0F0;stroke-width:9.72"/>
	<line x1="1546.43" y1="535.11" x2="1546.43" y2="470.31" style="stroke:#F0F0F0;stroke-width:9.72"/>
	<line x1="1546.43" y1="437.91" x2="1546.43" y2="373.11" style="stroke:#F0F0F0;stroke-width:9.72"/>
	<line x1="1546.43" y1="340.71" x2="1546.43" y2="275.91" style="stroke:#F0F0F0;stroke-width:9.72"/>
	<line x1="1546.43" y1="243.51" x2="1546.43" y2="178.71" style="stroke:#F0F0F0;stroke-width:9.72"/>
	<line x1="1546.43" y1="146.31" x2="1546.43" y2="113.40" style="stroke:#F0F0F0;stroke-width:9.72"/>
	<line x1="2463.58" y1="2479.11" x2="2463.58" y2="2414.31" style="stroke:#F0F0F0;stroke-width:9.72"/>
	<line x1="2463.58" y1="2381.91" x2="2463.58" y2="2317.11" style="stroke:#F0F0F0;stroke-width:9.72"/>
	<line x1="2463.58" y1="2284.71" x2="2463.58" y2="2219.91" style="stroke:#F0F0F0;stroke-width:9.72"/>
	<line x1="2463.58" y1="2187.51" x2="2463.58" y2="2122.71" style="stroke:#F0F0F0;stroke-width:9.72"/>
	<line x1="2463.58" y1="2090.31" x2="2463.58" y2="2025.51" style="stroke:#F0F0F0;stroke-width:9.72"/>
	<line x1="2463.58" y1="1993.11" x2="2463.58" y2="1928.31" style="stroke:#F0F0F0;stroke-width:9.72"/>
	<line x1="2463.58" y1="1895.91" x2="2463.58" y2="1831.11" style="stroke:#F0F0F0;stroke-width:9.72"/>
	<line x1="2463.58" y1="1798.71" x2="2463.58" y2="1733.91" style="stroke:#F0F0F0;stroke-width:9.72"/>
	<line x1="2463.58" y1="1701.51" x2="2463.58" y2="1636.71" style="stroke:#F0F0F0;stroke-width:9.72"/>
	<line x1="2463.58" y1="1604.31" x2="2463.58" y2="1539.51" style="stroke:#F0F0F0;stroke-width:9.72"/>
	<line x1="2463.58" y1="1507.11" x2="2463.58" y2="1442.31" style="stroke:#F0F0F0;stroke-width:9.72"/>
	<line x1="2463.58" y1="1409.91" x2="2463.58" y2="1345.11" style="stroke:#F0F0F0;stroke-width:9.72"/>
	<line x1="2463.58" y1="1312.71" x2="2463.58" y2="1247.91" style="stroke:#F0F0F0;stroke-width:9.72"/>
	<line x1="2463.58" y1="1215.51" x2="2463.58" y2="1150.71" style="stroke:#F0F0F0;stroke-width:9.72"/>
	<line x1="2463.58" y1="1118.31" x2="2463.58" y2="1053.51" style="stroke:#F0F0F0;stroke-width:9.72"/>
	<line x1="2463.58" y1="1021.11" x2="2463.58" y2="956.31" style="stroke:#F0F0F0;stroke-width:9.72"/>
	<line x1="2463.58" y1="923.91" x2="2463.58" y2="859.11" style="stroke:#F0F0F0;stroke-width:9.72"/>
	<line x1="2463.58" y1="826.71" x2="2463.58" y2="761.91" style="stroke:#F0F0F0;stroke-width:9.72"/>
	<line x1="2463.58" y1="729.51" x2="2463.58" y2="664.71" style="stroke:#F0F0F0;stroke-width:9.72"/>
	<line x1="2463.58" y1="632.31" x2="2463.58" y2="567.51" style="stroke:#F0F0F0;stroke-width:9.72"/>
	<line x1="2463.58" y1="535.11" x2="2463.58" y2="470.31" style="stroke:#F0F0F0;stroke-width:9.72"/>
	<line x1="2463.58" y1="437.91" x2="2463.58" y2="373.11" style="stroke:#F0F0F0;stroke-width:9.72"/>
	<line x1="2463.58" y1="340.71" x2="2463.58" y2="275.91" style="stroke:#F0F0F0;stroke-width:9.72"/>
	<line x1="2463.58" y1="243.51" x2="2463.58" y2="178.71" style="stroke:#F0F0F0;stroke-width:9.72"/>
	<line x1="2463.58" y1="146.31" x2="2463.58" y2="113.40" style="stroke:#F0F0F0;stroke-width:9.72"/>
	<line x1="3380.91" y1="2479.11" x2="3380.91" y2="2414.31" style="stroke:#F0F0F0;stroke-width:9.72"/>
	<line x1="3380.91" y1="2381.91" x2="3380.91" y2="2317.11" style="stroke:#F0F0F0;stroke-width:9.72"/>
	<line x1="3380.91" y1="2284.71" x2="3380.91" y2="2219.91" style="stroke:#F0F0F0;stroke-width:9.72"/>
	<line x1="3380.91" y1="2187.51" x2="3380.91" y2="2122.71" style="stroke:#F0F0F0;stroke-width:9.72"/>
	<line x1="3380.91" y1="2090.31" x2="3380.91" y2="2025.51" style="stroke:#F0F0F0;stroke-width:9.72"/>
	<line x1="3380.91" y1="1993.11" x2="3380.91" y2="1928.31" style="stroke:#F0F0F0;stroke-width:9.72"/>
	<line x1="3380.91" y1="1895.91" x2="3380.91" y2="1831.11" style="stroke:#F0F0F0;stroke-width:9.72"/>
	<line x1="3380.91" y1="1798.71" x2="3380.91" y2="1733.91" style="stroke:#F0F0F0;stroke-width:9.72"/>
	<line x1="3380.91" y1="1701.51" x2="3380.91" y2="1636.71" style="stroke:#F0F0F0;stroke-width:9.72"/>
	<line x1="3380.91" y1="1604.31" x2="3380.91" y2="1539.51" style="stroke:#F0F0F0;stroke-width:9.72"/>
	<line x1="3380.91" y1="1507.11" x2="3380.91" y2="1442.31" style="stroke:#F0F0F0;stroke-width:9.72"/>
	<line x1="3380.91" y1="1409.91" x2="3380.91" y2="1345.11" style="stroke:#F0F0F0;stroke-width:9.72"/>
	<line x1="3380.91" y1="1312.71" x2="3380.91" y2="1247.91" style="stroke:#F0F0F0;stroke-width:9.72"/>
	<line x1="3380.91" y1="1215.51" x2="3380.91" y2="1150.71" style="stroke:#F0F0F0;stroke-width:9.72"/>
	<line x1="3380.91" y1="1118.31" x2="3380.91" y2="1053.51" style="stroke:#F0F0F0;stroke-width:9.72"/>
	<line x1="3380.91" y1="1021.11" x2="3380.91" y2="956.31" style="stroke:#F0F0F0;stroke-width:9.72"/>
	<line x1="3380.91" y1="923.91" x2="3380.91" y2="859.11" style="stroke:#F0F0F0;stroke-width:9.72"/>
	<line x1="3380.91" y1="826.71" x2="3380.91" y2="761.91" style="stroke:#F0F0F0;stroke-width:9.72"/>
	<line x1="3380.91" y1="729.51" x2="3380.91" y2="664.71" style="stroke:#F0F0F0;stroke-width:9.72"/>
	<line x1="3380.91" y1="632.31" x2="3380.91" y2="567.51" style="stroke:#F0F0F0;stroke-width:9.72"/>
	<line x1="3380.91" y1="535.11" x2="3380.91" y2="470.31" style="stroke:#F0F0F0;stroke-width:9.72"/>
	<line x1="3380.91" y1="437.91" x2="3380.91" y2="373.11" style="stroke:#F0F0F0;stroke-width:9.72"/>
	<line x1="3380.91" y1="340.71" x2="3380.91" y2="275.91" style="stroke:#F0F0F0;stroke-width:9.72"/>
	<line x1="3380.91" y1="243.51" x2="3380.91" y2="178.71" style="stroke:#F0F0F0;stroke-width:9.72"/>
	<line x1="3380.91" y1="146.31" x2="3380.91" y2="113.40" style="stroke:#F0F0F0;stroke-width:9.72"/>
	<line x1="4298.06" y1="2479.11" x2="4298.06" y2="2414.31" style="stroke:#F0F0F0;stroke-width:9.72"/>
	<line x1="4298.06" y1="2381.91" x2="4298.06" y2="2317.11" style="stroke:#F0F0F0;stroke-width:9.72"/>
	<line x1="4298.06" y1="2284.71" x2="4298.06" y2="2219.91" style="stroke:#F0F0F0;stroke-width:9.72"/>
	<line x1="4298.06" y1="2187.51" x2="4298.06" y2="2122.71" style="stroke:#F0F0F0;stroke-width:9.72"/>
	<line x1="4298.06" y1="2090.31" x2="4298.06" y2="2025.51" style="stroke:#F0F0F0;stroke-width:9.72"/>
	<line x1="4298.06" y1="1993.11" x2="4298.06" y2="1928.31" style="stroke:#F0F0F0;stroke-width:9.72"/>
	<line x1="4298.06" y1="1895.91" x2="4298.06" y2="1831.11" style="stroke:#F0F0F0;stroke-width:9.72"/>
	<line x1="4298.06" y1="1798.71" x2="4298.06" y2="1733.91" style="stroke:#F0F0F0;stroke-width:9.72"/>
	<line x1="4298.06" y1="1701.51" x2="4298.06" y2="1636.71" style="stroke:#F0F0F0;stroke-width:9.72"/>
	<line x1="4298.06" y1="1604.31" x2="4298.06" y2="1539.51" style="stroke:#F0F0F0;stroke-width:9.72"/>
	<line x1="4298.06" y1="1507.11" x2="4298.06" y2="1442.31" style="stroke:#F0F0F0;stroke-width:9.72"/>
	<line x1="4298.06" y1="1409.91" x2="4298.06" y2="1345.11" style="stroke:#F0F0F0;stroke-width:9.72"/>
	<line x1="4298.06" y1="1312.71" x2="4298.06" y2="1247.91" style="stroke:#F0F0F0;stroke-width:9.72"/>
	<line x1="4298.06" y1="1215.51" x2="4298.06" y2="1150.71" style="stroke:#F0F0F0;stroke-width:9.72"/>
	<line x1="4298.06" y1="1118.31" x2="4298.06" y2="1053.51" style="stroke:#F0F0F0;stroke-width:9.72"/>
	<line x1="4298.06" y1="1021.11" x2="4298.06" y2="956.31" style="stroke:#F0F0F0;stroke-width:9.72"/>
	<line x1="4298.06" y1="923.91" x2="4298.06" y2="859.11" style="stroke:#F0F0F0;stroke-width:9.72"/>
	<line x1="4298.06" y1="826.71" x2="4298.06" y2="761.91" style="stroke:#F0F0F0;stroke-width:9.72"/>
	<line x1="4298.06" y1="729.51" x2="4298.06" y2="664.71" style="stroke:#F0F0F0;stroke-width:9.72"/>
	<line x1="4298.06" y1="632.31" x2="4298.06" y2="567.51" style="stroke:#F0F0F0;stroke-width:9.72"/>
	<line x1="4298.06" y1="535.11" x2="4298.06" y2="470.31" style="stroke:#F0F0F0;stroke-width:9.72"/>
	<line x1="4298.06" y1="437.91" x2="4298.06" y2="373.11" style="stroke:#F0F0F0;stroke-width:9.72"/>
	<line x1="4298.06" y1="340.71" x2="4298.06" y2="275.91" style="stroke:#F0F0F0;stroke-width:9.72"/>
	<line x1="4298.06" y1="243.51" x2="4298.06" y2="178.71" style="stroke:#F0F0F0;stroke-width:9.72"/>
	<line x1="4298.06" y1="146.31" x2="4298.06" y2="113.40" style="stroke:#F0F0F0;stroke-width:9.72"/>
	<line x1="5215.39" y1="2479.11" x2="5215.39" y2="2414.31" style="stroke:#F0F0F0;stroke-width:9.72"/>
	<line x1="5215.39" y1="2381.91" x2="5215.39" y2="2317.11" style="stroke:#F0F0F0;stroke-width:9.72"/>
	<line x1="5215.39" y1="2284.71" x2="5215.39" y2="2219.91" style="stroke:#F0F0F0;stroke-width:9.72"/>
	<line x1="5215.39" y1="2187.51" x2="5215.39" y2="2122.71" style="stroke:#F0F0F0;stroke-width:9.72"/>
	<line x1="5215.39" y1="2090.31" x2="5215.39" y2="2025.51" style="stroke:#F0F0F0;stroke-width:9.72"/>
	<line x1="5215.39" y1="1993.11" x2="5215.39" y2="1928.31" style="stroke:#F0F0F0;stroke-width:9.72"/>
	<line x1="5215.39" y1="1895.91" x2="5215.39" y2="1831.11" style="stroke:#F0F0F0;stroke-width:9.72"/>
	<line x1="5215.39" y1="1798.71" x2="5215.39" y2="1733.91" style="stroke:#F0F0F0;stroke-width:9.72"/>
	<line x1="5215.39" y1="1701.51" x2="5215.39" y2="1636.71" style="stroke:#F0F0F0;stroke-width:9.72"/>
	<line x1="5215.39" y1="1604.31" x2="5215.39" y2="1539.51" style="stroke:#F0F0F0;stroke-width:9.72"/>
	<line x1="5215.39" y1="1507.11" x2="5215.39" y2="1442.31" style="stroke:#F0F0F0;stroke-width:9.72"/>
	<line x1="5215.39" y1="1409.91" x2="5215.39" y2="1345.11" style="stroke:#F0F0F0;stroke-width:9.72"/>
	<line x1="5215.39" y1="1312.71" x2="5215.39" y2="1247.91" style="stroke:#F0F0F0;stroke-width:9.72"/>
	<line x1="5215.39" y1="1215.51" x2="5215.39" y2="1150.71" style="stroke:#F0F0F0;stroke-width:9.72"/>
	<line x1="5215.39" y1="1118.31" x2="5215.39" y2="1053.51" style="stroke:#F0F0F0;stroke-width:9.72"/>
	<line x1="5215.39" y1="1021.11" x2="5215.39" y2="956.31" style="stroke:#F0F0F0;stroke-width:9.72"/>
	<line x1="5215.39" y1="923.91" x2="5215.39" y2="859.11" style="stroke:#F0F0F0;stroke-width:9.72"/>
	<line x1="5215.39" y1="826.71" x2="5215.39" y2="761.91" style="stroke:#F0F0F0;stroke-width:9.72"/>
	<line x1="5215.39" y1="729.51" x2="5215.39" y2="664.71" style="stroke:#F0F0F0;stroke-width:9.72"/>
	<line x1="5215.39" y1="632.31" x2="5215.39" y2="567.51" style="stroke:#F0F0F0;stroke-width:9.72"/>
	<line x1="5215.39" y1="535.11" x2="5215.39" y2="470.31" style="stroke:#F0F0F0;stroke-width:9.72"/>
	<line x1="5215.39" y1="437.91" x2="5215.39" y2="373.11" style="stroke:#F0F0F0;stroke-width:9.72"/>
	<line x1="5215.39" y1="340.71" x2="5215.39" y2="275.91" style="stroke:#F0F0F0;stroke-width:9.72"/>
	<line x1="5215.39" y1="243.51" x2="5215.39" y2="178.71" style="stroke:#F0F0F0;stroke-width:9.72"/>
	<line x1="5215.39" y1="146.31" x2="5215.39" y2="113.40" style="stroke:#F0F0F0;stroke-width:9.72"/>
	<path d=" M1079.33 1335.66 L1179.39 1361.81 L1186.31 1344.60 L1221.41 1371.09 L1362.66 1353.04 L1608.53 1380.38 L1770.69 1409.23 L1846.97 1385.44 L1898.78 1312.03 L1948.73 1341.23 L2043.73 1369.74 L2209.11 1350.51 L2347.48 1331.94 L2464.43 1356.75 L2664.23 1382.06 L2772.56 1356.92 L2777.79 1382.57 L2798.38 1362.15 L2818.63 1337.01 L2931.69 1367.21 L3090.32 1398.60 L3191.40 1377.84 L3247.76 1409.91 L3260.76 1442.14 L3293.33 1470.49 L3393.90 1499.51 L3501.56 1471.67 L3674.70 1443.99 L3845.14 1478.42 L3887.16 1384.09 L3909.94 1356.58 L3921.08 1263.94 L4016.25 1293.64 L4119.69 1324.86 L4151.76 1357.59 L4205.76 1331.78 L4288.44 1366.54 L4339.41 1255.67 L4397.29 1228.33 L4462.76 1269.00 L4514.57 1236.09 L4592.87 1279.63 L4668.81 1245.38 L4718.76 1214.83 L4767.69 1258.54 L4847.34 1224.96 L4958.21 1092.82 L5058.96 1140.24 L5094.39 1103.63 L5126.12 1158.97 L5185.86 1102.61" stroke-linejoin="round" style="fill:none;stroke:#000000;stroke-width:14.58"/>
	<path d=" M1079.33 734.91 L1179.39 754.82 L1186.31 738.79 L1221.41 758.70 L1362.66 741.99 L1608.53 762.41 L1770.69 785.53 L1846.97 761.57 L1898.78 700.14 L1948.73 723.60 L2043.73 744.69 L2209.11 726.64 L2347.48 710.44 L2464.43 726.13 L2664.23 741.99 L2772.56 716.68 L2777.79 732.54 L2798.38 713.47 L2818.63 688.16 L2931.69 710.27 L3090.32 732.88 L3191.40 715.16 L3247.76 739.97 L3260.76 763.09 L3293.33 780.47 L3393.90 798.02 L3501.56 770.34 L3674.70 742.84 L3845.14 768.82 L3887.16 687.82 L3909.94 660.49 L3921.08 580.67 L4016.25 598.72 L4119.69 617.46 L4151.76 637.37 L4205.76 613.07 L4288.44 633.82 L4339.41 538.65 L4397.29 512.49 L4462.76 540.17 L4514.57 506.93 L4592.87 537.97 L4668.81 503.21 L4718.76 474.02 L4767.69 499.33 L4847.34 468.45 L4958.21 356.57 L5058.96 383.57 L5094.39 347.12 L5126.12 381.88 L5185.86 319.11" stroke-linejoin="round" style="fill:none;stroke:#A0A0A0;stroke-width:14.58"/>
	<path d=" M1079.33 1936.24 L1179.39 1968.81 L1186.31 1950.41 L1221.41 1983.32 L1362.66 1964.08 L1608.53 1998.17 L1770.69 2032.93 L1846.97 2009.31 L1898.78 1923.75 L1948.73 1959.02 L2043.73 1994.79 L2209.11 1974.38 L2347.48 1953.28 L2464.43 1987.37 L2664.23 2022.13 L2772.56 1997.33 L2777.79 2032.59 L2798.38 2010.66 L2818.63 1985.68 L2931.69 2024.33 L3090.32 2064.32 L3191.40 2040.53 L3247.76 2079.84 L3260.76 2121.36 L3293.33 2160.68 L3393.90 2200.84 L3501.56 2172.99 L3674.70 2145.32 L3845.14 2188.01 L3887.16 2080.35 L3909.94 2052.84 L3921.08 1947.38 L4016.25 1988.72 L4119.69 2032.09 L4151.76 2077.99 L4205.76 2050.48 L4288.44 2099.08 L4339.41 1972.69 L4397.29 1944.00 L4462.76 1997.66 L4514.57 1965.09 L4592.87 2021.29 L4668.81 1987.37 L4718.76 1955.64 L4767.69 2017.74 L4847.34 1981.63 L4958.21 1829.25 L5058.96 1896.92 L5094.39 1860.30 L5126.12 1936.07 L5185.86 1886.12" stroke-linejoin="round" style="fill:none;stroke:#A0A0A0;stroke-width:14.58"/>
	<line x1="557.89" y1="2479.11" x2="557.89" y2="113.40" style="stroke:#000000;stroke-width:6.48"/>
	<line x1="557.89" y1="2407.89" x2="513.00" y2="2407.89" style="stroke:#000000;stroke-width:6.48"/>
	<text x="490.39" y="2447.33" style="font-family:'Helvetica';font-size:112.56px;fill:#000000" text-anchor="end">.2</text>
	<line x1="557.89" y1="1852.03" x2="513.00" y2="1852.03" style="stroke:#000000;stroke-width:6.48"/>
	<text x="490.39" y="1891.47" style="font-family:'Helvetica';font-size:112.56px;fill:#000000" text-anchor="end">.25</text>
	<line x1="557.89" y1="1296.34" x2="513.00" y2="1296.34" style="stroke:#000000;stroke-width:6.48"/>
	<text x="490.39" y="1335.77" style="font-family:'Helvetica';font-size:112.56px;fill:#000000" text-anchor="end">.3</text>
	<line x1="557.89" y1="740.47" x2="513.00" y2="740.47" style="stroke:#000000;stroke-width:6.48"/>
	<text x="490.39" y="779.91" style="font-family:'Helvetica';font-size:112.56px;fill:#000000" text-anchor="end">.35</text>
	<line x1="557.89" y1="184.61" x2="513.00" y2="184.61" style="stroke:#000000;stroke-width:6.48"/>
	<text x="490.39" y="224.05" style="font-family:'Helvetica';font-size:112.56px;fill:#000000" text-anchor="end">.4</text>
	<text x="214.55" y="1296.34" style="font-family:'Helvetica';font-size:112.56px;fill:#000000" transform="rotate(-90 214.55,1296.34)" text-anchor="middle">Estimated causal effect</text>
	<line x1="557.89" y1="2479.11" x2="5286.60" y2="2479.11" style="stroke:#000000;stroke-width:6.48"/>
	<line x1="629.27" y1="2479.11" x2="629.27" y2="2524.16" style="stroke:#000000;stroke-width:6.48"/>
	<text x="629.27" y="2625.31" style="font-family:'Helvetica';font-size:112.56px;fill:#000000" text-anchor="middle">1.35</text>
	<line x1="1546.43" y1="2479.11" x2="1546.43" y2="2524.16" style="stroke:#000000;stroke-width:6.48"/>
	<text x="1546.43" y="2625.31" style="font-family:'Helvetica';font-size:112.56px;fill:#000000" text-anchor="middle">1.355</text>
	<line x1="2463.58" y1="2479.11" x2="2463.58" y2="2524.16" style="stroke:#000000;stroke-width:6.48"/>
	<text x="2463.58" y="2625.31" style="font-family:'Helvetica';font-size:112.56px;fill:#000000" text-anchor="middle">1.36</text>
	<line x1="3380.91" y1="2479.11" x2="3380.91" y2="2524.16" style="stroke:#000000;stroke-width:6.48"/>
	<text x="3380.91" y="2625.31" style="font-family:'Helvetica';font-size:112.56px;fill:#000000" text-anchor="middle">1.365</text>
	<line x1="4298.06" y1="2479.11" x2="4298.06" y2="2524.16" style="stroke:#000000;stroke-width:6.48"/>
	<text x="4298.06" y="2625.31" style="font-family:'Helvetica';font-size:112.56px;fill:#000000" text-anchor="middle">1.37</text>
	<line x1="5215.39" y1="2479.11" x2="5215.39" y2="2524.16" style="stroke:#000000;stroke-width:6.48"/>
	<text x="5215.39" y="2625.31" style="font-family:'Helvetica';font-size:112.56px;fill:#000000" text-anchor="middle">1.375</text>
	<text x="2922.24" y="2782.75" style="font-family:'Helvetica';font-size:112.56px;fill:#000000" text-anchor="middle">Median of exposure in moving window</text>
	<rect x="1514.03" y="2878.03" width="2816.44" height="209.76" style="fill:#FFFFFF"/>
	<rect x="1517.27" y="2881.27" width="2809.96" height="203.28" style="fill:none;stroke:#FFFFFF;stroke-width:6.48"/>
	<line x1="1562.63" y1="2982.83" x2="1821.83" y2="2982.83" style="stroke:#000000;stroke-width:14.58"/>
	<line x1="3265.99" y1="2982.83" x2="3525.19" y2="2982.83" style="stroke:#A0A0A0;stroke-width:14.58"/>
	<text x="1889.33" y="3022.26" style="font-family:'Helvetica';font-size:112.56px;fill:#000000">Estimated causal effect</text>
	<text x="3592.69" y="3022.26" style="font-family:'Helvetica';font-size:112.56px;fill:#000000">95% CI limits</text>
</svg>
