<?xml version="1.0" encoding="UTF-8" standalone="no"?>
<!-- This is a Stata 19.5 generated SVG file (http://www.stata.com) -->

<svg version="1.1" width="7.500in" height="4.500in" viewBox="0 0 5400 3240" xmlns="http://www.w3.org/2000/svg" xmlns:xlink="http://www.w3.org/1999/xlink">
	<desc>Stata Graph - Graph</desc>
	<rect x="0" y="0" width="5400" height="3240" style="fill:#FFFFFF;stroke:none"/>
	<rect x="0.00" y="0.00" width="5400.00" height="3240.00" style="fill:#FFFFFF"/>
	<rect x="3.24" y="3.24" width="5393.52" height="3233.52" style="fill:none;stroke:#FFFFFF;stroke-width:6.48"/>
	<rect x="492.24" y="113.40" width="4794.36" height="2365.71" style="fill:#FFFFFF"/>
	<rect x="495.48" y="116.64" width="4787.88" height="2359.23" style="fill:none;stroke:#FFFFFF;stroke-width:6.48"/>
	<line x1="492.24" y1="2407.89" x2="557.04" y2="2407.89" style="stroke:#F0F0F0;stroke-width:9.72"/>
	<line x1="589.44" y1="2407.89" x2="654.24" y2="2407.89" style="stroke:#F0F0F0;stroke-width:9.72"/>
	<line x1="686.64" y1="2407.89" x2="751.44" y2="2407.89" style="stroke:#F0F0F0;stroke-width:9.72"/>
	<line x1="783.84" y1="2407.89" x2="848.64" y2="2407.89" style="stroke:#F0F0F0;stroke-width:9.72"/>
	<line x1="881.04" y1="2407.89" x2="945.84" y2="2407.89" style="stroke:#F0F0F0;stroke-width:9.72"/>
	<line x1="978.24" y1="2407.89" x2="1043.04" y2="2407.89" style="stroke:#F0F0F0;stroke-width:9.72"/>
	<line x1="1075.44" y1="2407.89" x2="1140.24" y2="2407.89" style="stroke:#F0F0F0;stroke-width:9.72"/>
	<line x1="1172.64" y1="2407.89" x2="1237.44" y2="2407.89" style="stroke:#F0F0F0;stroke-width:9.72"/>
	<line x1="1269.84" y1="2407.89" x2="1334.64" y2="2407.89" style="stroke:#F0F0F0;stroke-width:9.72"/>
	<line x1="1367.04" y1="2407.89" x2="1431.84" y2="2407.89" style="stroke:#F0F0F0;stroke-width:9.72"/>
	<line x1="1464.24" y1="2407.89" x2="1529.04" y2="2407.89" style="stroke:#F0F0F0;stroke-width:9.72"/>
	<line x1="1561.44" y1="2407.89" x2="1626.24" y2="2407.89" style="stroke:#F0F0F0;stroke-width:9.72"/>
	<line x1="1658.64" y1="2407.89" x2="1723.44" y2="2407.89" style="stroke:#F0F0F0;stroke-width:9.72"/>
	<line x1="1755.84" y1="2407.89" x2="1820.64" y2="2407.89" style="stroke:#F0F0F0;stroke-width:9.72"/>
	<line x1="1853.04" y1="2407.89" x2="1917.84" y2="2407.89" style="stroke:#F0F0F0;stroke-width:9.72"/>
	<line x1="1950.24" y1="2407.89" x2="2015.04" y2="2407.89" style="stroke:#F0F0F0;stroke-width:9.72"/>
	<line x1="2047.44" y1="2407.89" x2="2112.24" y2="2407.89" style="stroke:#F0F0F0;stroke-width:9.72"/>
	<line x1="2144.64" y1="2407.89" x2="2209.44" y2="2407.89" style="stroke:#F0F0F0;stroke-width:9.72"/>
	<line x1="2241.84" y1="2407.89" x2="2306.64" y2="2407.89" style="stroke:#F0F0F0;stroke-width:9.72"/>
	<line x1="2339.04" y1="2407.89" x2="2403.84" y2="2407.89" style="stroke:#F0F0F0;stroke-width:9.72"/>
	<line x1="2436.24" y1="2407.89" x2="2501.04" y2="2407.89" style="stroke:#F0F0F0;stroke-width:9.72"/>
	<line x1="2533.44" y1="2407.89" x2="2598.24" y2="2407.89" style="stroke:#F0F0F0;stroke-width:9.72"/>
	<line x1="2630.64" y1="2407.89" x2="2695.44" y2="2407.89" style="stroke:#F0F0F0;stroke-width:9.72"/>
	<line x1="2727.84" y1="2407.89" x2="2792.64" y2="2407.89" style="stroke:#F0F0F0;stroke-width:9.72"/>
	<line x1="2825.04" y1="2407.89" x2="2889.84" y2="2407.89" style="stroke:#F0F0F0;stroke-width:9.72"/>
	<line x1="2922.24" y1="2407.89" x2="2987.04" y2="2407.89" style="stroke:#F0F0F0;stroke-width:9.72"/>
	<line x1="3019.44" y1="2407.89" x2="3084.24" y2="2407.89" style="stroke:#F0F0F0;stroke-width:9.72"/>
	<line x1="3116.64" y1="2407.89" x2="3181.44" y2="2407.89" style="stroke:#F0F0F0;stroke-width:9.72"/>
	<line x1="3213.84" y1="2407.89" x2="3278.64" y2="2407.89" style="stroke:#F0F0F0;stroke-width:9.72"/>
	<line x1="3311.04" y1="2407.89" x2="3375.84" y2="2407.89" style="stroke:#F0F0F0;stroke-width:9.72"/>
	<line x1="3408.24" y1="2407.89" x2="3473.04" y2="2407.89" style="stroke:#F0F0F0;stroke-width:9.72"/>
	<line x1="3505.44" y1="2407.89" x2="3570.24" y2="2407.89" style="stroke:#F0F0F0;stroke-width:9.72"/>
	<line x1="3602.64" y1="2407.89" x2="3667.44" y2="2407.89" style="stroke:#F0F0F0;stroke-width:9.72"/>
	<line x1="3699.84" y1="2407.89" x2="3764.64" y2="2407.89" style="stroke:#F0F0F0;stroke-width:9.72"/>
	<line x1="3797.04" y1="2407.89" x2="3861.84" y2="2407.89" style="stroke:#F0F0F0;stroke-width:9.72"/>
	<line x1="3894.24" y1="2407.89" x2="3959.04" y2="2407.89" style="stroke:#F0F0F0;stroke-width:9.72"/>
	<line x1="3991.44" y1="2407.89" x2="4056.24" y2="2407.89" style="stroke:#F0F0F0;stroke-width:9.72"/>
	<line x1="4088.64" y1="2407.89" x2="4153.44" y2="2407.89" style="stroke:#F0F0F0;stroke-width:9.72"/>
	<line x1="4185.84" y1="2407.89" x2="4250.64" y2="2407.89" style="stroke:#F0F0F0;stroke-width:9.72"/>
	<line x1="4283.04" y1="2407.89" x2="4347.84" y2="2407.89" style="stroke:#F0F0F0;stroke-width:9.72"/>
	<line x1="4380.24" y1="2407.89" x2="4445.04" y2="2407.89" style="stroke:#F0F0F0;stroke-width:9.72"/>
	<line x1="4477.44" y1="2407.89" x2="4542.24" y2="2407.89" style="stroke:#F0F0F0;stroke-width:9.72"/>
	<line x1="4574.64" y1="2407.89" x2="4639.44" y2="2407.89" style="stroke:#F0F0F0;stroke-width:9.72"/>
	<line x1="4671.84" y1="2407.89" x2="4736.64" y2="2407.89" style="stroke:#F0F0F0;stroke-width:9.72"/>
	<line x1="4769.04" y1="2407.89" x2="4833.84" y2="2407.89" style="stroke:#F0F0F0;stroke-width:9.72"/>
	<line x1="4866.24" y1="2407.89" x2="4931.04" y2="2407.89" style="stroke:#F0F0F0;stroke-width:9.72"/>
	<line x1="4963.44" y1="2407.89" x2="5028.24" y2="2407.89" style="stroke:#F0F0F0;stroke-width:9.72"/>
	<line x1="5060.64" y1="2407.89" x2="5125.44" y2="2407.89" style="stroke:#F0F0F0;stroke-width:9.72"/>
	<line x1="5157.84" y1="2407.89" x2="5222.64" y2="2407.89" style="stroke:#F0F0F0;stroke-width:9.72"/>
	<line x1="5255.04" y1="2407.89" x2="5286.60" y2="2407.89" style="stroke:#F0F0F0;stroke-width:9.72"/>
	<line x1="492.24" y1="1852.03" x2="557.04" y2="1852.03" style="stroke:#F0F0F0;stroke-width:9.72"/>
	<line x1="589.44" y1="1852.03" x2="654.24" y2="1852.03" style="stroke:#F0F0F0;stroke-width:9.72"/>
	<line x1="686.64" y1="1852.03" x2="751.44" y2="1852.03" style="stroke:#F0F0F0;stroke-width:9.72"/>
	<line x1="783.84" y1="1852.03" x2="848.64" y2="1852.03" style="stroke:#F0F0F0;stroke-width:9.72"/>
	<line x1="881.04" y1="1852.03" x2="945.84" y2="1852.03" style="stroke:#F0F0F0;stroke-width:9.72"/>
	<line x1="978.24" y1="1852.03" x2="1043.04" y2="1852.03" style="stroke:#F0F0F0;stroke-width:9.72"/>
	<line x1="1075.44" y1="1852.03" x2="1140.24" y2="1852.03" style="stroke:#F0F0F0;stroke-width:9.72"/>
	<line x1="1172.64" y1="1852.03" x2="1237.44" y2="1852.03" style="stroke:#F0F0F0;stroke-width:9.72"/>
	<line x1="1269.84" y1="1852.03" x2="1334.64" y2="1852.03" style="stroke:#F0F0F0;stroke-width:9.72"/>
	<line x1="1367.04" y1="1852.03" x2="1431.84" y2="1852.03" style="stroke:#F0F0F0;stroke-width:9.72"/>
	<line x1="1464.24" y1="1852.03" x2="1529.04" y2="1852.03" style="stroke:#F0F0F0;stroke-width:9.72"/>
	<line x1="1561.44" y1="1852.03" x2="1626.24" y2="1852.03" style="stroke:#F0F0F0;stroke-width:9.72"/>
	<line x1="1658.64" y1="1852.03" x2="1723.44" y2="1852.03" style="stroke:#F0F0F0;stroke-width:9.72"/>
	<line x1="1755.84" y1="1852.03" x2="1820.64" y2="1852.03" style="stroke:#F0F0F0;stroke-width:9.72"/>
	<line x1="1853.04" y1="1852.03" x2="1917.84" y2="1852.03" style="stroke:#F0F0F0;stroke-width:9.72"/>
	<line x1="1950.24" y1="1852.03" x2="2015.04" y2="1852.03" style="stroke:#F0F0F0;stroke-width:9.72"/>
	<line x1="2047.44" y1="1852.03" x2="2112.24" y2="1852.03" style="stroke:#F0F0F0;stroke-width:9.72"/>
	<line x1="2144.64" y1="1852.03" x2="2209.44" y2="1852.03" style="stroke:#F0F0F0;stroke-width:9.72"/>
	<line x1="2241.84" y1="1852.03" x2="2306.64" y2="1852.03" style="stroke:#F0F0F0;stroke-width:9.72"/>
	<line x1="2339.04" y1="1852.03" x2="2403.84" y2="1852.03" style="stroke:#F0F0F0;stroke-width:9.72"/>
	<line x1="2436.24" y1="1852.03" x2="2501.04" y2="1852.03" style="stroke:#F0F0F0;stroke-width:9.72"/>
	<line x1="2533.44" y1="1852.03" x2="2598.24" y2="1852.03" style="stroke:#F0F0F0;stroke-width:9.72"/>
	<line x1="2630.64" y1="1852.03" x2="2695.44" y2="1852.03" style="stroke:#F0F0F0;stroke-width:9.72"/>
	<line x1="2727.84" y1="1852.03" x2="2792.64" y2="1852.03" style="stroke:#F0F0F0;stroke-width:9.72"/>
	<line x1="2825.04" y1="1852.03" x2="2889.84" y2="1852.03" style="stroke:#F0F0F0;stroke-width:9.72"/>
	<line x1="2922.24" y1="1852.03" x2="2987.04" y2="1852.03" style="stroke:#F0F0F0;stroke-width:9.72"/>
	<line x1="3019.44" y1="1852.03" x2="3084.24" y2="1852.03" style="stroke:#F0F0F0;stroke-width:9.72"/>
	<line x1="3116.64" y1="1852.03" x2="3181.44" y2="1852.03" style="stroke:#F0F0F0;stroke-width:9.72"/>
	<line x1="3213.84" y1="1852.03" x2="3278.64" y2="1852.03" style="stroke:#F0F0F0;stroke-width:9.72"/>
	<line x1="3311.04" y1="1852.03" x2="3375.84" y2="1852.03" style="stroke:#F0F0F0;stroke-width:9.72"/>
	<line x1="3408.24" y1="1852.03" x2="3473.04" y2="1852.03" style="stroke:#F0F0F0;stroke-width:9.72"/>
	<line x1="3505.44" y1="1852.03" x2="3570.24" y2="1852.03" style="stroke:#F0F0F0;stroke-width:9.72"/>
	<line x1="3602.64" y1="1852.03" x2="3667.44" y2="1852.03" style="stroke:#F0F0F0;stroke-width:9.72"/>
	<line x1="3699.84" y1="1852.03" x2="3764.64" y2="1852.03" style="stroke:#F0F0F0;stroke-width:9.72"/>
	<line x1="3797.04" y1="1852.03" x2="3861.84" y2="1852.03" style="stroke:#F0F0F0;stroke-width:9.72"/>
	<line x1="3894.24" y1="1852.03" x2="3959.04" y2="1852.03" style="stroke:#F0F0F0;stroke-width:9.72"/>
	<line x1="3991.44" y1="1852.03" x2="4056.24" y2="1852.03" style="stroke:#F0F0F0;stroke-width:9.72"/>
	<line x1="4088.64" y1="1852.03" x2="4153.44" y2="1852.03" style="stroke:#F0F0F0;stroke-width:9.72"/>
	<line x1="4185.84" y1="1852.03" x2="4250.64" y2="1852.03" style="stroke:#F0F0F0;stroke-width:9.72"/>
	<line x1="4283.04" y1="1852.03" x2="4347.84" y2="1852.03" style="stroke:#F0F0F0;stroke-width:9.72"/>
	<line x1="4380.24" y1="1852.03" x2="4445.04" y2="1852.03" style="stroke:#F0F0F0;stroke-width:9.72"/>
	<line x1="4477.44" y1="1852.03" x2="4542.24" y2="1852.03" style="stroke:#F0F0F0;stroke-width:9.72"/>
	<line x1="4574.64" y1="1852.03" x2="4639.44" y2="1852.03" style="stroke:#F0F0F0;stroke-width:9.72"/>
	<line x1="4671.84" y1="1852.03" x2="4736.64" y2="1852.03" style="stroke:#F0F0F0;stroke-width:9.72"/>
	<line x1="4769.04" y1="1852.03" x2="4833.84" y2="1852.03" style="stroke:#F0F0F0;stroke-width:9.72"/>
	<line x1="4866.24" y1="1852.03" x2="4931.04" y2="1852.03" style="stroke:#F0F0F0;stroke-width:9.72"/>
	<line x1="4963.44" y1="1852.03" x2="5028.24" y2="1852.03" style="stroke:#F0F0F0;stroke-width:9.72"/>
	<line x1="5060.64" y1="1852.03" x2="5125.44" y2="1852.03" style="stroke:#F0F0F0;stroke-width:9.72"/>
	<line x1="5157.84" y1="1852.03" x2="5222.64" y2="1852.03" style="stroke:#F0F0F0;stroke-width:9.72"/>
	<line x1="5255.04" y1="1852.03" x2="5286.60" y2="1852.03" style="stroke:#F0F0F0;stroke-width:9.72"/>
	<line x1="492.24" y1="1296.34" x2="557.04" y2="1296.34" style="stroke:#F0F0F0;stroke-width:9.72"/>
	<line x1="589.44" y1="1296.34" x2="654.24" y2="1296.34" style="stroke:#F0F0F0;stroke-width:9.72"/>
	<line x1="686.64" y1="1296.34" x2="751.44" y2="1296.34" style="stroke:#F0F0F0;stroke-width:9.72"/>
	<line x1="783.84" y1="1296.34" x2="848.64" y2="1296.34" style="stroke:#F0F0F0;stroke-width:9.72"/>
	<line x1="881.04" y1="1296.34" x2="945.84" y2="1296.34" style="stroke:#F0F0F0;stroke-width:9.72"/>
	<line x1="978.24" y1="1296.34" x2="1043.04" y2="1296.34" style="stroke:#F0F0F0;stroke-width:9.72"/>
	<line x1="1075.44" y1="1296.34" x2="1140.24" y2="1296.34" style="stroke:#F0F0F0;stroke-width:9.72"/>
	<line x1="1172.64" y1="1296.34" x2="1237.44" y2="1296.34" style="stroke:#F0F0F0;stroke-width:9.72"/>
	<line x1="1269.84" y1="1296.34" x2="1334.64" y2="1296.34" style="stroke:#F0F0F0;stroke-width:9.72"/>
	<line x1="1367.04" y1="1296.34" x2="1431.84" y2="1296.34" style="stroke:#F0F0F0;stroke-width:9.72"/>
	<line x1="1464.24" y1="1296.34" x2="1529.04" y2="1296.34" style="stroke:#F0F0F0;stroke-width:9.72"/>
	<line x1="1561.44" y1="1296.34" x2="1626.24" y2="1296.34" style="stroke:#F0F0F0;stroke-width:9.72"/>
	<line x1="1658.64" y1="1296.34" x2="1723.44" y2="1296.34" style="stroke:#F0F0F0;stroke-width:9.72"/>
	<line x1="1755.84" y1="1296.34" x2="1820.64" y2="1296.34" style="stroke:#F0F0F0;stroke-width:9.72"/>
	<line x1="1853.04" y1="1296.34" x2="1917.84" y2="1296.34" style="stroke:#F0F0F0;stroke-width:9.72"/>
	<line x1="1950.24" y1="1296.34" x2="2015.04" y2="1296.34" style="stroke:#F0F0F0;stroke-width:9.72"/>
	<line x1="2047.44" y1="1296.34" x2="2112.24" y2="1296.34" style="stroke:#F0F0F0;stroke-width:9.72"/>
	<line x1="2144.64" y1="1296.34" x2="2209.44" y2="1296.34" style="stroke:#F0F0F0;stroke-width:9.72"/>
	<line x1="2241.84" y1="1296.34" x2="2306.64" y2="1296.34" style="stroke:#F0F0F0;stroke-width:9.72"/>
	<line x1="2339.04" y1="1296.34" x2="2403.84" y2="1296.34" style="stroke:#F0F0F0;stroke-width:9.72"/>
	<line x1="2436.24" y1="1296.34" x2="2501.04" y2="1296.34" style="stroke:#F0F0F0;stroke-width:9.72"/>
	<line x1="2533.44" y1="1296.34" x2="2598.24" y2="1296.34" style="stroke:#F0F0F0;stroke-width:9.72"/>
	<line x1="2630.64" y1="1296.34" x2="2695.44" y2="1296.34" style="stroke:#F0F0F0;stroke-width:9.72"/>
	<line x1="2727.84" y1="1296.34" x2="2792.64" y2="1296.34" style="stroke:#F0F0F0;stroke-width:9.72"/>
	<line x1="2825.04" y1="1296.34" x2="2889.84" y2="1296.34" style="stroke:#F0F0F0;stroke-width:9.72"/>
	<line x1="2922.24" y1="1296.34" x2="2987.04" y2="1296.34" style="stroke:#F0F0F0;stroke-width:9.72"/>
	<line x1="3019.44" y1="1296.34" x2="3084.24" y2="1296.34" style="stroke:#F0F0F0;stroke-width:9.72"/>
	<line x1="3116.64" y1="1296.34" x2="3181.44" y2="1296.34" style="stroke:#F0F0F0;stroke-width:9.72"/>
	<line x1="3213.84" y1="1296.34" x2="3278.64" y2="1296.34" style="stroke:#F0F0F0;stroke-width:9.72"/>
	<line x1="3311.04" y1="1296.34" x2="3375.84" y2="1296.34" style="stroke:#F0F0F0;stroke-width:9.72"/>
	<line x1="3408.24" y1="1296.34" x2="3473.04" y2="1296.34" style="stroke:#F0F0F0;stroke-width:9.72"/>
	<line x1="3505.44" y1="1296.34" x2="3570.24" y2="1296.34" style="stroke:#F0F0F0;stroke-width:9.72"/>
	<line x1="3602.64" y1="1296.34" x2="3667.44" y2="1296.34" style="stroke:#F0F0F0;stroke-width:9.72"/>
	<line x1="3699.84" y1="1296.34" x2="3764.64" y2="1296.34" style="stroke:#F0F0F0;stroke-width:9.72"/>
	<line x1="3797.04" y1="1296.34" x2="3861.84" y2="1296.34" style="stroke:#F0F0F0;stroke-width:9.72"/>
	<line x1="3894.24" y1="1296.34" x2="3959.04" y2="1296.34" style="stroke:#F0F0F0;stroke-width:9.72"/>
	<line x1="3991.44" y1="1296.34" x2="4056.24" y2="1296.34" style="stroke:#F0F0F0;stroke-width:9.72"/>
	<line x1="4088.64" y1="1296.34" x2="4153.44" y2="1296.34" style="stroke:#F0F0F0;stroke-width:9.72"/>
	<line x1="4185.84" y1="1296.34" x2="4250.64" y2="1296.34" style="stroke:#F0F0F0;stroke-width:9.72"/>
	<line x1="4283.04" y1="1296.34" x2="4347.84" y2="1296.34" style="stroke:#F0F0F0;stroke-width:9.72"/>
	<line x1="4380.24" y1="1296.34" x2="4445.04" y2="1296.34" style="stroke:#F0F0F0;stroke-width:9.72"/>
	<line x1="4477.44" y1="1296.34" x2="4542.24" y2="1296.34" style="stroke:#F0F0F0;stroke-width:9.72"/>
	<line x1="4574.64" y1="1296.34" x2="4639.44" y2="1296.34" style="stroke:#F0F0F0;stroke-width:9.72"/>
	<line x1="4671.84" y1="1296.34" x2="4736.64" y2="1296.34" style="stroke:#F0F0F0;stroke-width:9.72"/>
	<line x1="4769.04" y1="1296.34" x2="4833.84" y2="1296.34" style="stroke:#F0F0F0;stroke-width:9.72"/>
	<line x1="4866.24" y1="1296.34" x2="4931.04" y2="1296.34" style="stroke:#F0F0F0;stroke-width:9.72"/>
	<line x1="4963.44" y1="1296.34" x2="5028.24" y2="1296.34" style="stroke:#F0F0F0;stroke-width:9.72"/>
	<line x1="5060.64" y1="1296.34" x2="5125.44" y2="1296.34" style="stroke:#F0F0F0;stroke-width:9.72"/>
	<line x1="5157.84" y1="1296.34" x2="5222.64" y2="1296.34" style="stroke:#F0F0F0;stroke-width:9.72"/>
	<line x1="5255.04" y1="1296.34" x2="5286.60" y2="1296.34" style="stroke:#F0F0F0;stroke-width:9.72"/>
	<line x1="492.24" y1="740.47" x2="557.04" y2="740.47" style="stroke:#F0F0F0;stroke-width:9.72"/>
	<line x1="589.44" y1="740.47" x2="654.24" y2="740.47" style="stroke:#F0F0F0;stroke-width:9.72"/>
	<line x1="686.64" y1="740.47" x2="751.44" y2="740.47" style="stroke:#F0F0F0;stroke-width:9.72"/>
	<line x1="783.84" y1="740.47" x2="848.64" y2="740.47" style="stroke:#F0F0F0;stroke-width:9.72"/>
	<line x1="881.04" y1="740.47" x2="945.84" y2="740.47" style="stroke:#F0F0F0;stroke-width:9.72"/>
	<line x1="978.24" y1="740.47" x2="1043.04" y2="740.47" style="stroke:#F0F0F0;stroke-width:9.72"/>
	<line x1="1075.44" y1="740.47" x2="1140.24" y2="740.47" style="stroke:#F0F0F0;stroke-width:9.72"/>
	<line x1="1172.64" y1="740.47" x2="1237.44" y2="740.47" style="stroke:#F0F0F0;stroke-width:9.72"/>
	<line x1="1269.84" y1="740.47" x2="1334.64" y2="740.47" style="stroke:#F0F0F0;stroke-width:9.72"/>
	<line x1="1367.04" y1="740.47" x2="1431.84" y2="740.47" style="stroke:#F0F0F0;stroke-width:9.72"/>
	<line x1="1464.24" y1="740.47" x2="1529.04" y2="740.47" style="stroke:#F0F0F0;stroke-width:9.72"/>
	<line x1="1561.44" y1="740.47" x2="1626.24" y2="740.47" style="stroke:#F0F0F0;stroke-width:9.72"/>
	<line x1="1658.64" y1="740.47" x2="1723.44" y2="740.47" style="stroke:#F0F0F0;stroke-width:9.72"/>
	<line x1="1755.84" y1="740.47" x2="1820.64" y2="740.47" style="stroke:#F0F0F0;stroke-width:9.72"/>
	<line x1="1853.04" y1="740.47" x2="1917.84" y2="740.47" style="stroke:#F0F0F0;stroke-width:9.72"/>
	<line x1="1950.24" y1="740.47" x2="2015.04" y2="740.47" style="stroke:#F0F0F0;stroke-width:9.72"/>
	<line x1="2047.44" y1="740.47" x2="2112.24" y2="740.47" style="stroke:#F0F0F0;stroke-width:9.72"/>
	<line x1="2144.64" y1="740.47" x2="2209.44" y2="740.47" style="stroke:#F0F0F0;stroke-width:9.72"/>
	<line x1="2241.84" y1="740.47" x2="2306.64" y2="740.47" style="stroke:#F0F0F0;stroke-width:9.72"/>
	<line x1="2339.04" y1="740.47" x2="2403.84" y2="740.47" style="stroke:#F0F0F0;stroke-width:9.72"/>
	<line x1="2436.24" y1="740.47" x2="2501.04" y2="740.47" style="stroke:#F0F0F0;stroke-width:9.72"/>
	<line x1="2533.44" y1="740.47" x2="2598.24" y2="740.47" style="stroke:#F0F0F0;stroke-width:9.72"/>
	<line x1="2630.64" y1="740.47" x2="2695.44" y2="740.47" style="stroke:#F0F0F0;stroke-width:9.72"/>
	<line x1="2727.84" y1="740.47" x2="2792.64" y2="740.47" style="stroke:#F0F0F0;stroke-width:9.72"/>
	<line x1="2825.04" y1="740.47" x2="2889.84" y2="740.47" style="stroke:#F0F0F0;stroke-width:9.72"/>
	<line x1="2922.24" y1="740.47" x2="2987.04" y2="740.47" style="stroke:#F0F0F0;stroke-width:9.72"/>
	<line x1="3019.44" y1="740.47" x2="3084.24" y2="740.47" style="stroke:#F0F0F0;stroke-width:9.72"/>
	<line x1="3116.64" y1="740.47" x2="3181.44" y2="740.47" style="stroke:#F0F0F0;stroke-width:9.72"/>
	<line x1="3213.84" y1="740.47" x2="3278.64" y2="740.47" style="stroke:#F0F0F0;stroke-width:9.72"/>
	<line x1="3311.04" y1="740.47" x2="3375.84" y2="740.47" style="stroke:#F0F0F0;stroke-width:9.72"/>
	<line x1="3408.24" y1="740.47" x2="3473.04" y2="740.47" style="stroke:#F0F0F0;stroke-width:9.72"/>
	<line x1="3505.44" y1="740.47" x2="3570.24" y2="740.47" style="stroke:#F0F0F0;stroke-width:9.72"/>
	<line x1="3602.64" y1="740.47" x2="3667.44" y2="740.47" style="stroke:#F0F0F0;stroke-width:9.72"/>
	<line x1="3699.84" y1="740.47" x2="3764.64" y2="740.47" style="stroke:#F0F0F0;stroke-width:9.72"/>
	<line x1="3797.04" y1="740.47" x2="3861.84" y2="740.47" style="stroke:#F0F0F0;stroke-width:9.72"/>
	<line x1="3894.24" y1="740.47" x2="3959.04" y2="740.47" style="stroke:#F0F0F0;stroke-width:9.72"/>
	<line x1="3991.44" y1="740.47" x2="4056.24" y2="740.47" style="stroke:#F0F0F0;stroke-width:9.72"/>
	<line x1="4088.64" y1="740.47" x2="4153.44" y2="740.47" style="stroke:#F0F0F0;stroke-width:9.72"/>
	<line x1="4185.84" y1="740.47" x2="4250.64" y2="740.47" style="stroke:#F0F0F0;stroke-width:9.72"/>
	<line x1="4283.04" y1="740.47" x2="4347.84" y2="740.47" style="stroke:#F0F0F0;stroke-width:9.72"/>
	<line x1="4380.24" y1="740.47" x2="4445.04" y2="740.47" style="stroke:#F0F0F0;stroke-width:9.72"/>
	<line x1="4477.44" y1="740.47" x2="4542.24" y2="740.47" style="stroke:#F0F0F0;stroke-width:9.72"/>
	<line x1="4574.64" y1="740.47" x2="4639.44" y2="740.47" style="stroke:#F0F0F0;stroke-width:9.72"/>
	<line x1="4671.84" y1="740.47" x2="4736.64" y2="740.47" style="stroke:#F0F0F0;stroke-width:9.72"/>
	<line x1="4769.04" y1="740.47" x2="4833.84" y2="740.47" style="stroke:#F0F0F0;stroke-width:9.72"/>
	<line x1="4866.24" y1="740.47" x2="4931.04" y2="740.47" style="stroke:#F0F0F0;stroke-width:9.72"/>
	<line x1="4963.44" y1="740.47" x2="5028.24" y2="740.47" style="stroke:#F0F0F0;stroke-width:9.72"/>
	<line x1="5060.64" y1="740.47" x2="5125.44" y2="740.47" style="stroke:#F0F0F0;stroke-width:9.72"/>
	<line x1="5157.84" y1="740.47" x2="5222.64" y2="740.47" style="stroke:#F0F0F0;stroke-width:9.72"/>
	<line x1="5255.04" y1="740.47" x2="5286.60" y2="740.47" style="stroke:#F0F0F0;stroke-width:9.72"/>
	<line x1="492.24" y1="184.61" x2="557.04" y2="184.61" style="stroke:#F0F0F0;stroke-width:9.72"/>
	<line x1="589.44" y1="184.61" x2="654.24" y2="184.61" style="stroke:#F0F0F0;stroke-width:9.72"/>
	<line x1="686.64" y1="184.61" x2="751.44" y2="184.61" style="stroke:#F0F0F0;stroke-width:9.72"/>
	<line x1="783.84" y1="184.61" x2="848.64" y2="184.61" style="stroke:#F0F0F0;stroke-width:9.72"/>
	<line x1="881.04" y1="184.61" x2="945.84" y2="184.61" style="stroke:#F0F0F0;stroke-width:9.72"/>
	<line x1="978.24" y1="184.61" x2="1043.04" y2="184.61" style="stroke:#F0F0F0;stroke-width:9.72"/>
	<line x1="1075.44" y1="184.61" x2="1140.24" y2="184.61" style="stroke:#F0F0F0;stroke-width:9.72"/>
	<line x1="1172.64" y1="184.61" x2="1237.44" y2="184.61" style="stroke:#F0F0F0;stroke-width:9.72"/>
	<line x1="1269.84" y1="184.61" x2="1334.64" y2="184.61" style="stroke:#F0F0F0;stroke-width:9.72"/>
	<line x1="1367.04" y1="184.61" x2="1431.84" y2="184.61" style="stroke:#F0F0F0;stroke-width:9.72"/>
	<line x1="1464.24" y1="184.61" x2="1529.04" y2="184.61" style="stroke:#F0F0F0;stroke-width:9.72"/>
	<line x1="1561.44" y1="184.61" x2="1626.24" y2="184.61" style="stroke:#F0F0F0;stroke-width:9.72"/>
	<line x1="1658.64" y1="184.61" x2="1723.44" y2="184.61" style="stroke:#F0F0F0;stroke-width:9.72"/>
	<line x1="1755.84" y1="184.61" x2="1820.64" y2="184.61" style="stroke:#F0F0F0;stroke-width:9.72"/>
	<line x1="1853.04" y1="184.61" x2="1917.84" y2="184.61" style="stroke:#F0F0F0;stroke-width:9.72"/>
	<line x1="1950.24" y1="184.61" x2="2015.04" y2="184.61" style="stroke:#F0F0F0;stroke-width:9.72"/>
	<line x1="2047.44" y1="184.61" x2="2112.24" y2="184.61" style="stroke:#F0F0F0;stroke-width:9.72"/>
	<line x1="2144.64" y1="184.61" x2="2209.44" y2="184.61" style="stroke:#F0F0F0;stroke-width:9.72"/>
	<line x1="2241.84" y1="184.61" x2="2306.64" y2="184.61" style="stroke:#F0F0F0;stroke-width:9.72"/>
	<line x1="2339.04" y1="184.61" x2="2403.84" y2="184.61" style="stroke:#F0F0F0;stroke-width:9.72"/>
	<line x1="2436.24" y1="184.61" x2="2501.04" y2="184.61" style="stroke:#F0F0F0;stroke-width:9.72"/>
	<line x1="2533.44" y1="184.61" x2="2598.24" y2="184.61" style="stroke:#F0F0F0;stroke-width:9.72"/>
	<line x1="2630.64" y1="184.61" x2="2695.44" y2="184.61" style="stroke:#F0F0F0;stroke-width:9.72"/>
	<line x1="2727.84" y1="184.61" x2="2792.64" y2="184.61" style="stroke:#F0F0F0;stroke-width:9.72"/>
	<line x1="2825.04" y1="184.61" x2="2889.84" y2="184.61" style="stroke:#F0F0F0;stroke-width:9.72"/>
	<line x1="2922.24" y1="184.61" x2="2987.04" y2="184.61" style="stroke:#F0F0F0;stroke-width:9.72"/>
	<line x1="3019.44" y1="184.61" x2="3084.24" y2="184.61" style="stroke:#F0F0F0;stroke-width:9.72"/>
	<line x1="3116.64" y1="184.61" x2="3181.44" y2="184.61" style="stroke:#F0F0F0;stroke-width:9.72"/>
	<line x1="3213.84" y1="184.61" x2="3278.64" y2="184.61" style="stroke:#F0F0F0;stroke-width:9.72"/>
	<line x1="3311.04" y1="184.61" x2="3375.84" y2="184.61" style="stroke:#F0F0F0;stroke-width:9.72"/>
	<line x1="3408.24" y1="184.61" x2="3473.04" y2="184.61" style="stroke:#F0F0F0;stroke-width:9.72"/>
	<line x1="3505.44" y1="184.61" x2="3570.24" y2="184.61" style="stroke:#F0F0F0;stroke-width:9.72"/>
	<line x1="3602.64" y1="184.61" x2="3667.44" y2="184.61" style="stroke:#F0F0F0;stroke-width:9.72"/>
	<line x1="3699.84" y1="184.61" x2="3764.64" y2="184.61" style="stroke:#F0F0F0;stroke-width:9.72"/>
	<line x1="3797.04" y1="184.61" x2="3861.84" y2="184.61" style="stroke:#F0F0F0;stroke-width:9.72"/>
	<line x1="3894.24" y1="184.61" x2="3959.04" y2="184.61" style="stroke:#F0F0F0;stroke-width:9.72"/>
	<line x1="3991.44" y1="184.61" x2="4056.24" y2="184.61" style="stroke:#F0F0F0;stroke-width:9.72"/>
	<line x1="4088.64" y1="184.61" x2="4153.44" y2="184.61" style="stroke:#F0F0F0;stroke-width:9.72"/>
	<line x1="4185.84" y1="184.61" x2="4250.64" y2="184.61" style="stroke:#F0F0F0;stroke-width:9.72"/>
	<line x1="4283.04" y1="184.61" x2="4347.84" y2="184.61" style="stroke:#F0F0F0;stroke-width:9.72"/>
	<line x1="4380.24" y1="184.61" x2="4445.04" y2="184.61" style="stroke:#F0F0F0;stroke-width:9.72"/>
	<line x1="4477.44" y1="184.61" x2="4542.24" y2="184.61" style="stroke:#F0F0F0;stroke-width:9.72"/>
	<line x1="4574.64" y1="184.61" x2="4639.44" y2="184.61" style="stroke:#F0F0F0;stroke-width:9.72"/>
	<line x1="4671.84" y1="184.61" x2="4736.64" y2="184.61" style="stroke:#F0F0F0;stroke-width:9.72"/>
	<line x1="4769.04" y1="184.61" x2="4833.84" y2="184.61" style="stroke:#F0F0F0;stroke-width:9.72"/>
	<line x1="4866.24" y1="184.61" x2="4931.04" y2="184.61" style="stroke:#F0F0F0;stroke-width:9.72"/>
	<line x1="4963.44" y1="184.61" x2="5028.24" y2="184.61" style="stroke:#F0F0F0;stroke-width:9.72"/>
	<line x1="5060.64" y1="184.61" x2="5125.44" y2="184.61" style="stroke:#F0F0F0;stroke-width:9.72"/>
	<line x1="5157.84" y1="184.61" x2="5222.64" y2="184.61" style="stroke:#F0F0F0;stroke-width:9.72"/>
	<line x1="5255.04" y1="184.61" x2="5286.60" y2="184.61" style="stroke:#F0F0F0;stroke-width:9.72"/>
	<line x1="563.46" y1="2479.11" x2="563.46" y2="2414.31" style="stroke:#F0F0F0;stroke-width:9.72"/>
	<line x1="563.46" y1="2381.91" x2="563.46" y2="2317.11" style="stroke:#F0F0F0;stroke-width:9.72"/>
	<line x1="563.46" y1="2284.71" x2="563.46" y2="2219.91" style="stroke:#F0F0F0;stroke-width:9.72"/>
	<line x1="563.46" y1="2187.51" x2="563.46" y2="2122.71" style="stroke:#F0F0F0;stroke-width:9.72"/>
	<line x1="563.46" y1="2090.31" x2="563.46" y2="2025.51" style="stroke:#F0F0F0;stroke-width:9.72"/>
	<line x1="563.46" y1="1993.11" x2="563.46" y2="1928.31" style="stroke:#F0F0F0;stroke-width:9.72"/>
	<line x1="563.46" y1="1895.91" x2="563.46" y2="1831.11" style="stroke:#F0F0F0;stroke-width:9.72"/>
	<line x1="563.46" y1="1798.71" x2="563.46" y2="1733.91" style="stroke:#F0F0F0;stroke-width:9.72"/>
	<line x1="563.46" y1="1701.51" x2="563.46" y2="1636.71" style="stroke:#F0F0F0;stroke-width:9.72"/>
	<line x1="563.46" y1="1604.31" x2="563.46" y2="1539.51" style="stroke:#F0F0F0;stroke-width:9.72"/>
	<line x1="563.46" y1="1507.11" x2="563.46" y2="1442.31" style="stroke:#F0F0F0;stroke-width:9.72"/>
	<line x1="563.46" y1="1409.91" x2="563.46" y2="1345.11" style="stroke:#F0F0F0;stroke-width:9.72"/>
	<line x1="563.46" y1="1312.71" x2="563.46" y2="1247.91" style="stroke:#F0F0F0;stroke-width:9.72"/>
	<line x1="563.46" y1="1215.51" x2="563.46" y2="1150.71" style="stroke:#F0F0F0;stroke-width:9.72"/>
	<line x1="563.46" y1="1118.31" x2="563.46" y2="1053.51" style="stroke:#F0F0F0;stroke-width:9.72"/>
	<line x1="563.46" y1="1021.11" x2="563.46" y2="956.31" style="stroke:#F0F0F0;stroke-width:9.72"/>
	<line x1="563.46" y1="923.91" x2="563.46" y2="859.11" style="stroke:#F0F0F0;stroke-width:9.72"/>
	<line x1="563.46" y1="826.71" x2="563.46" y2="761.91" style="stroke:#F0F0F0;stroke-width:9.72"/>
	<line x1="563.46" y1="729.51" x2="563.46" y2="664.71" style="stroke:#F0F0F0;stroke-width:9.72"/>
	<line x1="563.46" y1="632.31" x2="563.46" y2="567.51" style="stroke:#F0F0F0;stroke-width:9.72"/>
	<line x1="563.46" y1="535.11" x2="563.46" y2="470.31" style="stroke:#F0F0F0;stroke-width:9.72"/>
	<line x1="563.46" y1="437.91" x2="563.46" y2="373.11" style="stroke:#F0F0F0;stroke-width:9.72"/>
	<line x1="563.46" y1="340.71" x2="563.46" y2="275.91" style="stroke:#F0F0F0;stroke-width:9.72"/>
	<line x1="563.46" y1="243.51" x2="563.46" y2="178.71" style="stroke:#F0F0F0;stroke-width:9.72"/>
	<line x1="563.46" y1="146.31" x2="563.46" y2="113.40" style="stroke:#F0F0F0;stroke-width:9.72"/>
	<line x1="1493.94" y1="2479.11" x2="1493.94" y2="2414.31" style="stroke:#F0F0F0;stroke-width:9.72"/>
	<line x1="1493.94" y1="2381.91" x2="1493.94" y2="2317.11" style="stroke:#F0F0F0;stroke-width:9.72"/>
	<line x1="1493.94" y1="2284.71" x2="1493.94" y2="2219.91" style="stroke:#F0F0F0;stroke-width:9.72"/>
	<line x1="1493.94" y1="2187.51" x2="1493.94" y2="2122.71" style="stroke:#F0F0F0;stroke-width:9.72"/>
	<line x1="1493.94" y1="2090.31" x2="1493.94" y2="2025.51" style="stroke:#F0F0F0;stroke-width:9.72"/>
	<line x1="1493.94" y1="1993.11" x2="1493.94" y2="1928.31" style="stroke:#F0F0F0;stroke-width:9.72"/>
	<line x1="1493.94" y1="1895.91" x2="1493.94" y2="1831.11" style="stroke:#F0F0F0;stroke-width:9.72"/>
	<line x1="1493.94" y1="1798.71" x2="1493.94" y2="1733.91" style="stroke:#F0F0F0;stroke-width:9.72"/>
	<line x1="1493.94" y1="1701.51" x2="1493.94" y2="1636.71" style="stroke:#F0F0F0;stroke-width:9.72"/>
	<line x1="1493.94" y1="1604.31" x2="1493.94" y2="1539.51" style="stroke:#F0F0F0;stroke-width:9.72"/>
	<line x1="1493.94" y1="1507.11" x2="1493.94" y2="1442.31" style="stroke:#F0F0F0;stroke-width:9.72"/>
	<line x1="1493.94" y1="1409.91" x2="1493.94" y2="1345.11" style="stroke:#F0F0F0;stroke-width:9.72"/>
	<line x1="1493.94" y1="1312.71" x2="1493.94" y2="1247.91" style="stroke:#F0F0F0;stroke-width:9.72"/>
	<line x1="1493.94" y1="1215.51" x2="1493.94" y2="1150.71" style="stroke:#F0F0F0;stroke-width:9.72"/>
	<line x1="1493.94" y1="1118.31" x2="1493.94" y2="1053.51" style="stroke:#F0F0F0;stroke-width:9.72"/>
	<line x1="1493.94" y1="1021.11" x2="1493.94" y2="956.31" style="stroke:#F0F0F0;stroke-width:9.72"/>
	<line x1="1493.94" y1="923.91" x2="1493.94" y2="859.11" style="stroke:#F0F0F0;stroke-width:9.72"/>
	<line x1="1493.94" y1="826.71" x2="1493.94" y2="761.91" style="stroke:#F0F0F0;stroke-width:9.72"/>
	<line x1="1493.94" y1="729.51" x2="1493.94" y2="664.71" style="stroke:#F0F0F0;stroke-width:9.72"/>
	<line x1="1493.94" y1="632.31" x2="1493.94" y2="567.51" style="stroke:#F0F0F0;stroke-width:9.72"/>
	<line x1="1493.94" y1="535.11" x2="1493.94" y2="470.31" style="stroke:#F0F0F0;stroke-width:9.72"/>
	<line x1="1493.94" y1="437.91" x2="1493.94" y2="373.11" style="stroke:#F0F0F0;stroke-width:9.72"/>
	<line x1="1493.94" y1="340.71" x2="1493.94" y2="275.91" style="stroke:#F0F0F0;stroke-width:9.72"/>
	<line x1="1493.94" y1="243.51" x2="1493.94" y2="178.71" style="stroke:#F0F0F0;stroke-width:9.72"/>
	<line x1="1493.94" y1="146.31" x2="1493.94" y2="113.40" style="stroke:#F0F0F0;stroke-width:9.72"/>
	<line x1="2424.26" y1="2479.11" x2="2424.26" y2="2414.31" style="stroke:#F0F0F0;stroke-width:9.72"/>
	<line x1="2424.26" y1="2381.91" x2="2424.26" y2="2317.11" style="stroke:#F0F0F0;stroke-width:9.72"/>
	<line x1="2424.26" y1="2284.71" x2="2424.26" y2="2219.91" style="stroke:#F0F0F0;stroke-width:9.72"/>
	<line x1="2424.26" y1="2187.51" x2="2424.26" y2="2122.71" style="stroke:#F0F0F0;stroke-width:9.72"/>
	<line x1="2424.26" y1="2090.31" x2="2424.26" y2="2025.51" style="stroke:#F0F0F0;stroke-width:9.72"/>
	<line x1="2424.26" y1="1993.11" x2="2424.26" y2="1928.31" style="stroke:#F0F0F0;stroke-width:9.72"/>
	<line x1="2424.26" y1="1895.91" x2="2424.26" y2="1831.11" style="stroke:#F0F0F0;stroke-width:9.72"/>
	<line x1="2424.26" y1="1798.71" x2="2424.26" y2="1733.91" style="stroke:#F0F0F0;stroke-width:9.72"/>
	<line x1="2424.26" y1="1701.51" x2="2424.26" y2="1636.71" style="stroke:#F0F0F0;stroke-width:9.72"/>
	<line x1="2424.26" y1="1604.31" x2="2424.26" y2="1539.51" style="stroke:#F0F0F0;stroke-width:9.72"/>
	<line x1="2424.26" y1="1507.11" x2="2424.26" y2="1442.31" style="stroke:#F0F0F0;stroke-width:9.72"/>
	<line x1="2424.26" y1="1409.91" x2="2424.26" y2="1345.11" style="stroke:#F0F0F0;stroke-width:9.72"/>
	<line x1="2424.26" y1="1312.71" x2="2424.26" y2="1247.91" style="stroke:#F0F0F0;stroke-width:9.72"/>
	<line x1="2424.26" y1="1215.51" x2="2424.26" y2="1150.71" style="stroke:#F0F0F0;stroke-width:9.72"/>
	<line x1="2424.26" y1="1118.31" x2="2424.26" y2="1053.51" style="stroke:#F0F0F0;stroke-width:9.72"/>
	<line x1="2424.26" y1="1021.11" x2="2424.26" y2="956.31" style="stroke:#F0F0F0;stroke-width:9.72"/>
	<line x1="2424.26" y1="923.91" x2="2424.26" y2="859.11" style="stroke:#F0F0F0;stroke-width:9.72"/>
	<line x1="2424.26" y1="826.71" x2="2424.26" y2="761.91" style="stroke:#F0F0F0;stroke-width:9.72"/>
	<line x1="2424.26" y1="729.51" x2="2424.26" y2="664.71" style="stroke:#F0F0F0;stroke-width:9.72"/>
	<line x1="2424.26" y1="632.31" x2="2424.26" y2="567.51" style="stroke:#F0F0F0;stroke-width:9.72"/>
	<line x1="2424.26" y1="535.11" x2="2424.26" y2="470.31" style="stroke:#F0F0F0;stroke-width:9.72"/>
	<line x1="2424.26" y1="437.91" x2="2424.26" y2="373.11" style="stroke:#F0F0F0;stroke-width:9.72"/>
	<line x1="2424.26" y1="340.71" x2="2424.26" y2="275.91" style="stroke:#F0F0F0;stroke-width:9.72"/>
	<line x1="2424.26" y1="243.51" x2="2424.26" y2="178.71" style="stroke:#F0F0F0;stroke-width:9.72"/>
	<line x1="2424.26" y1="146.31" x2="2424.26" y2="113.40" style="stroke:#F0F0F0;stroke-width:9.72"/>
	<line x1="3354.58" y1="2479.11" x2="3354.58" y2="2414.31" style="stroke:#F0F0F0;stroke-width:9.72"/>
	<line x1="3354.58" y1="2381.91" x2="3354.58" y2="2317.11" style="stroke:#F0F0F0;stroke-width:9.72"/>
	<line x1="3354.58" y1="2284.71" x2="3354.58" y2="2219.91" style="stroke:#F0F0F0;stroke-width:9.72"/>
	<line x1="3354.58" y1="2187.51" x2="3354.58" y2="2122.71" style="stroke:#F0F0F0;stroke-width:9.72"/>
	<line x1="3354.58" y1="2090.31" x2="3354.58" y2="2025.51" style="stroke:#F0F0F0;stroke-width:9.72"/>
	<line x1="3354.58" y1="1993.11" x2="3354.58" y2="1928.31" style="stroke:#F0F0F0;stroke-width:9.72"/>
	<line x1="3354.58" y1="1895.91" x2="3354.58" y2="1831.11" style="stroke:#F0F0F0;stroke-width:9.72"/>
	<line x1="3354.58" y1="1798.71" x2="3354.58" y2="1733.91" style="stroke:#F0F0F0;stroke-width:9.72"/>
	<line x1="3354.58" y1="1701.51" x2="3354.58" y2="1636.71" style="stroke:#F0F0F0;stroke-width:9.72"/>
	<line x1="3354.58" y1="1604.31" x2="3354.58" y2="1539.51" style="stroke:#F0F0F0;stroke-width:9.72"/>
	<line x1="3354.58" y1="1507.11" x2="3354.58" y2="1442.31" style="stroke:#F0F0F0;stroke-width:9.72"/>
	<line x1="3354.58" y1="1409.91" x2="3354.58" y2="1345.11" style="stroke:#F0F0F0;stroke-width:9.72"/>
	<line x1="3354.58" y1="1312.71" x2="3354.58" y2="1247.91" style="stroke:#F0F0F0;stroke-width:9.72"/>
	<line x1="3354.58" y1="1215.51" x2="3354.58" y2="1150.71" style="stroke:#F0F0F0;stroke-width:9.72"/>
	<line x1="3354.58" y1="1118.31" x2="3354.58" y2="1053.51" style="stroke:#F0F0F0;stroke-width:9.72"/>
	<line x1="3354.58" y1="1021.11" x2="3354.58" y2="956.31" style="stroke:#F0F0F0;stroke-width:9.72"/>
	<line x1="3354.58" y1="923.91" x2="3354.58" y2="859.11" style="stroke:#F0F0F0;stroke-width:9.72"/>
	<line x1="3354.58" y1="826.71" x2="3354.58" y2="761.91" style="stroke:#F0F0F0;stroke-width:9.72"/>
	<line x1="3354.58" y1="729.51" x2="3354.58" y2="664.71" style="stroke:#F0F0F0;stroke-width:9.72"/>
	<line x1="3354.58" y1="632.31" x2="3354.58" y2="567.51" style="stroke:#F0F0F0;stroke-width:9.72"/>
	<line x1="3354.58" y1="535.11" x2="3354.58" y2="470.31" style="stroke:#F0F0F0;stroke-width:9.72"/>
	<line x1="3354.58" y1="437.91" x2="3354.58" y2="373.11" style="stroke:#F0F0F0;stroke-width:9.72"/>
	<line x1="3354.58" y1="340.71" x2="3354.58" y2="275.91" style="stroke:#F0F0F0;stroke-width:9.72"/>
	<line x1="3354.58" y1="243.51" x2="3354.58" y2="178.71" style="stroke:#F0F0F0;stroke-width:9.72"/>
	<line x1="3354.58" y1="146.31" x2="3354.58" y2="113.40" style="stroke:#F0F0F0;stroke-width:9.72"/>
	<line x1="4284.90" y1="2479.11" x2="4284.90" y2="2414.31" style="stroke:#F0F0F0;stroke-width:9.72"/>
	<line x1="4284.90" y1="2381.91" x2="4284.90" y2="2317.11" style="stroke:#F0F0F0;stroke-width:9.72"/>
	<line x1="4284.90" y1="2284.71" x2="4284.90" y2="2219.91" style="stroke:#F0F0F0;stroke-width:9.72"/>
	<line x1="4284.90" y1="2187.51" x2="4284.90" y2="2122.71" style="stroke:#F0F0F0;stroke-width:9.72"/>
	<line x1="4284.90" y1="2090.31" x2="4284.90" y2="2025.51" style="stroke:#F0F0F0;stroke-width:9.72"/>
	<line x1="4284.90" y1="1993.11" x2="4284.90" y2="1928.31" style="stroke:#F0F0F0;stroke-width:9.72"/>
	<line x1="4284.90" y1="1895.91" x2="4284.90" y2="1831.11" style="stroke:#F0F0F0;stroke-width:9.72"/>
	<line x1="4284.90" y1="1798.71" x2="4284.90" y2="1733.91" style="stroke:#F0F0F0;stroke-width:9.72"/>
	<line x1="4284.90" y1="1701.51" x2="4284.90" y2="1636.71" style="stroke:#F0F0F0;stroke-width:9.72"/>
	<line x1="4284.90" y1="1604.31" x2="4284.90" y2="1539.51" style="stroke:#F0F0F0;stroke-width:9.72"/>
	<line x1="4284.90" y1="1507.11" x2="4284.90" y2="1442.31" style="stroke:#F0F0F0;stroke-width:9.72"/>
	<line x1="4284.90" y1="1409.91" x2="4284.90" y2="1345.11" style="stroke:#F0F0F0;stroke-width:9.72"/>
	<line x1="4284.90" y1="1312.71" x2="4284.90" y2="1247.91" style="stroke:#F0F0F0;stroke-width:9.72"/>
	<line x1="4284.90" y1="1215.51" x2="4284.90" y2="1150.71" style="stroke:#F0F0F0;stroke-width:9.72"/>
	<line x1="4284.90" y1="1118.31" x2="4284.90" y2="1053.51" style="stroke:#F0F0F0;stroke-width:9.72"/>
	<line x1="4284.90" y1="1021.11" x2="4284.90" y2="956.31" style="stroke:#F0F0F0;stroke-width:9.72"/>
	<line x1="4284.90" y1="923.91" x2="4284.90" y2="859.11" style="stroke:#F0F0F0;stroke-width:9.72"/>
	<line x1="4284.90" y1="826.71" x2="4284.90" y2="761.91" style="stroke:#F0F0F0;stroke-width:9.72"/>
	<line x1="4284.90" y1="729.51" x2="4284.90" y2="664.71" style="stroke:#F0F0F0;stroke-width:9.72"/>
	<line x1="4284.90" y1="632.31" x2="4284.90" y2="567.51" style="stroke:#F0F0F0;stroke-width:9.72"/>
	<line x1="4284.90" y1="535.11" x2="4284.90" y2="470.31" style="stroke:#F0F0F0;stroke-width:9.72"/>
	<line x1="4284.90" y1="437.91" x2="4284.90" y2="373.11" style="stroke:#F0F0F0;stroke-width:9.72"/>
	<line x1="4284.90" y1="340.71" x2="4284.90" y2="275.91" style="stroke:#F0F0F0;stroke-width:9.72"/>
	<line x1="4284.90" y1="243.51" x2="4284.90" y2="178.71" style="stroke:#F0F0F0;stroke-width:9.72"/>
	<line x1="4284.90" y1="146.31" x2="4284.90" y2="113.40" style="stroke:#F0F0F0;stroke-width:9.72"/>
	<line x1="5215.39" y1="2479.11" x2="5215.39" y2="2414.31" style="stroke:#F0F0F0;stroke-width:9.72"/>
	<line x1="5215.39" y1="2381.91" x2="5215.39" y2="2317.11" style="stroke:#F0F0F0;stroke-width:9.72"/>
	<line x1="5215.39" y1="2284.71" x2="5215.39" y2="2219.91" style="stroke:#F0F0F0;stroke-width:9.72"/>
	<line x1="5215.39" y1="2187.51" x2="5215.39" y2="2122.71" style="stroke:#F0F0F0;stroke-width:9.72"/>
	<line x1="5215.39" y1="2090.31" x2="5215.39" y2="2025.51" style="stroke:#F0F0F0;stroke-width:9.72"/>
	<line x1="5215.39" y1="1993.11" x2="5215.39" y2="1928.31" style="stroke:#F0F0F0;stroke-width:9.72"/>
	<line x1="5215.39" y1="1895.91" x2="5215.39" y2="1831.11" style="stroke:#F0F0F0;stroke-width:9.72"/>
	<line x1="5215.39" y1="1798.71" x2="5215.39" y2="1733.91" style="stroke:#F0F0F0;stroke-width:9.72"/>
	<line x1="5215.39" y1="1701.51" x2="5215.39" y2="1636.71" style="stroke:#F0F0F0;stroke-width:9.72"/>
	<line x1="5215.39" y1="1604.31" x2="5215.39" y2="1539.51" style="stroke:#F0F0F0;stroke-width:9.72"/>
	<line x1="5215.39" y1="1507.11" x2="5215.39" y2="1442.31" style="stroke:#F0F0F0;stroke-width:9.72"/>
	<line x1="5215.39" y1="1409.91" x2="5215.39" y2="1345.11" style="stroke:#F0F0F0;stroke-width:9.72"/>
	<line x1="5215.39" y1="1312.71" x2="5215.39" y2="1247.91" style="stroke:#F0F0F0;stroke-width:9.72"/>
	<line x1="5215.39" y1="1215.51" x2="5215.39" y2="1150.71" style="stroke:#F0F0F0;stroke-width:9.72"/>
	<line x1="5215.39" y1="1118.31" x2="5215.39" y2="1053.51" style="stroke:#F0F0F0;stroke-width:9.72"/>
	<line x1="5215.39" y1="1021.11" x2="5215.39" y2="956.31" style="stroke:#F0F0F0;stroke-width:9.72"/>
	<line x1="5215.39" y1="923.91" x2="5215.39" y2="859.11" style="stroke:#F0F0F0;stroke-width:9.72"/>
	<line x1="5215.39" y1="826.71" x2="5215.39" y2="761.91" style="stroke:#F0F0F0;stroke-width:9.72"/>
	<line x1="5215.39" y1="729.51" x2="5215.39" y2="664.71" style="stroke:#F0F0F0;stroke-width:9.72"/>
	<line x1="5215.39" y1="632.31" x2="5215.39" y2="567.51" style="stroke:#F0F0F0;stroke-width:9.72"/>
	<line x1="5215.39" y1="535.11" x2="5215.39" y2="470.31" style="stroke:#F0F0F0;stroke-width:9.72"/>
	<line x1="5215.39" y1="437.91" x2="5215.39" y2="373.11" style="stroke:#F0F0F0;stroke-width:9.72"/>
	<line x1="5215.39" y1="340.71" x2="5215.39" y2="275.91" style="stroke:#F0F0F0;stroke-width:9.72"/>
	<line x1="5215.39" y1="243.51" x2="5215.39" y2="178.71" style="stroke:#F0F0F0;stroke-width:9.72"/>
	<line x1="5215.39" y1="146.31" x2="5215.39" y2="113.40" style="stroke:#F0F0F0;stroke-width:9.72"/>
	<path d=" M1020.09 1375.48 L1121.68 1378.01 L1128.60 1371.43 L1164.21 1362.49 L1307.47 1369.58 L1556.89 1367.38 L1721.25 1344.26 L1798.71 1361.64 L1851.19 1346.63 L1901.98 1343.42 L1998.34 1356.75 L2166.07 1349.16 L2306.31 1338.36 L2425.11 1347.98 L2627.61 1354.39 L2737.63 1352.87 L2742.86 1369.74 L2763.79 1367.55 L2784.21 1363.67 L2898.96 1364.68 L3059.94 1360.80 L3162.38 1370.08 L3219.58 1357.09 L3232.74 1351.18 L3265.82 1349.16 L3367.74 1349.66 L3476.93 1358.10 L3652.59 1355.91 L3825.56 1337.85 L3868.09 1354.56 L3891.21 1350.51 L3902.51 1346.79 L3999.04 1360.97 L4104.00 1374.81 L4136.57 1380.88 L4191.24 1382.57 L4275.11 1367.72 L4326.92 1367.38 L4385.64 1359.11 L4452.13 1370.42 L4504.44 1366.37 L4583.93 1352.87 L4661.04 1342.24 L4711.67 1337.85 L4761.28 1340.72 L4842.11 1351.01 L4954.50 1332.11 L5056.59 1360.13 L5092.71 1360.46 L5124.94 1359.79 L5185.52 1373.79" stroke-linejoin="round" style="fill:none;stroke:#000000;stroke-width:14.58"/>
	<path d=" M1020.09 362.47 L1121.68 361.80 L1128.60 359.78 L1164.21 347.79 L1307.47 358.93 L1556.89 353.36 L1721.25 329.57 L1798.71 348.47 L1851.19 349.48 L1901.98 344.76 L1998.34 354.04 L2166.07 351.17 L2306.31 347.46 L2425.11 350.16 L2627.61 349.65 L2737.63 349.82 L2742.86 360.11 L2763.79 362.81 L2784.21 360.45 L2898.96 357.75 L3059.94 349.82 L3162.38 366.19 L3219.58 351.84 L3232.74 341.89 L3265.82 332.78 L3367.74 326.03 L3476.93 336.49 L3652.59 336.32 L3825.56 316.74 L3868.09 345.77 L3891.21 343.91 L3902.51 352.18 L3999.04 358.59 L4104.00 364.50 L4136.57 362.64 L4191.24 369.73 L4275.11 346.78 L4326.92 360.79 L4385.64 358.93 L4452.13 364.33 L4504.44 362.98 L4583.93 346.44 L4661.04 338.85 L4711.67 340.71 L4761.28 334.46 L4842.11 353.36 L4954.50 355.22 L5056.59 372.94 L5092.71 380.03 L5124.94 372.43 L5185.52 392.51" stroke-linejoin="round" style="fill:none;stroke:#A0A0A0;stroke-width:14.58"/>
	<path d=" M1020.09 2388.49 L1121.68 2394.06 L1128.60 2383.26 L1164.21 2377.18 L1307.47 2380.05 L1556.89 2381.40 L1721.25 2358.79 L1798.71 2374.65 L1851.19 2343.77 L1901.98 2342.08 L1998.34 2359.46 L2166.07 2347.14 L2306.31 2329.26 L2425.11 2345.79 L2627.61 2359.13 L2737.63 2355.92 L2742.86 2379.21 L2763.79 2372.29 L2784.21 2366.89 L2898.96 2371.78 L3059.94 2371.78 L3162.38 2373.98 L3219.58 2362.33 L3232.74 2360.31 L3265.82 2365.54 L3367.74 2373.47 L3476.93 2379.88 L3652.59 2375.49 L3825.56 2358.96 L3868.09 2363.18 L3891.21 2357.10 L3902.51 2341.57 L3999.04 2363.34 L4104.00 2385.11 L4136.57 2399.12 L4191.24 2395.41 L4275.11 2388.66 L4326.92 2373.81 L4385.64 2359.46 L4452.13 2376.51 L4504.44 2369.59 L4583.93 2359.13 L4661.04 2345.63 L4711.67 2334.99 L4761.28 2346.98 L4842.11 2348.49 L4954.50 2309.01 L5056.59 2347.31 L5092.71 2340.90 L5124.94 2347.31 L5185.52 2354.91" stroke-linejoin="round" style="fill:none;stroke:#A0A0A0;stroke-width:14.58"/>
	<line x1="492.24" y1="2479.11" x2="492.24" y2="113.40" style="stroke:#000000;stroke-width:6.48"/>
	<line x1="492.24" y1="2407.89" x2="447.19" y2="2407.89" style="stroke:#000000;stroke-width:6.48"/>
	<text x="424.74" y="2447.33" style="font-family:'Helvetica';font-size:112.56px;fill:#000000" text-anchor="end">.2</text>
	<line x1="492.24" y1="1852.03" x2="447.19" y2="1852.03" style="stroke:#000000;stroke-width:6.48"/>
	<text x="424.74" y="1891.47" style="font-family:'Helvetica';font-size:112.56px;fill:#000000" text-anchor="end">.3</text>
	<line x1="492.24" y1="1296.34" x2="447.19" y2="1296.34" style="stroke:#000000;stroke-width:6.48"/>
	<text x="424.74" y="1335.77" style="font-family:'Helvetica';font-size:112.56px;fill:#000000" text-anchor="end">.4</text>
	<line x1="492.24" y1="740.47" x2="447.19" y2="740.47" style="stroke:#000000;stroke-width:6.48"/>
	<text x="424.74" y="779.91" style="font-family:'Helvetica';font-size:112.56px;fill:#000000" text-anchor="end">.5</text>
	<line x1="492.24" y1="184.61" x2="447.19" y2="184.61" style="stroke:#000000;stroke-width:6.48"/>
	<text x="424.74" y="224.05" style="font-family:'Helvetica';font-size:112.56px;fill:#000000" text-anchor="end">.6</text>
	<text x="214.55" y="1296.34" style="font-family:'Helvetica';font-size:112.56px;fill:#000000" transform="rotate(-90 214.55,1296.34)" text-anchor="middle">Estimated causal effect</text>
	<line x1="492.24" y1="2479.11" x2="5286.60" y2="2479.11" style="stroke:#000000;stroke-width:6.48"/>
	<line x1="563.46" y1="2479.11" x2="563.46" y2="2524.16" style="stroke:#000000;stroke-width:6.48"/>
	<text x="563.46" y="2625.31" style="font-family:'Helvetica';font-size:112.56px;fill:#000000" text-anchor="middle">1.35</text>
	<line x1="1493.94" y1="2479.11" x2="1493.94" y2="2524.16" style="stroke:#000000;stroke-width:6.48"/>
	<text x="1493.94" y="2625.31" style="font-family:'Helvetica';font-size:112.56px;fill:#000000" text-anchor="middle">1.355</text>
	<line x1="2424.26" y1="2479.11" x2="2424.26" y2="2524.16" style="stroke:#000000;stroke-width:6.48"/>
	<text x="2424.26" y="2625.31" style="font-family:'Helvetica';font-size:112.56px;fill:#000000" text-anchor="middle">1.36</text>
	<line x1="3354.58" y1="2479.11" x2="3354.58" y2="2524.16" style="stroke:#000000;stroke-width:6.48"/>
	<text x="3354.58" y="2625.31" style="font-family:'Helvetica';font-size:112.56px;fill:#000000" text-anchor="middle">1.365</text>
	<line x1="4284.90" y1="2479.11" x2="4284.90" y2="2524.16" style="stroke:#000000;stroke-width:6.48"/>
	<text x="4284.90" y="2625.31" style="font-family:'Helvetica';font-size:112.56px;fill:#000000" text-anchor="middle">1.37</text>
	<line x1="5215.39" y1="2479.11" x2="5215.39" y2="2524.16" style="stroke:#000000;stroke-width:6.48"/>
	<text x="5215.39" y="2625.31" style="font-family:'Helvetica';font-size:112.56px;fill:#000000" text-anchor="middle">1.375</text>
	<text x="2889.34" y="2782.75" style="font-family:'Helvetica';font-size:112.56px;fill:#000000" text-anchor="middle">Median of exposure in moving window</text>
	<rect x="1481.12" y="2878.03" width="2816.44" height="209.76" style="fill:#FFFFFF"/>
	<rect x="1484.36" y="2881.27" width="2809.96" height="203.28" style="fill:none;stroke:#FFFFFF;stroke-width:6.48"/>
	<line x1="1529.72" y1="2982.83" x2="1788.92" y2="2982.83" style="stroke:#000000;stroke-width:14.58"/>
	<line x1="3233.08" y1="2982.83" x2="3492.28" y2="2982.83" style="stroke:#A0A0A0;stroke-width:14.58"/>
	<text x="1856.42" y="3022.26" style="font-family:'Helvetica';font-size:112.56px;fill:#000000">Estimated causal effect</text>
	<text x="3559.78" y="3022.26" style="font-family:'Helvetica';font-size:112.56px;fill:#000000">95% CI limits</text>
</svg>
