<?xml version="1.0" encoding="UTF-8" standalone="no"?>
<!-- This is a Stata 18.0 generated SVG file (http://www.stata.com) -->

<svg version="1.1" width="7.500in" height="4.500in" viewBox="0 0 5400 3240" xmlns="http://www.w3.org/2000/svg" xmlns:xlink="http://www.w3.org/1999/xlink">
	<desc>Stata Graph - Graph</desc>
	<rect x="0" y="0" width="5400" height="3240" style="fill:#FFFFFF;stroke:none"/>
	<rect x="0.00" y="0.00" width="5400.00" height="3240.00" style="fill:#FFFFFF"/>
	<rect x="3.24" y="3.24" width="5393.52" height="3233.52" style="fill:none;stroke:#FFFFFF;stroke-width:6.48"/>
	<rect x="557.89" y="113.40" width="1834.48" height="2653.26" style="fill:#FFFFFF"/>
	<rect x="561.13" y="116.64" width="1828.00" height="2646.78" style="fill:none;stroke:#FFFFFF;stroke-width:6.48"/>
	<line x1="557.89" y1="2695.28" x2="622.69" y2="2695.28" style="stroke:#F0F0F0;stroke-width:9.72"/>
	<line x1="655.09" y1="2695.28" x2="719.89" y2="2695.28" style="stroke:#F0F0F0;stroke-width:9.72"/>
	<line x1="752.29" y1="2695.28" x2="817.09" y2="2695.28" style="stroke:#F0F0F0;stroke-width:9.72"/>
	<line x1="849.49" y1="2695.28" x2="914.29" y2="2695.28" style="stroke:#F0F0F0;stroke-width:9.72"/>
	<line x1="946.69" y1="2695.28" x2="1011.49" y2="2695.28" style="stroke:#F0F0F0;stroke-width:9.72"/>
	<line x1="1043.89" y1="2695.28" x2="1108.69" y2="2695.28" style="stroke:#F0F0F0;stroke-width:9.72"/>
	<line x1="1141.09" y1="2695.28" x2="1205.89" y2="2695.28" style="stroke:#F0F0F0;stroke-width:9.72"/>
	<line x1="1238.29" y1="2695.28" x2="1303.09" y2="2695.28" style="stroke:#F0F0F0;stroke-width:9.72"/>
	<line x1="1335.49" y1="2695.28" x2="1400.29" y2="2695.28" style="stroke:#F0F0F0;stroke-width:9.72"/>
	<line x1="1432.69" y1="2695.28" x2="1497.49" y2="2695.28" style="stroke:#F0F0F0;stroke-width:9.72"/>
	<line x1="1529.89" y1="2695.28" x2="1594.69" y2="2695.28" style="stroke:#F0F0F0;stroke-width:9.72"/>
	<line x1="1627.09" y1="2695.28" x2="1691.89" y2="2695.28" style="stroke:#F0F0F0;stroke-width:9.72"/>
	<line x1="1724.29" y1="2695.28" x2="1789.09" y2="2695.28" style="stroke:#F0F0F0;stroke-width:9.72"/>
	<line x1="1821.49" y1="2695.28" x2="1886.29" y2="2695.28" style="stroke:#F0F0F0;stroke-width:9.72"/>
	<line x1="1918.69" y1="2695.28" x2="1983.49" y2="2695.28" style="stroke:#F0F0F0;stroke-width:9.72"/>
	<line x1="2015.89" y1="2695.28" x2="2080.69" y2="2695.28" style="stroke:#F0F0F0;stroke-width:9.72"/>
	<line x1="2113.09" y1="2695.28" x2="2177.89" y2="2695.28" style="stroke:#F0F0F0;stroke-width:9.72"/>
	<line x1="2210.29" y1="2695.28" x2="2275.09" y2="2695.28" style="stroke:#F0F0F0;stroke-width:9.72"/>
	<line x1="2307.49" y1="2695.28" x2="2372.29" y2="2695.28" style="stroke:#F0F0F0;stroke-width:9.72"/>
	<line x1="557.89" y1="2067.69" x2="622.69" y2="2067.69" style="stroke:#F0F0F0;stroke-width:9.72"/>
	<line x1="655.09" y1="2067.69" x2="719.89" y2="2067.69" style="stroke:#F0F0F0;stroke-width:9.72"/>
	<line x1="752.29" y1="2067.69" x2="817.09" y2="2067.69" style="stroke:#F0F0F0;stroke-width:9.72"/>
	<line x1="849.49" y1="2067.69" x2="914.29" y2="2067.69" style="stroke:#F0F0F0;stroke-width:9.72"/>
	<line x1="946.69" y1="2067.69" x2="1011.49" y2="2067.69" style="stroke:#F0F0F0;stroke-width:9.72"/>
	<line x1="1043.89" y1="2067.69" x2="1108.69" y2="2067.69" style="stroke:#F0F0F0;stroke-width:9.72"/>
	<line x1="1141.09" y1="2067.69" x2="1205.89" y2="2067.69" style="stroke:#F0F0F0;stroke-width:9.72"/>
	<line x1="1238.29" y1="2067.69" x2="1303.09" y2="2067.69" style="stroke:#F0F0F0;stroke-width:9.72"/>
	<line x1="1335.49" y1="2067.69" x2="1400.29" y2="2067.69" style="stroke:#F0F0F0;stroke-width:9.72"/>
	<line x1="1432.69" y1="2067.69" x2="1497.49" y2="2067.69" style="stroke:#F0F0F0;stroke-width:9.72"/>
	<line x1="1529.89" y1="2067.69" x2="1594.69" y2="2067.69" style="stroke:#F0F0F0;stroke-width:9.72"/>
	<line x1="1627.09" y1="2067.69" x2="1691.89" y2="2067.69" style="stroke:#F0F0F0;stroke-width:9.72"/>
	<line x1="1724.29" y1="2067.69" x2="1789.09" y2="2067.69" style="stroke:#F0F0F0;stroke-width:9.72"/>
	<line x1="1821.49" y1="2067.69" x2="1886.29" y2="2067.69" style="stroke:#F0F0F0;stroke-width:9.72"/>
	<line x1="1918.69" y1="2067.69" x2="1983.49" y2="2067.69" style="stroke:#F0F0F0;stroke-width:9.72"/>
	<line x1="2015.89" y1="2067.69" x2="2080.69" y2="2067.69" style="stroke:#F0F0F0;stroke-width:9.72"/>
	<line x1="2113.09" y1="2067.69" x2="2177.89" y2="2067.69" style="stroke:#F0F0F0;stroke-width:9.72"/>
	<line x1="2210.29" y1="2067.69" x2="2275.09" y2="2067.69" style="stroke:#F0F0F0;stroke-width:9.72"/>
	<line x1="2307.49" y1="2067.69" x2="2372.29" y2="2067.69" style="stroke:#F0F0F0;stroke-width:9.72"/>
	<line x1="557.89" y1="1439.94" x2="622.69" y2="1439.94" style="stroke:#F0F0F0;stroke-width:9.72"/>
	<line x1="655.09" y1="1439.94" x2="719.89" y2="1439.94" style="stroke:#F0F0F0;stroke-width:9.72"/>
	<line x1="752.29" y1="1439.94" x2="817.09" y2="1439.94" style="stroke:#F0F0F0;stroke-width:9.72"/>
	<line x1="849.49" y1="1439.94" x2="914.29" y2="1439.94" style="stroke:#F0F0F0;stroke-width:9.72"/>
	<line x1="946.69" y1="1439.94" x2="1011.49" y2="1439.94" style="stroke:#F0F0F0;stroke-width:9.72"/>
	<line x1="1043.89" y1="1439.94" x2="1108.69" y2="1439.94" style="stroke:#F0F0F0;stroke-width:9.72"/>
	<line x1="1141.09" y1="1439.94" x2="1205.89" y2="1439.94" style="stroke:#F0F0F0;stroke-width:9.72"/>
	<line x1="1238.29" y1="1439.94" x2="1303.09" y2="1439.94" style="stroke:#F0F0F0;stroke-width:9.72"/>
	<line x1="1335.49" y1="1439.94" x2="1400.29" y2="1439.94" style="stroke:#F0F0F0;stroke-width:9.72"/>
	<line x1="1432.69" y1="1439.94" x2="1497.49" y2="1439.94" style="stroke:#F0F0F0;stroke-width:9.72"/>
	<line x1="1529.89" y1="1439.94" x2="1594.69" y2="1439.94" style="stroke:#F0F0F0;stroke-width:9.72"/>
	<line x1="1627.09" y1="1439.94" x2="1691.89" y2="1439.94" style="stroke:#F0F0F0;stroke-width:9.72"/>
	<line x1="1724.29" y1="1439.94" x2="1789.09" y2="1439.94" style="stroke:#F0F0F0;stroke-width:9.72"/>
	<line x1="1821.49" y1="1439.94" x2="1886.29" y2="1439.94" style="stroke:#F0F0F0;stroke-width:9.72"/>
	<line x1="1918.69" y1="1439.94" x2="1983.49" y2="1439.94" style="stroke:#F0F0F0;stroke-width:9.72"/>
	<line x1="2015.89" y1="1439.94" x2="2080.69" y2="1439.94" style="stroke:#F0F0F0;stroke-width:9.72"/>
	<line x1="2113.09" y1="1439.94" x2="2177.89" y2="1439.94" style="stroke:#F0F0F0;stroke-width:9.72"/>
	<line x1="2210.29" y1="1439.94" x2="2275.09" y2="1439.94" style="stroke:#F0F0F0;stroke-width:9.72"/>
	<line x1="2307.49" y1="1439.94" x2="2372.29" y2="1439.94" style="stroke:#F0F0F0;stroke-width:9.72"/>
	<line x1="557.89" y1="812.36" x2="622.69" y2="812.36" style="stroke:#F0F0F0;stroke-width:9.72"/>
	<line x1="655.09" y1="812.36" x2="719.89" y2="812.36" style="stroke:#F0F0F0;stroke-width:9.72"/>
	<line x1="752.29" y1="812.36" x2="817.09" y2="812.36" style="stroke:#F0F0F0;stroke-width:9.72"/>
	<line x1="849.49" y1="812.36" x2="914.29" y2="812.36" style="stroke:#F0F0F0;stroke-width:9.72"/>
	<line x1="946.69" y1="812.36" x2="1011.49" y2="812.36" style="stroke:#F0F0F0;stroke-width:9.72"/>
	<line x1="1043.89" y1="812.36" x2="1108.69" y2="812.36" style="stroke:#F0F0F0;stroke-width:9.72"/>
	<line x1="1141.09" y1="812.36" x2="1205.89" y2="812.36" style="stroke:#F0F0F0;stroke-width:9.72"/>
	<line x1="1238.29" y1="812.36" x2="1303.09" y2="812.36" style="stroke:#F0F0F0;stroke-width:9.72"/>
	<line x1="1335.49" y1="812.36" x2="1400.29" y2="812.36" style="stroke:#F0F0F0;stroke-width:9.72"/>
	<line x1="1432.69" y1="812.36" x2="1497.49" y2="812.36" style="stroke:#F0F0F0;stroke-width:9.72"/>
	<line x1="1529.89" y1="812.36" x2="1594.69" y2="812.36" style="stroke:#F0F0F0;stroke-width:9.72"/>
	<line x1="1627.09" y1="812.36" x2="1691.89" y2="812.36" style="stroke:#F0F0F0;stroke-width:9.72"/>
	<line x1="1724.29" y1="812.36" x2="1789.09" y2="812.36" style="stroke:#F0F0F0;stroke-width:9.72"/>
	<line x1="1821.49" y1="812.36" x2="1886.29" y2="812.36" style="stroke:#F0F0F0;stroke-width:9.72"/>
	<line x1="1918.69" y1="812.36" x2="1983.49" y2="812.36" style="stroke:#F0F0F0;stroke-width:9.72"/>
	<line x1="2015.89" y1="812.36" x2="2080.69" y2="812.36" style="stroke:#F0F0F0;stroke-width:9.72"/>
	<line x1="2113.09" y1="812.36" x2="2177.89" y2="812.36" style="stroke:#F0F0F0;stroke-width:9.72"/>
	<line x1="2210.29" y1="812.36" x2="2275.09" y2="812.36" style="stroke:#F0F0F0;stroke-width:9.72"/>
	<line x1="2307.49" y1="812.36" x2="2372.29" y2="812.36" style="stroke:#F0F0F0;stroke-width:9.72"/>
	<line x1="557.89" y1="184.61" x2="622.69" y2="184.61" style="stroke:#F0F0F0;stroke-width:9.72"/>
	<line x1="655.09" y1="184.61" x2="719.89" y2="184.61" style="stroke:#F0F0F0;stroke-width:9.72"/>
	<line x1="752.29" y1="184.61" x2="817.09" y2="184.61" style="stroke:#F0F0F0;stroke-width:9.72"/>
	<line x1="849.49" y1="184.61" x2="914.29" y2="184.61" style="stroke:#F0F0F0;stroke-width:9.72"/>
	<line x1="946.69" y1="184.61" x2="1011.49" y2="184.61" style="stroke:#F0F0F0;stroke-width:9.72"/>
	<line x1="1043.89" y1="184.61" x2="1108.69" y2="184.61" style="stroke:#F0F0F0;stroke-width:9.72"/>
	<line x1="1141.09" y1="184.61" x2="1205.89" y2="184.61" style="stroke:#F0F0F0;stroke-width:9.72"/>
	<line x1="1238.29" y1="184.61" x2="1303.09" y2="184.61" style="stroke:#F0F0F0;stroke-width:9.72"/>
	<line x1="1335.49" y1="184.61" x2="1400.29" y2="184.61" style="stroke:#F0F0F0;stroke-width:9.72"/>
	<line x1="1432.69" y1="184.61" x2="1497.49" y2="184.61" style="stroke:#F0F0F0;stroke-width:9.72"/>
	<line x1="1529.89" y1="184.61" x2="1594.69" y2="184.61" style="stroke:#F0F0F0;stroke-width:9.72"/>
	<line x1="1627.09" y1="184.61" x2="1691.89" y2="184.61" style="stroke:#F0F0F0;stroke-width:9.72"/>
	<line x1="1724.29" y1="184.61" x2="1789.09" y2="184.61" style="stroke:#F0F0F0;stroke-width:9.72"/>
	<line x1="1821.49" y1="184.61" x2="1886.29" y2="184.61" style="stroke:#F0F0F0;stroke-width:9.72"/>
	<line x1="1918.69" y1="184.61" x2="1983.49" y2="184.61" style="stroke:#F0F0F0;stroke-width:9.72"/>
	<line x1="2015.89" y1="184.61" x2="2080.69" y2="184.61" style="stroke:#F0F0F0;stroke-width:9.72"/>
	<line x1="2113.09" y1="184.61" x2="2177.89" y2="184.61" style="stroke:#F0F0F0;stroke-width:9.72"/>
	<line x1="2210.29" y1="184.61" x2="2275.09" y2="184.61" style="stroke:#F0F0F0;stroke-width:9.72"/>
	<line x1="2307.49" y1="184.61" x2="2372.29" y2="184.61" style="stroke:#F0F0F0;stroke-width:9.72"/>
	<line x1="629.27" y1="2766.66" x2="629.27" y2="2701.86" style="stroke:#F0F0F0;stroke-width:9.72"/>
	<line x1="629.27" y1="2669.46" x2="629.27" y2="2604.66" style="stroke:#F0F0F0;stroke-width:9.72"/>
	<line x1="629.27" y1="2572.26" x2="629.27" y2="2507.46" style="stroke:#F0F0F0;stroke-width:9.72"/>
	<line x1="629.27" y1="2475.06" x2="629.27" y2="2410.26" style="stroke:#F0F0F0;stroke-width:9.72"/>
	<line x1="629.27" y1="2377.86" x2="629.27" y2="2313.06" style="stroke:#F0F0F0;stroke-width:9.72"/>
	<line x1="629.27" y1="2280.66" x2="629.27" y2="2215.86" style="stroke:#F0F0F0;stroke-width:9.72"/>
	<line x1="629.27" y1="2183.46" x2="629.27" y2="2118.66" style="stroke:#F0F0F0;stroke-width:9.72"/>
	<line x1="629.27" y1="2086.26" x2="629.27" y2="2021.46" style="stroke:#F0F0F0;stroke-width:9.72"/>
	<line x1="629.27" y1="1989.06" x2="629.27" y2="1924.26" style="stroke:#F0F0F0;stroke-width:9.72"/>
	<line x1="629.27" y1="1891.86" x2="629.27" y2="1827.06" style="stroke:#F0F0F0;stroke-width:9.72"/>
	<line x1="629.27" y1="1794.66" x2="629.27" y2="1729.86" style="stroke:#F0F0F0;stroke-width:9.72"/>
	<line x1="629.27" y1="1697.46" x2="629.27" y2="1632.66" style="stroke:#F0F0F0;stroke-width:9.72"/>
	<line x1="629.27" y1="1600.26" x2="629.27" y2="1535.46" style="stroke:#F0F0F0;stroke-width:9.72"/>
	<line x1="629.27" y1="1503.06" x2="629.27" y2="1438.26" style="stroke:#F0F0F0;stroke-width:9.72"/>
	<line x1="629.27" y1="1405.86" x2="629.27" y2="1341.06" style="stroke:#F0F0F0;stroke-width:9.72"/>
	<line x1="629.27" y1="1308.66" x2="629.27" y2="1243.86" style="stroke:#F0F0F0;stroke-width:9.72"/>
	<line x1="629.27" y1="1211.46" x2="629.27" y2="1146.66" style="stroke:#F0F0F0;stroke-width:9.72"/>
	<line x1="629.27" y1="1114.26" x2="629.27" y2="1049.46" style="stroke:#F0F0F0;stroke-width:9.72"/>
	<line x1="629.27" y1="1017.06" x2="629.27" y2="952.26" style="stroke:#F0F0F0;stroke-width:9.72"/>
	<line x1="629.27" y1="919.86" x2="629.27" y2="855.06" style="stroke:#F0F0F0;stroke-width:9.72"/>
	<line x1="629.27" y1="822.66" x2="629.27" y2="757.86" style="stroke:#F0F0F0;stroke-width:9.72"/>
	<line x1="629.27" y1="725.46" x2="629.27" y2="660.66" style="stroke:#F0F0F0;stroke-width:9.72"/>
	<line x1="629.27" y1="628.26" x2="629.27" y2="563.46" style="stroke:#F0F0F0;stroke-width:9.72"/>
	<line x1="629.27" y1="531.06" x2="629.27" y2="466.26" style="stroke:#F0F0F0;stroke-width:9.72"/>
	<line x1="629.27" y1="433.86" x2="629.27" y2="369.06" style="stroke:#F0F0F0;stroke-width:9.72"/>
	<line x1="629.27" y1="336.66" x2="629.27" y2="271.86" style="stroke:#F0F0F0;stroke-width:9.72"/>
	<line x1="629.27" y1="239.46" x2="629.27" y2="174.66" style="stroke:#F0F0F0;stroke-width:9.72"/>
	<line x1="629.27" y1="142.26" x2="629.27" y2="113.40" style="stroke:#F0F0F0;stroke-width:9.72"/>
	<line x1="967.61" y1="2766.66" x2="967.61" y2="2701.86" style="stroke:#F0F0F0;stroke-width:9.72"/>
	<line x1="967.61" y1="2669.46" x2="967.61" y2="2604.66" style="stroke:#F0F0F0;stroke-width:9.72"/>
	<line x1="967.61" y1="2572.26" x2="967.61" y2="2507.46" style="stroke:#F0F0F0;stroke-width:9.72"/>
	<line x1="967.61" y1="2475.06" x2="967.61" y2="2410.26" style="stroke:#F0F0F0;stroke-width:9.72"/>
	<line x1="967.61" y1="2377.86" x2="967.61" y2="2313.06" style="stroke:#F0F0F0;stroke-width:9.72"/>
	<line x1="967.61" y1="2280.66" x2="967.61" y2="2215.86" style="stroke:#F0F0F0;stroke-width:9.72"/>
	<line x1="967.61" y1="2183.46" x2="967.61" y2="2118.66" style="stroke:#F0F0F0;stroke-width:9.72"/>
	<line x1="967.61" y1="2086.26" x2="967.61" y2="2021.46" style="stroke:#F0F0F0;stroke-width:9.72"/>
	<line x1="967.61" y1="1989.06" x2="967.61" y2="1924.26" style="stroke:#F0F0F0;stroke-width:9.72"/>
	<line x1="967.61" y1="1891.86" x2="967.61" y2="1827.06" style="stroke:#F0F0F0;stroke-width:9.72"/>
	<line x1="967.61" y1="1794.66" x2="967.61" y2="1729.86" style="stroke:#F0F0F0;stroke-width:9.72"/>
	<line x1="967.61" y1="1697.46" x2="967.61" y2="1632.66" style="stroke:#F0F0F0;stroke-width:9.72"/>
	<line x1="967.61" y1="1600.26" x2="967.61" y2="1535.46" style="stroke:#F0F0F0;stroke-width:9.72"/>
	<line x1="967.61" y1="1503.06" x2="967.61" y2="1438.26" style="stroke:#F0F0F0;stroke-width:9.72"/>
	<line x1="967.61" y1="1405.86" x2="967.61" y2="1341.06" style="stroke:#F0F0F0;stroke-width:9.72"/>
	<line x1="967.61" y1="1308.66" x2="967.61" y2="1243.86" style="stroke:#F0F0F0;stroke-width:9.72"/>
	<line x1="967.61" y1="1211.46" x2="967.61" y2="1146.66" style="stroke:#F0F0F0;stroke-width:9.72"/>
	<line x1="967.61" y1="1114.26" x2="967.61" y2="1049.46" style="stroke:#F0F0F0;stroke-width:9.72"/>
	<line x1="967.61" y1="1017.06" x2="967.61" y2="952.26" style="stroke:#F0F0F0;stroke-width:9.72"/>
	<line x1="967.61" y1="919.86" x2="967.61" y2="855.06" style="stroke:#F0F0F0;stroke-width:9.72"/>
	<line x1="967.61" y1="822.66" x2="967.61" y2="757.86" style="stroke:#F0F0F0;stroke-width:9.72"/>
	<line x1="967.61" y1="725.46" x2="967.61" y2="660.66" style="stroke:#F0F0F0;stroke-width:9.72"/>
	<line x1="967.61" y1="628.26" x2="967.61" y2="563.46" style="stroke:#F0F0F0;stroke-width:9.72"/>
	<line x1="967.61" y1="531.06" x2="967.61" y2="466.26" style="stroke:#F0F0F0;stroke-width:9.72"/>
	<line x1="967.61" y1="433.86" x2="967.61" y2="369.06" style="stroke:#F0F0F0;stroke-width:9.72"/>
	<line x1="967.61" y1="336.66" x2="967.61" y2="271.86" style="stroke:#F0F0F0;stroke-width:9.72"/>
	<line x1="967.61" y1="239.46" x2="967.61" y2="174.66" style="stroke:#F0F0F0;stroke-width:9.72"/>
	<line x1="967.61" y1="142.26" x2="967.61" y2="113.40" style="stroke:#F0F0F0;stroke-width:9.72"/>
	<line x1="1305.96" y1="2766.66" x2="1305.96" y2="2701.86" style="stroke:#F0F0F0;stroke-width:9.72"/>
	<line x1="1305.96" y1="2669.46" x2="1305.96" y2="2604.66" style="stroke:#F0F0F0;stroke-width:9.72"/>
	<line x1="1305.96" y1="2572.26" x2="1305.96" y2="2507.46" style="stroke:#F0F0F0;stroke-width:9.72"/>
	<line x1="1305.96" y1="2475.06" x2="1305.96" y2="2410.26" style="stroke:#F0F0F0;stroke-width:9.72"/>
	<line x1="1305.96" y1="2377.86" x2="1305.96" y2="2313.06" style="stroke:#F0F0F0;stroke-width:9.72"/>
	<line x1="1305.96" y1="2280.66" x2="1305.96" y2="2215.86" style="stroke:#F0F0F0;stroke-width:9.72"/>
	<line x1="1305.96" y1="2183.46" x2="1305.96" y2="2118.66" style="stroke:#F0F0F0;stroke-width:9.72"/>
	<line x1="1305.96" y1="2086.26" x2="1305.96" y2="2021.46" style="stroke:#F0F0F0;stroke-width:9.72"/>
	<line x1="1305.96" y1="1989.06" x2="1305.96" y2="1924.26" style="stroke:#F0F0F0;stroke-width:9.72"/>
	<line x1="1305.96" y1="1891.86" x2="1305.96" y2="1827.06" style="stroke:#F0F0F0;stroke-width:9.72"/>
	<line x1="1305.96" y1="1794.66" x2="1305.96" y2="1729.86" style="stroke:#F0F0F0;stroke-width:9.72"/>
	<line x1="1305.96" y1="1697.46" x2="1305.96" y2="1632.66" style="stroke:#F0F0F0;stroke-width:9.72"/>
	<line x1="1305.96" y1="1600.26" x2="1305.96" y2="1535.46" style="stroke:#F0F0F0;stroke-width:9.72"/>
	<line x1="1305.96" y1="1503.06" x2="1305.96" y2="1438.26" style="stroke:#F0F0F0;stroke-width:9.72"/>
	<line x1="1305.96" y1="1405.86" x2="1305.96" y2="1341.06" style="stroke:#F0F0F0;stroke-width:9.72"/>
	<line x1="1305.96" y1="1308.66" x2="1305.96" y2="1243.86" style="stroke:#F0F0F0;stroke-width:9.72"/>
	<line x1="1305.96" y1="1211.46" x2="1305.96" y2="1146.66" style="stroke:#F0F0F0;stroke-width:9.72"/>
	<line x1="1305.96" y1="1114.26" x2="1305.96" y2="1049.46" style="stroke:#F0F0F0;stroke-width:9.72"/>
	<line x1="1305.96" y1="1017.06" x2="1305.96" y2="952.26" style="stroke:#F0F0F0;stroke-width:9.72"/>
	<line x1="1305.96" y1="919.86" x2="1305.96" y2="855.06" style="stroke:#F0F0F0;stroke-width:9.72"/>
	<line x1="1305.96" y1="822.66" x2="1305.96" y2="757.86" style="stroke:#F0F0F0;stroke-width:9.72"/>
	<line x1="1305.96" y1="725.46" x2="1305.96" y2="660.66" style="stroke:#F0F0F0;stroke-width:9.72"/>
	<line x1="1305.96" y1="628.26" x2="1305.96" y2="563.46" style="stroke:#F0F0F0;stroke-width:9.72"/>
	<line x1="1305.96" y1="531.06" x2="1305.96" y2="466.26" style="stroke:#F0F0F0;stroke-width:9.72"/>
	<line x1="1305.96" y1="433.86" x2="1305.96" y2="369.06" style="stroke:#F0F0F0;stroke-width:9.72"/>
	<line x1="1305.96" y1="336.66" x2="1305.96" y2="271.86" style="stroke:#F0F0F0;stroke-width:9.72"/>
	<line x1="1305.96" y1="239.46" x2="1305.96" y2="174.66" style="stroke:#F0F0F0;stroke-width:9.72"/>
	<line x1="1305.96" y1="142.26" x2="1305.96" y2="113.40" style="stroke:#F0F0F0;stroke-width:9.72"/>
	<line x1="1644.30" y1="2766.66" x2="1644.30" y2="2701.86" style="stroke:#F0F0F0;stroke-width:9.72"/>
	<line x1="1644.30" y1="2669.46" x2="1644.30" y2="2604.66" style="stroke:#F0F0F0;stroke-width:9.72"/>
	<line x1="1644.30" y1="2572.26" x2="1644.30" y2="2507.46" style="stroke:#F0F0F0;stroke-width:9.72"/>
	<line x1="1644.30" y1="2475.06" x2="1644.30" y2="2410.26" style="stroke:#F0F0F0;stroke-width:9.72"/>
	<line x1="1644.30" y1="2377.86" x2="1644.30" y2="2313.06" style="stroke:#F0F0F0;stroke-width:9.72"/>
	<line x1="1644.30" y1="2280.66" x2="1644.30" y2="2215.86" style="stroke:#F0F0F0;stroke-width:9.72"/>
	<line x1="1644.30" y1="2183.46" x2="1644.30" y2="2118.66" style="stroke:#F0F0F0;stroke-width:9.72"/>
	<line x1="1644.30" y1="2086.26" x2="1644.30" y2="2021.46" style="stroke:#F0F0F0;stroke-width:9.72"/>
	<line x1="1644.30" y1="1989.06" x2="1644.30" y2="1924.26" style="stroke:#F0F0F0;stroke-width:9.72"/>
	<line x1="1644.30" y1="1891.86" x2="1644.30" y2="1827.06" style="stroke:#F0F0F0;stroke-width:9.72"/>
	<line x1="1644.30" y1="1794.66" x2="1644.30" y2="1729.86" style="stroke:#F0F0F0;stroke-width:9.72"/>
	<line x1="1644.30" y1="1697.46" x2="1644.30" y2="1632.66" style="stroke:#F0F0F0;stroke-width:9.72"/>
	<line x1="1644.30" y1="1600.26" x2="1644.30" y2="1535.46" style="stroke:#F0F0F0;stroke-width:9.72"/>
	<line x1="1644.30" y1="1503.06" x2="1644.30" y2="1438.26" style="stroke:#F0F0F0;stroke-width:9.72"/>
	<line x1="1644.30" y1="1405.86" x2="1644.30" y2="1341.06" style="stroke:#F0F0F0;stroke-width:9.72"/>
	<line x1="1644.30" y1="1308.66" x2="1644.30" y2="1243.86" style="stroke:#F0F0F0;stroke-width:9.72"/>
	<line x1="1644.30" y1="1211.46" x2="1644.30" y2="1146.66" style="stroke:#F0F0F0;stroke-width:9.72"/>
	<line x1="1644.30" y1="1114.26" x2="1644.30" y2="1049.46" style="stroke:#F0F0F0;stroke-width:9.72"/>
	<line x1="1644.30" y1="1017.06" x2="1644.30" y2="952.26" style="stroke:#F0F0F0;stroke-width:9.72"/>
	<line x1="1644.30" y1="919.86" x2="1644.30" y2="855.06" style="stroke:#F0F0F0;stroke-width:9.72"/>
	<line x1="1644.30" y1="822.66" x2="1644.30" y2="757.86" style="stroke:#F0F0F0;stroke-width:9.72"/>
	<line x1="1644.30" y1="725.46" x2="1644.30" y2="660.66" style="stroke:#F0F0F0;stroke-width:9.72"/>
	<line x1="1644.30" y1="628.26" x2="1644.30" y2="563.46" style="stroke:#F0F0F0;stroke-width:9.72"/>
	<line x1="1644.30" y1="531.06" x2="1644.30" y2="466.26" style="stroke:#F0F0F0;stroke-width:9.72"/>
	<line x1="1644.30" y1="433.86" x2="1644.30" y2="369.06" style="stroke:#F0F0F0;stroke-width:9.72"/>
	<line x1="1644.30" y1="336.66" x2="1644.30" y2="271.86" style="stroke:#F0F0F0;stroke-width:9.72"/>
	<line x1="1644.30" y1="239.46" x2="1644.30" y2="174.66" style="stroke:#F0F0F0;stroke-width:9.72"/>
	<line x1="1644.30" y1="142.26" x2="1644.30" y2="113.40" style="stroke:#F0F0F0;stroke-width:9.72"/>
	<line x1="1982.81" y1="2766.66" x2="1982.81" y2="2701.86" style="stroke:#F0F0F0;stroke-width:9.72"/>
	<line x1="1982.81" y1="2669.46" x2="1982.81" y2="2604.66" style="stroke:#F0F0F0;stroke-width:9.72"/>
	<line x1="1982.81" y1="2572.26" x2="1982.81" y2="2507.46" style="stroke:#F0F0F0;stroke-width:9.72"/>
	<line x1="1982.81" y1="2475.06" x2="1982.81" y2="2410.26" style="stroke:#F0F0F0;stroke-width:9.72"/>
	<line x1="1982.81" y1="2377.86" x2="1982.81" y2="2313.06" style="stroke:#F0F0F0;stroke-width:9.72"/>
	<line x1="1982.81" y1="2280.66" x2="1982.81" y2="2215.86" style="stroke:#F0F0F0;stroke-width:9.72"/>
	<line x1="1982.81" y1="2183.46" x2="1982.81" y2="2118.66" style="stroke:#F0F0F0;stroke-width:9.72"/>
	<line x1="1982.81" y1="2086.26" x2="1982.81" y2="2021.46" style="stroke:#F0F0F0;stroke-width:9.72"/>
	<line x1="1982.81" y1="1989.06" x2="1982.81" y2="1924.26" style="stroke:#F0F0F0;stroke-width:9.72"/>
	<line x1="1982.81" y1="1891.86" x2="1982.81" y2="1827.06" style="stroke:#F0F0F0;stroke-width:9.72"/>
	<line x1="1982.81" y1="1794.66" x2="1982.81" y2="1729.86" style="stroke:#F0F0F0;stroke-width:9.72"/>
	<line x1="1982.81" y1="1697.46" x2="1982.81" y2="1632.66" style="stroke:#F0F0F0;stroke-width:9.72"/>
	<line x1="1982.81" y1="1600.26" x2="1982.81" y2="1535.46" style="stroke:#F0F0F0;stroke-width:9.72"/>
	<line x1="1982.81" y1="1503.06" x2="1982.81" y2="1438.26" style="stroke:#F0F0F0;stroke-width:9.72"/>
	<line x1="1982.81" y1="1405.86" x2="1982.81" y2="1341.06" style="stroke:#F0F0F0;stroke-width:9.72"/>
	<line x1="1982.81" y1="1308.66" x2="1982.81" y2="1243.86" style="stroke:#F0F0F0;stroke-width:9.72"/>
	<line x1="1982.81" y1="1211.46" x2="1982.81" y2="1146.66" style="stroke:#F0F0F0;stroke-width:9.72"/>
	<line x1="1982.81" y1="1114.26" x2="1982.81" y2="1049.46" style="stroke:#F0F0F0;stroke-width:9.72"/>
	<line x1="1982.81" y1="1017.06" x2="1982.81" y2="952.26" style="stroke:#F0F0F0;stroke-width:9.72"/>
	<line x1="1982.81" y1="919.86" x2="1982.81" y2="855.06" style="stroke:#F0F0F0;stroke-width:9.72"/>
	<line x1="1982.81" y1="822.66" x2="1982.81" y2="757.86" style="stroke:#F0F0F0;stroke-width:9.72"/>
	<line x1="1982.81" y1="725.46" x2="1982.81" y2="660.66" style="stroke:#F0F0F0;stroke-width:9.72"/>
	<line x1="1982.81" y1="628.26" x2="1982.81" y2="563.46" style="stroke:#F0F0F0;stroke-width:9.72"/>
	<line x1="1982.81" y1="531.06" x2="1982.81" y2="466.26" style="stroke:#F0F0F0;stroke-width:9.72"/>
	<line x1="1982.81" y1="433.86" x2="1982.81" y2="369.06" style="stroke:#F0F0F0;stroke-width:9.72"/>
	<line x1="1982.81" y1="336.66" x2="1982.81" y2="271.86" style="stroke:#F0F0F0;stroke-width:9.72"/>
	<line x1="1982.81" y1="239.46" x2="1982.81" y2="174.66" style="stroke:#F0F0F0;stroke-width:9.72"/>
	<line x1="1982.81" y1="142.26" x2="1982.81" y2="113.40" style="stroke:#F0F0F0;stroke-width:9.72"/>
	<line x1="2321.16" y1="2766.66" x2="2321.16" y2="2701.86" style="stroke:#F0F0F0;stroke-width:9.72"/>
	<line x1="2321.16" y1="2669.46" x2="2321.16" y2="2604.66" style="stroke:#F0F0F0;stroke-width:9.72"/>
	<line x1="2321.16" y1="2572.26" x2="2321.16" y2="2507.46" style="stroke:#F0F0F0;stroke-width:9.72"/>
	<line x1="2321.16" y1="2475.06" x2="2321.16" y2="2410.26" style="stroke:#F0F0F0;stroke-width:9.72"/>
	<line x1="2321.16" y1="2377.86" x2="2321.16" y2="2313.06" style="stroke:#F0F0F0;stroke-width:9.72"/>
	<line x1="2321.16" y1="2280.66" x2="2321.16" y2="2215.86" style="stroke:#F0F0F0;stroke-width:9.72"/>
	<line x1="2321.16" y1="2183.46" x2="2321.16" y2="2118.66" style="stroke:#F0F0F0;stroke-width:9.72"/>
	<line x1="2321.16" y1="2086.26" x2="2321.16" y2="2021.46" style="stroke:#F0F0F0;stroke-width:9.72"/>
	<line x1="2321.16" y1="1989.06" x2="2321.16" y2="1924.26" style="stroke:#F0F0F0;stroke-width:9.72"/>
	<line x1="2321.16" y1="1891.86" x2="2321.16" y2="1827.06" style="stroke:#F0F0F0;stroke-width:9.72"/>
	<line x1="2321.16" y1="1794.66" x2="2321.16" y2="1729.86" style="stroke:#F0F0F0;stroke-width:9.72"/>
	<line x1="2321.16" y1="1697.46" x2="2321.16" y2="1632.66" style="stroke:#F0F0F0;stroke-width:9.72"/>
	<line x1="2321.16" y1="1600.26" x2="2321.16" y2="1535.46" style="stroke:#F0F0F0;stroke-width:9.72"/>
	<line x1="2321.16" y1="1503.06" x2="2321.16" y2="1438.26" style="stroke:#F0F0F0;stroke-width:9.72"/>
	<line x1="2321.16" y1="1405.86" x2="2321.16" y2="1341.06" style="stroke:#F0F0F0;stroke-width:9.72"/>
	<line x1="2321.16" y1="1308.66" x2="2321.16" y2="1243.86" style="stroke:#F0F0F0;stroke-width:9.72"/>
	<line x1="2321.16" y1="1211.46" x2="2321.16" y2="1146.66" style="stroke:#F0F0F0;stroke-width:9.72"/>
	<line x1="2321.16" y1="1114.26" x2="2321.16" y2="1049.46" style="stroke:#F0F0F0;stroke-width:9.72"/>
	<line x1="2321.16" y1="1017.06" x2="2321.16" y2="952.26" style="stroke:#F0F0F0;stroke-width:9.72"/>
	<line x1="2321.16" y1="919.86" x2="2321.16" y2="855.06" style="stroke:#F0F0F0;stroke-width:9.72"/>
	<line x1="2321.16" y1="822.66" x2="2321.16" y2="757.86" style="stroke:#F0F0F0;stroke-width:9.72"/>
	<line x1="2321.16" y1="725.46" x2="2321.16" y2="660.66" style="stroke:#F0F0F0;stroke-width:9.72"/>
	<line x1="2321.16" y1="628.26" x2="2321.16" y2="563.46" style="stroke:#F0F0F0;stroke-width:9.72"/>
	<line x1="2321.16" y1="531.06" x2="2321.16" y2="466.26" style="stroke:#F0F0F0;stroke-width:9.72"/>
	<line x1="2321.16" y1="433.86" x2="2321.16" y2="369.06" style="stroke:#F0F0F0;stroke-width:9.72"/>
	<line x1="2321.16" y1="336.66" x2="2321.16" y2="271.86" style="stroke:#F0F0F0;stroke-width:9.72"/>
	<line x1="2321.16" y1="239.46" x2="2321.16" y2="174.66" style="stroke:#F0F0F0;stroke-width:9.72"/>
	<line x1="2321.16" y1="142.26" x2="2321.16" y2="113.40" style="stroke:#F0F0F0;stroke-width:9.72"/>
	<path d=" M795.15 1484.33 L832.11 1514.03 L834.64 1494.62 L847.63 1524.32 L899.78 1504.07 L990.39 1534.95 L1050.30 1567.69 L1078.31 1540.69 L1097.55 1457.66 L1115.94 1490.74 L1151.04 1522.97 L1211.96 1501.20 L1263.09 1480.11 L1306.29 1508.29 L1379.87 1536.81 L1419.86 1508.63 L1421.89 1537.48 L1429.48 1514.36 L1436.91 1485.84 L1478.59 1520.27 L1537.14 1555.54 L1574.44 1532.08 L1595.19 1568.36 L1599.92 1604.81 L1612.07 1636.71 L1649.03 1669.44 L1688.85 1638.06 L1752.64 1606.84 L1815.58 1645.65 L1831.11 1539.17 L1839.54 1508.12 L1843.59 1403.49 L1878.69 1437.08 L1916.83 1472.18 L1928.64 1509.30 L1948.56 1480.11 L1979.10 1519.26 L1998.00 1394.04 L2019.26 1363.16 L2043.39 1409.06 L2062.63 1371.94 L2091.49 1421.21 L2119.50 1382.40 L2137.89 1347.98 L2155.95 1397.42 L2185.31 1359.45 L2226.32 1210.28 L2263.44 1263.94 L2276.44 1222.43 L2288.25 1284.86 L2310.19 1221.24" stroke-linejoin="round" style="fill:none;stroke:#000000;stroke-width:14.58"/>
	<path d=" M795.15 806.12 L832.11 828.56 L834.64 810.51 L847.63 832.95 L899.78 814.05 L990.39 837.00 L1050.30 863.32 L1078.31 836.16 L1097.55 766.80 L1115.94 793.13 L1151.04 817.09 L1211.96 796.67 L1263.09 778.44 L1306.29 796.16 L1379.87 813.88 L1419.86 785.36 L1421.89 803.42 L1429.48 781.82 L1436.91 753.30 L1478.59 778.28 L1537.14 803.76 L1574.44 783.68 L1595.19 811.69 L1599.92 837.84 L1612.07 857.42 L1649.03 877.33 L1688.85 846.11 L1752.64 815.06 L1815.58 844.26 L1831.11 752.79 L1839.54 721.91 L1843.59 631.80 L1878.69 652.22 L1916.83 673.48 L1928.64 695.76 L1948.56 668.59 L1979.10 691.88 L1998.00 584.38 L2019.26 554.85 L2043.39 586.07 L2062.63 548.61 L2091.49 583.71 L2119.50 544.39 L2137.89 511.31 L2155.95 540.00 L2185.31 505.07 L2226.32 378.68 L2263.44 409.39 L2276.44 368.04 L2288.25 407.36 L2310.19 336.32" stroke-linejoin="round" style="fill:none;stroke:#A0A0A0;stroke-width:14.58"/>
	<path d=" M795.15 2162.70 L832.11 2199.49 L834.64 2178.73 L847.63 2215.86 L899.78 2194.26 L990.39 2232.73 L1050.30 2272.05 L1078.31 2245.22 L1097.55 2148.69 L1115.94 2188.35 L1151.04 2228.85 L1211.96 2205.73 L1263.09 2181.94 L1306.29 2220.41 L1379.87 2259.73 L1419.86 2231.72 L1421.89 2271.54 L1429.48 2246.91 L1436.91 2218.56 L1478.59 2262.09 L1537.14 2307.49 L1574.44 2280.49 L1595.19 2324.87 L1599.92 2371.61 L1612.07 2416.16 L1649.03 2461.56 L1688.85 2430.17 L1752.64 2398.78 L1815.58 2447.04 L1831.11 2325.54 L1839.54 2294.32 L1843.59 2175.36 L1878.69 2221.93 L1916.83 2270.87 L1928.64 2322.84 L1948.56 2291.79 L1979.10 2346.64 L1998.00 2203.88 L2019.26 2171.48 L2043.39 2232.06 L2062.63 2195.27 L2091.49 2258.89 L2119.50 2220.41 L2137.89 2184.64 L2155.95 2254.84 L2185.31 2214.00 L2226.32 2041.88 L2263.44 2118.32 L2276.44 2076.98 L2288.25 2162.53 L2310.19 2106.17" stroke-linejoin="round" style="fill:none;stroke:#A0A0A0;stroke-width:14.58"/>
	<line x1="557.89" y1="2766.66" x2="557.89" y2="113.40" style="stroke:#000000;stroke-width:6.48"/>
	<line x1="557.89" y1="2695.28" x2="513.00" y2="2695.28" style="stroke:#000000;stroke-width:6.48"/>
	<text x="490.39" y="2734.71" style="font-family:'Helvetica';font-size:112.56px;fill:#000000" text-anchor="end">.2</text>
	<line x1="557.89" y1="2067.69" x2="513.00" y2="2067.69" style="stroke:#000000;stroke-width:6.48"/>
	<text x="490.39" y="2107.13" style="font-family:'Helvetica';font-size:112.56px;fill:#000000" text-anchor="end">.25</text>
	<line x1="557.89" y1="1439.94" x2="513.00" y2="1439.94" style="stroke:#000000;stroke-width:6.48"/>
	<text x="490.39" y="1479.38" style="font-family:'Helvetica';font-size:112.56px;fill:#000000" text-anchor="end">.3</text>
	<line x1="557.89" y1="812.36" x2="513.00" y2="812.36" style="stroke:#000000;stroke-width:6.48"/>
	<text x="490.39" y="851.80" style="font-family:'Helvetica';font-size:112.56px;fill:#000000" text-anchor="end">.35</text>
	<line x1="557.89" y1="184.61" x2="513.00" y2="184.61" style="stroke:#000000;stroke-width:6.48"/>
	<text x="490.39" y="224.05" style="font-family:'Helvetica';font-size:112.56px;fill:#000000" text-anchor="end">.4</text>
	<text x="214.55" y="1439.94" style="font-family:'Helvetica';font-size:112.56px;fill:#000000" transform="rotate(-90 214.55,1439.94)" text-anchor="middle">Estimated causal effect</text>
	<line x1="557.89" y1="2766.66" x2="2392.37" y2="2766.66" style="stroke:#000000;stroke-width:6.48"/>
	<line x1="629.27" y1="2766.66" x2="629.27" y2="2811.54" style="stroke:#000000;stroke-width:6.48"/>
	<text x="629.27" y="2912.86" style="font-family:'Helvetica';font-size:112.56px;fill:#000000" text-anchor="middle">1.35</text>
	<line x1="967.61" y1="2766.66" x2="967.61" y2="2811.54" style="stroke:#000000;stroke-width:6.48"/>
	<text x="967.61" y="2912.86" style="font-family:'Helvetica';font-size:112.56px;fill:#000000" text-anchor="middle">1.355</text>
	<line x1="1305.96" y1="2766.66" x2="1305.96" y2="2811.54" style="stroke:#000000;stroke-width:6.48"/>
	<text x="1305.96" y="2912.86" style="font-family:'Helvetica';font-size:112.56px;fill:#000000" text-anchor="middle">1.36</text>
	<line x1="1644.30" y1="2766.66" x2="1644.30" y2="2811.54" style="stroke:#000000;stroke-width:6.48"/>
	<text x="1644.30" y="2912.86" style="font-family:'Helvetica';font-size:112.56px;fill:#000000" text-anchor="middle">1.365</text>
	<line x1="1982.81" y1="2766.66" x2="1982.81" y2="2811.54" style="stroke:#000000;stroke-width:6.48"/>
	<text x="1982.81" y="2912.86" style="font-family:'Helvetica';font-size:112.56px;fill:#000000" text-anchor="middle">1.37</text>
	<line x1="2321.16" y1="2766.66" x2="2321.16" y2="2811.54" style="stroke:#000000;stroke-width:6.48"/>
	<text x="2321.16" y="2912.86" style="font-family:'Helvetica';font-size:112.56px;fill:#000000" text-anchor="middle">1.375</text>
	<text x="1475.21" y="3070.31" style="font-family:'Helvetica';font-size:112.56px;fill:#000000" text-anchor="middle">Median of exposure in moving window</text>
	<rect x="2431.35" y="1335.15" width="2816.44" height="209.76" style="fill:#FFFFFF"/>
	<rect x="2434.59" y="1338.39" width="2809.96" height="203.28" style="fill:none;stroke:#FFFFFF;stroke-width:6.48"/>
	<line x1="2479.95" y1="1439.94" x2="2739.15" y2="1439.94" style="stroke:#000000;stroke-width:14.58"/>
	<line x1="4183.31" y1="1439.94" x2="4442.51" y2="1439.94" style="stroke:#A0A0A0;stroke-width:14.58"/>
	<text x="2806.65" y="1479.38" style="font-family:'Helvetica';font-size:112.56px;fill:#000000">Estimated causal effect</text>
	<text x="4510.01" y="1479.38" style="font-family:'Helvetica';font-size:112.56px;fill:#000000">95% CI limits</text>
</svg>
