<?xml version="1.0" encoding="UTF-8" standalone="no"?>
<!-- This is a Stata 18.5 generated SVG file (http://www.stata.com) -->

<svg version="1.1" width="7.500in" height="4.500in" viewBox="0 0 5400 3240" xmlns="http://www.w3.org/2000/svg" xmlns:xlink="http://www.w3.org/1999/xlink">
	<desc>Stata Graph - Graph</desc>
	<rect x="0" y="0" width="5400" height="3240" style="fill:#FFFFFF;stroke:none"/>
	<rect x="0.00" y="0.00" width="5400.00" height="3240.00" style="fill:#FFFFFF"/>
	<rect x="3.24" y="3.24" width="5393.52" height="3233.52" style="fill:none;stroke:#FFFFFF;stroke-width:6.48"/>
	<rect x="492.24" y="113.40" width="4794.36" height="2365.71" style="fill:#FFFFFF"/>
	<rect x="495.48" y="116.64" width="4787.88" height="2359.23" style="fill:none;stroke:#FFFFFF;stroke-width:6.48"/>
	<line x1="492.24" y1="1852.03" x2="557.04" y2="1852.03" style="stroke:#F0F0F0;stroke-width:9.72"/>
	<line x1="589.44" y1="1852.03" x2="654.24" y2="1852.03" style="stroke:#F0F0F0;stroke-width:9.72"/>
	<line x1="686.64" y1="1852.03" x2="751.44" y2="1852.03" style="stroke:#F0F0F0;stroke-width:9.72"/>
	<line x1="783.84" y1="1852.03" x2="848.64" y2="1852.03" style="stroke:#F0F0F0;stroke-width:9.72"/>
	<line x1="881.04" y1="1852.03" x2="945.84" y2="1852.03" style="stroke:#F0F0F0;stroke-width:9.72"/>
	<line x1="978.24" y1="1852.03" x2="1043.04" y2="1852.03" style="stroke:#F0F0F0;stroke-width:9.72"/>
	<line x1="1075.44" y1="1852.03" x2="1140.24" y2="1852.03" style="stroke:#F0F0F0;stroke-width:9.72"/>
	<line x1="1172.64" y1="1852.03" x2="1237.44" y2="1852.03" style="stroke:#F0F0F0;stroke-width:9.72"/>
	<line x1="1269.84" y1="1852.03" x2="1334.64" y2="1852.03" style="stroke:#F0F0F0;stroke-width:9.72"/>
	<line x1="1367.04" y1="1852.03" x2="1431.84" y2="1852.03" style="stroke:#F0F0F0;stroke-width:9.72"/>
	<line x1="1464.24" y1="1852.03" x2="1529.04" y2="1852.03" style="stroke:#F0F0F0;stroke-width:9.72"/>
	<line x1="1561.44" y1="1852.03" x2="1626.24" y2="1852.03" style="stroke:#F0F0F0;stroke-width:9.72"/>
	<line x1="1658.64" y1="1852.03" x2="1723.44" y2="1852.03" style="stroke:#F0F0F0;stroke-width:9.72"/>
	<line x1="1755.84" y1="1852.03" x2="1820.64" y2="1852.03" style="stroke:#F0F0F0;stroke-width:9.72"/>
	<line x1="1853.04" y1="1852.03" x2="1917.84" y2="1852.03" style="stroke:#F0F0F0;stroke-width:9.72"/>
	<line x1="1950.24" y1="1852.03" x2="2015.04" y2="1852.03" style="stroke:#F0F0F0;stroke-width:9.72"/>
	<line x1="2047.44" y1="1852.03" x2="2112.24" y2="1852.03" style="stroke:#F0F0F0;stroke-width:9.72"/>
	<line x1="2144.64" y1="1852.03" x2="2209.44" y2="1852.03" style="stroke:#F0F0F0;stroke-width:9.72"/>
	<line x1="2241.84" y1="1852.03" x2="2306.64" y2="1852.03" style="stroke:#F0F0F0;stroke-width:9.72"/>
	<line x1="2339.04" y1="1852.03" x2="2403.84" y2="1852.03" style="stroke:#F0F0F0;stroke-width:9.72"/>
	<line x1="2436.24" y1="1852.03" x2="2501.04" y2="1852.03" style="stroke:#F0F0F0;stroke-width:9.72"/>
	<line x1="2533.44" y1="1852.03" x2="2598.24" y2="1852.03" style="stroke:#F0F0F0;stroke-width:9.72"/>
	<line x1="2630.64" y1="1852.03" x2="2695.44" y2="1852.03" style="stroke:#F0F0F0;stroke-width:9.72"/>
	<line x1="2727.84" y1="1852.03" x2="2792.64" y2="1852.03" style="stroke:#F0F0F0;stroke-width:9.72"/>
	<line x1="2825.04" y1="1852.03" x2="2889.84" y2="1852.03" style="stroke:#F0F0F0;stroke-width:9.72"/>
	<line x1="2922.24" y1="1852.03" x2="2987.04" y2="1852.03" style="stroke:#F0F0F0;stroke-width:9.72"/>
	<line x1="3019.44" y1="1852.03" x2="3084.24" y2="1852.03" style="stroke:#F0F0F0;stroke-width:9.72"/>
	<line x1="3116.64" y1="1852.03" x2="3181.44" y2="1852.03" style="stroke:#F0F0F0;stroke-width:9.72"/>
	<line x1="3213.84" y1="1852.03" x2="3278.64" y2="1852.03" style="stroke:#F0F0F0;stroke-width:9.72"/>
	<line x1="3311.04" y1="1852.03" x2="3375.84" y2="1852.03" style="stroke:#F0F0F0;stroke-width:9.72"/>
	<line x1="3408.24" y1="1852.03" x2="3473.04" y2="1852.03" style="stroke:#F0F0F0;stroke-width:9.72"/>
	<line x1="3505.44" y1="1852.03" x2="3570.24" y2="1852.03" style="stroke:#F0F0F0;stroke-width:9.72"/>
	<line x1="3602.64" y1="1852.03" x2="3667.44" y2="1852.03" style="stroke:#F0F0F0;stroke-width:9.72"/>
	<line x1="3699.84" y1="1852.03" x2="3764.64" y2="1852.03" style="stroke:#F0F0F0;stroke-width:9.72"/>
	<line x1="3797.04" y1="1852.03" x2="3861.84" y2="1852.03" style="stroke:#F0F0F0;stroke-width:9.72"/>
	<line x1="3894.24" y1="1852.03" x2="3959.04" y2="1852.03" style="stroke:#F0F0F0;stroke-width:9.72"/>
	<line x1="3991.44" y1="1852.03" x2="4056.24" y2="1852.03" style="stroke:#F0F0F0;stroke-width:9.72"/>
	<line x1="4088.64" y1="1852.03" x2="4153.44" y2="1852.03" style="stroke:#F0F0F0;stroke-width:9.72"/>
	<line x1="4185.84" y1="1852.03" x2="4250.64" y2="1852.03" style="stroke:#F0F0F0;stroke-width:9.72"/>
	<line x1="4283.04" y1="1852.03" x2="4347.84" y2="1852.03" style="stroke:#F0F0F0;stroke-width:9.72"/>
	<line x1="4380.24" y1="1852.03" x2="4445.04" y2="1852.03" style="stroke:#F0F0F0;stroke-width:9.72"/>
	<line x1="4477.44" y1="1852.03" x2="4542.24" y2="1852.03" style="stroke:#F0F0F0;stroke-width:9.72"/>
	<line x1="4574.64" y1="1852.03" x2="4639.44" y2="1852.03" style="stroke:#F0F0F0;stroke-width:9.72"/>
	<line x1="4671.84" y1="1852.03" x2="4736.64" y2="1852.03" style="stroke:#F0F0F0;stroke-width:9.72"/>
	<line x1="4769.04" y1="1852.03" x2="4833.84" y2="1852.03" style="stroke:#F0F0F0;stroke-width:9.72"/>
	<line x1="4866.24" y1="1852.03" x2="4931.04" y2="1852.03" style="stroke:#F0F0F0;stroke-width:9.72"/>
	<line x1="4963.44" y1="1852.03" x2="5028.24" y2="1852.03" style="stroke:#F0F0F0;stroke-width:9.72"/>
	<line x1="5060.64" y1="1852.03" x2="5125.44" y2="1852.03" style="stroke:#F0F0F0;stroke-width:9.72"/>
	<line x1="5157.84" y1="1852.03" x2="5222.64" y2="1852.03" style="stroke:#F0F0F0;stroke-width:9.72"/>
	<line x1="5255.04" y1="1852.03" x2="5286.60" y2="1852.03" style="stroke:#F0F0F0;stroke-width:9.72"/>
	<line x1="492.24" y1="1296.34" x2="557.04" y2="1296.34" style="stroke:#F0F0F0;stroke-width:9.72"/>
	<line x1="589.44" y1="1296.34" x2="654.24" y2="1296.34" style="stroke:#F0F0F0;stroke-width:9.72"/>
	<line x1="686.64" y1="1296.34" x2="751.44" y2="1296.34" style="stroke:#F0F0F0;stroke-width:9.72"/>
	<line x1="783.84" y1="1296.34" x2="848.64" y2="1296.34" style="stroke:#F0F0F0;stroke-width:9.72"/>
	<line x1="881.04" y1="1296.34" x2="945.84" y2="1296.34" style="stroke:#F0F0F0;stroke-width:9.72"/>
	<line x1="978.24" y1="1296.34" x2="1043.04" y2="1296.34" style="stroke:#F0F0F0;stroke-width:9.72"/>
	<line x1="1075.44" y1="1296.34" x2="1140.24" y2="1296.34" style="stroke:#F0F0F0;stroke-width:9.72"/>
	<line x1="1172.64" y1="1296.34" x2="1237.44" y2="1296.34" style="stroke:#F0F0F0;stroke-width:9.72"/>
	<line x1="1269.84" y1="1296.34" x2="1334.64" y2="1296.34" style="stroke:#F0F0F0;stroke-width:9.72"/>
	<line x1="1367.04" y1="1296.34" x2="1431.84" y2="1296.34" style="stroke:#F0F0F0;stroke-width:9.72"/>
	<line x1="1464.24" y1="1296.34" x2="1529.04" y2="1296.34" style="stroke:#F0F0F0;stroke-width:9.72"/>
	<line x1="1561.44" y1="1296.34" x2="1626.24" y2="1296.34" style="stroke:#F0F0F0;stroke-width:9.72"/>
	<line x1="1658.64" y1="1296.34" x2="1723.44" y2="1296.34" style="stroke:#F0F0F0;stroke-width:9.72"/>
	<line x1="1755.84" y1="1296.34" x2="1820.64" y2="1296.34" style="stroke:#F0F0F0;stroke-width:9.72"/>
	<line x1="1853.04" y1="1296.34" x2="1917.84" y2="1296.34" style="stroke:#F0F0F0;stroke-width:9.72"/>
	<line x1="1950.24" y1="1296.34" x2="2015.04" y2="1296.34" style="stroke:#F0F0F0;stroke-width:9.72"/>
	<line x1="2047.44" y1="1296.34" x2="2112.24" y2="1296.34" style="stroke:#F0F0F0;stroke-width:9.72"/>
	<line x1="2144.64" y1="1296.34" x2="2209.44" y2="1296.34" style="stroke:#F0F0F0;stroke-width:9.72"/>
	<line x1="2241.84" y1="1296.34" x2="2306.64" y2="1296.34" style="stroke:#F0F0F0;stroke-width:9.72"/>
	<line x1="2339.04" y1="1296.34" x2="2403.84" y2="1296.34" style="stroke:#F0F0F0;stroke-width:9.72"/>
	<line x1="2436.24" y1="1296.34" x2="2501.04" y2="1296.34" style="stroke:#F0F0F0;stroke-width:9.72"/>
	<line x1="2533.44" y1="1296.34" x2="2598.24" y2="1296.34" style="stroke:#F0F0F0;stroke-width:9.72"/>
	<line x1="2630.64" y1="1296.34" x2="2695.44" y2="1296.34" style="stroke:#F0F0F0;stroke-width:9.72"/>
	<line x1="2727.84" y1="1296.34" x2="2792.64" y2="1296.34" style="stroke:#F0F0F0;stroke-width:9.72"/>
	<line x1="2825.04" y1="1296.34" x2="2889.84" y2="1296.34" style="stroke:#F0F0F0;stroke-width:9.72"/>
	<line x1="2922.24" y1="1296.34" x2="2987.04" y2="1296.34" style="stroke:#F0F0F0;stroke-width:9.72"/>
	<line x1="3019.44" y1="1296.34" x2="3084.24" y2="1296.34" style="stroke:#F0F0F0;stroke-width:9.72"/>
	<line x1="3116.64" y1="1296.34" x2="3181.44" y2="1296.34" style="stroke:#F0F0F0;stroke-width:9.72"/>
	<line x1="3213.84" y1="1296.34" x2="3278.64" y2="1296.34" style="stroke:#F0F0F0;stroke-width:9.72"/>
	<line x1="3311.04" y1="1296.34" x2="3375.84" y2="1296.34" style="stroke:#F0F0F0;stroke-width:9.72"/>
	<line x1="3408.24" y1="1296.34" x2="3473.04" y2="1296.34" style="stroke:#F0F0F0;stroke-width:9.72"/>
	<line x1="3505.44" y1="1296.34" x2="3570.24" y2="1296.34" style="stroke:#F0F0F0;stroke-width:9.72"/>
	<line x1="3602.64" y1="1296.34" x2="3667.44" y2="1296.34" style="stroke:#F0F0F0;stroke-width:9.72"/>
	<line x1="3699.84" y1="1296.34" x2="3764.64" y2="1296.34" style="stroke:#F0F0F0;stroke-width:9.72"/>
	<line x1="3797.04" y1="1296.34" x2="3861.84" y2="1296.34" style="stroke:#F0F0F0;stroke-width:9.72"/>
	<line x1="3894.24" y1="1296.34" x2="3959.04" y2="1296.34" style="stroke:#F0F0F0;stroke-width:9.72"/>
	<line x1="3991.44" y1="1296.34" x2="4056.24" y2="1296.34" style="stroke:#F0F0F0;stroke-width:9.72"/>
	<line x1="4088.64" y1="1296.34" x2="4153.44" y2="1296.34" style="stroke:#F0F0F0;stroke-width:9.72"/>
	<line x1="4185.84" y1="1296.34" x2="4250.64" y2="1296.34" style="stroke:#F0F0F0;stroke-width:9.72"/>
	<line x1="4283.04" y1="1296.34" x2="4347.84" y2="1296.34" style="stroke:#F0F0F0;stroke-width:9.72"/>
	<line x1="4380.24" y1="1296.34" x2="4445.04" y2="1296.34" style="stroke:#F0F0F0;stroke-width:9.72"/>
	<line x1="4477.44" y1="1296.34" x2="4542.24" y2="1296.34" style="stroke:#F0F0F0;stroke-width:9.72"/>
	<line x1="4574.64" y1="1296.34" x2="4639.44" y2="1296.34" style="stroke:#F0F0F0;stroke-width:9.72"/>
	<line x1="4671.84" y1="1296.34" x2="4736.64" y2="1296.34" style="stroke:#F0F0F0;stroke-width:9.72"/>
	<line x1="4769.04" y1="1296.34" x2="4833.84" y2="1296.34" style="stroke:#F0F0F0;stroke-width:9.72"/>
	<line x1="4866.24" y1="1296.34" x2="4931.04" y2="1296.34" style="stroke:#F0F0F0;stroke-width:9.72"/>
	<line x1="4963.44" y1="1296.34" x2="5028.24" y2="1296.34" style="stroke:#F0F0F0;stroke-width:9.72"/>
	<line x1="5060.64" y1="1296.34" x2="5125.44" y2="1296.34" style="stroke:#F0F0F0;stroke-width:9.72"/>
	<line x1="5157.84" y1="1296.34" x2="5222.64" y2="1296.34" style="stroke:#F0F0F0;stroke-width:9.72"/>
	<line x1="5255.04" y1="1296.34" x2="5286.60" y2="1296.34" style="stroke:#F0F0F0;stroke-width:9.72"/>
	<line x1="492.24" y1="740.47" x2="557.04" y2="740.47" style="stroke:#F0F0F0;stroke-width:9.72"/>
	<line x1="589.44" y1="740.47" x2="654.24" y2="740.47" style="stroke:#F0F0F0;stroke-width:9.72"/>
	<line x1="686.64" y1="740.47" x2="751.44" y2="740.47" style="stroke:#F0F0F0;stroke-width:9.72"/>
	<line x1="783.84" y1="740.47" x2="848.64" y2="740.47" style="stroke:#F0F0F0;stroke-width:9.72"/>
	<line x1="881.04" y1="740.47" x2="945.84" y2="740.47" style="stroke:#F0F0F0;stroke-width:9.72"/>
	<line x1="978.24" y1="740.47" x2="1043.04" y2="740.47" style="stroke:#F0F0F0;stroke-width:9.72"/>
	<line x1="1075.44" y1="740.47" x2="1140.24" y2="740.47" style="stroke:#F0F0F0;stroke-width:9.72"/>
	<line x1="1172.64" y1="740.47" x2="1237.44" y2="740.47" style="stroke:#F0F0F0;stroke-width:9.72"/>
	<line x1="1269.84" y1="740.47" x2="1334.64" y2="740.47" style="stroke:#F0F0F0;stroke-width:9.72"/>
	<line x1="1367.04" y1="740.47" x2="1431.84" y2="740.47" style="stroke:#F0F0F0;stroke-width:9.72"/>
	<line x1="1464.24" y1="740.47" x2="1529.04" y2="740.47" style="stroke:#F0F0F0;stroke-width:9.72"/>
	<line x1="1561.44" y1="740.47" x2="1626.24" y2="740.47" style="stroke:#F0F0F0;stroke-width:9.72"/>
	<line x1="1658.64" y1="740.47" x2="1723.44" y2="740.47" style="stroke:#F0F0F0;stroke-width:9.72"/>
	<line x1="1755.84" y1="740.47" x2="1820.64" y2="740.47" style="stroke:#F0F0F0;stroke-width:9.72"/>
	<line x1="1853.04" y1="740.47" x2="1917.84" y2="740.47" style="stroke:#F0F0F0;stroke-width:9.72"/>
	<line x1="1950.24" y1="740.47" x2="2015.04" y2="740.47" style="stroke:#F0F0F0;stroke-width:9.72"/>
	<line x1="2047.44" y1="740.47" x2="2112.24" y2="740.47" style="stroke:#F0F0F0;stroke-width:9.72"/>
	<line x1="2144.64" y1="740.47" x2="2209.44" y2="740.47" style="stroke:#F0F0F0;stroke-width:9.72"/>
	<line x1="2241.84" y1="740.47" x2="2306.64" y2="740.47" style="stroke:#F0F0F0;stroke-width:9.72"/>
	<line x1="2339.04" y1="740.47" x2="2403.84" y2="740.47" style="stroke:#F0F0F0;stroke-width:9.72"/>
	<line x1="2436.24" y1="740.47" x2="2501.04" y2="740.47" style="stroke:#F0F0F0;stroke-width:9.72"/>
	<line x1="2533.44" y1="740.47" x2="2598.24" y2="740.47" style="stroke:#F0F0F0;stroke-width:9.72"/>
	<line x1="2630.64" y1="740.47" x2="2695.44" y2="740.47" style="stroke:#F0F0F0;stroke-width:9.72"/>
	<line x1="2727.84" y1="740.47" x2="2792.64" y2="740.47" style="stroke:#F0F0F0;stroke-width:9.72"/>
	<line x1="2825.04" y1="740.47" x2="2889.84" y2="740.47" style="stroke:#F0F0F0;stroke-width:9.72"/>
	<line x1="2922.24" y1="740.47" x2="2987.04" y2="740.47" style="stroke:#F0F0F0;stroke-width:9.72"/>
	<line x1="3019.44" y1="740.47" x2="3084.24" y2="740.47" style="stroke:#F0F0F0;stroke-width:9.72"/>
	<line x1="3116.64" y1="740.47" x2="3181.44" y2="740.47" style="stroke:#F0F0F0;stroke-width:9.72"/>
	<line x1="3213.84" y1="740.47" x2="3278.64" y2="740.47" style="stroke:#F0F0F0;stroke-width:9.72"/>
	<line x1="3311.04" y1="740.47" x2="3375.84" y2="740.47" style="stroke:#F0F0F0;stroke-width:9.72"/>
	<line x1="3408.24" y1="740.47" x2="3473.04" y2="740.47" style="stroke:#F0F0F0;stroke-width:9.72"/>
	<line x1="3505.44" y1="740.47" x2="3570.24" y2="740.47" style="stroke:#F0F0F0;stroke-width:9.72"/>
	<line x1="3602.64" y1="740.47" x2="3667.44" y2="740.47" style="stroke:#F0F0F0;stroke-width:9.72"/>
	<line x1="3699.84" y1="740.47" x2="3764.64" y2="740.47" style="stroke:#F0F0F0;stroke-width:9.72"/>
	<line x1="3797.04" y1="740.47" x2="3861.84" y2="740.47" style="stroke:#F0F0F0;stroke-width:9.72"/>
	<line x1="3894.24" y1="740.47" x2="3959.04" y2="740.47" style="stroke:#F0F0F0;stroke-width:9.72"/>
	<line x1="3991.44" y1="740.47" x2="4056.24" y2="740.47" style="stroke:#F0F0F0;stroke-width:9.72"/>
	<line x1="4088.64" y1="740.47" x2="4153.44" y2="740.47" style="stroke:#F0F0F0;stroke-width:9.72"/>
	<line x1="4185.84" y1="740.47" x2="4250.64" y2="740.47" style="stroke:#F0F0F0;stroke-width:9.72"/>
	<line x1="4283.04" y1="740.47" x2="4347.84" y2="740.47" style="stroke:#F0F0F0;stroke-width:9.72"/>
	<line x1="4380.24" y1="740.47" x2="4445.04" y2="740.47" style="stroke:#F0F0F0;stroke-width:9.72"/>
	<line x1="4477.44" y1="740.47" x2="4542.24" y2="740.47" style="stroke:#F0F0F0;stroke-width:9.72"/>
	<line x1="4574.64" y1="740.47" x2="4639.44" y2="740.47" style="stroke:#F0F0F0;stroke-width:9.72"/>
	<line x1="4671.84" y1="740.47" x2="4736.64" y2="740.47" style="stroke:#F0F0F0;stroke-width:9.72"/>
	<line x1="4769.04" y1="740.47" x2="4833.84" y2="740.47" style="stroke:#F0F0F0;stroke-width:9.72"/>
	<line x1="4866.24" y1="740.47" x2="4931.04" y2="740.47" style="stroke:#F0F0F0;stroke-width:9.72"/>
	<line x1="4963.44" y1="740.47" x2="5028.24" y2="740.47" style="stroke:#F0F0F0;stroke-width:9.72"/>
	<line x1="5060.64" y1="740.47" x2="5125.44" y2="740.47" style="stroke:#F0F0F0;stroke-width:9.72"/>
	<line x1="5157.84" y1="740.47" x2="5222.64" y2="740.47" style="stroke:#F0F0F0;stroke-width:9.72"/>
	<line x1="5255.04" y1="740.47" x2="5286.60" y2="740.47" style="stroke:#F0F0F0;stroke-width:9.72"/>
	<line x1="492.24" y1="184.61" x2="557.04" y2="184.61" style="stroke:#F0F0F0;stroke-width:9.72"/>
	<line x1="589.44" y1="184.61" x2="654.24" y2="184.61" style="stroke:#F0F0F0;stroke-width:9.72"/>
	<line x1="686.64" y1="184.61" x2="751.44" y2="184.61" style="stroke:#F0F0F0;stroke-width:9.72"/>
	<line x1="783.84" y1="184.61" x2="848.64" y2="184.61" style="stroke:#F0F0F0;stroke-width:9.72"/>
	<line x1="881.04" y1="184.61" x2="945.84" y2="184.61" style="stroke:#F0F0F0;stroke-width:9.72"/>
	<line x1="978.24" y1="184.61" x2="1043.04" y2="184.61" style="stroke:#F0F0F0;stroke-width:9.72"/>
	<line x1="1075.44" y1="184.61" x2="1140.24" y2="184.61" style="stroke:#F0F0F0;stroke-width:9.72"/>
	<line x1="1172.64" y1="184.61" x2="1237.44" y2="184.61" style="stroke:#F0F0F0;stroke-width:9.72"/>
	<line x1="1269.84" y1="184.61" x2="1334.64" y2="184.61" style="stroke:#F0F0F0;stroke-width:9.72"/>
	<line x1="1367.04" y1="184.61" x2="1431.84" y2="184.61" style="stroke:#F0F0F0;stroke-width:9.72"/>
	<line x1="1464.24" y1="184.61" x2="1529.04" y2="184.61" style="stroke:#F0F0F0;stroke-width:9.72"/>
	<line x1="1561.44" y1="184.61" x2="1626.24" y2="184.61" style="stroke:#F0F0F0;stroke-width:9.72"/>
	<line x1="1658.64" y1="184.61" x2="1723.44" y2="184.61" style="stroke:#F0F0F0;stroke-width:9.72"/>
	<line x1="1755.84" y1="184.61" x2="1820.64" y2="184.61" style="stroke:#F0F0F0;stroke-width:9.72"/>
	<line x1="1853.04" y1="184.61" x2="1917.84" y2="184.61" style="stroke:#F0F0F0;stroke-width:9.72"/>
	<line x1="1950.24" y1="184.61" x2="2015.04" y2="184.61" style="stroke:#F0F0F0;stroke-width:9.72"/>
	<line x1="2047.44" y1="184.61" x2="2112.24" y2="184.61" style="stroke:#F0F0F0;stroke-width:9.72"/>
	<line x1="2144.64" y1="184.61" x2="2209.44" y2="184.61" style="stroke:#F0F0F0;stroke-width:9.72"/>
	<line x1="2241.84" y1="184.61" x2="2306.64" y2="184.61" style="stroke:#F0F0F0;stroke-width:9.72"/>
	<line x1="2339.04" y1="184.61" x2="2403.84" y2="184.61" style="stroke:#F0F0F0;stroke-width:9.72"/>
	<line x1="2436.24" y1="184.61" x2="2501.04" y2="184.61" style="stroke:#F0F0F0;stroke-width:9.72"/>
	<line x1="2533.44" y1="184.61" x2="2598.24" y2="184.61" style="stroke:#F0F0F0;stroke-width:9.72"/>
	<line x1="2630.64" y1="184.61" x2="2695.44" y2="184.61" style="stroke:#F0F0F0;stroke-width:9.72"/>
	<line x1="2727.84" y1="184.61" x2="2792.64" y2="184.61" style="stroke:#F0F0F0;stroke-width:9.72"/>
	<line x1="2825.04" y1="184.61" x2="2889.84" y2="184.61" style="stroke:#F0F0F0;stroke-width:9.72"/>
	<line x1="2922.24" y1="184.61" x2="2987.04" y2="184.61" style="stroke:#F0F0F0;stroke-width:9.72"/>
	<line x1="3019.44" y1="184.61" x2="3084.24" y2="184.61" style="stroke:#F0F0F0;stroke-width:9.72"/>
	<line x1="3116.64" y1="184.61" x2="3181.44" y2="184.61" style="stroke:#F0F0F0;stroke-width:9.72"/>
	<line x1="3213.84" y1="184.61" x2="3278.64" y2="184.61" style="stroke:#F0F0F0;stroke-width:9.72"/>
	<line x1="3311.04" y1="184.61" x2="3375.84" y2="184.61" style="stroke:#F0F0F0;stroke-width:9.72"/>
	<line x1="3408.24" y1="184.61" x2="3473.04" y2="184.61" style="stroke:#F0F0F0;stroke-width:9.72"/>
	<line x1="3505.44" y1="184.61" x2="3570.24" y2="184.61" style="stroke:#F0F0F0;stroke-width:9.72"/>
	<line x1="3602.64" y1="184.61" x2="3667.44" y2="184.61" style="stroke:#F0F0F0;stroke-width:9.72"/>
	<line x1="3699.84" y1="184.61" x2="3764.64" y2="184.61" style="stroke:#F0F0F0;stroke-width:9.72"/>
	<line x1="3797.04" y1="184.61" x2="3861.84" y2="184.61" style="stroke:#F0F0F0;stroke-width:9.72"/>
	<line x1="3894.24" y1="184.61" x2="3959.04" y2="184.61" style="stroke:#F0F0F0;stroke-width:9.72"/>
	<line x1="3991.44" y1="184.61" x2="4056.24" y2="184.61" style="stroke:#F0F0F0;stroke-width:9.72"/>
	<line x1="4088.64" y1="184.61" x2="4153.44" y2="184.61" style="stroke:#F0F0F0;stroke-width:9.72"/>
	<line x1="4185.84" y1="184.61" x2="4250.64" y2="184.61" style="stroke:#F0F0F0;stroke-width:9.72"/>
	<line x1="4283.04" y1="184.61" x2="4347.84" y2="184.61" style="stroke:#F0F0F0;stroke-width:9.72"/>
	<line x1="4380.24" y1="184.61" x2="4445.04" y2="184.61" style="stroke:#F0F0F0;stroke-width:9.72"/>
	<line x1="4477.44" y1="184.61" x2="4542.24" y2="184.61" style="stroke:#F0F0F0;stroke-width:9.72"/>
	<line x1="4574.64" y1="184.61" x2="4639.44" y2="184.61" style="stroke:#F0F0F0;stroke-width:9.72"/>
	<line x1="4671.84" y1="184.61" x2="4736.64" y2="184.61" style="stroke:#F0F0F0;stroke-width:9.72"/>
	<line x1="4769.04" y1="184.61" x2="4833.84" y2="184.61" style="stroke:#F0F0F0;stroke-width:9.72"/>
	<line x1="4866.24" y1="184.61" x2="4931.04" y2="184.61" style="stroke:#F0F0F0;stroke-width:9.72"/>
	<line x1="4963.44" y1="184.61" x2="5028.24" y2="184.61" style="stroke:#F0F0F0;stroke-width:9.72"/>
	<line x1="5060.64" y1="184.61" x2="5125.44" y2="184.61" style="stroke:#F0F0F0;stroke-width:9.72"/>
	<line x1="5157.84" y1="184.61" x2="5222.64" y2="184.61" style="stroke:#F0F0F0;stroke-width:9.72"/>
	<line x1="5255.04" y1="184.61" x2="5286.60" y2="184.61" style="stroke:#F0F0F0;stroke-width:9.72"/>
	<line x1="563.46" y1="2479.11" x2="563.46" y2="2414.31" style="stroke:#F0F0F0;stroke-width:9.72"/>
	<line x1="563.46" y1="2381.91" x2="563.46" y2="2317.11" style="stroke:#F0F0F0;stroke-width:9.72"/>
	<line x1="563.46" y1="2284.71" x2="563.46" y2="2219.91" style="stroke:#F0F0F0;stroke-width:9.72"/>
	<line x1="563.46" y1="2187.51" x2="563.46" y2="2122.71" style="stroke:#F0F0F0;stroke-width:9.72"/>
	<line x1="563.46" y1="2090.31" x2="563.46" y2="2025.51" style="stroke:#F0F0F0;stroke-width:9.72"/>
	<line x1="563.46" y1="1993.11" x2="563.46" y2="1928.31" style="stroke:#F0F0F0;stroke-width:9.72"/>
	<line x1="563.46" y1="1895.91" x2="563.46" y2="1831.11" style="stroke:#F0F0F0;stroke-width:9.72"/>
	<line x1="563.46" y1="1798.71" x2="563.46" y2="1733.91" style="stroke:#F0F0F0;stroke-width:9.72"/>
	<line x1="563.46" y1="1701.51" x2="563.46" y2="1636.71" style="stroke:#F0F0F0;stroke-width:9.72"/>
	<line x1="563.46" y1="1604.31" x2="563.46" y2="1539.51" style="stroke:#F0F0F0;stroke-width:9.72"/>
	<line x1="563.46" y1="1507.11" x2="563.46" y2="1442.31" style="stroke:#F0F0F0;stroke-width:9.72"/>
	<line x1="563.46" y1="1409.91" x2="563.46" y2="1345.11" style="stroke:#F0F0F0;stroke-width:9.72"/>
	<line x1="563.46" y1="1312.71" x2="563.46" y2="1247.91" style="stroke:#F0F0F0;stroke-width:9.72"/>
	<line x1="563.46" y1="1215.51" x2="563.46" y2="1150.71" style="stroke:#F0F0F0;stroke-width:9.72"/>
	<line x1="563.46" y1="1118.31" x2="563.46" y2="1053.51" style="stroke:#F0F0F0;stroke-width:9.72"/>
	<line x1="563.46" y1="1021.11" x2="563.46" y2="956.31" style="stroke:#F0F0F0;stroke-width:9.72"/>
	<line x1="563.46" y1="923.91" x2="563.46" y2="859.11" style="stroke:#F0F0F0;stroke-width:9.72"/>
	<line x1="563.46" y1="826.71" x2="563.46" y2="761.91" style="stroke:#F0F0F0;stroke-width:9.72"/>
	<line x1="563.46" y1="729.51" x2="563.46" y2="664.71" style="stroke:#F0F0F0;stroke-width:9.72"/>
	<line x1="563.46" y1="632.31" x2="563.46" y2="567.51" style="stroke:#F0F0F0;stroke-width:9.72"/>
	<line x1="563.46" y1="535.11" x2="563.46" y2="470.31" style="stroke:#F0F0F0;stroke-width:9.72"/>
	<line x1="563.46" y1="437.91" x2="563.46" y2="373.11" style="stroke:#F0F0F0;stroke-width:9.72"/>
	<line x1="563.46" y1="340.71" x2="563.46" y2="275.91" style="stroke:#F0F0F0;stroke-width:9.72"/>
	<line x1="563.46" y1="243.51" x2="563.46" y2="178.71" style="stroke:#F0F0F0;stroke-width:9.72"/>
	<line x1="563.46" y1="146.31" x2="563.46" y2="113.40" style="stroke:#F0F0F0;stroke-width:9.72"/>
	<line x1="1493.94" y1="2479.11" x2="1493.94" y2="2414.31" style="stroke:#F0F0F0;stroke-width:9.72"/>
	<line x1="1493.94" y1="2381.91" x2="1493.94" y2="2317.11" style="stroke:#F0F0F0;stroke-width:9.72"/>
	<line x1="1493.94" y1="2284.71" x2="1493.94" y2="2219.91" style="stroke:#F0F0F0;stroke-width:9.72"/>
	<line x1="1493.94" y1="2187.51" x2="1493.94" y2="2122.71" style="stroke:#F0F0F0;stroke-width:9.72"/>
	<line x1="1493.94" y1="2090.31" x2="1493.94" y2="2025.51" style="stroke:#F0F0F0;stroke-width:9.72"/>
	<line x1="1493.94" y1="1993.11" x2="1493.94" y2="1928.31" style="stroke:#F0F0F0;stroke-width:9.72"/>
	<line x1="1493.94" y1="1895.91" x2="1493.94" y2="1831.11" style="stroke:#F0F0F0;stroke-width:9.72"/>
	<line x1="1493.94" y1="1798.71" x2="1493.94" y2="1733.91" style="stroke:#F0F0F0;stroke-width:9.72"/>
	<line x1="1493.94" y1="1701.51" x2="1493.94" y2="1636.71" style="stroke:#F0F0F0;stroke-width:9.72"/>
	<line x1="1493.94" y1="1604.31" x2="1493.94" y2="1539.51" style="stroke:#F0F0F0;stroke-width:9.72"/>
	<line x1="1493.94" y1="1507.11" x2="1493.94" y2="1442.31" style="stroke:#F0F0F0;stroke-width:9.72"/>
	<line x1="1493.94" y1="1409.91" x2="1493.94" y2="1345.11" style="stroke:#F0F0F0;stroke-width:9.72"/>
	<line x1="1493.94" y1="1312.71" x2="1493.94" y2="1247.91" style="stroke:#F0F0F0;stroke-width:9.72"/>
	<line x1="1493.94" y1="1215.51" x2="1493.94" y2="1150.71" style="stroke:#F0F0F0;stroke-width:9.72"/>
	<line x1="1493.94" y1="1118.31" x2="1493.94" y2="1053.51" style="stroke:#F0F0F0;stroke-width:9.72"/>
	<line x1="1493.94" y1="1021.11" x2="1493.94" y2="956.31" style="stroke:#F0F0F0;stroke-width:9.72"/>
	<line x1="1493.94" y1="923.91" x2="1493.94" y2="859.11" style="stroke:#F0F0F0;stroke-width:9.72"/>
	<line x1="1493.94" y1="826.71" x2="1493.94" y2="761.91" style="stroke:#F0F0F0;stroke-width:9.72"/>
	<line x1="1493.94" y1="729.51" x2="1493.94" y2="664.71" style="stroke:#F0F0F0;stroke-width:9.72"/>
	<line x1="1493.94" y1="632.31" x2="1493.94" y2="567.51" style="stroke:#F0F0F0;stroke-width:9.72"/>
	<line x1="1493.94" y1="535.11" x2="1493.94" y2="470.31" style="stroke:#F0F0F0;stroke-width:9.72"/>
	<line x1="1493.94" y1="437.91" x2="1493.94" y2="373.11" style="stroke:#F0F0F0;stroke-width:9.72"/>
	<line x1="1493.94" y1="340.71" x2="1493.94" y2="275.91" style="stroke:#F0F0F0;stroke-width:9.72"/>
	<line x1="1493.94" y1="243.51" x2="1493.94" y2="178.71" style="stroke:#F0F0F0;stroke-width:9.72"/>
	<line x1="1493.94" y1="146.31" x2="1493.94" y2="113.40" style="stroke:#F0F0F0;stroke-width:9.72"/>
	<line x1="2424.26" y1="2479.11" x2="2424.26" y2="2414.31" style="stroke:#F0F0F0;stroke-width:9.72"/>
	<line x1="2424.26" y1="2381.91" x2="2424.26" y2="2317.11" style="stroke:#F0F0F0;stroke-width:9.72"/>
	<line x1="2424.26" y1="2284.71" x2="2424.26" y2="2219.91" style="stroke:#F0F0F0;stroke-width:9.72"/>
	<line x1="2424.26" y1="2187.51" x2="2424.26" y2="2122.71" style="stroke:#F0F0F0;stroke-width:9.72"/>
	<line x1="2424.26" y1="2090.31" x2="2424.26" y2="2025.51" style="stroke:#F0F0F0;stroke-width:9.72"/>
	<line x1="2424.26" y1="1993.11" x2="2424.26" y2="1928.31" style="stroke:#F0F0F0;stroke-width:9.72"/>
	<line x1="2424.26" y1="1895.91" x2="2424.26" y2="1831.11" style="stroke:#F0F0F0;stroke-width:9.72"/>
	<line x1="2424.26" y1="1798.71" x2="2424.26" y2="1733.91" style="stroke:#F0F0F0;stroke-width:9.72"/>
	<line x1="2424.26" y1="1701.51" x2="2424.26" y2="1636.71" style="stroke:#F0F0F0;stroke-width:9.72"/>
	<line x1="2424.26" y1="1604.31" x2="2424.26" y2="1539.51" style="stroke:#F0F0F0;stroke-width:9.72"/>
	<line x1="2424.26" y1="1507.11" x2="2424.26" y2="1442.31" style="stroke:#F0F0F0;stroke-width:9.72"/>
	<line x1="2424.26" y1="1409.91" x2="2424.26" y2="1345.11" style="stroke:#F0F0F0;stroke-width:9.72"/>
	<line x1="2424.26" y1="1312.71" x2="2424.26" y2="1247.91" style="stroke:#F0F0F0;stroke-width:9.72"/>
	<line x1="2424.26" y1="1215.51" x2="2424.26" y2="1150.71" style="stroke:#F0F0F0;stroke-width:9.72"/>
	<line x1="2424.26" y1="1118.31" x2="2424.26" y2="1053.51" style="stroke:#F0F0F0;stroke-width:9.72"/>
	<line x1="2424.26" y1="1021.11" x2="2424.26" y2="956.31" style="stroke:#F0F0F0;stroke-width:9.72"/>
	<line x1="2424.26" y1="923.91" x2="2424.26" y2="859.11" style="stroke:#F0F0F0;stroke-width:9.72"/>
	<line x1="2424.26" y1="826.71" x2="2424.26" y2="761.91" style="stroke:#F0F0F0;stroke-width:9.72"/>
	<line x1="2424.26" y1="729.51" x2="2424.26" y2="664.71" style="stroke:#F0F0F0;stroke-width:9.72"/>
	<line x1="2424.26" y1="632.31" x2="2424.26" y2="567.51" style="stroke:#F0F0F0;stroke-width:9.72"/>
	<line x1="2424.26" y1="535.11" x2="2424.26" y2="470.31" style="stroke:#F0F0F0;stroke-width:9.72"/>
	<line x1="2424.26" y1="437.91" x2="2424.26" y2="373.11" style="stroke:#F0F0F0;stroke-width:9.72"/>
	<line x1="2424.26" y1="340.71" x2="2424.26" y2="275.91" style="stroke:#F0F0F0;stroke-width:9.72"/>
	<line x1="2424.26" y1="243.51" x2="2424.26" y2="178.71" style="stroke:#F0F0F0;stroke-width:9.72"/>
	<line x1="2424.26" y1="146.31" x2="2424.26" y2="113.40" style="stroke:#F0F0F0;stroke-width:9.72"/>
	<line x1="3354.58" y1="2479.11" x2="3354.58" y2="2414.31" style="stroke:#F0F0F0;stroke-width:9.72"/>
	<line x1="3354.58" y1="2381.91" x2="3354.58" y2="2317.11" style="stroke:#F0F0F0;stroke-width:9.72"/>
	<line x1="3354.58" y1="2284.71" x2="3354.58" y2="2219.91" style="stroke:#F0F0F0;stroke-width:9.72"/>
	<line x1="3354.58" y1="2187.51" x2="3354.58" y2="2122.71" style="stroke:#F0F0F0;stroke-width:9.72"/>
	<line x1="3354.58" y1="2090.31" x2="3354.58" y2="2025.51" style="stroke:#F0F0F0;stroke-width:9.72"/>
	<line x1="3354.58" y1="1993.11" x2="3354.58" y2="1928.31" style="stroke:#F0F0F0;stroke-width:9.72"/>
	<line x1="3354.58" y1="1895.91" x2="3354.58" y2="1831.11" style="stroke:#F0F0F0;stroke-width:9.72"/>
	<line x1="3354.58" y1="1798.71" x2="3354.58" y2="1733.91" style="stroke:#F0F0F0;stroke-width:9.72"/>
	<line x1="3354.58" y1="1701.51" x2="3354.58" y2="1636.71" style="stroke:#F0F0F0;stroke-width:9.72"/>
	<line x1="3354.58" y1="1604.31" x2="3354.58" y2="1539.51" style="stroke:#F0F0F0;stroke-width:9.72"/>
	<line x1="3354.58" y1="1507.11" x2="3354.58" y2="1442.31" style="stroke:#F0F0F0;stroke-width:9.72"/>
	<line x1="3354.58" y1="1409.91" x2="3354.58" y2="1345.11" style="stroke:#F0F0F0;stroke-width:9.72"/>
	<line x1="3354.58" y1="1312.71" x2="3354.58" y2="1247.91" style="stroke:#F0F0F0;stroke-width:9.72"/>
	<line x1="3354.58" y1="1215.51" x2="3354.58" y2="1150.71" style="stroke:#F0F0F0;stroke-width:9.72"/>
	<line x1="3354.58" y1="1118.31" x2="3354.58" y2="1053.51" style="stroke:#F0F0F0;stroke-width:9.72"/>
	<line x1="3354.58" y1="1021.11" x2="3354.58" y2="956.31" style="stroke:#F0F0F0;stroke-width:9.72"/>
	<line x1="3354.58" y1="923.91" x2="3354.58" y2="859.11" style="stroke:#F0F0F0;stroke-width:9.72"/>
	<line x1="3354.58" y1="826.71" x2="3354.58" y2="761.91" style="stroke:#F0F0F0;stroke-width:9.72"/>
	<line x1="3354.58" y1="729.51" x2="3354.58" y2="664.71" style="stroke:#F0F0F0;stroke-width:9.72"/>
	<line x1="3354.58" y1="632.31" x2="3354.58" y2="567.51" style="stroke:#F0F0F0;stroke-width:9.72"/>
	<line x1="3354.58" y1="535.11" x2="3354.58" y2="470.31" style="stroke:#F0F0F0;stroke-width:9.72"/>
	<line x1="3354.58" y1="437.91" x2="3354.58" y2="373.11" style="stroke:#F0F0F0;stroke-width:9.72"/>
	<line x1="3354.58" y1="340.71" x2="3354.58" y2="275.91" style="stroke:#F0F0F0;stroke-width:9.72"/>
	<line x1="3354.58" y1="243.51" x2="3354.58" y2="178.71" style="stroke:#F0F0F0;stroke-width:9.72"/>
	<line x1="3354.58" y1="146.31" x2="3354.58" y2="113.40" style="stroke:#F0F0F0;stroke-width:9.72"/>
	<line x1="4284.90" y1="2479.11" x2="4284.90" y2="2414.31" style="stroke:#F0F0F0;stroke-width:9.72"/>
	<line x1="4284.90" y1="2381.91" x2="4284.90" y2="2317.11" style="stroke:#F0F0F0;stroke-width:9.72"/>
	<line x1="4284.90" y1="2284.71" x2="4284.90" y2="2219.91" style="stroke:#F0F0F0;stroke-width:9.72"/>
	<line x1="4284.90" y1="2187.51" x2="4284.90" y2="2122.71" style="stroke:#F0F0F0;stroke-width:9.72"/>
	<line x1="4284.90" y1="2090.31" x2="4284.90" y2="2025.51" style="stroke:#F0F0F0;stroke-width:9.72"/>
	<line x1="4284.90" y1="1993.11" x2="4284.90" y2="1928.31" style="stroke:#F0F0F0;stroke-width:9.72"/>
	<line x1="4284.90" y1="1895.91" x2="4284.90" y2="1831.11" style="stroke:#F0F0F0;stroke-width:9.72"/>
	<line x1="4284.90" y1="1798.71" x2="4284.90" y2="1733.91" style="stroke:#F0F0F0;stroke-width:9.72"/>
	<line x1="4284.90" y1="1701.51" x2="4284.90" y2="1636.71" style="stroke:#F0F0F0;stroke-width:9.72"/>
	<line x1="4284.90" y1="1604.31" x2="4284.90" y2="1539.51" style="stroke:#F0F0F0;stroke-width:9.72"/>
	<line x1="4284.90" y1="1507.11" x2="4284.90" y2="1442.31" style="stroke:#F0F0F0;stroke-width:9.72"/>
	<line x1="4284.90" y1="1409.91" x2="4284.90" y2="1345.11" style="stroke:#F0F0F0;stroke-width:9.72"/>
	<line x1="4284.90" y1="1312.71" x2="4284.90" y2="1247.91" style="stroke:#F0F0F0;stroke-width:9.72"/>
	<line x1="4284.90" y1="1215.51" x2="4284.90" y2="1150.71" style="stroke:#F0F0F0;stroke-width:9.72"/>
	<line x1="4284.90" y1="1118.31" x2="4284.90" y2="1053.51" style="stroke:#F0F0F0;stroke-width:9.72"/>
	<line x1="4284.90" y1="1021.11" x2="4284.90" y2="956.31" style="stroke:#F0F0F0;stroke-width:9.72"/>
	<line x1="4284.90" y1="923.91" x2="4284.90" y2="859.11" style="stroke:#F0F0F0;stroke-width:9.72"/>
	<line x1="4284.90" y1="826.71" x2="4284.90" y2="761.91" style="stroke:#F0F0F0;stroke-width:9.72"/>
	<line x1="4284.90" y1="729.51" x2="4284.90" y2="664.71" style="stroke:#F0F0F0;stroke-width:9.72"/>
	<line x1="4284.90" y1="632.31" x2="4284.90" y2="567.51" style="stroke:#F0F0F0;stroke-width:9.72"/>
	<line x1="4284.90" y1="535.11" x2="4284.90" y2="470.31" style="stroke:#F0F0F0;stroke-width:9.72"/>
	<line x1="4284.90" y1="437.91" x2="4284.90" y2="373.11" style="stroke:#F0F0F0;stroke-width:9.72"/>
	<line x1="4284.90" y1="340.71" x2="4284.90" y2="275.91" style="stroke:#F0F0F0;stroke-width:9.72"/>
	<line x1="4284.90" y1="243.51" x2="4284.90" y2="178.71" style="stroke:#F0F0F0;stroke-width:9.72"/>
	<line x1="4284.90" y1="146.31" x2="4284.90" y2="113.40" style="stroke:#F0F0F0;stroke-width:9.72"/>
	<line x1="5215.39" y1="2479.11" x2="5215.39" y2="2414.31" style="stroke:#F0F0F0;stroke-width:9.72"/>
	<line x1="5215.39" y1="2381.91" x2="5215.39" y2="2317.11" style="stroke:#F0F0F0;stroke-width:9.72"/>
	<line x1="5215.39" y1="2284.71" x2="5215.39" y2="2219.91" style="stroke:#F0F0F0;stroke-width:9.72"/>
	<line x1="5215.39" y1="2187.51" x2="5215.39" y2="2122.71" style="stroke:#F0F0F0;stroke-width:9.72"/>
	<line x1="5215.39" y1="2090.31" x2="5215.39" y2="2025.51" style="stroke:#F0F0F0;stroke-width:9.72"/>
	<line x1="5215.39" y1="1993.11" x2="5215.39" y2="1928.31" style="stroke:#F0F0F0;stroke-width:9.72"/>
	<line x1="5215.39" y1="1895.91" x2="5215.39" y2="1831.11" style="stroke:#F0F0F0;stroke-width:9.72"/>
	<line x1="5215.39" y1="1798.71" x2="5215.39" y2="1733.91" style="stroke:#F0F0F0;stroke-width:9.72"/>
	<line x1="5215.39" y1="1701.51" x2="5215.39" y2="1636.71" style="stroke:#F0F0F0;stroke-width:9.72"/>
	<line x1="5215.39" y1="1604.31" x2="5215.39" y2="1539.51" style="stroke:#F0F0F0;stroke-width:9.72"/>
	<line x1="5215.39" y1="1507.11" x2="5215.39" y2="1442.31" style="stroke:#F0F0F0;stroke-width:9.72"/>
	<line x1="5215.39" y1="1409.91" x2="5215.39" y2="1345.11" style="stroke:#F0F0F0;stroke-width:9.72"/>
	<line x1="5215.39" y1="1312.71" x2="5215.39" y2="1247.91" style="stroke:#F0F0F0;stroke-width:9.72"/>
	<line x1="5215.39" y1="1215.51" x2="5215.39" y2="1150.71" style="stroke:#F0F0F0;stroke-width:9.72"/>
	<line x1="5215.39" y1="1118.31" x2="5215.39" y2="1053.51" style="stroke:#F0F0F0;stroke-width:9.72"/>
	<line x1="5215.39" y1="1021.11" x2="5215.39" y2="956.31" style="stroke:#F0F0F0;stroke-width:9.72"/>
	<line x1="5215.39" y1="923.91" x2="5215.39" y2="859.11" style="stroke:#F0F0F0;stroke-width:9.72"/>
	<line x1="5215.39" y1="826.71" x2="5215.39" y2="761.91" style="stroke:#F0F0F0;stroke-width:9.72"/>
	<line x1="5215.39" y1="729.51" x2="5215.39" y2="664.71" style="stroke:#F0F0F0;stroke-width:9.72"/>
	<line x1="5215.39" y1="632.31" x2="5215.39" y2="567.51" style="stroke:#F0F0F0;stroke-width:9.72"/>
	<line x1="5215.39" y1="535.11" x2="5215.39" y2="470.31" style="stroke:#F0F0F0;stroke-width:9.72"/>
	<line x1="5215.39" y1="437.91" x2="5215.39" y2="373.11" style="stroke:#F0F0F0;stroke-width:9.72"/>
	<line x1="5215.39" y1="340.71" x2="5215.39" y2="275.91" style="stroke:#F0F0F0;stroke-width:9.72"/>
	<line x1="5215.39" y1="243.51" x2="5215.39" y2="178.71" style="stroke:#F0F0F0;stroke-width:9.72"/>
	<line x1="5215.39" y1="146.31" x2="5215.39" y2="113.40" style="stroke:#F0F0F0;stroke-width:9.72"/>
	<path d=" M762.58 2043.56 L1488.21 1815.58 L2132.32 1622.19 L3030.08 1347.64 L5024.36 534.09" stroke-linejoin="round" style="fill:none;stroke:#000000;stroke-width:14.58"/>
	<path d=" M762.58 2052.00 L1488.21 1820.64 L2132.32 1627.76 L3030.08 1356.24 L5024.36 830.93" stroke-linejoin="round" style="fill:none;stroke:#A0A0A0;stroke-width:14.58"/>
	<path d=" M762.58 2035.13 L1488.21 1810.35 L2132.32 1616.63 L3030.08 1339.03 L5024.36 237.26" stroke-linejoin="round" style="fill:none;stroke:#A0A0A0;stroke-width:14.58"/>
	<line x1="492.24" y1="2479.11" x2="492.24" y2="113.40" style="stroke:#000000;stroke-width:6.48"/>
	<line x1="492.24" y1="2407.89" x2="447.19" y2="2407.89" style="stroke:#000000;stroke-width:6.48"/>
	<text x="424.74" y="2447.33" style="font-family:'Helvetica';font-size:112.56px;fill:#000000" text-anchor="end">0</text>
	<line x1="492.24" y1="1852.03" x2="447.19" y2="1852.03" style="stroke:#000000;stroke-width:6.48"/>
	<text x="424.74" y="1891.47" style="font-family:'Helvetica';font-size:112.56px;fill:#000000" text-anchor="end">.2</text>
	<line x1="492.24" y1="1296.34" x2="447.19" y2="1296.34" style="stroke:#000000;stroke-width:6.48"/>
	<text x="424.74" y="1335.77" style="font-family:'Helvetica';font-size:112.56px;fill:#000000" text-anchor="end">.4</text>
	<line x1="492.24" y1="740.47" x2="447.19" y2="740.47" style="stroke:#000000;stroke-width:6.48"/>
	<text x="424.74" y="779.91" style="font-family:'Helvetica';font-size:112.56px;fill:#000000" text-anchor="end">.6</text>
	<line x1="492.24" y1="184.61" x2="447.19" y2="184.61" style="stroke:#000000;stroke-width:6.48"/>
	<text x="424.74" y="224.05" style="font-family:'Helvetica';font-size:112.56px;fill:#000000" text-anchor="end">.8</text>
	<text x="214.55" y="1296.34" style="font-family:'Helvetica';font-size:112.56px;fill:#000000" transform="rotate(-90 214.55,1296.34)" text-anchor="middle">Estimated causal effect</text>
	<line x1="492.24" y1="2479.11" x2="5286.60" y2="2479.11" style="stroke:#000000;stroke-width:6.48"/>
	<line x1="563.46" y1="2479.11" x2="563.46" y2="2524.16" style="stroke:#000000;stroke-width:6.48"/>
	<text x="563.46" y="2625.31" style="font-family:'Helvetica';font-size:112.56px;fill:#000000" text-anchor="middle">.5</text>
	<line x1="1493.94" y1="2479.11" x2="1493.94" y2="2524.16" style="stroke:#000000;stroke-width:6.48"/>
	<text x="1493.94" y="2625.31" style="font-family:'Helvetica';font-size:112.56px;fill:#000000" text-anchor="middle">1</text>
	<line x1="2424.26" y1="2479.11" x2="2424.26" y2="2524.16" style="stroke:#000000;stroke-width:6.48"/>
	<text x="2424.26" y="2625.31" style="font-family:'Helvetica';font-size:112.56px;fill:#000000" text-anchor="middle">1.5</text>
	<line x1="3354.58" y1="2479.11" x2="3354.58" y2="2524.16" style="stroke:#000000;stroke-width:6.48"/>
	<text x="3354.58" y="2625.31" style="font-family:'Helvetica';font-size:112.56px;fill:#000000" text-anchor="middle">2</text>
	<line x1="4284.90" y1="2479.11" x2="4284.90" y2="2524.16" style="stroke:#000000;stroke-width:6.48"/>
	<text x="4284.90" y="2625.31" style="font-family:'Helvetica';font-size:112.56px;fill:#000000" text-anchor="middle">2.5</text>
	<line x1="5215.39" y1="2479.11" x2="5215.39" y2="2524.16" style="stroke:#000000;stroke-width:6.48"/>
	<text x="5215.39" y="2625.31" style="font-family:'Helvetica';font-size:112.56px;fill:#000000" text-anchor="middle">3</text>
	<text x="2889.34" y="2782.75" style="font-family:'Helvetica';font-size:112.56px;fill:#000000" text-anchor="middle">Median of exposure in quantile</text>
	<rect x="1481.12" y="2878.03" width="2816.44" height="209.76" style="fill:#FFFFFF"/>
	<rect x="1484.36" y="2881.27" width="2809.96" height="203.28" style="fill:none;stroke:#FFFFFF;stroke-width:6.48"/>
	<line x1="1529.72" y1="2982.83" x2="1788.92" y2="2982.83" style="stroke:#000000;stroke-width:14.58"/>
	<line x1="3233.08" y1="2982.83" x2="3492.28" y2="2982.83" style="stroke:#A0A0A0;stroke-width:14.58"/>
	<text x="1856.42" y="3022.26" style="font-family:'Helvetica';font-size:112.56px;fill:#000000">Estimated causal effect</text>
	<text x="3559.78" y="3022.26" style="font-family:'Helvetica';font-size:112.56px;fill:#000000">95% CI limits</text>
</svg>
