<?xml version="1.0" encoding="UTF-8" standalone="no"?>
<!-- This is a Stata 17.0 generated SVG file (http://www.stata.com) -->

<svg version="1.1" width="5.500in" height="4.000in" viewBox="0 0 3960 2880" xmlns="http://www.w3.org/2000/svg" xmlns:xlink="http://www.w3.org/1999/xlink">
	<desc>Stata Graph - Graph</desc>
	<rect x="0" y="0" width="3960" height="2880" style="fill:#EAF2F3;stroke:none"/>
	<rect x="0.00" y="0.00" width="3959.88" height="2880.00" style="fill:#EAF2F3"/>
	<rect x="2.88" y="2.88" width="3954.12" height="2874.24" style="fill:none;stroke:#EAF2F3;stroke-width:5.76"/>
	<rect x="390.80" y="100.86" width="3468.22" height="2132.77" style="fill:#FFFFFF"/>
	<rect x="393.68" y="103.74" width="3462.46" height="2127.01" style="fill:none;stroke:#FFFFFF;stroke-width:5.76"/>
	<line x1="390.80" y1="1668.82" x2="3859.02" y2="1668.82" style="stroke:#EAF2F3;stroke-width:8.64"/>
	<line x1="390.80" y1="1167.25" x2="3859.02" y2="1167.25" style="stroke:#EAF2F3;stroke-width:8.64"/>
	<line x1="390.80" y1="665.67" x2="3859.02" y2="665.67" style="stroke:#EAF2F3;stroke-width:8.64"/>
	<line x1="390.80" y1="164.22" x2="3859.02" y2="164.22" style="stroke:#EAF2F3;stroke-width:8.64"/>
	<path d=" M597.09 1841.58 L1118.33 1635.78 L1581.15 1461.29 L2226.02 1213.65 L3658.55 479.55" stroke-linejoin="round" style="fill:none;stroke:#000000;stroke-width:12.96"/>
	<path d=" M597.09 1849.25 L1118.33 1640.36 L1581.15 1466.36 L2226.02 1221.33 L3658.55 747.35" stroke-linejoin="round" style="fill:none;stroke:#A0A0A0;stroke-width:12.96"/>
	<path d=" M597.09 1833.91 L1118.33 1631.20 L1581.15 1456.34 L2226.02 1205.86 L3658.55 211.62" stroke-linejoin="round" style="fill:none;stroke:#A0A0A0;stroke-width:12.96"/>
	<line x1="390.80" y1="2233.63" x2="390.80" y2="100.86" style="stroke:#000000;stroke-width:5.76"/>
	<line x1="390.80" y1="2170.27" x2="350.83" y2="2170.27" style="stroke:#000000;stroke-width:5.76"/>
	<text x="300.72" y="2170.27" style="font-family:'Helvetica';font-size:99.99px;fill:#000000" transform="rotate(-90 300.72,2170.27)" text-anchor="middle">0</text>
	<line x1="390.80" y1="1668.82" x2="350.83" y2="1668.82" style="stroke:#000000;stroke-width:5.76"/>
	<text x="300.72" y="1668.82" style="font-family:'Helvetica';font-size:99.99px;fill:#000000" transform="rotate(-90 300.72,1668.82)" text-anchor="middle">.2</text>
	<line x1="390.80" y1="1167.25" x2="350.83" y2="1167.25" style="stroke:#000000;stroke-width:5.76"/>
	<text x="300.72" y="1167.25" style="font-family:'Helvetica';font-size:99.99px;fill:#000000" transform="rotate(-90 300.72,1167.25)" text-anchor="middle">.4</text>
	<line x1="390.80" y1="665.67" x2="350.83" y2="665.67" style="stroke:#000000;stroke-width:5.76"/>
	<text x="300.72" y="665.67" style="font-family:'Helvetica';font-size:99.99px;fill:#000000" transform="rotate(-90 300.72,665.67)" text-anchor="middle">.6</text>
	<line x1="390.80" y1="164.22" x2="350.83" y2="164.22" style="stroke:#000000;stroke-width:5.76"/>
	<text x="300.72" y="164.22" style="font-family:'Helvetica';font-size:99.99px;fill:#000000" transform="rotate(-90 300.72,164.22)" text-anchor="middle">.8</text>
	<text x="190.71" y="1167.25" style="font-family:'Helvetica';font-size:99.99px;fill:#000000" transform="rotate(-90 190.71,1167.25)" text-anchor="middle">Estimated causal effect</text>
	<line x1="390.80" y1="2233.63" x2="3859.02" y2="2233.63" style="stroke:#000000;stroke-width:5.76"/>
	<line x1="454.16" y1="2233.63" x2="454.16" y2="2273.73" style="stroke:#000000;stroke-width:5.76"/>
	<text x="454.16" y="2363.59" style="font-family:'Helvetica';font-size:99.99px;fill:#000000" text-anchor="middle">.5</text>
	<line x1="1122.41" y1="2233.63" x2="1122.41" y2="2273.73" style="stroke:#000000;stroke-width:5.76"/>
	<text x="1122.41" y="2363.59" style="font-family:'Helvetica';font-size:99.99px;fill:#000000" text-anchor="middle">1</text>
	<line x1="1790.79" y1="2233.63" x2="1790.79" y2="2273.73" style="stroke:#000000;stroke-width:5.76"/>
	<text x="1790.79" y="2363.59" style="font-family:'Helvetica';font-size:99.99px;fill:#000000" text-anchor="middle">1.5</text>
	<line x1="2459.04" y1="2233.63" x2="2459.04" y2="2273.73" style="stroke:#000000;stroke-width:5.76"/>
	<text x="2459.04" y="2363.59" style="font-family:'Helvetica';font-size:99.99px;fill:#000000" text-anchor="middle">2</text>
	<line x1="3127.41" y1="2233.63" x2="3127.41" y2="2273.73" style="stroke:#000000;stroke-width:5.76"/>
	<text x="3127.41" y="2363.59" style="font-family:'Helvetica';font-size:99.99px;fill:#000000" text-anchor="middle">2.5</text>
	<line x1="3795.66" y1="2233.63" x2="3795.66" y2="2273.73" style="stroke:#000000;stroke-width:5.76"/>
	<text x="3795.66" y="2363.59" style="font-family:'Helvetica';font-size:99.99px;fill:#000000" text-anchor="middle">3</text>
	<text x="2124.91" y="2473.60" style="font-family:'Helvetica';font-size:99.99px;fill:#000000" text-anchor="middle">Median of exposure in quantile</text>
	<rect x="729.26" y="2558.24" width="2791.43" height="186.37" style="fill:#FFFFFF"/>
	<rect x="732.14" y="2561.12" width="2785.67" height="180.61" style="fill:none;stroke:#000000;stroke-width:5.76"/>
	<line x1="772.45" y1="2651.43" x2="1146.79" y2="2651.43" style="stroke:#000000;stroke-width:12.96"/>
	<line x1="2430.45" y1="2651.43" x2="2804.79" y2="2651.43" style="stroke:#A0A0A0;stroke-width:12.96"/>
	<text x="1206.81" y="2686.46" style="font-family:'Helvetica';font-size:99.99px;fill:#000000">Estimated causal effect</text>
	<text x="2864.81" y="2686.46" style="font-family:'Helvetica';font-size:99.99px;fill:#000000">95% CI limits</text>
</svg>
